<?xml version="1.0" encoding="UTF-8"?>
<svg width="490px" height="81px" viewBox="0 0 490 81" version="1.1" xmlns="http://www.w3.org/2000/svg" xmlns:xlink="http://www.w3.org/1999/xlink">
    <!-- Generator: Sketch 63.1 (92452) - https://sketch.com -->
    <title>Artboard</title>
    <desc>Created with Sketch.</desc>
    <g id="Artboard" stroke="none" stroke-width="1" fill="none" fill-rule="evenodd">
        <g id="Group-2" transform="translate(0.000000, 1.000000)">
            <g id="jp">
                <g transform="translate(0.000000, 20.000000)">
                    <line x1="267" y1="28.5" x2="283" y2="28.5" id="Path" stroke="#000000" stroke-width="9.594" stroke-linejoin="round"></line>
                    <path d="M39,1.00061937 L39,6.80291519 L34.8742138,6.80291519 C33.2081761,6.80291519 32.2786164,7.33309935 32.2786164,8.46531505 L32.2786164,30.98018 C32.2786164,40.4070526 27.7427673,46 16.7654088,46 C7.6490566,46 0,42.3803782 0,33.8838054 C0,29.5339417 2.32767296,25.6492278 7.11132075,25.6492278 C10.7081761,25.6492278 13.6446541,27.6869684 13.6446541,31.4515237 C13.6446541,35.1974977 10.9805031,36.8524651 8.64716981,36.8524651 C7.58616352,36.8524651 6.58553459,36.6524073 5.92201258,36.1216038 L5.79371069,36.1216038 C6.85534591,39.0871666 9.84339623,39.8737716 12.7685535,39.8737716 C17.9622642,39.8737716 19.7572327,36.1934512 19.7572327,30.98018 L19.7572327,8.64617227 C19.7572327,7.40370799 18.8339623,6.80229581 17.172956,6.80229581 L13.0421384,6.80229581 L13.0421384,1 L39,1" id="Path" fill="#000000" fill-rule="nonzero"></path>
                    <path d="M71,14.0006221 L71,19.2993503 L69.7391312,19.2993503 C67.140159,19.2993503 66.5448882,20.8159386 65.8208933,22.5969035 L56.9747178,44.0443738 C53.5343292,52.3737904 50.0713353,59 42.9626221,59 C37.3866682,59 33,56.5440973 33,50.4597042 C33,46.9550041 35.2630335,44.8368814 38.721004,44.8368814 C41.3011385,44.8368814 43.6985475,46.4225187 43.6985475,49.1975394 C43.6985475,51.9837573 42.4979593,53.4393835 40.1771568,53.4393835 C39.5730952,53.4393835 38.8459606,53.3740669 38.3172497,53.1725187 C38.5125337,54.7643766 40.8458945,54.8937656 42.0948329,54.8937656 C46.1593767,54.8937656 47.8177206,50.6581421 49.2770131,46.9550041 L38.7850521,23.3887891 C37.786655,20.9608792 37.1147777,19.2987282 35.397409,19.2987282 L33.2624717,19.2987282 L33.2624717,14 L53.3968141,14 L53.3968141,19.2987282 L51.2078755,19.2987282 C49.7416759,19.2987282 49.0120297,19.4903235 49.0120297,20.5546724 C49.0120297,20.9602571 49.1489168,21.3415814 49.4057372,21.9431158 L54.8548507,34.1884158 L54.9892262,34.1884158 L59.7005304,22.134089 C59.9692814,21.4778131 60.1005172,20.8153166 60.1005172,20.3512579 C60.1005172,19.7559442 59.5686667,19.2987282 58.1068625,19.2987282 L56.1898144,19.2987282 L56.1898144,14 L71,14" id="Path" fill="#000000" fill-rule="nonzero"></path>
                    <path d="M84.1441683,36.8617308 C84.1441683,38.7236103 84.5895586,39.7155342 86.4775459,39.7155342 L89.1523485,39.7155342 L89.1523485,45.005587 L68.191321,45.005587 L68.191321,39.7155342 L70.9946962,39.7155342 C72.8796076,39.7155342 73.3373015,38.7236103 73.3373015,36.8617308 L73.3373015,9.26708243 C73.3373015,7.41453714 72.8796076,6.41763504 70.9946962,6.41763504 L68,6.41763504 L68,1.11451414 L84.1447834,1.11451414 L84.1447834,36.8617308 M106.464128,36.8617308 C106.464128,38.7236103 106.91567,39.7155342 108.803043,39.7155342 L111.477845,39.7155342 L111.477845,45.005587 L90.5198936,45.005587 L90.5198936,39.7155342 L93.3165018,39.7155342 C95.1983374,39.7155342 95.6621831,38.7236103 95.6621831,36.8617308 L95.6621831,9.26708243 C95.6621831,7.41453714 95.1983374,6.41763504 93.3165018,6.41763504 L90.3218056,6.41763504 L90.3218056,1.11451414 L106.464128,1.11451414 L106.464128,36.8617308 M132.212486,34.2232383 C132.212486,36.9949 131.237426,39.7796296 127.529121,39.7796296 C125.499027,39.7796296 123.81651,38.7858389 123.81651,36.0726722 C123.81651,31.9686963 129.086142,31.565455 132.212486,29.7197549 L132.212486,34.2232383 Z M146.397922,33.6837164 L146.397922,35.2176513 C146.397922,38.9221196 145.680007,39.7790073 144.257711,39.7790073 C143.216826,39.7790073 143.018738,39.0453322 143.018738,37.134292 L143.018738,24.8155193 C143.018738,15.1576413 138.195727,13.0393799 129.274387,13.0393799 C124.010907,13.0393799 114.179716,14.0985106 114.179716,21.4333951 C114.179716,24.5485586 116.79177,26.3394976 119.848599,26.3394976 C122.448965,26.3394976 124.9792,25.0818577 124.9792,22.1639588 C124.9792,19.8602562 122.843295,18.7949027 120.890099,18.5310534 L120.890099,18.4009957 C122.44835,17.4003598 124.273589,17.1458449 126.015779,17.1458449 C129.612121,17.1458449 132.340444,18.5957712 132.340444,22.9685746 C132.340444,31.6357733 113.005952,24.2946659 113.005952,36.7901679 C113.005952,43.5544162 116.84406,45.9987554 123.03154,45.9987554 C127.270746,45.9987554 130.389708,44.5488292 133.057744,41.2998742 C134.090016,44.4716657 137.153612,45.9987554 140.279957,45.9987554 C147.5034,45.9987554 149.968426,43.9452118 149.968426,37.3290675 L149.968426,33.6830941 L146.397922,33.6830941 M165.932347,14.02757 L165.932347,19.1172468 L166.063995,19.1172468 C168.917815,14.8863246 171.981412,13.0400022 177.259041,13.0400022 C184.670114,13.0400022 187.141907,17.4009821 187.141907,24.2959105 L187.141907,36.8617308 C187.141907,38.7236103 187.590373,39.7155342 189.484512,39.7155342 L191.964918,39.7155342 L191.964918,45.005587 L172.630426,45.005587 L172.630426,39.7155342 L174.003508,39.7155342 C175.882268,39.7155342 176.336886,38.7236103 176.336886,36.8617308 L176.336886,25.4788761 C176.336886,21.6505729 175.759847,18.9927896 171.337933,18.9927896 C168.334009,18.9927896 166.452789,21.8459707 166.452789,24.6182546 L166.452789,36.8617308 C166.452789,38.7236103 166.898795,39.7155342 168.786167,39.7155342 L170.350569,39.7155342 L170.350569,45.005587 L150.693724,45.005587 L150.693724,39.7155342 L153.299011,39.7155342 C155.190074,39.7155342 155.645307,38.7236103 155.645307,36.8617308 L155.645307,22.1645811 C155.645307,20.3182587 155.190689,19.3275794 153.299011,19.3275794 L150.627899,19.3275794 L150.627899,14.0269477 L165.932347,14.0269477 M208.695968,39.8449696 C205.033802,39.8449696 203.553063,35.7441052 203.553063,29.2517958 C203.553063,22.7688208 205.033802,18.7326741 208.695968,18.7326741 C212.34337,18.7326741 213.841949,22.7688208 213.841949,29.2517958 C213.841949,35.7441052 212.342755,39.8449696 208.695968,39.8449696 M214.610308,45.005587 L229.776341,45.005587 L229.776341,39.7155342 L227.234417,39.7155342 C225.34889,39.7155342 224.894887,38.7236103 224.894887,36.8617308 L224.894887,0 L209.068767,0 L209.068767,5.29316432 L211.736803,5.29316432 C213.637094,5.29316432 214.083099,6.29317785 214.083099,8.13265513 L214.083099,17.3449764 L213.957602,17.4719227 C212.586981,14.5602467 208.937734,13.0400022 205.033186,13.0400022 C195.206917,13.0400022 192.265741,21.4340174 192.265741,29.5243571 C192.265741,37.5904276 195.206917,46 205.033186,46 C209.203492,46 212.586981,44.2127947 214.474969,40.1704252 L214.610308,40.1704252 L214.610308,45.005587 M236.73095,33.8859593 C237.24155,37.7939151 241.929836,40.7055911 245.576623,40.7055911 C247.468917,40.7055911 251.113858,40.7055911 251.113858,37.7939151 C251.113858,32.231301 230.934109,35.6016017 230.934109,23.4900502 C230.934109,15.5546597 239.005271,13.0400022 245.51572,13.0400022 C248.950885,13.0400022 252.601979,14.0991329 255.607748,15.8085524 L256.379184,13.8265716 L260.871843,13.8265716 L260.871843,23.7563886 L255.926411,23.7563886 C255.271244,21.8459707 254.104863,20.5839748 252.601979,19.6555241 C251.113858,18.7320518 249.349522,18.3300551 247.468917,18.3300551 C245.966032,18.3300551 242.45397,18.6642226 242.45397,20.9193869 C242.45397,26.6089474 262.632488,22.3095737 262.632488,35.217029 C262.632488,43.2165149 255.407199,45.9987554 248.700507,45.9987554 C244.668002,45.9987554 240.625655,45.4007386 237.242165,43.0217394 L236.275102,45.2588574 L231.393649,45.2588574 L231.393649,33.8859593 L236.73095,33.8859593 M301.557386,6.94408896 L308.190872,6.94408896 C311.837044,6.94408896 314.773298,9.52719795 314.773298,13.6342853 C314.773298,17.7388834 311.714623,20.2504295 307.149372,20.2504295 L301.556771,20.2504295 L301.556771,6.94408896 L301.557386,6.94408896 Z M289.315305,36.5244518 C289.315305,38.1878221 288.402993,39.1697894 286.782609,39.1697894 L282.798703,39.1697894 L282.798703,45.005587 L308.45663,45.005587 L308.45663,39.1697894 L304.086391,39.1697894 C302.463546,39.1697894 301.557386,38.1878221 301.557386,36.5244518 L301.557386,26.0737815 L308.722388,26.0737815 C320.682717,26.0737815 327,22.6263173 327,13.5658338 C327,4.49974973 320.682717,1.11389186 310.018572,1.11389186 L282.744567,1.11389186 L282.744567,6.94346667 L286.783224,6.94346667 C288.403608,6.94346667 289.31592,7.93787963 289.31592,9.59502712 L289.31592,36.5244518" id="Shape" fill="#000000" fill-rule="nonzero"></path>
                    <path d="M339.812855,18.5048697 C343.726059,18.5048697 345.10295,21.8564261 345.10295,29.6280795 C345.10295,37.3848921 343.726059,40.7389221 339.812855,40.7389221 C335.900267,40.7389221 334.544322,37.3848921 334.544322,29.6280795 C334.544322,21.8564261 335.900883,18.5048697 339.812855,18.5048697 M339.812855,13.2475019 C330.110548,13.2475019 323,19.0991216 323,29.6280795 C323,40.1421966 330.110548,46 339.812855,46 C349.536724,46 356.630023,40.1421966 356.630023,29.6280795 C356.630023,19.0991216 349.536724,13.2475019 339.812855,13.2475019 M364.001164,33.9622233 C364.535903,37.8455766 369.214868,40.7389221 372.869943,40.7389221 C374.7711,40.7389221 378.414471,40.7389221 378.414471,37.8455766 C378.414471,32.3179819 358.20282,35.6670649 358.20282,23.6317616 C358.20282,15.7463284 366.279964,13.2475019 372.802793,13.2475019 C376.258265,13.2475019 379.913341,14.2999649 382.900609,15.9986227 L383.691628,14.0291195 L388.183928,14.0291195 L388.183928,23.8964233 L383.228968,23.8964233 C382.578411,21.9980325 381.400507,20.7439814 379.913341,19.8213759 C378.413854,18.9037172 376.650695,18.5042513 374.770484,18.5042513 C373.256212,18.5042513 369.742214,18.8363151 369.742214,21.077282 C369.742214,26.7310238 389.944007,22.4587169 389.944007,35.2849132 C389.944007,43.2340384 382.713943,45.9987633 375.997057,45.9987633 C371.961873,45.9987633 367.920528,45.4045113 364.535903,43.0404891 L363.547745,45.2635233 L358.653775,45.2635233 L358.653775,33.9622233 L364.001164,33.9622233 M404.662879,2 L404.662879,14.2282341 L412.66548,14.2282341 L412.66548,19.4954957 L404.662879,19.4954957 L404.662879,37.5809149 C404.662879,38.9666784 405.373811,40.0803598 406.870833,40.0803598 C409.351085,40.0803598 410.004723,38.3074977 410.004723,35.2855316 L410.004723,30.142562 L415.223972,30.142562 L415.223972,35.9991287 C415.223972,42.4419085 412.080841,46 404.27661,46 C397.551715,46 393.844274,42.709662 393.844274,35.9991287 L393.844274,19.4954957 L389.477651,19.4954957 L389.477651,14.2282341 C395.987542,14.2282341 397.680471,7.46081091 398.19796,2 L404.662879,2 M427.645561,25.8665449 L427.645561,24.1709788 C427.645561,20.807055 429.40256,18.5048697 432.586351,18.5048697 C435.720241,18.5048697 437.48032,20.807055 437.48032,24.1709788 L437.48032,25.8665449 L427.645561,25.8665449 L427.645561,25.8665449 Z M449,31.1325697 C449,20.8806409 443.079677,13.2468836 432.462523,13.2468836 C423.147101,13.2468836 415.980491,19.4206732 415.980491,29.6274612 C415.980491,39.7544797 421.306934,45.9993816 432.462523,45.9993816 C439.491136,45.9993816 447.123486,42.5791863 448.168937,34.6875694 L440.607434,34.6875694 C440.024642,38.5653573 436.310425,40.3419296 434.032856,40.3419296 C428.550551,40.3419296 427.516805,35.734467 427.516805,31.1325697 L449,31.1325697" id="Shape" fill="#000000" fill-rule="nonzero"></path>
                    <path d="M463.52999,13.9886311 L463.52999,19.0837876 L463.670671,19.0837876 C466.573713,14.8483102 469.671832,13 475.030235,13 C482.593274,13 485.088026,17.3656751 485.088026,24.2680268 L485.088026,36.8473758 C485.088026,38.7112599 485.561967,39.7042517 487.484614,39.7042517 L490,39.7042517 L490,45 L470.349605,45 L470.349605,39.7042517 L471.722031,39.7042517 C473.654057,39.7042517 474.114868,38.7112599 474.114868,36.8473758 L474.114868,25.452266 C474.114868,21.6198411 473.529632,18.9591964 469.023447,18.9591964 C465.972846,18.9591964 464.056451,21.8154493 464.056451,24.590718 L464.056451,36.8473758 C464.056451,38.7112599 464.522889,39.7042517 466.439909,39.7042517 L468.036175,39.7042517 L468.036175,45 L448.059399,45 L448.059399,39.7042517 L450.704212,39.7042517 C452.612478,39.7042517 453.082667,38.7112599 453.082667,36.8473758 L453.082667,22.1344027 C453.082667,20.2860925 452.612478,19.2943467 450.704212,19.2943467 L448,19.2943467 L448,13.9880081 L463.52999,13.9880081" id="Path" fill="#000000" fill-rule="nonzero"></path>
                </g>
            </g>
        </g>
    </g>
</svg>