<svg xmlns="http://www.w3.org/2000/svg" xmlns:xlink="http://www.w3.org/1999/xlink" width="400" height="320" viewBox="0 0 400 320">
    <defs>
        <path id="prefix__a" d="M0 0H400V320H0z"/>
    </defs>
    <g fill="none" fill-rule="evenodd">
        <mask id="prefix__b" fill="#fff">
            <use xlink:href="#prefix__a"/>
        </mask>
        <rect width="112" height="112" x="156" y="22" fill="#FBF2E6" mask="url(#prefix__b)" rx="56"/>
        <g mask="url(#prefix__b)">
            <g fill-rule="nonzero">
                <path fill="#1D9A6C" d="M127.454 89.99c-3.231 2.343-2.717 6.951-1.744 10.3 1.432 4.93 4.285 9.494 7.539 13.428 5.773 6.979 15.574 14.815 24.608 8.688 8.045-5.456 13.12-16.467 14.871-25.741.542-2.867 1.263-7.137-1.281-9.292-3.76-3.185-10.394-2.606-14.934-2.195-2.99.27-5.874 1.186-8.829.756-6.864-1-14.504-.095-20.23 4.056" transform="translate(50 53)"/>
                <g fill="#032120">
                    <path d="M266.635 126.512c-6.545 8.303-17.672 9.615-27.555 9.533-5.934-.049-11.88-.496-17.698-1.705-3.137-.652-6.252-1.516-9.283-2.554-2.002-.685-4.982-1.028-5.834-3.173-2.247-5.66-.593-12.757.332-18.501.47-2.922.824-5.861 1.282-8.785.293-1.871.433-3.941 1.217-5.691.918-2.05 2.078-1.641 4.02-1.075 2.674.781 5.421 1.106 8.171 1.526 6.713 1.025 12.57 3.091 18.67 6.021 6.031 2.897 11.883 5.756 17.263 9.784 2.726 2.04 5.075 4.256 7.263 6.858 1.69 2.01 4.214 5.147 2.152 7.762m-28.61 36.877c-.052.894-10.31-1.805-11.66-2.108-8.856-1.986-17.889-4.249-26.25-7.838-7.805-3.35-14.681-7.183-20.823-13.135-2.862-2.775-5.437-5.696-7.901-8.808-1.235-1.56-2.922-1.378-4.3-2.698-1.238-1.187-2.188-2.115-1.8-3.89 3.094.816 8.81 5.942 12.018 3.354 1.83-1.476-.707-3.018-1.878-3.872-2.202-1.608-4.084-3.592-5.834-5.674 3.005.583 5.801 1.708 8.416 3.274 1.162.696 5.144 3.22 6.07.814.571-1.481-2.129-3.342-2.97-4.16-2.068-2.012-4.3-4.36-5.397-7.065 2.714-.629 5.271 1.468 7.12 3.176 2.05 1.896 4.565 3.887 6.285 6.072.887 1.127 1.08 2.458 1.773 3.674.78 1.367 2.028 2.54 3.22 3.552 2.297 1.95 4.984 3.386 7.742 4.573 6.302 2.713 13.057 4.634 19.775 5.98 3.295.662 6.51.966 9.855 1.078 2.6.088 3.75.865 4.742 3.26 2.686 6.481 2.199 13.611 1.798 20.44m-77.142-49.384c-1.503 1.406-3.456 2.289-5.027 3.64-1.382 1.19-2.977 2.46-4.52 3.422-1.647 1.026-2.878.307-4.36-.623-1.742-1.09-3.743-1.531-5.536-2.507-6.2-3.374-13.786-11.643-12.628-19.235.49-3.217 2.154-6.383 5.175-7.843 2.744-1.326 6.732-2.062 9.667-.954 1.655.626 2.84 2.006 3.901 3.363 1.237 1.581 1.71 1.332 2.97-.194 2.255-2.729 5.972-5.123 9.647-5.065 1.826.029 3.64.414 5.285 1.172.223.103.347.414.571.519.275.13.727-.14.918-.019.481.305.962 1.258 1.24 1.741 1.115 1.94 3.122 5.744 1.1 7.377-.002 0 .09 2.21.062 2.461-.143 1.318-.599 2.406-1.186 3.61-1.762 3.621-4.364 6.409-7.279 9.135m2.997 30.632c-1.424.443-2.957-4.02-1.592-4.731 1.303-.68 2.881 4.33 1.592 4.731m-22.363-5.335c-.493 1.686-.701 3.598-1.907 4.97-1.104-1.31-1.213-3.727-.142-5.074.611-.768 2.589-1.738 2.05.104m45.562-29.532c-.008.043 1.714.866.874 1.767-1.148 1.229-.99-1.164-.874-1.767m7.113-13.736c-.02 1.704-3.627 1.292-3.602-.422.032-2.11 3.623-1.385 3.602.422m-4.306-14.244c.357-1.56 6.632-3.73 6.461-1.011-.085 1.363-7.219 4.329-6.461 1.011m-64.333 52.915c-.704.846-1.703 1.18-2.546 1.829-.885.68-1.516 1.563-2.289 2.361-2.12 2.193-4.674 3.995-6.962 6.01-4.206 3.702-8.235 7.683-12.9 10.823-8.334 5.611-17.999 8.68-27.593 11.368-.795.222-3.084 1.121-3.87.452-.849-.722-.418-3.262-.379-4.223.16-3.937.618-7.921.569-11.853-.02-1.615-.494-3.91.349-5.388.94-1.65 3.567-2.133 5.192-2.754 4.939-1.888 9.696-5.072 14.059-8.02 5.363-3.626 10.779-7.312 16.298-10.696 5.406-3.316 11.37-5.536 17.402-7.43.28.587-2.599 2.477-2.928 2.742-1.578 1.27-3.294 2.587-4.465 4.264-.83 1.187-1.68 3.873.61 3.942 1.11.033 2.75-1.04 3.757-1.388 1.662-.573 3.375-.976 5.114-1.238-1.495 1.646-6.562 4.603-5.64 7.34.894 2.656 6.068-.443 7.85-.443-.293.926-1.027 1.58-1.628 2.302m-61.124 7.414c-3.313 1.166-6.71 1.828-10.13 2.58-3.259.717-6.271 1.258-9.61.838-4.61-.58-9.71-2.489-10.295-7.727-.693-6.206 3.69-11.908 7.453-16.36 4.58-5.418 9.724-10.26 15.298-14.646 5.567-4.38 11.577-8.243 17.872-11.504 4.79-2.48 10.2-3.986 15.264-5.848.963-.354 3.628-1.598 4.53-.567.728.834-.263 2.223-.595 2.998-.648 1.51-.737 3.029-.904 4.65-.747 7.238-1.646 14.474-2.06 21.744-.114 2.026-.317 4.145-.199 6.173.065 1.122.65 2.553.26 3.649-.748 2.107-4.173 3.502-5.989 4.444-3.25 1.685-6.692 2.943-9.975 4.555-3.606 1.77-7.117 3.683-10.92 5.021m45.952-47.032c.91-.125 2.272-.373 3.083.216 1.057.769.78 1.838-.196 2.395-.772.44-2.577.561-3.339.161-1.298-.68-1.078-2.562.452-2.772m5.037 16.76c-.735 1.225-3.42 2.028-3.187-.257.201-1.956 4.54-1.996 3.187.258m-.997-34.484c1.182.458 3.326.85 3.676 2.37.326 1.414-1.014 1.32-1.981.93-.796-.319-4.34-3.324-1.695-3.3m185.11 53.96c-.69-2.685-.164-5.658-.545-8.408-.369-2.666-1.034-5.116-1.988-7.629-2.112-5.562-4.531-10.57-7.955-15.452-6.448-9.193-13.928-17.291-22.962-24.006-8.918-6.63-18.793-12.017-29.254-15.793-11.092-4.004-22.258-5.397-33.956-6.165-3.493-.229-6.983-.5-10.457-.942-2.539-.322-5.721-.72-8.231.058-1.577.489-2.458 1.864-.74 2.766 1.218.64 2.812.717 4.157.887-1.625 5.162-4.269 10.342-8.459 13.897-4.09 3.47-9.564 4.66-14.726 5.54-2.8.477-5.934.846-8.777.64-1.798-.13-3.2-.962-3.925.89-.504 1.286-.742 2.697-1.405.755-.785-2.296-1.17-2.281-3.611-2.933-4.992-1.334-10.715-2.55-15.07-5.435-4.518-2.992-6.09-7.833-8.612-12.34-.624-1.114-2.506-3.369-1.544-4.646.88-1.167 3.738-1.05 5.048-1.172 1.381-.129 2.772-.134 4.158-.188.803-.031 2.419.298 2.096-.902-.488-1.808-5.711-1.576-7.008-1.605-2.412-.054-4.858.001-7.258.267-11.9 1.316-23.906 3.75-35.421 6.994-22.341 6.295-43.979 17.896-60.283 34.608-15.651 16.041-20.61 42.737-10.988 63.22 5 10.645 15.851 15.017 26.37 18.55 5.548 1.862 11.424 3.32 17.322 2.968 2.83-.17 5.515-.931 8.276-1.505 1.204-.251 2.574-.65 3.81-.55.936.077 1.835.936 2.713.48.624-.325.895-1.255 1.656-1.651.914-.475 2.023-.647 3.01-.887 2.745-.667 5.403-1.748 8.086-2.634 2.775-.918 5.393-2.098 8.055-3.292 1.344-.603 4.455-3.055 5.33-1.262.4.818.23 2.395.327 3.253.17 1.5.37 2.997.59 4.491.482 3.29 1.059 6.565 1.65 9.836 1.068 5.903 2.444 11.554 4.745 17.106 1.837 4.434 3.45 9.459 6.86 12.985 1.49 1.54 3.521 2.233 5.657 1.749 2.429-.55 3.638-2.757 5.113-4.541 3.245-3.927 8.601-6.935 13.548-8.018 6.057-1.326 11.958.614 17.74 2.262 6.116 1.744 12.342 3.406 18.345 5.502 5.593 1.954 11.634 4.839 17.7 4.588 5.29-.219 10.232-4.525 14.047-7.807 3.832-3.296 8.624-8.122 14.134-7.734 2.736.193 5.23 1.513 7.894 2.05 2.926.588 6.039.672 9.014.892 3.693.272 11.956-.69 13.322-5.134.203-.66.204-2.016-.667-2.28-.8-.242-1.21.694-1.968.65-1.543-.086-2.749-2.777-3.597-3.819-3.421-4.205-8.115-7.342-11.954-11.141-4.335-4.29-8.036-9.487-11.303-14.612 1.477-.384 3.07.253 4.5.556 1.736.368 3.428.813 5.14 1.284 1.886.52 3.8.876 5.714 1.272 1.428.295 3.324.384 4.613 1.1 1.126.626 1.754 1.298 3.151 1.479 1.42.184 2.88.029 4.307.02 3.86-.027 7.713-.098 11.556-.507 13.578-1.442 27.97-7.185 36.135-18.583 2.22-3.1 4.01-6.534 5.14-10.179.882-2.845 2.404-6.855 1.636-9.842" transform="translate(50 53)"/>
                    <path d="M172.185.003c3.569.05 6.913 1.109 10.238 2.311 2.924 1.058 6.04 2.037 8.405 4.148 4.252 3.797 5.36 10.085 6.056 15.465.868 6.713-2.02 12.345-4.452 18.418-2.274 5.68-6.447 10.282-11.407 13.788-2.6 1.837-5.472 2.945-8.477 3.917-3.052.988-6.009 2.31-9.274 2.305-4.96-.007-11.31-2.363-13.422-7.25-.962-2.224-.026-2.623 1.9-1.414 2.792 1.754 5.483 3.647 8.746 4.425 6.328 1.51 13.907-.829 19.456-3.915 5.547-3.085 9.27-7.719 11.76-13.49 2.51-5.821 3.486-11.557 2.518-17.834-.82-5.318-2.453-10.176-7.246-13.063-10.347-6.232-24.287-5.73-33.488 2.369-1.262 1.11-2.51 2.19-3.81 3.25-.826.674-1.8 1.483-1.68 2.648.103.998 2.231 4.846-.331 3.664-2.077-.958-3.206-2.832-5.722-3.064-2.678-.247-5.872 1.81-6.673 4.4-.764 2.47.598 5.85 2.732 7.267 1.322.878 2.776.742 4.277.707.745-.018 2.818-.26 3.311.528.872 1.392-2.205 2.856-3.197 3.164-2.417.75-5.273-.132-6.662-2.29-1.412-2.192-2.378-4.73-2.573-7.342-.186-2.503.382-5.037 1.859-7.092 1.57-2.186 4.772-4.636 7.642-3.877 1.246.33 2.247 1.617 3.47 1.861.77.154.446.264 1.085-.308.406-.362.79-1.032 1.164-1.462 2.154-2.473 4.284-5.112 6.92-7.092 4.728-3.549 11.01-5.225 16.875-5.142zm-13.072 49.031c.56-1.31 1.586 1.027 1.89 1.418.601.774 2.015 1.375 1.954 2.516-.1 1.883-2.668 1.534-3.523.551-.974-1.118-.873-3.19-.32-4.485zm18.235-8.916c1.385 2.158-.303 4.487-1.398 6.397-1.046 1.826-2.019 3.89-3.237 5.607-2.023 2.85-6.424-.233-6.555-3.162-.1-2.243 1.489-1.267 2.508-.43 1.05.864 1.547 1.078 2.647.136 2.213-1.896 3.207-5.067 4.737-7.467.304-.476.853-.762 1.298-1.08zm3.947.694c.357 1.044-.392 3.809 1.69 3.532 1.151-.152 1.397-1.803 2.002-2.524 2.034-2.422 1.41 2.16.878 3.306-1.171 2.527-4.45 4.269-6.077 1.062-.604-1.192-.602-2.698-.294-3.98.167-.698 1.142-3.323 1.801-1.396zm-18.568-4.942c-.185 1.218-1.329 3.643.068 4.514 1.23.767 3.37-.898 4.318-1.593.983-.723 3.213-2.795 3.3-.216.045 1.315-1.271 2.892-2.21 3.65-2.004 1.614-6.166 3.063-7.643.023-.804-1.656-.364-4.014.167-5.682.431-1.353 2.445-3.637 2-.696zm26.277-6.666c.815.947 2.747 3.068 1.697 4.416-1.229 1.576-3.225-1.315-4.012-2.12-.709-.725-2.2-2.79-1.564-3.885 1.052-1.812 3.163.758 3.879 1.589zm-12.815-4.077c2.665 1.736-.839 2.986-2.357 3.142-1.837.187-4.186.312-5.873-.59-2.392-1.278-1.595-3.208.723-3.67 2.377-.473 5.439-.23 7.507 1.118zM141.543 19.6c1.96.382 4.198.878 4.866 3.015.69 2.208-.301 2.94-2.303 2.443-1.852-.46-4.618-.923-5.665-2.732-1.252-2.161 1.285-3.079 3.102-2.726zM33.709 67.047c-.658 2.124-3.987 3.533-5.647 4.824-5.806 4.517-11.48 9.22-16.729 14.375-2.724 2.676-4.787 5.913-7.15 8.889-.576.726-1.597 2.353-2.727 2.2-1.24-.167-1.492-2.304-1.452-3.237.135-3.181 3.041-6.254 5.114-8.445 2.33-2.463 4.823-4.864 7.368-7.107 2.803-2.47 5.843-4.592 8.942-6.67 3.044-2.041 5.961-4.399 9.126-6.247 1.49-.87 3.966-1.202 3.155 1.418zm202.962-20.17c2.423.076 4.788.871 7.074 1.609 5.028 1.624 9.816 3.876 14.538 6.23 8.278 4.126 16.245 9.119 23.548 14.795 1.526 1.186 3.091 2.148 4.75 3.118 1.063.621 2.578 1.38 2.987 2.646 1.04 3.22-4.208-.012-4.952-.474l-1.048-.65c-15.537-9.63-31.057-18.985-48.631-24.508-.937-.294-1.228-1.13-.737-1.957.533-.897 1.57-.838 2.47-.81zM33 53.615c-.112.98-1.222 1.203-1.97 1.518-2.795 1.173-5.659 2.174-8.445 3.367-5.172 2.215-9.922 5.428-15.32 7.109-1.234.384-1.416-.86-1.085-1.708.368-.946 1.472-1.61 2.271-2.156 2.305-1.58 4.92-2.715 7.48-3.812 2.537-1.088 5.15-1.911 7.752-2.823 2.418-.848 5.225-2.427 7.822-2.543l.114-.006c.826-.041 1.513-.097 1.382 1.054zm208.08-14.892c-2.47-.695-.136-2.26 1.333-2.15 1.638.123 3.221.897 4.775 1.363 4.75 1.426 9.152 2.986 13.59 5.2.661.33 3.577 1.897 1.648 2.59-1.336.481-4.458-1.58-5.605-2.076-5.042-2.174-10.46-3.442-15.74-4.927z" transform="translate(50 53)"/>
                    <path d="M142.583 43.786c.309-.906 4.129-10.812 2.633-11.11-1.583-.317-3.7 5.43-4.16 6.468-1.697 3.835-2.701 7.95-3.489 12.064-.548 2.864-1.03 5.799-.838 8.727.148 2.25 1.077 2.591 2.61 3.97 0-6.835 1.038-13.649 3.244-20.119" transform="translate(50 53)"/>
                </g>
            </g>
        </g>
    </g>
</svg>
