<svg xmlns="http://www.w3.org/2000/svg" xmlns:xlink="http://www.w3.org/1999/xlink" width="400" height="320" viewBox="0 0 400 320">
    <defs>
        <path id="prefix__a" d="M0 0H400V320H0z"/>
    </defs>
    <g fill="none" fill-rule="evenodd">
        <mask id="prefix__b" fill="#fff">
            <use xlink:href="#prefix__a"/>
        </mask>
        <rect width="128" height="128" x="83" y="22" fill="#FBF2E6" mask="url(#prefix__b)" rx="64"/>
        <g mask="url(#prefix__b)">
            <g fill-rule="nonzero">
                <path fill="#1D9A6C" d="M135.665 93.962c.937.13 3.584 1.254 4.032 2.08-.611.197-1.058.632-1.588.969-.612.387-1.205.485-1.856.764-1.58.677-3.092 1.863-4.562 2.757-3.18 1.931-6.205 4.055-9.159 6.313-2.506 1.916-4.755 4.167-7.135 6.136-1.618 1.339-5.954 5.258-4.085 7.444 1.304-1.104 2.623-2.188 3.946-3.27.752-.613 1.943-2.171 2.913-2.225-1.155 1.453-2.395 2.822-3.633 4.204 1.733.217 3.463-2.184 4.662-3.244.765-.676 1.66-.926 2.5-1.53.752-.54 1.206-1.241 2.05-1.666 1.724-.868 3.226-2.16 4.736-3.282.665-.494 1.255-1.098 1.818-1.562.36-.297 1.774-1.541 2.105-1.621l.258.543c.386-.832.625-.363 1.247-.828.337-.253.165-.634.338-.787.262-.232 1.206-.71 1.564-.937.732-.464.446-.757 1.35-.342-.194-.545-.017-.691.53-.44l-.077-1.18c2.473 0 4.4-1.011 6.464-2.403.778-.525.76-.914 1.638-.455.482.252.875.965 1.178 1.38.695.948 1.043 1.615 1.27 2.76-.296-.299-.523-.318-.679-.057.23.348.677.77.65 1.19-.034.512-.266-.06-.396.264-.137.344-.564.69-.62 1.06-.11.726.487.72.008 1.538-.41-.37-.514-.4-.987-.115l.442.782c-.983 0 .112 1.098-.167 1.832-.439 1.152-2.016 1.28-1.882 2.776l.709-1.114c-.05.754-.325 1.012-.583 1.633-.149.358-.25 1.04-.53 1.33l-.698-1.12c.168 1.533-.064 2.633-.966 3.938-.276.4-.818.691-1.022 1.07-.242.449.09 1.068-.168 1.45-.208.309-.572.335-.875.494-.26-.184-.474-.14-.638.133-.116.148-.184.314-.204.5l.199.253c-.244.56-.498.613-.763.161-.484.259-.584.384-.875.984-1.239.213-2.635 1.344-3.798 1.96-1.483.785-2.791 1.242-4.317 1.746-.593.196-.968.643-1.493.875-.57.252-1.204.103-1.655.3-.564.248-.759.785-1.5.892-.756.108-1.552-.137-2.206-.508.594 1.08.676 1.02-.407 1.617-.002-.006-.334-1.465-.64-1.055-.23.306.288.975 0 1.358-.179.238-.851.379-1.088.491l-.466-.07-.705 1.04-1.884.224c.286-.859.322-.826-.49-1.225l.369 1.266c-1.06.143-2.228.315-3.16.25-.177-.013-.244-.257-.527-.233-.231.02-.787.257-.397.42-1.853.173-3.625.009-5.48.032-.816.01-1.669.197-2.48.12-.85-.079-1.702-.387-2.585-.452-1.844-.134-3.896-.135-5.702-.507-1.054-.217-1.144-.203-.359-1.002.414-.421.873-.79 1.323-1.168 2.548-2.14 5.096-4.467 7.106-7.136 2.056-2.732 3.039-6.072 4.522-9.12 2.764-5.684 4.451-13.428 11.01-15.794 1.367-.493 2.868-.57 4.271-1.053 1.661-.573 3.357-.856 5.078-1.216 1.484-.31 3.691-.823 5.2-.612zm-16.833 34.583c-.162.42-.523.825.313.873l-.313-.873zm76.33-39.023l.078.007c1.39.113 2.744.334 4.197.51.342.042 1.084-.14 1.369-.076.634.14 1.144.589 1.802.717 1.216.237 2.485.469 3.71.857 2.994.95 5.922 2.247 8.722 3.664 5.959 3.015 11.381 6.914 17.01 10.492 3.044 1.936 5.668 3.755 8.057 6.484.894 1.023 1.785 1.715 2.285 2.895.648 1.528 1.386 2.991 2.141 4.468-1.391.308-2.246-.363-3.543-.658-1.235-.28-2.606-.366-3.866-.591-2.7-.482-5.41-.884-8.127-1.231-2.813-.359-5.563-1.097-8.371-1.487-2.292-.318-4.658-.699-6.78-1.388-1.045-.339-2.19-.454-3.263-.676-1.396-.29-2.72-.904-4.11-1.227-2.257-.525-4.418-1.03-6.707-1.592-1.013-.248-2.425-.486-3.36-.92-.679-.316-1.297-1.161-1.963-1.818-.954-.94-1.791-2.063-2.645-3.094-.753-.91-2.295-2.156-1.42-3.453-.996.12-.628.276-1.05-.584-.284-.581-.32-1.451-.457-2.075.593-.04.362-.31.3-.837-.258-.077-.375.077-.352.461-.998-3.158.859-5.63 3.216-7.52.538-.432 1.305-1.145 1.98-1.337.9-.255.417-.065 1.148.01zm-86.157 29.217l.602-.266c-.508-.253-.508-.253-.602.266zm116.098-35.185c2.648-.022 5.326.716 7.938 1.268 1.544.326 2.772 1.083 4.236 1.563.481.158.981.145 1.468.27.82.208 1.367.605 2.089 1.07-1.494.899 5.766 5.987 6.347 6.6 1.185 1.254 2.02 2.778 2.69 4.356.547 1.286 1.914 3.559.738 4.799l.658-.26c.138.126-.104 1.658-.143 1.906l.505.056c-.746 1.216-.684 1.4-2.112 1.1-.005.844.247 1.675.046 2.51-.074.31-.311.566-.341.846-.026.24.231.44.201.772-.164 1.826-1.216 3.796-1.82 5.52-2.012-4.379-3.481-9.196-6.41-13.044-1.421-1.866-3.084-3.415-4.718-5.085-1.62-1.655-3.047-3.2-5.004-4.447-1.563-.995-3.459-2.051-5.211-2.612-.956-.306-1.944-.323-2.919-.712-.928-.37-1.807-.667-2.775-.913-2.47-.63-4.904-1.413-7.364-2.052-.742-.193-1.427-.576-2.193-.781-1.182-.317-2.512-.246-3.587-.86 1.38-.714 2.797-.584 4.279-.788 1.552-.213 3.082-.461 4.637-.648 2.934-.352 5.822-.41 8.765-.434zm-1.176 25.439c.306.262.18.27.57-.174-.163-.267-.352-.209-.57.174zm.803-.143l.31.048c.117-.9-.113-.902-.31-.048zm-83.16-3.204c-.604.311-.82.558-.294 1.032l.295-1.032zm108.381-.843l.229.757c.336-.714.336-.714-.229-.757zm-45.48-4.008c-.164.32.014.54.14.877.374-.138-.003-.57-.14-.877zm24.111-2.657c1.302.495 3.86 1.997 4.313 3.395-.988-.34-1.616-1.109-2.525-1.65-.62-.37-2.032-.794-1.788-1.745zm-24.123.969c1.161.256 2.12 1.008 3.369.657-.132-.44-.629-.77-1.08-.815-.343-.034-.67.345-1.046.181-.346-.15-.139-.755-.631-.796-.414-.034-.69.422-.612.773zm-81.463-.604c.21-.11.419-.222.744-.395-.6-.304-.637.104-.744.395zm105.513-.451c-.625.042-1.153-.177-1.544-.642.626-.054 1.136.17 1.544.642zm-34.562-5.24l1.214-.616c-.892-.35-.947-.322-1.214.616zm.668-2.49l.229.649c.4-.423.341-.631-.229-.649zM205.882 4.86c.973 2.085 1.67 4.2 2.383 6.387h-.001l.206.395c1.92 3.727 3.237 7.43 4.509 11.431.54 1.7.892 3.453 1.425 5.2.302.99.647 1.981.891 2.987.22.91.065 1.648.092 2.574.025.848.365 1.368.557 2.132.253 1.017.139 2.293.134 3.344-.01 2.268-.344 4.538-.348 6.798-.005 2.045-.057 4.047-.166 6.092-.087 1.623-.266 4.49-1.67 5.524.349.283.824.446.687.954-.273 1.01-.974-.026-1.064.086-.468.573.45.451.432.891-.018.46-.4.865-.653 1.27-1.572 2.512-3.688 4.369-5.836 6.395-.44.415-.87.932-1.399 1.239-.265.154-.936.297-1.037.38-.525.433-.302.954-1 1.268-.537.241-1.664-.16-2.029.04l-.441.667c-.092.458-.256.562-.494.312-.225.163-1.14.622-1.567.966l.79.088-.89.137c-.277.134-.455.036-.536-.293-.472.022-.401.143-.413.57-.901-.005-.868-.268-1.589-.404-.302-.057-.753-.041-1.052-.122l.283-.613c-.623.454-1.221 1.025-1.334 1.827-.85.056-.178-1.389-1.084-.467-.229.233-.095.642-.244.88.2.408.094.612-.32.611l-1.098.348.668-.803c-.606-.2-1.429.204-1.028 1.035-.483.043-1.013.17-1.492.135-.524-.04-1.109.44-.645-.34l-.799.109-.795.108-.009.01c-.156.198-.266.384.09.48-.624.067-1.376.11-1.797.015-.246-.055-.287-.85-.722-.327l.702.519c-4.184 1.72-8.684 2.213-13.012 3.297.013-1.372.717-2.534 1.303-3.725.696-1.417 1.184-2.907 1.72-4.39 1.032-2.857 2.029-5.748 3.3-8.503.64-1.388 1.536-2.635 2.302-3.95.759-1.302 1.23-2.686 1.803-4.073 1.136-2.757 2.76-5.246 4.018-7.927 1.26-2.683 3.054-5.04 4.587-7.564 1.574-2.591 2.908-5.33 4.437-7.951 1.678-2.875 3.459-5.69 5.126-8.57.737-1.272 1.32-2.568 1.738-3.983.137-.464.373-.954.25-1.45-.307-1.234-.845-.51-1.498.028-.24-.602-.702-5.159-1.958-3.62-.247.304-.055.78-.23 1.08-.183.312-.526.364-.768.677-.424.545-.625 1.231-1.089 1.768-1.13 1.308-2.442 2.521-3.484 3.827-.355.445-.817.812-1.202 1.319-.549.725-.943 1.615-1.73 2.078.004-.527.145-.841-.592-.817.82 1.085.399 1.045-.297 1.841-.581.664-1.214 1.775-1.82 2.6-1.34 1.827-2.549 3.56-3.76 5.458-2.8 4.384-5.42 8.804-7.85 13.405-2.361 4.468-4.668 8.986-6.535 13.687-1.906 4.8-3.096 9.838-4.925 14.647 1.119-.283.921-1.302 1.302-2.185.23-.531.703-.945.905-1.47.19-.493 0-1.124.159-1.622-.001.003.53-.873.582-.988.193-.43.293-.928.463-1.375.448-1.183 1.024-2.32 1.743-3.365l.271.306.272.306c-.172-1.416-.952-1.642.352-2.868l-.296 1.863c.74-.282.438-.813.597-1.383 1.047.175-.42 1.033.917 1.035-.109.69-.043 1.063-.555 1.296-.187.085-.815-.01-1.016.057-.252.7.092 1.325.888 1.416-.32.99-.218 1.305-1.255 1.412-.127.33.066.507.579.529l-.227.487-.224.48.001-.008-.008.008.004.007.003-.007-.017.16c-.17 1.356-.994 2.77-1.515 4.032-.59 1.425-.941 2.898-1.423 4.36-.37 1.121-.437 2.81-1.001 3.793-.898 1.565-1.703-.612-2.111-1.494-1.285-2.782-2.496-5.59-3.704-8.406-.688-1.605-1.476-3.162-2.176-4.76-.255-.582-.54-1.183-.657-1.817l-.025-.156c.035.09.354-1.853-.17-.74l-.22-.873.603.051c-.523-1.064-.397-2.199-.494-3.339-.035-.414-.624-2.226.274-1.78 0-1.588-.209-3.23.322-4.749.64-1.83 1.974-3.453 3.071-5.027.588 1.272 1.15-.878 1.537-1.282-.07-.284.006-.409.226-.375l.546-.046c.24-.38.3-1.817.3-2.213 1.491.677 3.18-2.508 3.933-3.385 1.01-1.172 4.724-2.33 4.358-4.222.674.61.495-.005.774-.506.289-.522.78-.84 1.263-1.259.15-.13.5-.368.627-.452.193-.129.411.027.648-.198.605-.575.983-1.633 1.382-2.345.74.484 2.917-1.441 3.517-2.122.36-.408.444-.983.786-1.348.52-.556 1.011-.437 1.12-1.278.918.756.766-.986 1.343-1.53.237.042.475.083.712.126.217-.325.433-.65.646-.977.9-1.342 1.911-2.197 3.063-3.295.467-.445.802-1.02 1.259-1.46.486-.47 1.092-.663 1.615-1.09.458-.373 1.025-.964 1.353-1.454.25-.375.285-1.007.518-1.28l.317.761c1.37-1.508 2.244-2.965 3.666-4.414.261.76.128 1.222.897 1.155.417-.036.777-.543 1.095-.777.107-.079 1.052-.662 1.08-.771.155-.602-.847-1.287-.656-1.97.23-.823 1.624-1.61 2.228-2.137 1.17-1.02 2.334-2.045 3.502-3.066zm-88.308 8.302c.124-.018 1.28 3.488 1.404 3.828.865 2.353 1.362 4.813 2.254 7.191 1.791 4.783 4.083 9.469 6.532 13.903 2.238 4.05 3.377 8.53 6.014 12.445 1.764 2.618 3.716 5.093 5.56 7.653 1.46 2.028 2.68 4.061 4.66 5.64 2.003 1.6 3.69 3.356 5.103 5.486.654.985 1.393 1.921 2.274 2.714.97.872 2.114 1.278 2.378 2.673l-.7-.031.455 1.687c-1.973-.751-3.777-.996-5.833-1.323l1.388-.126c-.812-.57-1.936-.654-2.876-.992-.955-.342-1.788-.858-2.719-1.239-2.228-.912-4.481-1.75-6.708-2.708-.676-.292-1.525-.457-2.05-1.02l-.287-.363c-.038-.506-.24-.608-.606-.307l-.323.13c-.292-.197-.552-.43-.782-.696-1.424-1.58-2.257-3.82-3.191-5.704-2.456-4.951-4.966-10.102-6.563-15.414-1.426-4.74-1.912-9.616-2.727-14.46-.912-5.417-1.478-10.962-2.559-16.342-.096-.479-.767-2.528-.098-2.625zm157.374 22.816c.525 2.194.718 4.369.686 6.63-.014.966.224 2.022.216 2.852-.011 1.064-.296 2.353-.341 3.488-.087 2.19-.365 4.291-.577 6.442-.07.715-.053 1.009-.028 1.768.024.736-.019 1.652-.581 2.158v-1.437c-.509 1.002-1.152 1.873-2.317 2.107.803.723.306 1.192-.307 1.778l.811.224-1.76 1.55c-.074-.106-.16-.203-.255-.292-.327.165-.34.353-.037.564-.594.499-1.211 1.18-1.948 1.461-.048.02-1.84.005-.552.38l-1.73 1.299c-.009-.381.379-.634-.196-.853-.603 1.129-.73 1.353-1.875 1.927-.998.5-1.998.998-2.997 1.496-.113-.617-.47-1.25-1.049-1.539.197.43.505.925.482 1.425-.041.847-.324.771-1.1 1.149-1.218.593-2.469 1.285-3.77 1.676-2.478.745-5.017 1.137-7.537 1.665-2.427.508-4.844 1.222-7.283 1.632-2.412.405-5.255.362-7.697.222-2.654-.152-5.366-.185-8.024-.115-1.483.039-3.016.08-4.452.304-1.355.212-2.668-.06-4.047-.03-1.262.027-1.624-.328-2.701-.822-1.114-.511-2.745-.702-3.965-.778-.42-.026-.866.312-1.21-.07-.55-.609.298-.919.762-1.359 1.323-1.252 2.077-2 3.805-2.538l-.89-.208c6.327-1.704 12.077-4.558 18.12-6.996 2.428-.98 4.716-1.89 7.122-2.909 2.766-1.172 5.555-2.356 8.202-3.784 5.183-2.797 10.044-5.798 14.9-9.128 4.98-3.413 9.043-7.994 14.12-11.34zM215.155 74.91c-.326.177-.243.38.247.61.276-.162.193-.365-.247-.61zm-28.19-1.538l-.157 1.609h1.103l-.002-.072c-.041-.634-.543-1.065-.944-1.537zm-45.233-18.44c2.666 1.907 4.485 5.08 6.406 7.668 1.996 2.69 4.167 5.222 5.474 8.316-.668-.195-.92-1.108-1.424-1.579-.525-.49-.764-.673-1.133-1.3-.921-1.568-1.869-2.914-3.04-4.305-2.394-2.84-4.696-5.388-6.283-8.8zm92.431 14.14c-.8 0-.566.529-.63 1.24l.63-1.24zm-63.11-1.131c-.582.41-.186 1.47.383.902l.027-.03-.41-.872zm.815-1.756l-.343.38c.174.287.338.206.491-.242-.047-.048-.097-.094-.148-.138zm-47.93-47.353c2.347 1.53 4.606 3.196 6.838 4.888.602.456 1.198.921 1.795 1.384l.596.464c.445.171.699.481.761.93.778.515 1.675.928 2.551 1.58l-.86.64c.808.507 1.936.562 2.119 1.703l.649-.908c2.816 1.955 6 3.172 8.887 5.002 2.558 1.621 5.028 3.801 7.203 5.874 1.045.996 2.295 1.765 3.43 2.654.572.45.891.497.831 1.106-.059.59-.918 1.478-1.238 1.97-1.508 2.318-3.465 4.975-4.123 7.702-.699 2.898 1.057 6.508 1.843 9.293.252.89.716 1.906.808 2.824.08.791.424 1.05-.483.325-1.202-.958-2.155-2.676-3.082-3.918-1.946-2.605-3.777-5.181-5.903-7.658-.535-.623-1.53-1.423-1.859-2.17-.136-.309-.036-.831-.164-1.057-.262-.46-.585-.334-.844-.694-.302-.418-.445-1.064-.632-1.537l-.368 1.148c-4.157-4.544-7.146-9.976-10.013-15.376-1.432-2.697-2.863-5.383-4.249-8.105-.742-1.459-1.459-2.944-2.28-4.36-.623-1.074-2.18-2.464-2.214-3.704zm67.814 46.08l.285-.074c-.255-.911-.493-.829-.285.075zm73.097-26.6c-.567.721-1.03 1.244-1.767 1.764-.588.413-1.144.724-1.56 1.337-.624 1.323-2.68 2.223-3.883 2.958-1.663 1.017-3.385 1.999-5.013 3.07-3.574 2.35-7.328 4.127-11.207 5.945-3.435 1.609-6.83 3.337-10.243 4.69-1.798.711-3.564 1.545-5.333 2.338-1.048.469-2.09.947-3.137 1.419-.832.375-2.267 1.469-2.595.43-.247.253-.428.528.057.61l-2.274 1.057c-.71.33-.93.712-1.016.01-.044-.37.925-1.431 1.113-1.796.276-.537.492-1.103.711-1.664 1.003-2.573 1.603-5.241 2.528-7.838l.716.374c.373-.952.488-.094 1.182-.396.246-.106.274-.68.514-.803.082-.042.425.28.577.252.588-.106 1.378-.21 1.908-.492.22-.117.59-.625.77-.666.255-.059.604.307.927.243.507-.102.68-.74 1.168-.92.366-.136.946-.064 1.313-.123.91-.146 2.157.01 2.534-1.071 1.34.662 2.684-.236 3.907-.845.62-.309 1.177-.312 1.822-.563.701-.272 1.193-.7 1.932-.907 1.125-.316 2.124-.9 3.128-1.395.763-.377 2.653-2.046 3.187-1.225.599-1.058 2.837-1.473 4.006-1.819 1.707-.504 3.4-1.004 5.122-1.469 1.514-.408 2.951-1.017 4.436-1.458 1.181-.35 3.304-1.335 4.47-1.048zm-71.984 24.135l-.978 1.06c.657.19.657.19.978-1.06zm-18.637-4.206c.072.28-.397.564-.4.8.358.08.476.264.356.55l-.075.524c0 .827-.347 1.725-.544 2.518-.6-.453-.153-1.017-.264-1.583-.16-.825-.318-.3-.64-.807-.482-.755-.116-.585.27-1.305.176-.326.279-1.376.296-1.398.328-.451.846.101 1 .7zm38.885-1.006v.786c.413-.432.413-.432 0-.786zm-37.651-2.742c.39.22.301.085.322.715-.285-.17-.392-.408-.322-.715zm97.769-.958l-.265.637c.305-.07.671-.187.265-.637zm-97.398-.894c.563.132 1.02-.02.784.717.074-.229-.842.469-.93.551l-.004.006.075-.636.075-.638zm-46.243.353c-.318.11-.82-.014-.784.748l.784-.748zm72.054-1.091v.604l.752-.227-.752-.377zm-24.197-.71l-.373 1.118c-.523-.57-.311-.82.373-1.118zm85.53-3.599c-.39.062-.405.752-.493 1.094l.822-.154-.329-.94zm-121.082.34l.695.543c-.012-.748-.012-.748-.695-.544zm65.325-7.201c-.015.31.637 1.048.681 1.507.107 1.116-.616 2.04.086 3.086.133-.617.319-1.245.404-1.87.085-.623-.132-.92-.093-1.466.042-.588.638-1.553.019-1.966-.442-.294-1.069.135-1.097.709zm-4.02 2.839c-.356.647-.356.647-.173 1.088.05-.321.096-.606.173-1.088zm1.045-1.341c-.544.44-.455.328-.203 1.079.497-.427 1.002-.838 1.515-1.245-.48-.295-.905-.162-1.312.166zm2.143-1.903c-.052.034-.1.074-.14.121l.316.481c.35-.18.292-.38-.176-.602zm1.245-2.435c-.66.385-.435.894-.285 1.377.297-.416.615-.829.285-1.377zm7.828-.215c-.543.443-.26.734.015 1.194l.274-.07c-.096-.374-.192-.749-.29-1.124zm-69.906.86c.4-.098.297.01.161-.62-.391-.03-.445.177-.161.62zm61.294-3.855c-.357.078-.346.316.035.714.402-.093.39-.331-.035-.714zm-1.214-3.29l-.29 1.13c.73.154.428-.761.29-1.13zm2.026-.76l-.259 1.215.204.151.794-1.107-.739-.26zm-1.854-1.232c-.329.04-.295.589.174.516l-.174-.516zm-70.7-1.499h-.714c0 .425.726.3.714 0zm74.132-12.093l-.187.845c.254-.208.62-.395.187-.845zm-.978-4.563h.004c-.863.04-.544.737-.743 1.284.734-.136.608-.69.727-1.234l.012-.05zm-5.624-1.286c-.2.603-.037.666-.756.393.39.733 1.235.004 1.763.433l-1.007-.826zm.008-1.462c.188.654.351 1.046 1.067.88l-1.067-.88z" transform="translate(60 29)"/>
                <g fill="#032120">
                    <path d="M167.08 103.255c.244.043.819-1.942.925-2.24.069-.195.501-1.032.426-1.204-.058-.134-1.23-.55-1.35-.604v4.048zM71.022 53.482c.155-2.095-.026-4.23.298-6.31.118-.76 1.516-5.48-.223-3.886-1.363 1.248-1.548 3.59-1.476 5.274.051 1.2-.493 5.139 1.401 4.922zm109.018 54.62c-1.783-1.75-3.85-3.453-6.176-4.43-1.356-.571-1.368-.394-1.957.912-.529 1.17-1.024 2.304-1.445 3.518h9.578zm-24.474-.266c-2.07-3.297-5.583-6.218-8.906-8.23.306.778.318 1.584.459 2.394.142.815.505 1.449.729 2.223.403 1.397.09 3.038.09 4.477l7.628-.864zm6.95-16.578c-.063-2.712 1.028-5.22 1.69-7.8-3.585.6-4.05-5.81-6.199-7.267.43 2.914.621 5.78.943 8.685.143 1.282.184 3.045.619 4.227.452 1.23 1.826 1.577 2.946 2.155zm7.57 5.042c.724-.663 1.293-2.142 1.818-3.045.762-1.308 1.706-2.386 2.674-3.548 1.81-2.172 3.907-4.12 5.662-6.307-1.99.2-3.98.662-5.962 1.144-1.055.255-2.13.595-3.126 1.024-.824.355-1.78.39-2.542.72-1.538.667-1.225 4.72-1.413 6.165-.098.757-.482 1.527.01 2.185.55.738 2.098 1.25 2.88 1.662zm-69.847 12.606c-2.989-.523-5.773-1.268-8.188-3.205-2.061-1.653-3.884-3.659-5.613-5.637-.4-.457-.76-.929-1.377-1.09-.456-.12-.908.136-1.344-.144-.386-.248-.361-.762-.648-1.03-.471-.44.21-.197-.528-.344-.47-.093-1.292.317-1.79.435-1.215.288-2.45.475-3.663.743-1.187.263-1.846 1.19-2.911 1.783-1.063.591-2.098.843-3.042 1.635-.978.82-2.142 1.282-3.105 2.042-.803.633-.776 1.726-1.655 2.342-.376.264-.891.29-1.223.616-.386.382-.554 1.02-.886 1.458-.855 1.128-1.491 1.698-1.956 3.092-.47 1.408.09 2.576-.126 4.018-.195 1.287-.938 2.434-.692 3.733.23 1.217.89 2.28.666 3.578-.126.73-.576 1.267-.464 2.005.083.548.512 1.076.723 1.584.444 1.065.83 2.459.606 3.619-.109.565-.6.9-.735 1.359-.19.645.28 1.444.491 2.244.386 1.459.533 2.966.865 4.435.197.876.292 2.395 1.207 2.782 1.095.463 1.995-.483 2.966.713 1.574 1.937 1.587 4.843 3.174 6.88.684.878 1.618 1.716 2.776 1.835.675.07 1.156-.251 1.804-.014.492.18.89.644 1.145 1.081.53.91.358 2.06.85 2.99.321.603 1.506 1.932 2.085 2.247.896.49 1.335.26 2.058 1.2.824 1.07 1.451 2.452 2.497 3.34 1.01.859 1.681.402 2.838.497 1.154.094 1.534 1.151 2.177 1.997.242.317.78 1.256 1.168 1.37.553.164.38-.09.878-.313 1-.448 1.64-.741 2.413.287.783 1.04.966 2.467 1.753 3.54.851 1.16 1.468.999 2.766 1.163 1.148.145 2.002 1.026 2.839 1.744 1.386 1.19 1.789 1.207 3.471.77.997-.26 1.54-.186 2.19.641.695.885 1.336 2.777 2.342 3.272.786.387 1.607-1.295 2.72-.994.964.262 2.15 1.77 3.036 2.328.85.535 2.117 1.444 3.172 1.482.483.018.863-.319 1.314-.323.531-.004 1.319.301 1.804.515 1.05.464 1.636 1.466 2.661 2.021 1.577.854 2.211.066 3.687-.5 1.56-.598 2.252.195 3.574.744.996.414 2.496.874 3.577 1.03 1.354.193 2.546-.814 3.92-.822.69-.004 1.1.132 1.655.55.244.181.46.438.679.65.678.656.36.565 1.132.273.931-.352 1.946-.952 3.016-.725.794.169 1.618 1.79 2.278 1.766.31-.011 1.15-1.05 1.4-1.276.592-.54.975-.99 1.839-.8.65.142.987.687 1.528.532.461-.133 1.105-1.059 1.253-1.462.4-1.09.138-2.575.273-3.73.186-1.6.576-3.175.837-4.764.248-1.508.28-3.03.493-4.536.16-1.126.867-2.577-.573-3.12-1.129-.425-1.822-.185-2.863-1.015-1.176-.938-1.985-.865-3.442-.834-3.131.066-5.308-2-8.136-3.012-2.57-.92-5.022-2.097-7.583-3.063-1.389-.524-2.416-1.241-3.676-1.926-1.144-.623-2.663-.467-3.919-.88-2.534-.835-4.937-1.886-7.47-2.64-1.396-.416-2.84-.575-4.244-1.018-1.59-.502-2.657-1.456-3.849-2.605-1.347-1.299-5.103-4.3-4.273-6.5.869-2.305 5.063 2.377 6.113 3.016.902.548 1.902 1.214 2.865 1.483 1.302.364 2.335-.14 3.615.398 2.658 1.118 5.229 2.809 7.983 3.627 1.231.366 2.7.296 3.8.947 1.136.672 2.18 1.452 3.375 2.077 2.488 1.301 4.98 2.492 7.613 3.46-.86-4.642-1.777-9.355-2.901-13.95-1.178-4.819-.768-9.837-1.33-14.744-2.104 1.353-4.273 2.442-6.418 3.615-2.072 1.134-4.263 1.68-6.479 2.414-2.434.807-4.989 1.931-7.54 2.252-2.56.323-5.424.618-8.005.466-5.01-.295-9.965-.966-14.895-2.024-.768-.165-1.445-.465-2.245-.428-.5.023-1.208.39-1.66.115-.954-.577-.177-2.12.378-2.688.748-.763 1.556-1.046 2.27-1.945 1.03-1.296 2.065-2.574 3.17-3.808 2.081-2.327 4.483-4.635 5.952-7.417 1.587-3.005 2.773-6.167 4.042-9.31-1.416.018-2.904-.15-4.325-.195zm69.907 3.407c-1.479.13-2.753.032-4.128.143-1.986.16-4.264-.025-6.233-.295-1.85-.253-3.66.203-5.48.036-1.886-.174-3.858-.19-5.82-.37-1.224-.113-1.147.186-1.48 1.316-.344 1.159-.777 2.16-1.35 3.224-1.072 1.993-2.328 3.812-3.774 5.552-.667.802-1.355 1.587-2.04 2.375-.811.934-1.42 1.306-1.148 2.588.46 2.166 1.155 4.3 1.448 6.496.28 2.102.274 4.229.653 6.315.409 2.242.931 4.465 1.31 6.71.358 2.125.628 4.282.89 6.42.218 1.769.077 5.05 1.76 6.188.792.536 2.223.616 3.114.53.92-.089 1.828-.754 2.736-.731.825.021 1.162.575 1.68 1.142.854.936.877 1.163 2.03 1.17.74.004.842-.243 1.564.278.74.533 1.225 1.52 2.194 1.75 1.582.376 4.189-1.702 5.553-2.385 4.132-2.068 8.838-2.588 13.036-4.318 1.972-.813 3.965-1.886 5.798-3.011.927-.57 1.823-1.166 2.621-1.91.745-.693 2.281-1.789 2.625-2.706-2.327 0-4.545.984-6.9.388-2.272-.575-1.691-3.578-1.443-5.273-3.23.482-9.36 2.233-8.603-3.21.271-1.951 1.714-3.458 3.221-4.602 1.159-.88 3.184-1.6 3.821-2.989-2.528-.336-8.7.65-9.077-3.037-.4-3.916 3.488-5.972 6.524-7.278 3.702-1.592 7.622-3.065 11.618-3.719 1.758-.287 3.54-.66 5.308-.748 1.662-.082 3.968.193 5.09-1.319-2.273-.408-4.28-.884-6.373-1.876-.852-.404-1.771-1.007-2.574-1.502-.902-.557-1.313-1.793-2.213-2.255-.789-.405-1.934.134-2.815.221-1.406.139-2.81.284-4.22.376-2.949.194-5.97.434-8.923.316zm-76.15-33.684c1.295.465 2.594.919 3.888 1.386 1.098.397 2.696.698 3.594 1.469 2.653 2.273-1.666 2.277-3.005 2.358.577 2.002 1.332 4.007 1.797 6.033.153.668.526 2.226-.077 2.752-.73.637-1.347-.225-1.857-.814-2.802 3.027-6.66 4.598-10.27 6.435 2.687 2.444 5.267 5.193 8.946 6.016 1.744.391 3.401.823 5.165 1.12.68.116 1.356.407 2.021.596.296.084.885.38 1.183.335.557-.082.548-.441.842-1.088 1.476-3.243 2.917-6.558 5.336-9.212 1.232-1.35 2.612-2.375 4.257-3.184 1.703-.838 3.672-.776 5.425-1.52-2.058-2.983-4.232-5.968-5.43-9.425-.355-1.027-.161-1.408-1.085-1.558-.64-.104-.959.282-1.53-.234-1.372-1.238.263-2.68 1.103-3.543 2.019-2.078 4.227-4.303 5.627-6.873.589-1.082 1.092-2.355.68-3.534-.64-1.823-1.627-3.628-2.52-5.335-1.656-3.162-3.19-6.68-5.282-9.573-1.075-1.488-2.278-2.908-3.223-4.488-.764-1.278-.797-2.52-2.517-1.905-.664.238-.83.32-1.332.75-.544.464-.53.81-1.331 1.026-.705.19-1.505.076-2.222.223-1 .205-1.454.734-2.254 1.377-1.44 1.155-2.88.76-4.518 1.188-.604.157-.697.426-1.183.777-.78.565-1.783.67-2.697.89-.907.216-1.948.37-2.761.814-.76.415-1.311 1.072-2.129 1.43-.735.321-1.922.312-2.193.849-.376.748.155 2.301.324 3.053.379 1.689 3.778 10.831.33 10.783.25 1.235.325 2.276-1.239 1.763-1.324-.434-3.105-1.364-4.506-.847-1.148.423-2.509 2.138-2.82 3.32-.473 1.807.286 2.343 1.764 3.056 1.713.827 2.952.968 4.779.33.713-.248 1.449-.515 2.063-.963.68-.495.962-1.12 1.875-1.14.642-.013 1.337.29 1.641.868.177.336.048.693.15 1.026.177.582.093.455.514.944 1.314 1.53 2.804 2.014 4.678 2.269zm13.264 112.143c1.449.291 2.848-.16 4.303.128 1.285.255 2.697 1.097 3.858 1.69 2.43 1.244 5.393.986 8.107 1.342 1.404.184 2.993-.059 4.316.433 1.283.476 2.378 1.152 3.744 1.343 2.65.37 5.45.046 8.067.002 2.708-.046 5.229.581 8.036.057.564-.105 1.158.116 1.64.02.362-.073.718-.481 1.075-.627 1.165-.476 2.688-.443 3.916-.525 2.86-.19 5.545-.09 8.321-.824 1.037-.275 8.79-1.279 8.746-1.64-3.809.216-7.74.038-11.439-.985-2.752-.762-4.933-2.126-7.427-3.462-.67-.359-1.366-.585-2.14-.623-1.054-.051-.966.09-1.762.834-1.509 1.413-2.629 1.276-4.127-.068-1.503-1.346-1.644.226-3.32.358-1.735.137-1.94-1.979-3.683-1.702-.806.128-1.446.723-2.278.664-.77-.056-1.245-.594-1.938-.841-.809-.289-1.749-.206-2.59-.425-.945-.247-1.705-.87-2.696-.751-1.54.185-2.569 1.385-4.266 1.025-1.808-.384-2.812-2.214-4.715-2.163-2.107.057-3.679.19-5.645-.76-.665-.32-1.096-.843-1.72-1.184-.787-.43-1.62-.05-2.444-.261-1.583-.404-2.551-2.465-3.446-3.693-.736-1.01-.842-.998-2.064-1.188-.899-.14-1.791-.388-2.633-.732-.949-.387-1.789-1.097-2.756-1.417-.857-.285-1.735-.077-2.544-.523-.789-.435-1.38-1.444-1.938-2.122-.28-.341-.558-.684-.837-1.026-.627-.77-.54-.817-1.384-.963-.822-.142-1.46-.035-2.222-.495-.837-.505-1.353-1.385-2.125-1.952-.67-.49-1.39-.547-2.165-.829-1.02-.37-1.814-.99-2.706-1.585-.095 1.775.276 4.327-.981 5.69-.328.355-.766.545-1.038.986-.477.773-.377.324-.203 1.33.2 1.16.166 1.68-.255 2.706-.08.194-.558.234-.636.441-.11.293.225 1.111.3 1.44.142.627.228 1.425.592 1.938.491.688 1.563 1.4 2.16 2.056.7.77 1.404 1.47 2.238 2.097 1.38 1.038 3.294 2.556 4.976 3.01.954.257 1.956.145 2.922.445.98.304 1.71.95 2.625 1.33 3.844 1.6 8.085 1.707 12.18 2zm51.82-9.055c.617.357.827.07 1.399.098.511.025 1.102.094 1.659.097 1.05.004 2.335-.262 3.355-.533 1.926-.514 3.864-.843 5.778-1.21 1.63-.313 3.226-1.023 4.862-1.634 2.148-.802 4.429-.976 6.698-1.102 2.076-.115 4.112-.347 6.18-.516 2.082-.17 4.102.094 6.155-.369.957-.216 2.01-.368 2.886-.804 1.01-.502 1.95-1.312 2.943-1.877 1.184-.673 4.23-1.602 4.7-3.02-.948.226-3.054 1.027-3.883.385-.852-.659-.54-2.377-.202-3.2.506-1.238 1.6-1.599 2.567-2.418.699-.591 1.303-1.295 1.922-1.966.315-.347.631-.692.949-1.036-.132-.356-.389-.364-.772-.024-1.806.076-6.754 3.972-6.942.473-.101-1.873 1.02-2.755 2.136-4.055 1.104-1.287 1.965-2.745 2.897-4.154-1.815.294-3.42 1.242-5.193 1.745-1.887.534-3.93 1.145-5.85 1.363-.733.083-2.65.78-3.264.41-.498-.299-.604-1.674-.62-2.175-.058-1.913 1.452-3.446 2.355-5.033-2.107 1.284-3.571 3.1-5.494 4.579-1.906 1.467-3.572 2.813-5.736 3.917-1.977 1.008-4.207 1.502-6.326 2.134-2.161.645-4.26 1.296-6.462 1.774-2.425.528-4.84 1.39-7.282 1.793-.599.098-1.925-.229-2.264.169-.283.33-.076 2.667-.12 3.198-.22 2.617-.74 5.216-1.165 7.805-.214 1.3-.79 3.007-.69 4.323.067.899.08.91 1.224.956.549.021 1.06-.132 1.6-.093zm25.235-37.61c-.295.061-.376.199-.242.413 4.161-.914 8.232-2.64 12.517-3.087 1.133-.119 2.109-.57 3.23-.658.518-.041 1.045.029 1.563.036.362.005 1.192.243 1.443.206.953-.14 1.973-1.196 2.718-1.756.887-.667 2.006-1.338 2.72-2.206 2.794-3.392 3.5-7.691 1.684-11.653-.435-.95-.837-2.06-1.445-2.915-.533-.749-1.855-1.237-2.1-1.956-.11-.318.188-.994 0-1.27-.174-.254-1.428-.308-1.707-.367-1.247-.266-2.498-.55-3.629-1.164-.318.91-.218 1.457-1.11 1.996-1.01.61-2.545.484-3.654.804-2.414.698-5.014.882-7.484 1.57-5.598 1.56-11.448 3.421-16.461 6.423 2.269.89 5.114.424 7.49.44 1.692.012 6.142-1.047 7.038.821 1.144 2.384-1.933 3.945-3.476 4.924-2.417 1.533-4.924 2.931-7.13 4.757 1.28.047 2.465-.249 3.699-.547 1.33-.32 2.69-.34 4.015-.666 2.032-.499 4.709-2.624 6.909-1.763 1.93.755 1.29 3.68-.036 4.676-.864.65-1.974.636-2.974.925-1.37.395-2.405 1.248-3.578 2.017zM133.716 28.079c-4.167-3.099-8.185-6.409-12.54-9.246.037 1.363 1.887 3.111 2.55 4.32.956 1.747 1.847 3.532 2.74 5.31 1.6 3.184 3.33 6.297 4.942 9.476 3.309 6.525 8.152 11.798 12.855 17.29 2.502 2.922 4.6 6.077 6.966 9.1.475.607.956 1.432 1.554 1.936 1.167.983.52-.2.28-1.032-.557-1.942-1.102-3.888-1.639-5.836-.468-1.697-1.216-3.49-.87-5.269.331-1.707 1.34-3.18 2.171-4.672.798-1.43 1.662-2.794 2.555-4.17.405-.624.902-1.096.596-1.662-.33-.609-1.64-1.282-2.2-1.691-3.078-2.25-5.69-5.085-8.875-7.235-1.933-1.304-4.152-2.233-6.214-3.312-1.758-.92-3.288-2.118-4.87-3.307zm104.355 59.645c-.722-.464-1.269-.861-2.088-1.07-.483-.123-.989-.112-1.469-.27-1.452-.475-2.7-1.234-4.235-1.562-2.611-.559-5.29-1.29-7.938-1.268-2.947.024-5.826.104-8.765.434-1.555.175-3.087.431-4.638.648-1.474.206-2.905.078-4.278.788.988.565 2.186.54 3.281.792.876.203 1.668.613 2.5.849 2.319.658 4.684 1.368 7.03 1.966 1.958.5 3.899 1.13 5.82 1.65 1.811.49 3.829 1.66 5.418 2.673 1.862 1.186 3.226 2.615 4.763 4.198 1.625 1.675 3.328 3.213 4.758 5.069 3.032 3.937 4.546 8.813 6.61 13.309 1.035-2.948 1.825-5.817 2.951-8.672.637-1.614 1.473-3.124 2.099-4.77l.769-2.025c.431-1.137.555-1.363-.081-2.412-.753-1.24-1.638-2.323-2.833-3.154-1.114-.774-1.758-1.754-2.913-2.434-2.334-1.374-4.361-3.37-6.76-4.739zM217.53 62.836c4.27-1.6 8.32-3.913 12.494-5.615.368-.15.72-.028 1.109-.197.518-.225.971-.695 1.501-.943 1.03-.481 2.124-.839 3.157-1.329 2.532-1.201 5.066-2.398 7.602-3.59 4.035-1.9 7.676-4.48 11.485-6.79 1.63-.988 3.199-2.18 4.623-3.26 1.606-1.216 2.879-3.132 4.66-4.125-.623-.302-2.449.47-3.109.667-.963.288-1.995.663-3.011.994-2.597.845-5.344 1.34-7.887 2.292-2.75 1.029-5.743 1.654-8.553 2.54-3.102.978-6.268 1.719-9.376 2.664-2.7.82-5.275 1.865-7.974 2.704-1.445.45-2.995.826-4.334 1.557-1.17.638-1.197 1.347-1.564 2.555-.796 2.614-1.491 5.264-2.522 7.802-.097.24-1.88 3.389-1.842 3.442.251.352 3.183-1.127 3.541-1.368zm-85.584 19.21c1.27.027 2.366.38 3.615.583 1.335.215 2.722-.049 4.03.292 1.043.271 2.034.738 3.076 1.022 1.27.347 2.662.095 3.896.562 1.226.464 2.448 1.544 3.59 2.215.798.469 1.778 1.98 2.762 1.023.557-.543-.082-2.674-.25-3.609-.186-1.037.038-2.76-.684-3.606-.964-1.133-2.774-1.122-4.066-1.13-1.355-.008-2.65-.27-3.96-.597-3.069-.763-6.19-1.696-9.006-3.149-2.452-1.265-4.796-2.877-6.891-4.68-2.227-1.914-3.59-4.189-4.989-6.72-.334 1.239.446 2.884.439 4.169-.01 1.675-.44 3.308-1.16 4.814-.617 1.292-1.443 2.61-2.363 3.714-.513.616-1.114 1.148-1.662 1.731-.78.83-.869.948-.37 1.993.672 1.405 1.68 2.607 2.488 3.928.114.186.655 1.438.817 1.527.662.366 1.31-.346 1.866-.537 1.777-.608 3.318.095 4.863-1.26 1.152-1.01 2.265-2.347 3.96-2.285zm18.905-11.13c-1.972-4.666-5.77-8.823-8.84-12.84-1.387-1.815-3.179-3.125-4.639-4.85-1.566-1.85-3.11-3.653-4.62-5.55-1.54-1.935-2.913-3.896-4.025-6.117-1.08-2.16-2.382-4.168-3.486-6.324-2.237-4.37-4.263-8.83-6.586-13.162-1.08-2.017-2.03-3.974-2.82-6.127-.24-.654-1.093-4.048-1.27-2.028-.108 1.223.507 2.754.679 3.97.35 2.476.704 4.953 1.02 7.435.346 2.71 1.098 5.365 1.39 8.078.517 4.808 1.331 9.95 3.013 14.507 1.819 4.93 3.925 9.683 6.239 14.393 1.045 2.129 2.026 4.51 3.827 6.102 1.971 1.74 3.99 3.21 6.405 4.281 2.195.974 4.764 2.074 7.149 2.362 2.982.36 5.288.597 7.943 2.2-.296-1.105-.103-1.741-.222-2.83-.127-1.165-.775-2.406-1.157-3.5zm3.384 25.828c-.01-1.126-.232-2.143-.374-3.24-.118-.906-.337-1.322-.89-2.025l-.313-.397c-.178-.489-.43-.515-.756-.08-.266-.037-.493.09-.81.016-.363-.084-1.004-.585-1.432-.724-1.107-.362-1.808-1.204-2.908-1.574-.18-.061-.593.16-.845.111-.254-.295-.573-.426-.958-.393-.287.033-.573.046-.86.038-1.547-.088-2.582-.884-4.003-1.3-1.55-.453-3.071.025-4.62-.086-1.206-.086-2.11-.712-3.37-.669-1.645.056-1.208.776-1.01 2.23.173 1.263.035 2.045 1.467 2.251 1.318.19 2.465-.414 3.784.013 1.396.451 2.55 1.428 3.555 2.46.543.557.85 1.088 1.618 1.242.548.11 1.327-.177 1.875-.215 1.495-.104 2.784.327 4.063 1.093 2.623 1.573 4.91 3.704 7.109 5.805.038-1.516.184-3.093-.322-4.556zm40.144-12.603c2.342-2.526 6.557-3.444 9.71-4.43-.914-1.027-2.662-2.075-4.03-2.063-1.413.013-3.276.82-4.61 1.293-2.778.985-4.9 3.169-7.044 5.09-5.151 4.618-9.38 9.852-13.784 15.163 1.968 1.237 4.087 2.694 5.723 4.342.761.767 1.658 1.594 2.292 2.475.249.345.375.742.584 1.098.414.704-.014.785.94.73-1.887-4.315-2.754-10.09-1.747-14.708.578-2.647 2.467-4.858 4.686-6.32 1.122-.74 2.338-1.402 3.625-1.809.796-.251 3.264-.141 3.655-.86zm81.061-42.37c.21-1.535.22-3.079.355-4.62.13-1.473.448-2.843.15-4.333-1.08.412-1.349.664-2.14 1.46-.932.938-1.815 1.802-2.91 2.523-2.428 1.599-4.667 3.56-6.862 5.46-4.483 3.883-9.125 8.107-14.494 10.773-5.038 2.503-9.916 5.244-15.137 7.43-2.435 1.02-4.78 1.927-7.243 2.956-2.879 1.202-5.65 2.654-8.578 3.724-1.415.517-2.82 1.066-4.238 1.573-1.5.536-3.505.771-4.817 1.6-1.09.687-2.048 1.93-2.984 2.815-1.65 1.562.473 1.15 1.607 1.302 1.435.191 2.62.575 3.866 1.192 1.11.551 2.394.197 3.59.318 1.387.14 2.53-.141 3.884-.165 1.673-.029 3.326-.15 5-.129 2.87.036 5.774.186 8.624.049 1.24-.06 2.488.015 3.73-.048 1.45-.073 2.714-.587 4.124-.831 5.472-.95 10.975-1.931 16.001-4.375 5.34-2.597 9.843-5.684 14.044-9.931 2.412-2.437 2.989-4.772 3.263-8.172.286-3.545.812-7.033 1.165-10.57zm-98.711 144.952c3.391-.466 6.866-1.1 10.143-2.122 1.616-.504 3.226-1.01 4.856-1.466 1.831-.514 2.158-.85 2.752-2.644-2.276.539-4.45 1.16-6.798 1.521-1.18.182-2.256.629-3.406.801-1.33.2-2.712-.22-4.033-.07-1.246.144-2.48.958-3.7 1.298-1.06.296-2.12.395-3.165.72-1.016.317-2.114.65-3.163.852-.99.19-1.948-.107-2.82.539 1.334.562 3.366.744 4.741.601.838-.087 1.715-.13 2.555-.03.676.082 1.403.406 2.038 0zm22.056-36.24c.002-1.884.254-3.682.513-5.547-2.039-.337-3.66 1.066-5.486 1.669 1.476 2.648 1.653 4.378.782 7.39.945-.418 1.9-.757 2.846-1.151.317-.132.756-.286 1.01-.525.647-.612.42-.9.335-1.837zm-36.19-43.625c-.035-2.263-.047-4.524-.155-6.785-.048-1.005.003-2.084-.163-3.072-.195-1.158-1.025-1.61-1.925-2.412-.31 2.22.14 4.899.339 7.167.117 1.34.114 2.38.49 3.64.438 1.475-.005 2.138 1.608 2.593l-.194-1.131zm-27.232 15.664c2.203-1.263 3.583-3.152 5.186-5.062 2.105-2.508 3.512-4.446 4.34-7.668.584-2.276 1.207-5.898-.075-8.048-.576-.964-1.66-2.638-2.705-3.083-1.093-.465-2.653.337-3.65.763-2.645 1.13-4.958 2.843-7.51 4.201-2.803 1.49-5.486 3.448-8.031 5.343-5.025 3.74-9.607 7.425-14.367 11.457-1.869-2.186 2.466-6.106 4.086-7.445 2.379-1.968 4.628-4.22 7.134-6.135 2.954-2.258 5.98-4.382 9.158-6.313 1.47-.894 2.984-2.08 4.563-2.757.65-.28 1.244-.377 1.855-.764.53-.337.977-.772 1.59-.97-.439-.806-3.114-1.977-4.033-2.079-1.791-.2-4.095.388-5.834.777-3.229.722-6.68 1.287-9.682 2.609-1.385.61-2.338 1.442-3.467 2.482-1.42 1.307-2.013 2.87-2.806 4.619-1.658 3.66-3.453 7.272-5.042 10.961-1.459 3.388-2.917 6.246-5.498 8.933-1.088 1.132-2.198 2.267-3.376 3.305-.643.567-3.722 2.604-3.196 3.356.209.297 2.554.18 2.999.224.934.09 1.857.243 2.794.31 1.866.136 3.522.422 5.385.372 1.84-.05 3.632.164 5.468.003 1.736-.153 3.455-.369 5.183-.596 3.872-.508 7.524-2.296 11.134-3.698 1.606-.624 3.012-1.423 4.535-2.13 1.258-.585 3.15-1.842 3.862-2.967zM124.572 88.1c-.543-.014-1.57-.286-1.792.208-.123.275.332 1.166.446 1.508.205.616.23 1.12.757 1.3.53.182 1.984-.26 2.555-.311.753-.068 1.414-.205 2.164-.337-.232-.639-.385-1.65-.97-2.054-.662-.457-2.43-.261-3.16-.314zm101.175 9.952c-.548-.634-1.127-.535-1.838-.758-.895-.281-1.718-.828-2.566-1.223-1.748-.816-3.667-1.097-5.46-1.812-3.44-1.373-6.78-2.673-10.238-3.814-1.823-.601-3.67-1.116-5.56-1.453-1.757-.313-4.234-1.116-5.985-.812-2.94.51-6.976 3.748-8.013 6.522-.601 1.612-.152 3.126.175 4.736.401 1.978.753 4.019 1.54 5.892 1.36 3.24 5.056 4.127 8.035 5.06 3.307 1.036 6.626 1.498 9.93 2.504 1.668.509 3.383.745 5.04 1.244 1.592.48 3.1.686 4.787 1.032 4.409.906 8.888 1.549 13.323 2.267 2.317.376 4.618.78 6.93 1.175.977.167 1.982.135 2.933.428 1.089.334 1.78.768 2.991.5-2.08-4.066-3.433-8.424-6.277-12.055-2.847-3.635-5.864-7.014-9.747-9.433zm-33.51-24.657c1.772-.358 3.552-.652 5.284-1.115.696-.187 1.449-.531 2.1-.845.723-.348.904-.79 1.458-1.26.229.108.443.089.642-.055.093-.311.28-.553.564-.727.475-.503 1.079-.863 1.603-1.311 1.31-1.119 2.521-2.38 3.764-3.572 1.286-1.233 2.394-2.519 3.212-4.12.196-.384.702-1.07.817-1.398.155-.441.11-.958.322-1.377.178-.353.649-.572.846-.963.298-.588.244-1.413.465-2.054.498-1.444 1.107-2.862 1.53-4.33.966-3.361.823-7.328.697-10.8-.066-1.827-.648-3.614-1.123-5.366-.455-1.677-.784-3.481-1.448-5.09-.467-1.128-1.198-2.09-1.644-3.239-.623-1.606-1.265-3.135-1.744-4.826-.97-3.423-2.428-6.564-4.082-9.704-.696-2.174-1.409-4.302-2.38-6.383-1.869 1.633-3.897 3.185-5.606 4.976-1.398 1.466-3.013 3.098-4.537 4.421-1.734 1.506-3.36 2.95-5.211 4.303-1.01.738-1.802 1.682-2.714 2.526-.95.878-2.024 1.392-2.902 2.348-.83.905-1.49 1.294-2.39 1.954-.671.494-1.165 1.328-1.825 1.88-1.845 1.546-3.37 3.415-5.082 5.094-3.84 3.763-7.418 7.563-10.78 11.792-.459.27-.998 1.252-1.364 1.752-.664.906-1.127 1.944-1.744 2.881-.678 1.03-1.45 2.026-2.037 3.113-.303.56-.42 1.302-.774 1.811-.199.287-.596.451-.812.756-1.52 2.149-1.02 4.05-.292 6.392.744 2.39 1.285 4.735 2.356 7.008 1.15 2.442 2.166 4.938 3.24 7.412.504 1.161 1.032 2.311 1.564 3.46.316.68.758 2.43 1.494 2.836 1.335.737 1.222-1.458 1.438-2.314.271-1.073.71-2.099 1.02-3.16.679-2.33 2.346-4.925 2.547-7.294 1.706-3.59 2.137-7.657 4.046-11.205.815-1.515 1.444-3.01 2.428-4.468 1.055-1.564 1.901-3.02 2.557-4.751.704-1.858 1.871-3.921 2.994-5.562.514-.75 1.077-1.346 1.55-2.106.624-1.005 1.213-2.037 1.827-3.05 2.416-3.98 5.133-7.963 7.904-11.707 1.203-1.625 2.395-3.297 3.74-4.64.67-.67 3.9-5.45 4.742-5.212 2.469.699-4.085 10.478-4.704 11.53-2.29 3.883-4.307 7.966-6.7 11.78-2.499 3.982-4.894 7.951-6.997 12.16-1.119 2.239-1.807 4.686-3.066 6.847-1.203 2.067-2.357 4.029-3.307 6.226-1.06 2.452-1.867 5.064-2.771 7.578-.76 2.114-2.526 4.481-2.547 6.765 1.77-.444 3.587-.736 5.388-1.06 1.863-.336 3.71-1.044 5.549-1.554 3.689-1.025 7.553-1.027 10.894-2.983zm-75.455-21.998c.144.528.236 1.064.806 1.3-.294-.872-.582-1.737-.93-2.59l.124 1.29zM66.428 225.414c-.56-5.77-.694-11.707.24-17.44.213-1.311.218-2.797.69-4.035.52-1.36.37-2.53.712-3.932.665-2.738 1.514-5.47 2.181-8.209.678-2.782 1.772-4.786 3.242-7.203.694-1.142 1.477-2.116 2.274-3.153.423-.55.55-.504.663-1.246.148-.975-.279-1.837-.367-2.766-.12-1.267.229-2.669.726-3.817.562-1.3.743-2.682 1.32-3.96.515-1.145 1.421-1.708 1.601-2.965.158-1.097.35-2.425.406-3.508.057-1.1-.617-1.952-1.47-2.522-.387-.259-.746-.296-1.129-.641-.416-.376-.832-.993-1.225-1.422-.796-.87-1.177-2.698-2.002-3.168-.536-.306-1.429-.221-2.026-.413-.73-.234-1.275-.602-1.833-1.113-.92-.842-1.7-1.87-2.311-2.955-.35-.62-.64-1.27-.911-1.927-.158-.384-.448-1.878-.766-2.076-.721-.45-2.086.52-3.054-.101-1.193-.767-1.834-2.658-2.16-3.961-.366-1.464-.39-2.99-.715-4.466-.37-1.68-.761-3.349-1.08-5.04-.566-3.013-1.153-6.3-.872-9.345.062-.668.261-1.43.222-2.092-.036-.62-.374-1.226-.435-1.867-.121-1.269.55-2.768.211-3.88-.496-1.627-1.115-2.425-.456-4.2.451-1.213 1.601-2.073 1.979-3.19.185-.548.024-1.186.18-1.749.196-.696.671-.966 1.005-1.55.65-1.138.64-1.975 1.84-2.722 1.518-.946 1.786-1.475 2.726-2.947.637-.997 1.978-1.803 3.027-2.331 1.257-.633 2.402-1.427 3.687-2.014.645-.295 1.386-.503 1.991-.857.305-.178.519-.482.86-.643 1.042-.49 3.125-.388 4.189-.262 1.46.174 2.94.63 3.368 2.189.8-.754 2.059-.998 3.008-1.461 1.12-.546 2.383-.736 3.515-1.3 2.641-1.318 5.1-2.656 8.003-3.381-.538-1.849-.707-3.9-2.314-5.085-1.512-1.115-3.092-2.04-4.484-3.315-.691-.634-1.432-1.229-2.079-1.91-.467-.492-.98-1.578-1.636-1.703-.433-.082-1.52.77-1.939.938-.928.373-1.862.729-2.863.844-3.501.405-7.097-2.155-7.84-5.559-.975-4.458.454-7.048 3.743-9.877l-1.574-.928-.523-.308c-.406-.476-.694-.42-.865.17-.895.62-1.427 1.67-2.435 2.257-.937.547-1.76.706-2.85.672-.635-.02-1.186-.001-1.785-.254-.341-.15-.652-.347-.93-.594-.249-.492-.574-.53-.976-.114-.867.164-1.534.73-2.432.82-.334.034-1.137.13-1.477.068-.54-.097-.627-.641-1.07-.797-1.082-.38-2.32.69-3.289.337-.746-.27-1.79-1.487-2.135-2.176-.472-.943-.306-2.124-1.016-2.926-.597-.675-1.453-1.005-2.029-1.747-.734-.947-.908-1.94-1.176-3.067-.33-1.394-1.124-2.58-1.593-3.938-.793-2.288-1.019-4.789-.15-7.083.4-1.056 1.006-1.457 1.589-2.355.668-1.03.762-2.418 1.36-3.536.433-.81.811-1.507 1.57-2.013.935-.623 1.775-.613 2.527-1.561.666-.839 1.094-1.655 2.055-2.23.839-.5 2.042-.327 2.782-.791.805-.505 1-1.437 1.99-1.854.876-.369 1.866-.408 2.798-.338 1.14.087 2.364.558 3.512.434 1.138-.124 1.928-.947 3.133-1.104 1.246-.163 2.454-.163 3.596.437.958.503 1.66 1.813 2.719 2.027.94.19 1.495-.258 2.473.091.838.3 1.552.566 2.005 1.423.133.252.164 1.058.367 1.223.46.375.171.131.801.041 1.214-.173 2.564-1.004 3.727-1.42 1.172-.42 2.452-.848 3.679-1.07.403-.072 1.047.012 1.415-.097.442-.13.718-.459 1.168-.639 2.292-.919 4.706.431 6.97.632 1.546.137 1.977.386 2.903 1.649.793 1.083 1.366.958 2.43 1.53.926.499 1.848 2.001 2.391 2.887.715 1.166.324 2.063.556 3.243.2 1.024 1.272 1.332 2.007 2.072 1.026 1.034 1.935 2.248 2.913 3.336.194-1.525-.683-3.133-1.086-4.567-.475-1.692-.487-3.332-.775-5.035-.534-3.165-1.106-6.37-1.347-9.586-.258-3.437-.455-6.92-.829-10.332-.162-1.484-.003-2.942-.1-4.418-.044-.675-.102-1.332-.107-2.008-.004-.72-.289-2.386.003-2.997.506-1.062 1.803.415 2.59.786.548.258 1.17.287 1.707.582.82.45 1.128 1.199 1.678 1.904 1.767 2.268 4.71 3.857 7.066 5.445 5.705 3.846 11.037 8.35 16.89 11.956 3.15 1.942 6.345 3.634 9.292 5.903 2.48 1.91 5.995 4.432 6.999 7.55 1.503-.979 2.17-2.782 3.31-4.097 1.298-1.499 2.539-3.047 3.818-4.566.82-.973 1.809-1.565 2.628-2.475 1.25-1.388 2.542-2.833 3.92-4.132 5.036-4.747 10.294-9.14 15.726-13.45 1.576-1.25 3.182-2.464 4.735-3.744 1.581-1.303 2.953-2.892 4.622-4.055 1.447-1.007 2.663-2.286 4.144-3.247.926-.6 3.168-2.572 4.434-1.723.422.283.399.792.562 1.217.375.978.946 1.796 1.496 2.682 1.032 1.665 1.844 3.458 2.746 5.196.91 1.754 1.932 3.4 2.597 5.272.726 2.044 1.33 4.131 2.173 6.133 1.72 4.083 3.465 7.992 4.366 12.352.491 2.372.777 4.752 1.031 7.162.146 1.382.201 2.717.082 4.105-.059.679-.66 2.464-.186 3.017 3.724-2.037 7.269-3.94 11.34-5.016 1.86-.491 3.685-1.439 5.57-1.983 2.272-.656 4.676-1.392 6.863-2.275 2.049-.828 4.2-1.348 6.278-2.11 2.254-.826 4.7-1.56 7.037-2.145 4.773-1.195 9.896-2.321 14.475-4.117 1.282-.502 2.506-1.128 3.803-1.602.832-.305 2.162-1.082 3.038-.992 1.892.192 1.958 3.932 1.95 5.382-.027 4.545-.106 9.104-.656 13.695-.592 4.935-.528 10.274-2.438 14.96-1.65 4.05-5.622 7.423-9.31 9.612-2.398 1.424-4.877 3.149-7.434 4.24-2.203.941-4.434 1.684-6.66 2.528-4.772 1.81-9.78 3.18-14.871 3.722 1.033.674 2.181 1.298 3.275 1.88 1.292.688 2.198 1.458 3.348 2.3 1.925 1.41 3.873 2.9 5.45 4.72 2.111 2.435 3.602 4.6 4.04 7.897.43 3.228-1.38 6.338-2.463 9.277-1.281 3.478-2.542 6.938-3.613 10.489-.347 1.15-1.254 2.981-1.066 4.213.09.595.557.96.55 1.611-.018 1.465-.715 1.355-1.832 1.21-1.49-.192-3.013-.251-4.492-.507-1.405-.242-2.752-.188-4.134-.391-1.416-.209-2.746-.393-4.187-.468-.739-.038-1.477-.071-2.216-.082-.736-.01-1.032-.25-1.676-.356-.655-.109-1.349.161-2.048.063-.736-.102-1.504-.528-2.236-.532-.929-.006-.928.093-1.835-.17-.677-.196-1.335-.076-2.026-.137-1.517-.135-3.062-.428-4.553-.746-.98-.21-1.93-.26-2.913-.396-.707-.097-1.417-.57-2.126-.55 1.93 3.078 2.619 5.532 2.592 9.136-.026 3.375-1.356 6.376-3.252 9.138-1.7 2.477-3.649 3.888-6.45 4.878-1.648.583-2.325.385-2.485 2.23-.15 1.722-.271 3.399-.536 5.11 1.842-.85 7.072-4.603 8.136-1.618 1.192 3.346-1.624 6.329-3.208 8.93 1.886-.248 3.887-1.102 4.317 1.37.196 1.134-.267 2.329-.695 3.357-.298.716-1.808 2.614-1.686 3.23.064.319.929.773 1.13 1.064.29.42.398.9.476 1.396.175 1.097-.027 2.238-.59 3.205-.94 1.622-3.432 3.02-4.996 3.925-1.961 1.136-3.58 2.321-5.859 2.626-.194.026-.956.089-1.044.174-.157.153-.175 1.7-.231 1.983-.243 1.224-.574 2.6-1.072 3.747-.793 1.827-3.46 2.287-5.174 3.052-2.482 1.107-4.946 1.896-7.528 2.73-1.278.413-2.557.818-3.864 1.13-.86.206-3.214.235-3.836.81-.385.355-.5 1.221-.874 1.671-.195.234-.612.06-.78.215-.464.43-.645 1.651-1.06 2.22-.082.113-.829.794-.855.995-.048.365.672 1.435.827 1.774.57 1.241 1.111 2.491 1.531 3.793.735 2.277.694 4.697 1.385 6.949 1.46 4.755 2.148 9.714 2.948 14.627.425 2.61.924 5.22 1.396 7.82.465 2.567 1.524 4.975 2.344 7.438 1.518 4.558 1.57 9.586 1.095 14.316-.132 1.307.518 4.902-1.818 3.759-2.036-.996-1.874-5.012-2.425-6.899-1.456-4.994-2.049-10.25-3.574-15.253-1.564-5.13-2.443-10.221-3.293-15.508-.878-5.462-2.024-10.859-2.968-16.298-.2-1.145-.279-5.918-1.674-6.306-.583-.162-2.022.335-2.734.365-1.61.067-3.121.405-4.683.788-2.175.534-4.302.15-6.452.584-1.25.254-2.526.349-3.776.6-1.356.274-2.606.834-3.974 1.076-2.363.417-4.719-.009-7.1.127-2.446.14-5.01.411-7.457.252-2.518-.164-4.213-1.665-6.683-1.683-2.364-.018-4.832.307-7.164-.11-1.034-.186-2.24-.446-3.227-.734-1.023-.299-1.887-1.051-2.924-1.402-2.657-.898-5.42-.205-8.2-.728-1.132-.213-2.822-.41-3.85-.885-.62-.287-.677-.385-1.267-.493-.51-.094-.918-.153-1.427-.314-1.243-.395-2.276-.605-3.482-1.19-1.013-.493-1.743-1.284-2.895-1.511-.553-.11-1.132.005-1.678-.14-.666-.176-1.345-.65-1.99-.918-1.247-.517-2.351-1.16-3.39-2.029-2.065-1.728-3.308-3.67-4.457-6.07-1.542 3.8-2.523 7.838-3.841 11.732-.63 1.857-.713 3.704-1.04 5.625-.363 2.142-.774 4.243-1.22 6.337-.156.741.086 1.506.024 2.264-.088 1.068-.428 2.118-.517 3.206-.175 2.134-.245 4.343-.304 6.483-.112 4.13.824 8.241.764 12.377-.012.856-.368 1.714-.223 2.574.194 1.155.643 1.918.685 3.145.073 2.117.261 4.22.134 6.338-.206 3.428-1.076 6.938-2.39 10.19-.702 1.74-1.263 3.622-2.223 5.24-.694 1.169-1.616 3.14-3.24 2.804-1.466-.303-1.657-1.373-1.348-2.621.483-1.948.803-3.862 1.157-5.835.387-2.153.292-4.31.594-6.467.312-2.226.974-4.472 1.049-6.728.083-2.538-.918-5.116-.678-7.657.108-1.144.382-1.867.206-3.053-.077-.511-.13-1.027-.199-1.54-.088-.668.214-1.503-.12-2.07zM39.022 149.329c-.035-4.744-.133-9.455-.11-14.137.005-1.065-.36-4.743.644-5.447.624-.438 1.495.113 1.653.85.1.465-.696.317-.435 1.1.257.77.53.297 1.087.767.937.79.362 4.14.34 5.29-.01.61.16 1.217.16 1.758 0 1.006-.321 2.08-.194 3.125.107.88.355 1.874.285 2.768-.057.725-.334 1.19-.278 1.968.033.457.207.807.234 1.312.124 2.367.373 4.693.64 7.057 1.056 9.367 2.929 18.536 2.695 28.003-.06 2.434.178 4.865.076 7.303-.105 2.506-.357 5.004-.465 7.511-.145 3.4.012 6.626.043 9.801.014 1.453-.103 3.34-.067 4.965.02.956.157 2.026.104 3.073-.065 1.295-.28 2.66-.276 3.947.003.786.218 1.502.248 2.205.034.801-.08 1.45-.092 2.24-.008.496.15 1.01.128 1.506-.042.949-.186.546-.256 1.125-.154 1.275-.007 2.641.037 3.918.146 4.276-.077 8.613-.224 12.878-.071 2.049-.121 4.162.073 6.201.068.704.518 1.861.289 2.516-.095.273-.273.392-.382.619-.368.014-.496.18-.386.497l.03.968c.032 1.085.038 2.182.138 3.264.087.938.753 2.142-.545 2.356-2.294.378-2.29-3.08-2.388-4.42-.346-4.758-.678-9.666-.378-14.435.133-2.115.013-4.108-.01-6.225-.03-2.496.31-5 .385-7.498.14-4.729.356-9.39.183-14.12-.401-10.931-.318-21.935-.488-32.878-.082-5.336-.631-10.685-1.36-15.968-.356-2.583-.804-5.183-.92-7.79-.12-2.659-.053-5.315-.218-7.973" transform="translate(60 29)"/>
                    <path d="M145.2 218.037c4.012 3.069-3.414 9.902-5.515 12.003-.903.902-1.677 1.811-2.694 2.608-.536.42-3.044 1.787-3.15 2.437-.116.695 1.882 2.784 2.29 3.367.89 1.272 1.799 2.53 2.703 3.792 3.301 4.606 7.012 9.285 8.592 14.806.334 1.166.89 3.006.528 4.221-.46 1.542-1.495.536-2.075-.415-1.382-2.27-2.052-4.678-3.753-6.81-2.097-2.626-4.38-5.076-6.336-7.818-1.938-2.718-3.193-5.728-4.938-8.545-.936.76-2.033 1.325-2.898 2.087-.382.337-.57.856-.908 1.228-.452.5-.921.717-1.461 1.127-.866.657-2.336 1.625-2.923 2.506-.8 1.197-.853 3.04-1.452 4.375-1.443 3.214-3.785 6.11-5.655 9.09-.745 1.187-1.747 2.486-2.931 3.273-1.533 1.019-2.555-.878-2.842-2.236-.585-2.777 1.872-6.076 3.037-8.457 1.463-2.992 3.557-5.61 5.038-8.583.795-1.6 1.165-2.79 2.48-4.061 1.074-1.039 2.273-1.775 3.308-2.815.494-.496 1.055-.626 1.6-1.013.495-.352.66-.732 1.072-1.21.868-1.012 1.903-1.694 3.054-2.228 1.247-.58 2.437-2.02 3.589-2.906 1.54-1.185 3.128-2.25 4.6-3.522 2.53-2.187 5.008-4.206 7.64-6.3M226.291 182.376c.578-.367.507-.616.116-.97l-.116.97m1.78-32.91c.415-1.018.415-1.018-.11-1.183l.11 1.182m2.178 3.089c-.046 3.356-.268 6.748-.227 10.096.017 1.394.037 2.825-.034 4.226-.066 1.313-.013 2.454-.024 3.678-.004.393-.198.91-.193 1.385.008.885-.103 1.759-.175 2.641-.141 1.734-.22 3.472-.304 5.21-.077 1.6-.072 3.19-.086 4.792-.013 1.483-.595 2.341.096 3.776-1.167.162-.55 1.205-.656 2.177-.079.732.007 1.24-.061 1.943-.068.7-.321 1.5-.192 2.214.065.363 1.022.904-.233.674-.186.272-.035.463.454.572-.043.213-.16.376-.351.488.035.579-.129 1.378-.228 2.015-.143.916-.349 1.864-.371 2.795-.014.553.204.26.439.58-.982.681.048 1.516-.278 2.455.156.529-.056.745-.636.648l.055.793.054.784c-.26.07-.36.229-.305.478.01.42.386.868.354 1.274-.098.18-.21.353-.336.516-.127.268-.06.493.203.674-.102.479-.175.845-.222 1.267-.056.502-.253 1.29.275 1.725-.835.291-.32.566-.284 1.181.05.854-.17 1.57-.184 2.375-.003.156.086.506.067.64.077.16.123.328.135.507l-.302.299c-.073.486.103 1.456-.17 1.581.692.271.357 1.224.432 1.834-.016.183-.074.353-.174.508.122.075.24.157.353.245-.802.474-.49 2.784-.466 3.626.048 1.612-.06 3.23.041 4.837.171 2.712.05 5.351.096 8.05.011.647.236 1.435.148 2.061-.087.62-.288.923-.253 1.625.065 1.303.14 2.513.16 3.844.02 1.341.013 2.557.106 3.82.082 1.117.238 2.923-.851 3.608.293.153.897.289.783.646-.967-.067-1.279.477-1.69-.51l-.657.703c-1.011-1.908-.654-4.341-.66-6.426-.002-1.452.012-3.005-.018-4.287-.095-4.136-.23-8.31-.133-12.456.194-8.337-.759-16.76-.335-25.101.78-15.37 2.455-30.804 2.76-46.202.09-4.496.345-9.008.45-13.51.046-2.021.072-4.034.059-6.071-.008-1.176-.158-2.377-.044-3.544.192-1.96.242-.64.712-.517.462-2.213 1.516-.534 1.663.868.076.715-.078 1.454.138 2.144.227.723.541 1.02.593 1.85.244 3.94.407 7.947.507 11.896M59.793 211.08l-.579.532c1.02.218 1.698.77 2.575 1.404-.236.405-.632-.262-.863-.071-.539.443.118.857.048 1.146-.047.196-.286.643-.274.852.015.264.59 1.047.677 1.39-.638-.285-.797-.496-1.367-.116 1.103.406.864.867.864 1.987l-.772-.189c1.094.306.045 1.326.984 1.726-.718 1.016-.28 1.48.3 2.494-.392.094-.855.117-.87.652-.022.713.487.387.892.767-1.01.348-.552.518-.5 1.356.052.846-.424 2.766.85 2.502-.04.357-.54.48-.537.55.021.717.031 1.421.037 2.138.007.952.074 1.94.193 2.822.271 2.03.253 4.116.264 6.117.012 2.14.572 4.416.308 6.621-.234 1.963-.466 3.689-.375 5.674.074 1.626.942 4.644.07 5.976-1.426 2.183-3.428-1.141-3.523-2.576-.327-4.937-.228-9.905-.451-14.862-.22-4.91-.31-9.781-.735-14.742-.434-5.068-.515-10.025-.58-15.115-.06-4.711-.611-9.364-.8-14.068-.206-5.128-.177-10.215.041-15.342.229-5.363-.34-10.726-.124-16.074.052-1.27.083-2.575.077-3.87-.006-1.275-.335-3.063-.003-4.295.19-.71.167-.546.382-1.01.112-.242-.627-.537.091-.726.839-.22.62 2.341.48 2.7 1.249-.093 1.106.51 1.313 1.756.138.824.204 1.679.254 2.512.093 1.576.6 3.048.798 4.557.02.147-.12.418-.081.704.067.504.213 1.013.315 1.514.23 1.129.243 2.047.198 3.195-.094 2.424.004 4.897-.154 7.294-.114 1.738.065 3.353.01 5.086-.03.977.203 1.634.119 2.608-.08.927-.02 1.947-.006 2.885.025 1.76-.223 3.827.148 5.477.215.952.19-.825.399.39.02.118-.236.3-.215.453.143 1.057.353 2.61-.19 3.511l.598.035c-.221.618-.422.062-.557.615.08.167.19.31.328.43.22.128.188.275-.094.44.156.521-.075 1.262.108 1.87.136.449.417.542.506.927l-.142.478c.072.302.215.568.429.796.012.507-.326 1.202-.455 1.68l-.566-1.085v1.467l1.093-.077c-.407.375-.656.784-.827 1.299-.295.89-.437.91.497 1.494.192.12 1.115.432 1.15.642.062.394-.365.28-.471.41-.213.265-.754.72-1.089.312.599-.271.311-.516.114-1.103-.48.236-.638.627-.31 1.077M30.373 182.014c-.355-3.537-.48-7.188-.611-10.748-.058-1.554-.446-3.175-.324-4.792.069-.911.227-1.826.313-2.74.13-1.386.362-1.6 1.618-2.207.34.772.059 1.127.025 1.83-.035.713.037.995.298 1.804.527 1.625.608 3.41.817 5.11.392 3.184.54 6.369.969 9.555.349 2.584.12 5.167.506 7.646.374 2.4.162 5.195.072 7.615-.211 5.667-.207 11.179-.14 16.856.036 3.065-.242 6.246-.208 9.23.03 2.626.127 5.277-.04 7.927-.081 1.297.05 2.399-.03 3.689-.065 1.02.323 2.216.204 3.214-.038.316-.295.552-.339.845-.074.499.129 1.409.105 1.965-.057 1.36-.005 2.548-.132 3.794-.31 3.054.12 6.357.05 9.442-.034 1.528.027 3.068-.145 4.589-.131 1.16.035 3.582-1.541 3.285-2.165-.408-1.629-4.393-1.714-5.953-.18-3.283.21-6.567.202-9.848-.015-6.94-.03-13.878-.006-20.817.048-13.705.435-27.62.051-41.29M4.453 216.272c-.16.752.085 1.316.042 2.02-.032.518-.187.804-.235 1.31l.077.426c.366.3.34.537-.076.713.026.319.214.667.222.968.062 2.153-.132 4.58-.175 6.805-.022 1.195.036 2.298.095 3.454.044.857-.412 1.812-.36 2.705.033.56.328 1.107.322 1.732-.005.555-.318.965-.35 1.635-.036.791.258 1.625.297 2.376.034.653-.304.868-.309 1.437l.14.292c.45.269.504.638.161 1.107l-.258.358c-.056.282.015.53.213.745.02.455-.131.941-.127 1.323.013 1.109.216 2.303.301 3.418.208 2.71.453 5.42.318 8.14-.026.511.325 1.116-.472 1.467-.177.078-.618-.158-.776-.127-.473.091-.647.46-1.108.16-.524-.34-.403-1.06-.407-1.578-.046-5.215-.844-10.541-1.015-15.824-.176-5.421.082-10.86.113-16.287.033-5.892-.195-11.82-.095-17.705.086-5.102.347-10.184.12-15.331-.136-3.123-.89-6.166-.945-9.3-.021-1.25-.184-2.17.569-3.16 1.006-1.322 2.113-1.143 2.974.175.64.979.85 2.415.262 3.483-.116.21-.822.742-.85.865-.088.379.184.42.365.892.012.032-.073.641-.046.78.119.61.292 1.107.198 1.719l-.168.387c-.49.313-.436.624.165.934.574.29.65.628.23 1.01.024.279.05.557.075.835l-.58-.666c.046 1.096.613 1.71.812 2.716.166.836-.261 1.834-.197 2.801.048.73.118 1.216.122 1.89.003.474.359 1.008.375 1.26.029.464-.307.86-.337 1.266-.033.452.043.644.143 1.198.459 2.526.056 5.489.045 8.058-.006 1.253-.056 2.526 0 3.778.029.644.109 1.355.077 1.928-.028.505-.106.839.053 1.412M211.57 219c-.32-.06-.42.51-.103.569l.103-.57m3.006 1.907c-.048.853-.368.874-.257 1.908.072.673-.124 1.686.542 2.11-.777.438-.103 3.606-.078 4.469.054 1.93.063 3.859.098 5.788.066 3.715.422 7.363.104 11.066-.165 1.919-.226 3.847-.301 5.77-.038.951.437 3.672-.972 3.62-2.495-.092-1.284-6.69-1.298-8.15-.033-3.473-1.105-6.804-1.243-10.257-.124-3.096-.41-6.37-.69-9.515-.288-3.222-.06-6.468.022-9.702.089-3.536.063-7.07.186-10.604.145-4.184-.01-8.367.103-12.552.053-2 .177-4.03.357-6.026.149-1.642-.132-4.228.748-5.66 1.267.73.636.767.834 1.954.145.865.417 1.057 1.014.206.035.482-.252.971-.212 1.398.05.511.35.728.462 1.26.157.753-.511 2.13.426 2.564-.361.416-.153.709-.128 1.198.034.682-.074 1.543-.058 2.272l.584-.686c.475.218.242.603.187.968-.905-.66-.696.685-.706 1.025-.018.63-.005 1.034-.083 1.718-.053.468-.092 1.854.04 2.277l.793.278-.055 1.047c-.499-.335.1-.936-.886-.626.358.5.409.453.338 1.132.128 1.477.207 3.689.16 4.956-.014.362-.364 1.008-.367 1.491-.002.491.208.916.232 1.368-.007-.14-.136.865-.139.884-.078.52-.075.562-.134 1.229-.116 1.305.119 2.65.053 3.938-.026.52-.126.974-.206 1.609-.108.855.168 1.697.165 2.513-.003.648-.271 1.438.365 1.762M243.125 194.72c.775-.364.793-.494.191-1.101l-.19 1.1m.464-13.38c-.017.39.022.487-.048.916.312.355.287.564-.076.627-.09.084-.153.183-.19.297-.045.989.245 2.057.89 2.793-.836.469-.724 1.345-.58 2.143.166.926-.027 1.003-.19 1.8-.261 1.272.932 1.164.36 2.465-.325.738-.515-.02-.119.844.41.89.613.396.228 1.455-.058.158.207.309.184.456-.044.28-.423.009-.434.422-.005.178.278.351.292.528.051.642.06 1.295.09 1.938-.557-.243-.612-.927-.806-1.485-.306.08-.145 1.295-.145 1.6l.585-.237c-.012.666.476.652.943.917-1.135.492-.375 1.069-.567 2.094-.114.605-.704 1.2-.76 1.877-.02.25.327.471.39.72.039.149-.057.64-.004.847-.006-.024.42.364.483.538.2.546-.152 1.046-.174 1.555-.042.951.06 1.567-.029 2.488-.088.904.04 1.996.053 2.85.007.467.135.637.175 1.158.069.895.088 1.89.087 2.709-.001.802.07 1.611.11 2.412.037.726.115 1.58.09 2.226-.017.48-.055 1.152.053 1.769.137.79.094 1.531.3 2.316.32 1.22.2 1.35-.143 2.527-.262.897.157 1.621.177 2.46.016.662-.575 1.653.481 1.624-.138.86.81.853.81 1.92l-.629-.486c-.277.404-.656-.006-.803.35-.18.436.064.85.585.752-.199.317-.574.591-.467 1.023l.915-.589c-.2.566-.387.934-.43 1.525-.054.785.536.517-.192 1.138.712.5.409 1.104.399 1.916-.006.468-.08.652.052 1.258.146.673.117.956-.072 1.56-.183.585-.737.26-.233 1.145.865-.99.514.4.345.838-.401 1.04-.437 1.186.6 1.764-.332.27-.676.52-1.034.75.142.294.389.282.738-.036-.006.195-.072.607-.025.819-.022-.096-.394.163-.403.308-.025.413.463 1.002.48 1.505.034.987.152 1.294.1 2.224-.047.823-.04 1.643-.04 2.468 0 .878.285 1.451-.779 1.482-1.578.044-1.713-1.859-1.903-2.992-.572-3.404-.201-7.112-.468-10.576-.239-3.095-.351-6.199-.607-9.3-.518-6.292-1.026-12.311-1.341-18.608-.159-3.154-.112-6.462-.125-9.716-.016-3.45.07-6.913.016-10.346-.058-3.664-.343-7.376-.236-11.088.108-3.785 0-7.893 1.22-11.491 1.77 3.276 1.516 7.167 1.821 10.834M16.488 245.011c-.302-6.131-.145-12.3-.106-18.438.038-6.003-.203-12.125.626-18.07.36-2.58.696-5.228.681-7.831-.01-1.59.18-3.192.165-4.773-.01-1.109-.33-2.187-.28-3.332.114-2.655.176-5.625.64-8.235.15-.84.33-1.224 1.07-.548.745.683.12 2.294 1.02 2.665.158-.671.263-.448.305-.133.03.23-.168.646-.184.925-.019.33-.224 1.54-.15 1.848.13.548.637.423.87.806.214.35.31 1.508.296 1.955-.028.916-.62 1.745-.497 2.671.065.49.378.776.33 1.24-.045.428-.375.689-.464 1.033-.137.531-.063.409.033 1.027.068.439.14.807.115 1.287-.045.84-.279.912.58 1.158-1.237.808-.69 2.46-.816 3.62-.059.53-.36 1.32-.17 1.823.27.712.83.455.7 1.338-.356-.44-.86-.064-1.301-.216.169.614 1.414.67 1.348 1.292-.015.14-.912.386-1.035.62-.118.227.205.768.15 1.1l-.732-.577c.08.266.448 1.639.438 1.682-.048.204-.537.203-.666.71l1.028-.346c.027.404-.197.558-.318.872.333.228.314.419-.06.574-.21.068-.313.191-.311.371.04.657 1.08.833-.506.905.154.347 1.235 2.292.375 1.77.152.82.278 1.607.328 2.439.044.743-.194 1.15-.293 1.783-.133.152-.241.32-.325.504.04.162.126.297.257.403.056.906.213.95-.455 1.61 1.116.98.076.417.034 1.268-.025.503.207 1.395.254 1.94.055.64.244 1.365.155 2.006-.086.623-.54.854-.165 1.388-.69.147-.222.92-.21 1.085.161.092.272.22.334.385l-.28.482.034 1.158c.02.705.038 1.123.16 1.726.041.207-.185.468-.075.686.204.404.474-.087.674.515-.671.012-1.008.567-1.01 1.226-.002.409.328 1.016.312 1.548-.016.5-.143.987-.151 1.485-.008.511.137.978.16 1.469l.268.566c-.246.081-.358.231-.333.45-.043.627-.02 1.017-.16 1.68-.282 1.334.267 3.163.211 4.77-.016.47-.116.949-.06 1.417.058.477.452.962.486 1.363.046.53-.359 1.237-.288 1.844.162 1.386.4 2.889.369 4.5-.02 1.049-1.28 3.622-2.366 2.396-.464-.524-.248-3.113-.298-3.84-.086-1.218-.164-2.435-.248-3.652-.172-2.474-.5-4.913-.493-7.393M188.68 205.182l.354-.046-.256-.804c-.306.068-.123.582-.099.85m-1.303-.815c.102-1.712-.135-4.483 1.016-5.825.44.678.25.812.352 1.316.127.63.243 1.254.817 1.568.416-1.097 1.178.617 1.251 1.046.229 1.332.117 2.912.244 4.28.248 2.681.424 5.315.4 8.003-.017 1.928-.014 3.938.095 5.886.064 1.147.02 2.278.037 3.453l.026 1.96c.004.26-.203 1.193-.195 1.21.222.433.188.783.648 1.326-.833.246-.42.578-.362 1.471.069 1.082-.058 2.157-.048 3.242.008.764.074 1.533.094 2.29.012.47-.078.986-.019 1.47l-.115.435c.305.076.42.238.346.486-.076.573-.342 1.022-.377 1.702-.057 1.109-.165 2.216-.307 3.312-.09.697-.396 1.593-.425 2.263-.038.896.63 1.26-.27 1.807 1.02.593 1.283 2.639-.103 2.756.955.605 1.013.479.91 1.513-.118 1.168-.435 1.658-.18 2.827-.479-.394-1.013.586-1.559.672-.795.127-1.094-.27-1.418-.988-.743-1.643-.365-4.116-.434-5.884-.156-4.007-.315-8.057-.342-12.04-.027-3.948.059-7.92.042-11.874-.004-1.072-.072-2.158-.014-3.23.032-.602.34-1.326.28-1.909-.064-.606-.292-1.053-.273-1.763.023-.9-.078-1.808.008-2.709.133.042.944.423 1.026.183.135-.396-.411-.325-.583-.585-.502-.757-.478-1.724-.548-2.657-.174-2.323-.034-4.684-.02-7.013M259.652 249.906c-.38.934-.273 2.178-.643 3.006-.423.946-1.267.704-1.827-.093-.575-.82-.39-2.507-.477-3.475-.112-1.267-.109-2.496-.061-3.767.17-4.545.151-9.177.264-13.685.122-4.862-.187-9.769-.038-14.635.153-5-.241-10.028.535-14.984.993.718.312 1.244.497 2.328.117.692.417 1.194.607 2.029 1.021-.242-.055.32.28.724.13.157.021 1.05.549.336-.298 1.132-.088 1.312.209 2.317.273.927-.158 1.606-.274 2.333-.024.156.08.765.092 1.048.018.47.18.997.276 1.355.122.454.537 1.31.555 1.959.07 2.443-.63 5.049-.364 7.51.099.918.267 1.423.18 2.33-.102 1.072-.419 1.203-.092 2.204.034.103.442 1.092.442 1.036.002.464-.46.809-.481 1.317-.038.944.562 1.127.088 2.146-.357.767-.55.897-.532 1.908.017.94.045 1.711.079 2.622.047 1.261.387 2.401.365 3.696-.018 1.067-.338 1.954-.39 2.954-.055 1.054-.157 2.296-.085 3.35.02.304.229.577.214.854-.028.508-.464.786.032 1.277M21.328 172.026c-2.115.557-2.501-3.741-2.493-5.02.008-1.15.153-2.314.25-3.46.046-.555-.026-3.22.521-3.509 1.72-.906 1.864 4.555 1.934 5.218.26 2.454.276 4.378-.212 6.77M271.633 250.261c-.576.736-1.36.243-1.852-.297-.779-.854-.794-1.885-.743-2.985.058-1.236.265-2.448.537-3.652.277-1.228.407-2.827.925-3.97.266-.586-.021-.835.785-.633.325.082.54.308.717.578.486.742.256 2.238.208 3.062-.16 2.717-.725 5.136-.577 7.897M203.156 238.027c-.224.61-.107.83-.806.795.291.639-.42 1.165-.929 1.776-.289-1.038-.042-2.152-.051-3.254-.01-1.299-.02-2.592-.072-3.891-.099-2.475-.283-4.83.393-7.225.431.553 1.976 2.568.13 2.303.537.562.415.732 1.166.246.633 1.142-.04 2.331-.127 3.495-.089 1.199.405 2.204.302 3.402l-.318-.684c-.622.31-.007.399-.13.925-.173.745-.276 1.059-.8 1.77.686.216.615.316.79 1.038l.452-.696M242.494 152.95c.794.747.284.648.502 1.566.05.208.255.625.271.72.043.257.198.682.11 1.06.003-.016-.562 1.18-.572.996.01.19.235.495.263.701l.305.074-.002.864c.022.428.07.957-.138 1.354-.23.438-.532-.036-.67.177-.255.399-.1 2.526-1.143 1.71-.603-.47-.507-3.646-.475-4.357.045-1.022.122-2.109.3-3.118-.02-.328.05-.632.211-.91.044-.384.22-.437.531-.16.234-.236.336-.33.507-.676M200.99 246.877c-.001-.923-.506-4.811.65-4.892 1.084-.077.533 2.667.563 3.356.013.299.387.6.344 1.016-.048.46-.406.206-.517.715-.104.474.265 1.354.236 1.904-.026.495-.415 1.183.404 1.179l-.181 1.017h-.443c-.348.74-.008.584.056 1.13.036.314.167.783.089 1.302-.101.67-.202 1.147-.534 1.724-.762-.736-.306-3.256-.473-4.234-.237-1.376.329-3.003-.194-4.217M40.878 75.44c-.897-4.506-1.158-9.344-.395-13.89 1.505 1.257.775 4.838.784 6.59.005 1.013.394 7.246-.39 7.3M40.78 94.527c1.107 1.302.607 2.362.642 3.513.05 1.613.447 3.41-.258 5.1-.106.257.149.654-.282.695-.895.087-.529-1.096-.524-1.591.01-1.035-.042-2.07-.214-3.09-.163-.96-.285-1.89-.375-2.85-.035-.382-.09-3.24 1.01-1.777M2.48 138.152c-.042-3.01-.207-6.01-.259-9.018-.043-2.462-.51-6.052.564-8.296.52 2.78.329 5.785.326 8.604-.003 3.283-.098 6.542-.273 9.82l-.358-1.11" transform="translate(60 29)"/>
                    <path d="M61.086 219.741c-.97-.414.144-1.41-.985-1.726l.773.19c0-1.187.268-1.572-.864-1.988.57-.38.73-.169 1.367.115-.087-.342-.523-.94-.545-1.263-.352-.167-.353-.347-.002-.539.31-.143.359-.29.144-.44.051-.266-.51-.536-.126-.963.298-.333.734.243.94-.111-.553-.401-1.205-.504-.876-1.167.252-.507.6-.334.96.062.696.763-.023 2.18-.016 2.982.001.273.285.608.29.758.006.188-.011.911-.012 1.198-.002 1.176-.036 1.6.347 2.73-.6.198-.714.245-1.395.162M257.895 188.137c-.646-.23-.49.384-.592.657.058.115.147.204.266.266l-.264.861.625.097c-.005.321-.15.46-.438.415.378.385-.31 1.163-.37 1.63-.03.246.186.601.12.824.242.393.164.576-.233.55l-.945.206c-.286-1.508-.47-6.98 1.632-7.445.103.649.158 1.283.199 1.939M59.334 178.36c-.277-1.962-.016-4.023.03-5.996 1.558 1.36.682 4.91.835 6.802.057.709.379 1.773.26 2.642-.096.707-.541 1.026-1.067 1.608-.041-1.052.057-1.638.306-2.611.197-.774.517-2.444-.364-2.444M70.365 168.334c-.106.417-.292 1.349-.992.877-.229-.154-.106-2.179-.124-2.522-.091-1.797-.185-3.46.37-5.203.871.203.421 2.115.445 2.708.027.654.18 1.225.24 1.879.067.719-.225 1.605.06 2.261M19.452 229.145c-.376-.534.08-.765.165-1.388.089-.641-.1-1.366-.155-2.006-.047-.545-.279-1.437-.254-1.94.042-.851 1.082-.288-.034-1.267 2.161-2.138 1.011 1.388.559 2.516 1.53.636.74 2.925.6 4.306l-.88-.22M21.11 67.104c.148 1.64.329 3.27.526 4.905.142 1.174.754 3.053-.579 3.72-.18-.598.11-1.09.104-1.725-.007-.804-.34-1.586-.448-2.378-.185-1.353-.387-3.376.397-4.522M19.421 247.837l-.05-.982c.72-.002.597.083.608-.433-.81.031-.827-.46-.853-1.292-.062-2.02-.126.01.203-1.01.13-.4 1.168-1.516-.014-1.575.287-.124.632-.18.956-.247v6.518l-.85-.979M26.55 142.05c-1.006-.362-.703-4.924.62-3.814.215.18.193.56.258.861.15.074.267.177.355.309.147.17.038.33-.33.48.028 1.008.129 1.68-.904 2.164M244.122 191.566c-.316-.696-.71-.591-.684-1.474.011-.356.246-.682.266-.902.039-.416-.11-1.04-.233-1.56.549.146.175-.561.522-.552.633.019.668.868.724 1.258.067.467.353 3.798-.595 3.23M245.992 251.212c.1-1.229-.021-1.622-.06-2.764-.017-.504-.542-1.216-.45-1.617.185-.802.734.706.761.772l.503-1.233.29 4.842h-1.044zM61.548 210.384c-.644-.392-1.816-.658-1.924-1.385-.137-.928.504-.67 1.134-.447.287-1.048.15-1.245 1.233-1.245l-.191.613c-.337.382-.325.652.035.81.27.083.307.208.109.375l-.39.619.721.18-.727.48M21.335 195.534c-.79-1.392.061-2.244.106-3.683.03-.942-.753-1.796.471-2.05.238 1.53.107 3.087.154 4.629l-.753-.187c-.07.421.445.923.022 1.291M227.005 214.935c.014-.552.475-.583.475-.63 0-.331-.255-.48-.286-.564-.141-.387-.935-.959.073-1.31-1.034-.854.386-1.977 1.006-2.521-.097.786-.005 3.336-.908 3.242 1.051.725.822.973.045 1.87.125-.095-.01-.123-.405-.087M19.668 241.476c-.812-1.334-.306-3.208-.332-4.69.805.557.799.395.928 1.376.091.69 0 1.527 0 2.224 0 .307.214 1.732-.228 1.601-.203-.06-.159-.437-.368-.51M60.023 201.687c-.288-.377-.202-.58-.267-.795.32-.216.306-.408-.042-.575-.19-.126-.24-.271-.147-.436.786-.54 1.128 1.446 1.128 1.965.457-.108.435-.38.427-.752.336.462.064 3.848-.465 3.869-.35-.485-.45-1.254-.45-1.64 0 .096-.212-.379-.205-.344-.099-.44.397-.678.02-1.292" transform="translate(60 29)"/>
                    <path d="M61.086 219.741c.884.108 1.03 1.259 1.096 2.199.019.263.067 2.064-.775 1.714-.496-.206.026-1.07-.021-1.419-.165-1.209-1.177-1.253-.3-2.494M259.91 219.164c.082-.843.374-1.882.33-2.713-.025-.481-.303-1.106-.36-1.627.39.107.492-.166.57-.477.295 1.803.475 3.623.544 5.448-.392-.197-.755-.347-1.084-.631M191.152 243.962c.03-.486.366-.968.786-.413.313.413.14 1.605.16 2.115.051 1.353-.078 2.239-1.514 1.404.806-.49.361-.478.316-1.315-.112-.358-.056-.689.167-.995.2.283.384.322.549.117l-.464-.913M243.655 197.874l.342.15-.09-1.939c.652.001.722.067 1.007-.514.298.105.065 2.78.11 3.316.073.877.283 1.11-.739 1.267l.29-1.336c-.108-.094-.23-.16-.368-.198-.192-.375-.705.007-.552-.746M240.795 131.685c1.349-.024 1.622.408 1.401 2.111-1.383.259-1.766-.294-1.401-2.111M259.645 236.655l-.2-.541c.556-.024.459-.67.563-1.142-.324.02-.41.451-.54.721-.027-.558-.137-1.19-.002-1.724.115-.452.586-.27.477-.903 1.136-.343.622.896.581 1.536-.06.932.229 1.833-.879 2.053M244.815 229.363c-.35-.447.692-.826.784-1.009.274-.545.107-1.359.206-1.973-.09 1.659.581 3.265.331 4.929-1.168-.506-.414-1.52-1.32-1.947M228.053 201.75c-.703.067.023-5.079.464-5.565.164.532.386 1.116.389 1.684.004.792-.423 1.057-.613 1.74-.16.582-.311 1.527-.24 2.141M61.467 232.324c-.292-.953-.683-4.106.252-4.452.07.738.187 1.472.259 2.207.088.904-.214 1.508-.256 2.387l-.255-.142M21.33 206.532c-.665-.725-.766-.704-.731-1.659.028-.775.096-1.409.905-1.551.02 1.075.438 2.213-.175 3.21M59.8 198.238c-.054-.911-.331-2.004.085-2.83 1.111.827 1.159 2.588 1.05 3.835-.335-.564-.376-.898-.484-1.534l-.65.529M256.064 193.643c.535-.117 1.063-.1 1.225-.517.088-.228-.195-.812-.167-1.063.057-.503.784-1.21.37-1.63.844-.117.531 2.294.396 2.784-.144.523.016.708-.632.901-.474.14-.967-.009-1.192-.475M61.757 227.512c-1.358.281-.739-1.941-.862-2.792.399.086 1.273.161 1.06.851-.113.367-.501.177-.84.304.432 1.035 1.585-.103.642 1.637M4.131 189.349l-.988-1.121c.198-.152.335-.341.411-.57.15-.217.112-.434-.117-.65.202-.173.297-.381.284-.626-.062-.32-.224-.728-.34-1.037.043.114-.209-1.278-.306-.929.347-1.25.795.882.826 1.521.022.448.457 3.376.23 3.412M214.576 220.906c-.88-.448-.166-1.525-.227-2.271-.09-1.1-.62-1.98.018-3.059.746.727.087 1.505.112 2.305.013.425.295.781.32 1.268.03.589-.29 1.151-.223 1.757M59.347 188.857l.03-1.918c1.286.043.99 1.624 1.065 2.543-.658.237-.6-.559-1.095-.625M191.597 222.638c.242-1.376-.092-2.728-.017-4.136.85.506 1.028 3.598.017 4.136M260.136 225.648c-.051-.515.291-.68.634-1.038.572.755.198 3.127.198 4.059-.622-.292-.332-2.602-.934-1.403l-.043-1.448c.054.23.2.388.44.475 0-.57.067-.461-.295-.645M259.915 224.53c-.215-.776-.004-1.79.007-2.608.576.45.872.327 1.056.847.059.167-.247 1.843-.212 1.843-.248-.474-.532-.501-.85-.081M60.657 204.963c.438-.017 1.06-.086 1 .653-.041.505-1.142.415-.582 1.21-.474.167-.937.164-1.44.199v-1.467l.567 1.085.455-1.68M20.055 215.767l-.768-1.733c1.035-.047.585-.033.819-.536-.112.24-.884-.993.163-.52 1.375.622.215 1.96-.214 2.789M191.08 253.548c-.23-.73.3-.913.39-1.689.109-.927-.492-.82.6-1.252.101.545.678 1.927.334 2.33-.34.396-1.131-.124-1.325.611M19.63 220.934c-.476-.642.47-2.197 1.068-2.493v2.71l-1.069-.217M31.949 165.834c-.227-.61-1.42-2.855-.001-2.56.975.205.519 1.948 0 2.56M214.777 205.605c-.742-.852-.324-2.89-.31-3.98.606.678.904 1.328.69 2.322-.06.277-.336.399-.364.528-.071.322-.086.621-.016 1.13M202.402 245.582c-.353-.412.085-1.088.039-1.643-.023-.273-.916-2.155-.016-2.151.6.003.27 1.854.304 2.159.052.476.842 1.984-.327 1.635M245.787 243.092l.189-.633c1.05.556.477 1.838.263 2.705-.406-.269-.89-.36-.974-.81-.186-.996.49-.744 1.177-.7l-.655-.562M191.628 227.034l-.036-2.613c-.012-.893-.253-1.226.61-1.515.07.67-.246.978-.284 1.691-.055 1.042.583 1.609-.29 2.437M258.89 206.54l-.38.09c-.165-.72-.533-1.146-.693-1.723-.15-.542.181-1.59.25-2.156.146.368.412.765.456 1.158.025.22-.177.829-.15.945.039.173.517.232.566.521.07.415.012.75-.048 1.164M4.012 191.945c-.552-.517-.622-1.27-.652-1.98l.58.666-.076-.834c1.607.196 1.014 1.628.148 2.148M226.835 218.873c-.38-.69-.465-1.205.166-1.74.132.583.395.689.788.316.302.94.183 1.604-.954 1.424M191.634 217.937c-.033-.986.328-1.938.045-2.906l-.174.615-.13-2.374c.628 0 .463 1.103.51 1.512.134 1.166.178 2.232.096 3.423l-.347-.27M214.447 215.366c-.388-.711-.72-4.564-.11-5.194.347 1.707.497 3.479.11 5.194M202.67 250.155c-.793.003-.43-.69-.404-1.18.023-.445-.405-1.7-.25-2.022.337-.704.593.017.755.55.253.834.04 1.82-.1 2.652M59.347 171.975c.12-1.744-.107-3.162-.456-4.873 1.097.207 1.018 4.005.85 5.018l-.394-.145M20.502 209.315c-.59-.607.108-1.065.74-.582.51.391.271 1.778.271 2.476l-.825-.184c.601-.3.561-1.626-.186-1.71M259.665 248.541c-.19-.532-.36-.856-.245-1.468.146-.771.004-.699.86-.774 0 .418.33 2.708-.615 2.242M245.287 232.698l.19-.276c.642.495 1.179.955.922 1.853-.788-.36-.868-.203-1.607.272-.113-.457.475-1.275.495-1.849M226.972 253.515l-.852-.444c.987-.62.741-1.656.848-2.64.423.284.423 1.156.534 1.645.206.907.213.912-.53 1.44M244.044 204.462c-.667-.121-.713-.373-.406-.952-.053.1.857-.549.771-.543 1.188-.077.427.9.355 1.555l-.72-.06M4.33 208.709c0-.468-.225-2.884.617-1.972.484.523.074 1.533.064 2.139l-.68-.167M191.374 242.557c.047-.637-.005-1.536.159-2.153.257-.97.16-.96.399-.065.119.448.358 2.851-.558 2.218M19.653 251.481c.258-.507-.356-1.816-.302-2.566.65.77 1.672 1.84.58 2.805-.099-.073-.191-.152-.278-.239M214.497 195.938c-.124-.468-.675-1.873.285-1.705.353.062.448.538.485.853.085.74.023.852-.77.852M259.504 212.642c-.413-.644.07-1.266.138-2.111 1.096-.12.732 1.91.732 2.522-.619.2-.24-.562-.566-.778l-.304.367M227.214 209.439c-.65-.53.024-.47-.01-.947-.026-.366-.01-.755-.148-1.213.821-.212.85.548.944 1.04.178.923.045 1.06-.786 1.12M4.763 252.59c-.036-.346-.473-2.654.232-2.235.547.326.198 1.74.173 2.263l-.405-.029M227.298 206.496l-.072-1.047c-.206-.424-.115-.621.273-.59.377.032.486-.164.326-.589l.031-1.063c.438.312.6 1.878.369 2.333-.065.126-1.028.911-.927.956M260.247 232.09c-.33-.027-.407-.96-.332-1.23.205-.74.343-.712 1.046-.712-.362.674.226 1.585-.714 1.941M20.949 198.043c-.406-.844-.442-.87.141-1.6.775.633.745 1.574.521 2.456l-.662-.856M214.42 190.553c-.785-.363-.43-1.574-.375-2.22.882.538 1.224 1.502.376 2.22M213.745 185.331c-1.124 1.602-.929-.54-.854-1.356.455.224 1.31.829.854 1.356M70.365 168.334c-.435-1.002.057-2.432-.302-3.556 1.64.125.594 2.535.302 3.556M214.995 200.65l.041-.777c.101-.286-.022-.422-.372-.405l-.408-.143.088-1.439c.431.228 1.097 1.255 1.172 1.807.024.172-.138 1.333-.52.957M228.646 191.214c0-.586-.173-1.482 0-2.055-.233-.66-.015-.926.656-.801.059.06.101.13.127.207.042.28-.288.969-.343 1.318-.104.664-.013 1.362-.037 2.032l-.403-.701M244.167 185.972c-.802-.914-.706-1.078.13-1.842.337.542.709 1.815-.13 1.842M59.399 191l-.062-1.232.549 1.266.641-.764v2.063L59.4 191M4.339 235.265c-.492-.934-.15-2.002-.03-3.032.323.865 1.298 2.704.03 3.032M241.42 162.173c1.152.106.557-.229 1.012-1.082.084-.158.21-1.139.703-.555.699.828-.756 2.305-1.715 1.637M17.805 260.348l1.624-.942c.287.676.335.823-.47 1.091-.387.13-.814.12-1.154-.149M4.974 257.849c-.41-.728-.583-2.455.284-2.597.063.445 0 2.574-.284 2.597M30.501 192.259c.014 1.988-.007 3.975-.02 5.963-.083-2.012-.188-3.96.02-5.963M201.656 255.328c.504-.874.541-1.808.686-2.801.294.815.01 1.036-.066 1.887-.079.877.41 1.24-.444 1.757l-.176-.843M4.33 212.608l-.016-3.01c.586.904.49 2.03.708 3.042l-.692-.032M45.42 202.833c-.378-.894-.186-1.812-.125-2.773.342.373.338.694.448 1.192.17.769.553 1.378-.323 1.581M203.156 238.027l-.452.696c-.175-.722-.104-.822-.79-1.038l.8-1.087c.587.305.504.879.442 1.429M226.978 247.842l-.128-2.512c.814.792.418 1.771.554 2.754l-.426-.242M42.415 143.683c-.314-1.258-.225-2.44-.192-3.734.43-.068.365 3.363.414 3.86l-.222-.126M243.389 178.923c-.003-.088-.396-2.091.308-1.77.54.247.331 1.847.267 2.287-.149-.225-.34-.397-.575-.517M42.442 148.028c-.486-.841-.374-1.773.01-2.625.146.93.539 1.832-.01 2.625" transform="translate(60 29)"/>
                    <path d="M245.22 228.505l-.483.69c-.304-.96-.371-2.316.306-3.144-.313.833.227 1.62.176 2.454M192.07 250.607l-.567.224c.22-.677-.623-.754-1.023-1.007.96-.08.42-.623.876-.772 1.03-.337.69.933.714 1.555M41.681 100.252c-.22-.43-.147-2.385.016-2.369.747.072.436 2.124-.016 2.369M214.472 208.97c-.461-.87-.154-1.831-.014-2.735.843.664.308.442.264 1.309-.031.606.048.891-.25 1.427M187.504 227.015c.168 1.913.134 3.781.09 5.7-.059-1.901-.142-3.798-.09-5.7M26.55 142.05c1.468-.689.25-1.849 1.27-2.593.236.658-.546 3.753-1.27 2.593M202.75 227.75c-.463-.73-.333-.735-.379-1.48-.023-.388-.09-.415-.497-.563.823-.365.852.11.967.95l.33.172-.42.92M55.609 158.447c.01 1.824.171 3.71-.113 5.514-.017-1.603-.491-4.032.113-5.514M243.389 178.923c.42.258 1.2 2.744.817 2.89-.195-.547-.11-1.071-.615-.473l-.202-2.417M214.807 198.13c-.681-.36-.546-1.31.152-1.693.804.425.244 1.263-.152 1.694M243.646 203.365c-.798-.975.582-2.466.829-1.97.142.284-.57.926-.594.979-.087.18-.183.628-.235.991M245.597 236.18c-.498-.618-.463-1.24-.016-1.863-.335.54 1.75.942.016 1.863M45.507 227.047c-.07-.82-.558-2.575-.077-3.285.335 1.346.186 1.988.077 3.285M244.193 214.05c-.053-.87-.111-.966.59-1.468.43.657-.31 1.547.695 1.897-.019.012-.423.297-.463.313l-.822-.742M1.56 165.224c.942-.062.877.67 1.14 1.166-.93.229-1.145.01-1.14-1.166M20.885 203.29c-.196-.915-.345-1.904.206-2.733l.309 2.366-.378-.477-.137.845zM244.171 207.869c-.45-.337-.425-1.545.3-1.428 1.235.2.18 1.036-.3 1.428M19.968 217.705c-.06-.642-.189-1.266-.306-1.902.623.38.912 1.32 1.25 1.954l-.944-.052M33.786 227.236l.024-3.946c.22 1.34.352 2.63-.024 3.946M19.866 254.009c-.733-.575-.467-1.642.326-1.71-.017.62.307 1.266-.326 1.71M42.197 138.394l.02-2.566c.52.345.617 2.35-.02 2.566M244.051 194.455c.15-.566-.115-.576-.1-.943.014-.324-.488-.08-.162-.529.082-.112 1.213.667 1.213.668.128.474-.605.918-.95.804M243.718 182.768c-.119-.341-.235-.683-.35-1.027-.015-.049.698.51.777.661.275.523.216 1.145.214 1.72l-.64-1.354M223.462 208.67l-.01 4.633.01-4.633M41.145 103.706c.017-.277.129-2.66.677-2.084.245.258-.271 1.974-.677 2.084M202.262 252.404c-.54-.237-.737-1.155.006-1.232 1.172-.121.324.917-.006 1.232" transform="translate(60 29)"/>
                    <path d="M192.01 249.054c-.601.216-.828.04-.68-.529l-.05-1.053c.579-.681.752 1.426.73 1.582M187.376 204.367l-.028 4.374.028-4.374M58.64 164.974c-.441-.527-.172-1.168-.201-1.773 1.106.394.66 1.257.202 1.773M257.93 190.018l-.625-.097c.164-.538.392-1.564 1.2-1.137l-.575 1.234M223.89 244.546c.005 1.47.008 2.939.011 4.406l-.01-4.406M259.652 249.906c-.403-.4-.296-1.62.446-.975.5.434.2 1.1-.446.975M229.211 185.217l-.027-3.172c.038 1.058.31 2.113.027 3.172M70.066 163.61c.037-.78-.4-2.256-.255-2.658.486.807 1.077 1.845.255 2.658M21.299 208.122c-.09-.718-1.153-.58-1.348-1.291.242.083 2.512.36 1.348 1.291M203.263 229.275l-.276-.499c-.751.486-.629.317-1.165-.245.48.069.797-.443 1.086-.295.406.208.659.627.355 1.039M191.778 230.707c-.019-.163-.282-2.018-.185-2.035.206-.035.51.755.535.856.164.679.185.556-.35 1.179M20.537 187.526c-.184-.597-.07-.832.163-1.425.529.7 1.078 1.35-.163 1.425M188.95 254.897c.44-.072.864-.01 1.288-.147.388-.124.271-1.164.974-.586-.801 1.172-.855 1.136-2.263.733M45.386 210.22c-.011-.506-.208-1.071.214-1.488.608.215.57 1.605-.214 1.488M31.369 161.527l-1.284.62c-.144-1.01 1.344-1.78 1.284-.62M4.012 191.945c.229-.01.457-.037.683-.081 0 .163.176 1.98-.42 1.617-.336-.205-.262-1.186-.263-1.536M201.421 240.598c.491-.59 1.327.326.75.876-.756.72-1.075-.235-.75-.876M60.623 198.716c.675 1.137-.341.702-1.142.656.315-.523.496-1.028 1.142-.656M229.976 166.504l-.001-2.269c.064.312.781 2.562 0 2.269M227.012 220.598l-.157-1.457c.19.234.969.821.818 1.195-.146.363-.404.02-.661.262M226.79 237.742c.072-1.048-.177-1.543.856-1.829l-.856 1.829M244.699 222.958c-.33-.66-.52-1.784-.09-2.417.536.382.122 1.9.09 2.417M32.775 172.66l-.172-1.65c.848.539.605.857.172 1.65M245.492 236.907l-.408-.286c.44-.374.827-.184 1.393-.113l-.275.867-.71-.468M59.739 194.48c-.046-.315.051-.59.291-.824.356.42.943 1.631-.327 1.498l.036-.673M213.995 187.99c-.029-.373-.23-1.083.356-1.14.278.626.447 1.05-.356 1.14M227.158 250.56c-.352-.238-.186-1.039-.185-1.42.664.295.51.967.566 1.654l-.381-.235" transform="translate(60 29)"/>
                    <path d="M202.363 240.676l-.739-.322c.339-.176.282-.97.822-.835.442.11.05 1.018-.083 1.157M55.802 175.817l-.072 3.482.072-3.482M243.373 158.067c-.75.061-.399-1.02-.245-1.245.484.413.556.683.245 1.245M244.228 212.237c-.18-.307-.491-.596-.192-.963.277.491.396-.05.64-.41.178.872.425.914-.448 1.373M256.614 237.053l-.024 3.2c-.286-1.07-.182-2.136.024-3.2M70.066 163.61c.148-.18.331-.313.551-.399-.01.123-.04 1.531-.137 1.6-.618.434-.415-1.019-.414-1.2M214.42 190.553l.44-.371.297 1c-.582.027-1.358.09-.736-.63M214.819 193.337l-.584.686-.045-2.073c.624.05.295 1.118.629 1.387M2.947 121.702l-.162-.864-.315.655.052-1.386c.53.415.647.98.425 1.595M187.581 213.352c-.064.632 1.078.891.946 1.27-.07.201-.646-.008-.788-.108-.366-.259-.196-.642-.158-1.162M58.131 161.477l-.164-1.67c.36.022.419 1.124.788 1.603l-.624.067M227.14 221.6c-.05-.157-.778-.688.132-.502.455.093.964.552.297.993l-.429-.491M21.105 189.839c-.91-.335-1-.546-.622-1.46l.622 1.46M243.771 184.611l-.217.189c-.15-.689-.462-1.305-.088-1.918.1.576.203 1.153.305 1.73M226.875 233.613l-.05-2.322c.323.768.447 1.54.05 2.322M45.256 232.314l-.09-2.605c.682.386.17 1.91.09 2.605M228.707 194.86c-.519-.265-.307-.723-.285-1.268.518.168.741.79.285 1.269M20.41 186.003l-.105.446c-.751-.309-.364-.943-.475-1.526l.58 1.08M244.998 214.781c.324.706.338 1.46.16 2.209-.353-.542.242-1.497-.607-1.711.501-.207.65-.373.447-.498M4.294 199.619l.178-.987.492.85-.67.137zM256.822 222.856l-.043 3.024.043-3.024M58.64 164.974l.294-.331c.541.506.12 1.045.003 1.613-.418-.328-.268-.838-.296-1.282M4.333 201.702c-.088-.98-.26-1.136.616-1.574-.21.722-.639 1.11.176 1.664l-.792-.09M20.688 211.025c-.305.426-.74.467-1.234.634.15-.593.454-.628.829-1.036l.405.402M243.381 155.293c-.607-.366-.383-1.204-.384-1.871.413.544.5 1.213.384 1.871M230.071 163.772l-.073-1.683c.603.741.609.886.073 1.683M191.912 239.682c-.689.009-.427-1.202.038-1.486.372.483.003.984-.038 1.486M2.48 138.152c.229.707.358 1.237.358 1.976-.517-.57-.4-1.28-.358-1.976M226.926 216.77c-.197-.58-.113-.834.065-1.43l.659.595c-.216.264-.486.572-.724.834M245.484 238.537c.02-.433.041-.866.063-1.298.602.645 1.382 1.4-.063 1.298M242.867 172.725c-.408-.316-.604-.729-.572-1.246.747.297.777.362.572 1.246M223.612 225.409c.261.825.086 1.667.098 2.5l-.098-2.5M2.785 258.9c.427-.613.99-.186 1.494-.197-.474.256-.918.72-1.494.198M202.783 236.145c-.165-.551-.505-.874.06-1.155.258.552.32.64.287 1.296l-.347-.141M59.793 211.08c-.328-.451-.17-.842.31-1.078.183.544.47 1.178-.31 1.077M19.972 234.834c-.152-.019-1.22-.55-.482-.853.777-.32.73.494.482.853M201.27 241.59c.504-.196.753-.073.747.371-.906.056-.813.196-1.032 1.074-.052-.509-.218-1.079.286-1.445M41.861 197.28c-.02.944-.038 1.89-.057 2.835l.057-2.836M260.362 229.782c-.44-.39-.75-.807-.176-1.232.256.515.663.834.176 1.232M183.88 249.117l.085-2.692-.084 2.692M202.363 240.676c.077-.08 1.553.65-.193.798l.193-.798M19.486 231.622c-.88-.938 1.296-1.402.669.075l-.472-.831-.197.756M40.78 94.527c-.23-.333-.524-.407-.883-.221l.333-.912c.388.266.742.627.55 1.133" transform="translate(60 29)"/>
                    <path d="M227.14 221.6c.579.662.307.719-.146 1.401.08-.12-.579-.973.146-1.401M19.507 230.476l-.528-.49c.545-.38 1.051-.356 1.214.3l-.686.19M201.874 225.707c.678.246.532.537.319 1.165-.405-.52-.555-.494-.319-1.165M45.386 210.22c.6.09.597 1.477-.007 1.266l.007-1.266M224.557 253.91l.656-.703c.21.502.067 1.512-.656.703M228.925 187.575c-.186-.602-.218-1.182.246-1.688.379.63-.005 1.15-.246 1.688M240.73 208.51l.103 2.505-.104-2.504M55.461 192.07l.108 2.468-.108-2.467M227.047 226.62l.472-1.583c.274 1.256.274 1.256-.472 1.583M203.239 234.781c-.22-.355-.413-.762-.102-1.144.303.356.928.954.102 1.144M230.04 168.782c-.364-.626-.157-1.268-.052-1.906.073.634.593 1.256.051 1.906M244.137 205.797c-.01-.401-.019-.803-.027-1.204l.706 1.104-.679.1M4.311 245.319c-.04-.76-.13-.857.354-1.506v1.563l-.354-.057zM45.376 221.554c-.384-.59-.225-1.211-.108-1.828.215.6.347 1.203.108 1.828M44.997 249.804l-.026-2.501.026 2.501M229.787 172.408c.076-.637-.34-1.3.177-1.854.002.297.135 2.057-.177 1.854M245.924 242.344c-.456-.11-.61-.424-.46-.942.711.281 1.123.332.46.942M55.692 172.875c.025.828.05 1.656.073 2.481-.025-.828-.05-1.655-.073-2.481M243.11 176.315l-.1-2.548.1 2.548M225.684 253.916c.32-.594.798-.228 1.22-.198-.418.435-.84.504-1.22.198M227.688 227.18l-.081 1.51c-.44-.323-.599-1.532.081-1.51M201.217 231.567l.108 2.514-.108-2.514M201.213 251.286c.226.717.268 1.441.08 2.171l-.08-2.17M240.72 190.017c.345.764.15 1.533.022 2.3l-.022-2.3M192.068 228.59c-.3-.352-.815-.63-.43-1.222.355.333.706.668.43 1.222M33.542 243.67c-.024-.707-.224-1.431.216-2.089.048.425-.09 1.755-.216 2.089M259.94 236.596l.415-.146c0 1.19-.194 1.533-.415.146M191.692 233.914l-.07-1.22c.104.171.998 1.48.07 1.22M56.714 156.697l-.134-1.64c.397.783.658.935.134 1.64M200.99 246.877c.266.618.416 1.237.009 1.856l-.009-1.856M57.86 158.979l-.342-1.476c.88.046.435.757.342 1.476M20.4 212.497c-.27-.337-.49-.662.105-.835.29.483.95 1.285-.106.835M187.5 224.05l-.002 2.28.002-2.28M243.927 209.451l-.014-.514c.615.26.634.082 1.093-.41-.033.663-.427.988-1.079.924M246.128 239.958l-.418-.673c.395-.196.722-.41 1.092-.654-.198.54-.275.926-.674 1.327M69.168 65.97l1.96-.003-1.96.003M4.304 243.252l.191-.73c.696.483.454 1.089-.19.73M226.676 138.135l.005 2.065-.005-2.065M34.114 202.137c-.272-.693-.235-1.384.007-2.072l-.007 2.072M30.2 178.048l-.01 2.128c.002-.71.006-1.42.01-2.128M16.488 245.011l-.006 2.09.006-2.09M189.057 200.62c-.3-.91.11-.867.835-1.367-.126.256-.498 1.395-.835 1.366M4.522 214.696l-.206-1.438c.184.376.167.76.61.844l-.404.594M246.106 232.314l-.378-.592c.464-.125 1.06.255.378.592M4.31 227.032l-.002-1.666c.25.27.378 1.823.002 1.666M229.942 170.16c-.362-.358-.194-1.022.29-.938l-.29.938M212.767 183.67l-.87-.5.54-.571c.066.14.678 1.006.33 1.071M256.83 231.107c.045.697.267 1.404-.123 2.073l.122-2.073M45.34 204.414l.058-.729c.58.315 1.085.523-.058.729M242.494 152.95c-.184.373-.243.962-.897.519-.038-.759.613-.32.897-.518M227.676 238.04v1.226c-.711-.33-.42-.668 0-1.227M259.45 209.484c-.432-.209-.435-.625-.315-1.024.534.252.382.441.316 1.024M45.366 205.866l.614-.708v1.179c-.399.019-.604-.139-.614-.471M30.473 184.964l-.023 2.073.023-2.073M257.895 188.137l-.07-1.122c.482.36.431.931.248 1.431l-.178-.309M4.237 198.504c-.328-.537-.165-1.152.05-1.69.35.611.124 1.007-.05 1.69M26.127 139.041l-.079 1.838.08-1.838M29.883 172.87c.04.603.08 1.207.118 1.809l-.118-1.81M32.983 176.34l-.134-1.443c.531.36.23.852.134 1.442M227.55 134.831l-.202.965c-.397-.104.125-.84-.556-.568.022-.512.395-.442.757-.397M214.313 192.002c-.436-.387.53-.45.693-.45.134.366-.097.516-.693.45M34.118 193.436l-.108-1.87.108 1.87M44.971 244.803l.082-1.762-.082 1.762M226.98 243.482l-.193-.51c.433-.158.656.06.604.497-.137.016-.274.02-.411.013M241.512 220.77l.1 1.678c-.324-.542-.424-1.098-.1-1.678M214.684 226.109c-.226-.438-.39-.866.177-1.186l-.177 1.186M56.27 204.104v1.874c-.285-.626-.252-1.25 0-1.874M59.739 194.48l-.036.674c-.436-.332-.372-.505-.367-1.062l.403.389M227.786 203.141c-.24-.501-.035-1.748.717-1.188-.473.22-.762.66-.717 1.188M56.43 210.115l-.02 1.807.02-1.807M240.719 201.213l.052 1.879-.052-1.879M57.443 157.365l-.87.065c.215-.551 1.038-.995.87-.065M72.257 219.941l.006-1.836-.006 1.836M59.314 186.373c.09-.322.087-.731.42-.836.306.528.164.802-.42.836M191.513 211.957l-.159-1.176c.678-.218.215.947.159 1.176M59.735 185.537c.142-.617.193-.791.831-.625-.243.196-.594.488-.831.625M30.423 200.25l.027 1.842-.027-1.841M19.814 256.061l-.02-.965c.123.167.912 1.275.02.965M19.99 234.029c-.475.102-.725-.106-.75-.623.362.14.825.062.75.623M38.901 135.85c.016.602.032 1.204.046 1.804l-.046-1.804M45.225 234.343l.079-1.63-.079 1.63M21.088 200.137c-.434-.163-.18-.632-.13-1.029.506.27.2.461.13 1.03M19.45 233.229c-.009-.095-.273-1.215.247-1.004.474.192-.236.99-.246 1.004M214.507 200.58l-.398-.556c.643-.202 1.09.414.398.555M45.564 213.805c-.429-.44-.132-.985-.116-1.491.425.294.15 1.033.116 1.491" transform="translate(60 29)"/>
                    <path d="M19.812 232.752c-.081-.243.191-.81.427-.792.04.305.078.612.117.918l-.544-.126zM55.69 197.558l.11 1.597-.11-1.597M241.052 211.49c-.07.438-.14.875-.212 1.313-.092-.612-.33-.97.212-1.313M72.398 216.718l.09-1.577-.09 1.577M60.114 184.004c-.143-1.012.099-.972.3.008l-.3-.008M61.88 238.884l-.012-1.644.012 1.644M33.737 234.34l.012-.52c.714.164.171.685.363 1.112l-.375-.592zM4.453 216.272l-.137-.493c.34.167.722-.039.73.532l-.593-.039M189.057 200.62c.48.04.663.386.504.805-.332-.18-.718-.333-.504-.806M4.31 229.053l-.006-1.615c.195.539.326 1.076.007 1.615M60.696 211.028c.276-.405.53-.101.908-.496.625.564-.74.505-.908.496M241.854 227.251l.14 1.581-.14-1.58M4.166 238.471c-.345-.452-.006-.832.13-1.233.442.463.033.835-.13 1.233M34.065 189.083l-.08-1.611.08 1.61M242.787 240.259l.11 1.588-.11-1.588M191.727 235.528l-.064-1.075c.399.337.523.69.064 1.075M259.91 219.164c.419.361.302.738.13 1.238l-.13-1.238M245.473 219.247l-.064 1.275c-.578-.317-.318-.67.064-1.275M243.646 203.365c.03-.212-.036-1.248.377-.976.577.38-.441 1.508-.377.976M34.07 191.113l-.064-1.586.064 1.586M201.832 256.171l.466-.282v.78c-.302.122-.458-.044-.466-.498M243.232 160.285c.172-.612.679-.694.634 0h-.634zM27.747 139.354c-.437-.208-.493-.575-.415-.996.64.124.467.585.415.996M223.455 204.798l-.088 1.682.088-1.682M228.592 192.924l-.014-.89c.55.65.55.661.014.89M200.98 249.165c.037.452.076.904.114 1.354l-.115-1.354M4.317 222.024c.141-.51.363-.44.666.207-.178.267-.4.198-.666-.207M214.272 222.293c-.18-.558-.118-.74.27-.785.276.388-.074.56-.27.785M259.913 239.56l-.216-.731.637-.188-.421.918zM259.7 243.9c-.096-.406-.215-.815.16-1.154l-.16 1.154M271.633 250.261l-.072-1.35.072 1.35M260.025 249.978c.088-.073.175-.148.262-.222l.166 1.037c-.59-.145-.14-.51-.428-.815M42.26 135.424l-.093-.72c.557.166.588.405.093.72M210.464 224.449l-.016 1.417.016-1.417M244.539 220.42c-.435-.226-.098-.56-.116-.842.39.15.411.303.116.842M42.246 133.802l-.059-.955c.592.362.6.51.059.955M224.382 188.823l-.1 1.422.1-1.422M211.15 188.83l-.123 1.442.122-1.441M241.066 156.394l-.121 1.42.12-1.42M55.57 188.109l-.091 1.473.09-1.473M55.561 168.536l.028 1.366-.028-1.366M226.67 145.218l-.099 1.418.098-1.418M230.25 152.553l-.036-1.395.035 1.395M4.523 218.815l-.028-.522c.677-.216.58.932.028.522M211.378 186.334l-.124 1.406.124-1.406M259.81 228.178c-.444-.794.3-.37.626 0h-.625zM69.373 169.211l.775-.02c-.436.631-.695.639-.775.02M213.745 185.331l.194-.224c.23.33.357.72-.151.82l-.043-.596M66.098 215.567c-.012.453-.023.905-.036 1.355-.255-.46-.27-.912.036-1.355M226.471 149.757c-.025.461-.051.922-.079 1.381l.08-1.38M256.715 241.205l.04 1.387-.04-1.387M245.231 230.657l.232.361c-.497 0-.855-.042-.787-.667l.555.306M227.41 215.02c.208.19 1.068.876.233.907.016.073-.257-.987-.233-.906M57.315 230.69l.004 1.333-.004-1.333M30.373 182.014l.038 1.353-.038-1.353M29.652 169.905c.459.42.038.911.11 1.36l-.11-1.36M214.807 198.13l.438-.475c.15.412.039.842-.245 1.166l-.193-.69M219.386 47.345c-.353-.413-.185-.832-.015-1.249l.015 1.25M259.47 245.965l.083-.922c.5.356.176.636-.084.922M188.921 199.355l-.53-.813c.575-.137.695.048.53.813M242.315 232.729l.114 1.348-.114-1.348M61.627 233.839c-.093-.334-.02-.622.22-.864.109.449.144.58-.22.864M246.306 245.107c.058-.431-.172-.672.264-.92v1.146l-.264-.226M227.426 210.653l-.274.439c-.106-.258-.213-.515-.321-.772.142.212.629-.196.595.333M139.987 200.992h1.033-1.033M225.064 179.231l-.103 1.427.103-1.427M191.976 237.772c-.36-.141-.517-.352-.244-.71.138.218.683.295.244.71M230.11 148.915l-.12-1.45.12 1.45M191.322 209.479l-.141-.59c.546.175.593.372.14.59M73.085 209.372l-.016-1.374c.273.455.289.913.016 1.374M218.57 121.941l1.042-.004-1.041.004M191.715 236.4l.06-.741c.742.309.176.511-.06.74M210.684 207.76l-.107 1.45.107-1.45M33.84 222.441l-.043-.992c.431.294.198.517.043.992M33.674 237.298c-.109-.3-.4-.6-.006-.902.001.302.004.602.006.902M211.065 235l.079 1.138-.08-1.139M226.929 235.278c-.317-.546-.166-.746.452-.6l-.452.6M39.022 149.329l.071 1.151-.071-1.151M61.759 235.49l-.093-1.222c.03.409.062.815.093 1.222M.988 234.283l-.012 1.159.012-1.16M187.602 234.063l-.068 1.173.068-1.173M203.264 231.125l-.041-.924c.416.29.588.591.041.924M242.55 237.522l.134 1.118-.133-1.118M66.428 225.414c.226.383.27.766-.003 1.147l.003-1.147M241.316 154.104l-.142 1.186.142-1.186M55.829 155.024c-.056.26.56.629-.127.785l.127-.785M4.763 224.038v-.893c.44.026.135.903 0 .893M202.589 239.347l-.239-.525c.605-.121.684.054.239.525M65.973 220.841l.12 1.113-.12-1.113M4.59 220.452c-.085-.141-.17-.282-.253-.424.4-.392.62.116.252.424M246.128 239.958l.295-.295c.13.382.058.495-.163.84l-.132-.545M4.308 241.102l.004-.686c.405.414.405.43-.004.686M66.074 218.52l-.106 1.187.106-1.187M244.342 218.121c.201-.088.623-.144.903-.184-.266.243-.566.304-.903.184M227.292 240.956c.029.198.228.777-.015.837l-.25-.78.265-.057M241.055 214.176l.008 1.2-.008-1.2M4.93 214.105c-.1-.338-.203-.676-.304-1.014-.037-.025.99 1.014.305 1.014M41.988 210.11l.052 1.208-.052-1.208M33.905 210.83l-.093-1.252.093 1.252M237.743 124.015l.82-.026c-.276.01-.548.018-.82.026M256.985 208.27l-.05 1.169.05-1.17M226.21 161.433l-.036 1.193c.011-.398.023-.795.036-1.193M214.447 201.24c.262-.243.701-.224.84.396l-.84-.396M187.611 201.174l-.115 1.172.115-1.172M226.221 163.264l-.106 1.226.106-1.226M223.694 200.01l-.116 1.205.116-1.206M55.574 164.394l-.111.948.111-.948M60.763 199.499c.238.231.19-.212.427.425-.04.054-.09.094-.152.122-.313-.126-.404-.309-.275-.547M229.835 145.287l-.075-1.223.075 1.223M245.88 245.816c-.35.318-.596.33-.738.036.314-.456.56-.468.738-.036M223.929 196.366l-.112 1.194.112-1.194M228.614 195.938c-.489-.11-.64-.3-.454-.572.59-.088.741.103.454.572M256.588 247.07l.017 1.145-.017-1.145M243.843 195.975c-.357-.54-.333-.676.13-.752-.045.251-.088.501-.13.752M240.826 193.852l-.007 1.135.007-1.135M210.922 192.939l-.13 1.186.13-1.186M226.001 166.669l-.127 1.195.127-1.195M39.57 95.61l.266.924c-.09-.309-.178-.616-.266-.924M58.11 250.738l-.015 1.159c-.127-.39-.37-.779.015-1.16M40.666 168.59l.076 1.08-.076-1.08M224.625 184.946l-.121 1.193.12-1.193M45.72 184.324l.046-1.16-.046 1.16M224.855 181.772l-.11 1.179.11-1.179M76.134 176.264l-.07 1.166c.022-.39.046-.778.07-1.166M41.3 176.082l.115 1.137-.114-1.137M195.099 21.768c1.022-1.511 2.29-3.565 3.973-4.388-.583.823-2.947 4.475-3.973 4.388M275.839 36.42c-.369-.428-.344-1.462-.498-2.023-.32-1.16-.566-1.133.604-1.579.239 1.198.192 2.42-.106 3.602M124.572 88.1c-.613.083-1.207.185-1.812.317.138-.625 1.252-.332 1.812-.317M104.965 190.607l2.295.165-2.295-.165M212.286 57.365l.715-1.608c.032.655-.198 1.195-.715 1.608M198.784 150.482l.003-1.875-.003 1.875M101.764 108.954l-1.529-.05c.513.018 1.02.034 1.53.05M161.678 107.676c.813 0 .755-.026.916-.82l.195 1.134-1.11-.314M72.982 150.173l2.096.01c-.7.291-1.399.33-2.096-.01M171.394 112.363l-1.252-.05 1.252.05M109.94 136.573c-.423 0-.846.002-1.266.003l1.267-.003M164.768 112.366l-1.06-.008 1.06.008M184.315 144.107l1.077.123-1.32.29c-.133-.214-.052-.352.243-.413M130.762 195.638l1.652.14-1.652-.14M116.989 50.917l-.206.482-.124-1.291.33.81M159.08 181.717c.56 0 1.12.002 1.679.003-.56.267-1.12.32-1.679-.003M275.44 41.771c.04-.325-.515-.731.132-.974l-.133.974M92.629 78.443l1.368.186-1.368-.186M131.945 82.046c.434-.24.863-.302 1.284.028l-1.284-.028M193.165 84.567l1.213-.426c-.276.507-.763.412-1.213.426M196.59 141.433l1.422-.137-1.422.137zM158.651 165.356c-.124.222-.25.443-.374.662-.11-.675-.11-.675.374-.662M143.384 94.402c.437-.44.888-.211 1.337-.027l-1.337.027M154.234 96.744l-.009-1.039.01 1.039M100.848 190.177l1.383.143-1.383-.143M182.119 98.846l-.108-1.13.108 1.13M175.33 186.723h1.398c-.467.298-.932.335-1.399 0M149.57 182.093c.424-.283.84-.287 1.247.033l-1.247-.033M228.072 149.465l-.112-1.182c.526.165.526.165.112 1.182M226.291 182.376l.116-.97c.39.354.462.603-.116.97M211.57 219l-.103.569c-.317-.06-.217-.63.103-.57M243.63 197.901c-.194.08-.39.158-.584.237 0-.305-.16-1.52.145-1.6.111.321.44 1.007.44 1.363M243.125 194.72l.191-1.101c.602.607.584.737-.19 1.1M20.502 209.315c.514.058-.13 1.19-.311 1.415-.727-.207-.349-.935-.509-1.464l.731.576.089-.527M188.68 205.182c-.025-.268-.208-.782.098-.85l.256.804-.355.046M91.752 61.661c1.336 1.498 2.744 3.743 5.032 2.931-.374-.887-1.075-2.03-.894-3.044.205-1.146.98-1.016 1.64-.223 1.13 1.358 1.862 4.462.717 5.993-1.073 1.437-3.754.488-4.801-.53-.95-.922-3.219-3.929-1.694-5.127M103.987 63.84c.471-.499 1.599 0 1.82-.837.257-.97-2.214-.492-2.377-1.654-.131-.935 1.205-1.764 1.983-1.856 1.332-.157 2.165.996 2.61 2.096.977 2.418-.356 4.613-2.967 4.918-2.424.283-2.95-2.457-1.581-4.042l.512 1.374M93.3 53.316c1.112 0 1.951-.238 2.063 1.172.075.957-.498 1.393-1.185 1.997-.782.687-1.65 1.173-2.479 1.775-.483.352-1.169 1.447-1.83 1.458-1.59.024-1.412-2.878-1.102-3.758.652-1.854 2.801-2.4 4.534-2.644M107.372 56.238c1.372.47 1.858 2.306 3.37 2.472-.158-.819-1.396-4.915.63-3.793 1.514.839 1.867 4.186 1.375 5.565-1.613 4.517-6.907-1.275-5.375-4.244M100.94 70.62c2.154.316 3.83 1.033 5.88.069.93-.437 1.883-1.366 2.446-.118.418.927.075 1.883-.539 2.615-1.892 2.257-8.63.943-7.786-2.566M105.15 48.97c3.463 0 .894 3.091-1.287 2.682-.84-.158-1.249-1.103-.909-1.919.194-.463 2.196-1.289 2.196-.763" transform="translate(60 29)"/>
                    <path d="M93.3 53.316l-1.323.186 1.324-.186" transform="translate(60 29)"/>
                </g>
            </g>
        </g>
    </g>
</svg>
