<?xml version="1.0" encoding="UTF-8" standalone="no"?>
<svg
   xmlns:dc="http://purl.org/dc/elements/1.1/"
   xmlns:cc="http://creativecommons.org/ns#"
   xmlns:rdf="http://www.w3.org/1999/02/22-rdf-syntax-ns#"
   xmlns:svg="http://www.w3.org/2000/svg"
   xmlns="http://www.w3.org/2000/svg"
   xml:space="preserve"
   enable-background="new 0.2 166 799.9 267.5"
   viewBox="0.2 166 800.10002 266.33909"
   height="83.635452"
   width="250.06252"
   y="0px"
   x="0px"
   id="Layer_1"
   version="1.1"><metadata
   id="metadata236"><rdf:RDF><cc:Work
       rdf:about=""><dc:format>image/svg+xml</dc:format><dc:type
         rdf:resource="http://purl.org/dc/dcmitype/StillImage" /></cc:Work></rdf:RDF></metadata><defs
   id="defs234" />
<path
   style="fill:#ffffff"
   id="path2"
   d="m 30.7,328.6668 c 0,0 0.6,-6.7 -1.5,-9 -0.7,-1.5 -3.7,-7.5 -3.5,-11.8 -0.5,0.3 -7.2,17 -7.7,23.1 0.1,2.3 0.1,5.6 4.8,9.9 1.5,1.5 5.7,6.5 5.9,8.6 0.1,0.3 0.9,0.2 0.9,0.2 0,0 1.7,-4.3 8.1,-7.9 2,-1.3 4.3,-2.3 5.7,-8.7 0.4,-2.1 1.4,-8.1 4.6,-14.3 -0.4,-0.1 -6,2.8 -8.7,4.6 -0.8,0.3 -5.9,2.2 -7.1,5.2 -0.6,0.3 -1.2,0.5 -1.5,0.1 z" />
<path
   style="fill:#ffffff"
   id="path4"
   d="m 41.4,342.0668 c 0,0 -3.2,4.7 -7.5,7 -0.7,0.5 -4.2,3.9 -4.8,7.4 -0.4,0.1 -0.9,-0.2 -0.9,-0.2 0,0 0,-4 -2.6,-6.3 -1.3,-1.3 -5.6,-7.2 -6.4,-8.3 -0.8,-1 -1.4,-2.5 -2.1,-4.4 0,0 -2.2,17.5 -1.4,22.9 0,0 0.8,4.8 6.2,8.5 1.6,1.3 5.7,4.3 8.3,7.7 0.3,-0.1 2.3,-5.3 5.5,-8.3 0.9,-1.2 3.2,-3.8 4,-5.3 0.7,-1.3 1.9,-0.6 1.7,-20.7 z" />
<path
   style="fill:#ffffff"
   id="path6"
   d="m 39.9,403.7668 c 0,0 -9.4,-6 -12.9,-6.5 -1.3,-0.6 -5.7,-1.8 -7.9,-13.6 -1.3,-6.7 -2.8,-17 -2.8,-17 0,0 0.3,-0.4 0.5,0.1 0.2,0.5 1.5,4.5 6.1,7.9 1.5,1.1 7.1,4.9 8.5,9.4 0.4,0.2 1,0 1,0 0,0 -0.7,-4.6 3.2,-9.4 1.2,-1.8 4.1,-3.8 5.3,-8.4 0.4,-0.1 0.6,-0.2 0.6,0.2 0,0.4 0.3,7 2,11 0.4,1.7 3.1,6.8 1,12.7 -0.5,2.1 -2.8,6.4 -3.3,8 -0.4,1.4 -1.3,3.7 -1.3,5.6 z" />
<path
   style="fill:#ffffff"
   id="path8"
   d="m 102.6,406.3668 c 0,0 -10.6,0.3 -16.4,4.7 -1,0.2 -4.5,1.7 -9.7,-2.1 -1.7,-0.6 -14.6,-9.1 -16.3,-10.3 0,-0.6 5.7,0.6 9.5,-0.7 2.5,-0.6 9.4,-1.1 12.8,1.1 0,0 0.9,-0.7 0.2,-1.2 -0.7,-0.5 -5.1,-2.4 -5.6,-9.6 -0.2,-3.3 -0.8,-8.2 -1.1,-9.1 0.3,-0.2 7.3,5.6 13.2,8.3 1.2,0.8 7.6,3.4 7.9,9.6 0.3,0.9 -0.3,2.9 5.5,9.3 z" />
<path
   style="fill:#ffffff"
   id="path10"
   d="m 97.1,391.0668 c 0,0 4.4,6.4 5.8,10.2 0.6,1.3 2.4,4.6 6,6.9 0.1,0.6 0.1,0.6 0.1,0.6 0,0 -6.8,-0.4 -10.9,1.6 -1.3,0.5 -6.9,3.1 -11.4,3.2 0.3,0.5 7.6,4.8 19.1,6.7 2.3,0.5 5.4,1.8 10.2,-0.9 1.8,-1.1 6.4,-6.7 12.1,-8.1 0.3,-0.3 -6.1,-5.4 -7.5,-9 -0.7,-0.9 -2.9,-5.6 -9.5,-6.5 0,0 -10.5,-2.2 -13,-4.7 -0.5,-0.1 -0.5,0 -1,0 z" />
<path
   style="fill:#ffffff"
   id="path12"
   d="m 116.7,422.3668 c 0,0 21.7,1.8 25.5,0.7 1.5,-0.5 4.8,-2.2 8,-8.5 0.8,-0.9 3.3,-4.4 5.2,-5.5 0.1,-0.5 -1.2,-0.7 -4.2,-2.6 -1.8,-1.2 -7.2,-5.8 -9.1,-7 0,0 -4.8,-1.9 -10.6,-1.3 -2.2,-0.1 -9.5,-0.4 -11.9,-1 0.7,0.9 4.4,3 7.9,8.3 1.8,1.8 4.6,4.5 8.2,5.7 0.1,0.4 0.2,0.5 0,0.6 -0.2,0.1 -5.7,-0.3 -10.7,4.3 -0.9,0.5 -5.7,5.5 -8.3,6.3 z" />
<path
   style="fill:#ffffff"
   id="path14"
   d="m 144.1,397.3668 c 0,0 5.9,-0.1 9.3,-1 1.4,-0.3 7.4,-2.3 10.5,-2.8 1.5,0 4,-0.5 12.4,5 1,0.3 4.2,0.6 4.2,0.6 0,0 0,0.2 -0.1,0.5 -0.1,0.3 -3.5,3.9 -3.5,7.7 -0.1,1 -0.6,7.8 -5.6,9.6 -1.9,0.5 -10.6,4.1 -22.7,5.4 -0.2,-0.3 0.3,-0.5 2.2,-2.8 1.9,-2.3 5.3,-8.1 7.4,-9.4 2.2,-1.3 6.2,-2.5 6.3,-2.8 0.1,-0.3 0.1,-0.9 -0.3,-0.9 -0.4,0 -5.2,1.3 -10.4,-2.4 -1.4,-0.7 -6,-5 -7.2,-5.3 -1.3,-0.3 -2.2,-0.8 -2.5,-1.4 z" />
<path
   style="fill:#ffffff"
   id="path16"
   d="m 203.5,383.3668 c 0,0 -4.3,0.7 -9.5,-0.8 -1.8,-0.4 -6.3,-2.1 -11.8,1.3 -1.8,1 -10.6,6.7 -14.7,7.3 0.3,0.5 0.9,0.8 1.3,0.9 0.4,0.1 5.4,1.1 8.4,3 1.1,0.6 6.5,1.8 8.3,1.7 0,0.5 -4.5,5 -4,8.5 -0.2,1.1 -2.2,7 -4.4,9.3 0.8,0.1 13.7,-5 19.4,-9.6 3.1,-2.2 4.9,-2.5 5.3,-9.1 0.3,-5.7 -0.1,-8 0.6,-9.3 0.7,-1.3 1.4,-2.8 1.4,-2.8 0,0 0.1,-0.2 -0.3,-0.4 z" />
<linearGradient
   gradientTransform="translate(0.1,-0.6332)"
   y2="149.7706"
   x2="376.0105"
   y1="317.56631"
   x1="105.2921"
   gradientUnits="userSpaceOnUse"
   id="SVGID_1_">
	<stop
   id="stop18"
   style="stop-color:#601531"
   offset="0" />
	<stop
   id="stop20"
   style="stop-color:#CB715D"
   offset="1" />
</linearGradient>
<path
   style="fill:url(#SVGID_1_)"
   id="path23"
   d="m 267.8,299.1668 c 0,73.9 -59.9,133.8 -133.8,133.8 -73.9,0 -133.8,-59.9 -133.8,-133.8 0.1,-73.9 60,-133.8 133.9,-133.8 73.8,0 133.7,59.9 133.7,133.8 z" />
<path
   style="fill:#ffffff"
   id="path25"
   d="m 83.2,204.9668 c 0,0 2.6,-1.2 5.7,-8 0,0 4,-8.4 14.7,-9.4 2.1,-0.1 7.8,-0.4 20.7,0.1 -1.1,1 -9.7,6.8 -13.7,12.3 -1.1,1.2 -5.6,6.3 -12.8,6.5 -7.2,-1.1 -9.2,-1.7 -14.6,-1.5 z" />
<path
   style="fill:#ffffff"
   id="path27"
   d="m 61.9,220.5668 c 0,0 5.3,-1.7 14.1,0.7 0,0 3.7,0.1 4.5,-0.2 0.8,-0.3 14.6,-9 17.8,-9.6 0,0 0.9,-0.4 -4.7,-1.3 -2.2,-0.4 -9.1,-3.6 -16.3,-0.9 0,-0.9 -0.1,-1.7 0.4,-2 0.5,-0.3 4.6,-1 6.3,-9 0.5,-1.4 3.7,-8.1 5.6,-9.9 -0.7,0.1 -17.4,6.1 -22.2,12.9 -0.4,0.8 -1.7,2.5 -2.6,11 -0.5,1.7 0.2,4.9 -2.9,8.3 z" />
<path
   style="fill:#ffffff"
   id="path29"
   d="m 63.8,202.2668 c 0,0 -16.3,12.7 -17.7,16.1 0,0 -3.4,5.3 -1.9,13.6 0.3,2.8 0.6,7.9 0.6,9.2 2.3,-0.9 9.4,-2.9 14.8,-3.8 0,0 5.2,-1.1 9.7,-6.9 1.3,-1.3 6.6,-6.3 8.2,-7 0,0 -16.1,-3.1 -20.5,2.4 -0.7,0.4 -1,-0.2 -1,-0.2 0,0 2.9,-2.3 4,-6.4 0,0 0.5,-4.6 1.1,-8.6 1.1,-3.1 2.9,-8.1 2.7,-8.4 z" />
<path
   style="fill:#ffffff"
   id="path31"
   d="m 33.4,265.7668 c 0,0 -1.3,-7.2 -5.1,-14.5 -0.3,-1.3 -1.9,-6 2.4,-12 2,-3.5 10.2,-14.9 10.2,-14.9 0,0 -0.3,8.3 0.2,10.8 0.5,2.6 1.2,7.9 -1.5,14.2 0.4,0.4 1.3,0.3 1.3,0.3 0,0 1.2,-5.4 6.5,-6.6 1.8,-0.4 8.8,-1.5 13.8,-4.5 0,0.8 -6.9,8.8 -8.8,13.3 -0.5,1.3 -2.6,7.2 -9.9,8.7 -1.5,0.8 -7,2.2 -9.1,5.2 z" />
<path
   style="fill:#ffffff"
   id="path33"
   d="m 30.7,271.0668 c 0,0 0.6,-6.7 -1.5,-9 -0.7,-1.5 -3.7,-7.5 -3.5,-11.8 -0.5,0.3 -7.2,17 -7.7,23.1 0.1,2.3 0.1,5.6 4.8,9.9 1.5,1.5 5.7,6.5 5.9,8.6 0.1,0.3 0.9,0.2 0.9,0.2 0,0 1.7,-4.3 8.1,-7.9 2,-1.3 4.3,-2.3 5.7,-8.7 0.4,-2.1 1.4,-8.1 4.6,-14.3 -0.4,-0.1 -6,2.8 -8.7,4.6 -0.8,0.3 -5.9,2.2 -7.1,5.2 -0.6,0.3 -1.2,0.5 -1.5,0.1 z" />
<path
   style="fill:#ffffff"
   id="path35"
   d="m 41.4,284.5668 c 0,0 -3.2,4.7 -7.5,7 -0.7,0.5 -4.2,3.9 -4.8,7.4 -0.4,0.1 -0.9,-0.2 -0.9,-0.2 0,0 0,-4 -2.6,-6.3 -1.3,-1.3 -5.6,-7.2 -6.4,-8.3 -0.8,-1 -1.4,-2.5 -2.1,-4.4 0,0 -2.2,17.5 -1.4,22.9 0,0 0.8,4.8 6.2,8.5 1.6,1.3 5.7,4.3 8.3,7.7 0.3,-0.1 2.3,-5.3 5.5,-8.3 0.9,-1.2 3.2,-3.8 4,-5.3 0.7,-1.3 1.9,-0.7 1.7,-20.7 z" />
<path
   style="fill:#ffffff"
   id="path37"
   d="m 39.9,346.2668 c 0,0 -9.4,-6 -12.9,-6.5 -1.3,-0.6 -5.7,-1.8 -7.9,-13.6 -1.3,-6.7 -2.8,-17 -2.8,-17 0,0 0.3,-0.4 0.5,0.1 0.2,0.5 1.5,4.5 6.1,7.9 1.5,1.1 7.1,4.9 8.5,9.4 0.4,0.2 1,0 1,0 0,0 -0.7,-4.6 3.2,-9.4 1.2,-1.8 4.1,-3.8 5.3,-8.4 0.4,-0.1 0.6,-0.2 0.6,0.2 0,0.4 0.3,7 2,11 0.4,1.7 3.1,6.8 1,12.7 -0.5,2.1 -2.8,6.4 -3.3,8 -0.4,1.3 -1.3,3.6 -1.3,5.6 z" />
<path
   style="fill:#ffffff"
   id="path39"
   d="m 54.9,367.0668 c 0,0 -2.4,-1.9 -12.4,-1.8 -1.2,-0.1 -8.3,-1.3 -10.5,-8.2 -1.2,-1.9 -4.3,-8.1 -8.4,-16.9 0.2,-0.2 0.6,-0.1 0.6,-0.1 0,0 2.5,3.8 7.4,5.2 2.1,0.6 9.3,2.7 10.9,6.1 0.4,-0.1 0.6,-0.6 0.6,-0.6 0,0 -1.7,-5.9 1.9,-11.6 0.4,-1.3 1.9,-3.8 2.5,-6.9 0.4,0.1 5.4,10.5 7.4,14.1 0,0 3.6,5.3 1.8,9.7 -0.2,1 -2.7,4.7 -1.8,11 z" />
<path
   style="fill:#ffffff"
   id="path41"
   d="m 76.4,385.4668 c 0,0 -7.5,-0.9 -11.5,0.9 -1,0.2 -8.2,1 -12.3,-3.2 -1.1,-1.1 -12.2,-11.8 -13.7,-15.5 0.2,-0.3 2.1,1.7 7,1.3 3.4,0.1 11.2,0.7 13,3.5 0.5,0.1 0.9,-0.1 0.9,-0.1 0,0 0,-1 -0.4,-1.9 -0.4,-0.8 -2.2,-7.3 -0.4,-11.7 0.2,-1.9 0.1,-4.2 -0.6,-6.9 0.4,-0.1 4.3,5.1 6.6,7.6 2.3,2.6 9.7,8.7 8.7,12.6 0.1,1.7 0,4 0.7,8.1 0.9,2 1.5,4.7 2,5.3 z" />
<path
   style="fill:#ffffff"
   id="path43"
   d="m 102.6,397.3668 c 0,0 -10.6,0.3 -16.4,4.7 -1,0.2 -4.5,1.7 -9.7,-2.1 -1.7,-0.6 -14.6,-9.1 -16.3,-10.3 0,-0.6 5.7,0.6 9.5,-0.7 2.5,-0.6 9.4,-1.1 12.8,1.1 0,0 0.9,-0.7 0.2,-1.2 -0.7,-0.5 -5.1,-2.4 -5.6,-9.6 -0.2,-3.3 -0.8,-8.2 -1.1,-9.1 0.3,-0.2 7.3,5.6 13.2,8.3 1.2,0.8 7.6,3.4 7.9,9.6 0.3,0.9 -0.3,2.9 5.5,9.3 z" />
<path
   style="fill:#ffffff"
   id="path45"
   d="m 97.1,382.0668 c 0,0 4.4,6.4 5.8,10.2 0.6,1.3 2.4,4.6 6,6.9 0.1,0.6 0.1,0.6 0.1,0.6 0,0 -6.7,-0.4 -10.8,1.5 -1.3,0.5 -6.9,3.1 -11.4,3.2 0.3,0.5 7.6,4.8 19.1,6.7 2.3,0.5 5.4,1.8 10.2,-0.9 1.8,-1.1 6.4,-6.7 12.1,-8.1 0.3,-0.3 -6.1,-5.4 -7.5,-9 -0.7,-0.9 -2.9,-5.6 -9.5,-6.5 0,0 -10.5,-2.2 -13,-4.7 -0.6,0 -0.6,0.1 -1.1,0.1 z" />
<path
   style="fill:#ffffff"
   id="path47"
   d="m 116.7,413.3668 c 0,0 21.7,1.8 25.5,0.7 1.5,-0.5 4.8,-2.2 8,-8.5 0.8,-0.9 3.3,-4.4 5.2,-5.5 0.1,-0.5 -1.2,-0.7 -4.2,-2.6 -1.8,-1.2 -7.2,-5.8 -9.1,-7 0,0 -4.8,-1.9 -10.6,-1.3 -2.2,-0.1 -9.5,-0.4 -11.9,-1 0.7,0.9 4.4,3 7.9,8.3 1.8,1.8 4.6,4.5 8.2,5.7 0.1,0.4 0.2,0.5 0,0.6 -0.2,0.1 -5.7,-0.3 -10.7,4.3 -0.9,0.5 -5.7,5.5 -8.3,6.3 z" />
<path
   style="fill:#ffffff"
   id="path49"
   d="m 144.1,388.3668 c 0,0 5.9,-0.1 9.3,-1 1.4,-0.3 7.4,-2.3 10.5,-2.8 1.5,0 4,-0.5 12.4,5 1,0.3 4.2,0.6 4.2,0.6 0,0 0,0.2 -0.1,0.5 -0.1,0.3 -3.5,3.9 -3.5,7.7 -0.1,1 -0.6,7.8 -5.6,9.6 -1.9,0.5 -10.6,4.1 -22.7,5.4 -0.2,-0.3 0.3,-0.5 2.2,-2.8 1.9,-2.3 5.3,-8.1 7.4,-9.4 2.2,-1.3 6.2,-2.5 6.3,-2.8 0.1,-0.3 0.1,-0.9 -0.3,-0.9 -0.4,0 -5.2,1.3 -10.4,-2.4 -1.4,-0.7 -6,-5 -7.2,-5.3 -1.3,-0.2 -2.2,-0.8 -2.5,-1.4 z" />
<path
   style="fill:#ffffff"
   id="path51"
   d="m 203.5,374.4668 c 0,0 -4.3,0.7 -9.5,-0.8 -1.8,-0.4 -6.3,-2.1 -11.8,1.3 -1.8,1 -10.6,6.7 -14.7,7.3 0.3,0.5 0.9,0.8 1.3,0.9 0.4,0.1 5.4,1.1 8.4,3 1.1,0.6 6.5,1.8 8.3,1.7 0,0.5 -4.5,5 -4,8.5 -0.2,1.1 -2.2,7 -4.4,9.3 0.8,0.1 13.7,-5 19.4,-9.6 3.1,-2.2 4.9,-2.5 5.3,-9.1 0.3,-5.7 -0.1,-8 0.6,-9.3 0.7,-1.3 1.4,-2.8 1.4,-2.8 0,0 0.1,-0.2 -0.3,-0.4 z" />
<path
   style="fill:#ffffff"
   id="path53"
   d="m 221.2,352.3668 c 0,0 -4.6,2.2 -8.3,3 -1.7,0.2 -7,-0.7 -9.1,1.2 -0.7,0.7 -11.8,12.1 -14.9,13.5 0.4,0.2 5.9,-0.4 7.4,0.6 1,0.3 1.8,1.7 11.3,0.2 0.1,0.8 -1.3,3.8 -2,5.9 -0.3,0.8 -1.1,0.9 -1.4,13.2 0.4,0 13.6,-11.3 15.3,-14.3 1.1,-1.8 2.2,-2.7 2.2,-7.6 -0.2,-1.5 -1.5,-7 -1.3,-10.6 0.5,-2.2 1.1,-4.9 0.8,-5.1 z" />
<path
   style="fill:#ffffff"
   id="path55"
   d="m 206.1,352.8668 c 2.9,-3.6 5.9,-7.4 8.6,-13.4 1.3,-3.1 2.9,-5.2 8.7,-7.9 2.5,-0.9 8.2,-2.6 9.8,-4.8 0.5,0.5 1.3,6.6 4,9.2 1.1,1.5 4.2,6.2 1.1,11.5 -0.6,1.5 -8.9,17.8 -13.8,22.7 -0.2,-0.5 -1.9,-11.2 -0.7,-16.6 0.4,-2 1,-4.5 2.1,-6.4 -0.4,-0.1 -4.1,3.4 -9.4,3.9 -1.3,0.3 -9.6,2.2 -10.4,1.8 z" />
<path
   style="fill:#ffffff"
   id="path57"
   d="m 235.5,318.3668 c 0,0 -2.3,5.8 -8.7,8 -1.1,0.4 -6.2,2.3 -7.5,4 0,-0.9 2.9,-6.7 3.6,-13.5 0.5,-3.2 1.7,-5.9 4.9,-9.3 2.8,-2.2 6.9,-4.2 9.2,-8 0.5,-1.7 0.6,-7.2 0.6,-7.2 h 1.4 c 0,0 -0.1,6.5 0.1,7.1 0.2,0.6 0.4,2.5 2.2,4.1 0.6,1 6.6,8 6.4,10.7 0.2,1.8 0.6,12.7 -6.1,26.1 -0.3,-0.2 -1.1,-5.6 -3.2,-10 -0.8,-1.1 -2.5,-3.5 -2.5,-6.6 0,-3.1 0,-5.3 -0.4,-5.4 z" />
<g
   transform="translate(0.1,-0.6332)"
   id="g165">
	<path
   style="fill:#ffffff"
   id="path59"
   d="m 133.3,263.4 c 0,0 -9.6,-0.2 -11.6,-8.9 -0.5,-2.6 -1.1,-6.1 1.3,-11.5 5.3,-6.8 7.1,-9.2 7.8,-10.6 0.8,-1.5 1.5,-4.6 -0.8,-7.8 0,0 4.1,1.2 6.8,6.3 0.4,1.5 1.5,7.3 -1.7,10.7 -0.9,1.2 -5.1,6.8 -5.2,9.2 -0.5,2.8 -0.6,5.3 2.8,10.4 0.9,1.8 0.6,2.2 0.6,2.2 z" />
	<path
   style="fill:#ffffff"
   id="path61"
   d="m 140.7,231.5 c 2,12.6 -3.3,12.6 -6.8,20.3 -0.3,1.3 -2.2,7.8 5.7,11.8 0.1,-0.4 -1.7,-5.1 1.9,-8.3 2.2,-2.3 6.2,-5.7 7.7,-9.3 0.4,-2.5 0.1,-9.5 -8.5,-14.5 z" />
	<path
   style="fill:#ffffff"
   id="path63"
   d="m 151.2,249.4 c 0,0 0.1,3.3 -0.4,4.8 -1.7,4.1 -6.2,4.8 -5.8,8.7 0,0 -5.2,0.7 -2.2,-4.2 3.1,-3.5 4.7,-3.5 8.4,-9.3 z" />
	<rect
   style="fill:#ffffff"
   id="rect65"
   height="4.5"
   width="40.799999"
   y="268.89999"
   x="115.9" />
	<rect
   style="fill:#ffffff"
   id="rect67"
   height="5.0999999"
   width="35.299999"
   y="275.79999"
   x="118.6" />
	<rect
   style="fill:#ffffff"
   id="rect69"
   height="3.8"
   width="40.099998"
   y="283.39999"
   x="116.3" />
	<polygon
   style="fill:#ffffff"
   id="polygon71"
   points="143.5,328 126.8,328 121.7,289.5 149.7,289.5 " />
	<polygon
   style="fill:#712f49"
   id="polygon73"
   points="131.9,323 129.7,323 128.2,295.1 125,295.1 125,293 130.3,293 " />
	<polygon
   style="fill:#712f49"
   id="polygon75"
   points="137.4,323 135.2,323 135.2,295.1 132.1,295.1 132.1,293 137.4,293 " />
	<polygon
   style="fill:#712f49"
   id="polygon77"
   points="142.2,323 140,323 142.3,295.1 139.6,295.1 139.6,293 144.8,293 " />
	<rect
   style="fill:#ffffff"
   id="rect79"
   height="2.9000001"
   width="21.299999"
   y="330.70001"
   x="124.5" />
	<rect
   style="fill:#ffffff"
   id="rect81"
   height="1.2"
   width="19.200001"
   y="335.89999"
   x="125.6" />
	<rect
   style="fill:#ffffff"
   id="rect83"
   height="2.5"
   width="21.799999"
   y="339.89999"
   x="124.2" />
	<path
   style="fill:#ffffff"
   id="path85"
   d="m 126.6,344.7 c 0,0 15.2,0 17.1,0 -1.2,1.9 -1.5,2.6 -2,10.5 -1,0.1 -10.5,0.1 -12.1,0 0.1,-7.3 -0.8,-9.4 -3,-10.5 z" />
	<path
   style="fill:#ffffff"
   id="path87"
   d="m 133.3,357.6 h 5.1 c 0,0 -1.3,4.5 -1,9.3 -0.7,0.1 -2.9,0 -2.9,0 0,0 0.7,-5.2 -1.2,-9.3 z" />
	<path
   style="fill:#ffffff"
   id="path89"
   d="m 152.3,297 c 0,0 20.8,3.8 25.3,23.8 0.4,3.6 2.2,15.8 -5.8,27.2 1.2,0.1 2.9,0 3.5,0 0.9,-2.3 2.2,-3.2 4.6,-3.3 0,0 1,-0.1 1.2,-0.7 0.1,-0.6 0.6,-2 -1.6,-2 -0.1,-1 0.9,-3.5 1.2,-4.6 0.3,0 2.6,-0.3 2.6,-0.3 l 0.3,-2.6 -1.7,-0.3 c 0,0 0.1,-3.3 0,-4.6 0.4,-0.1 2.8,0 2.9,-0.7 0.1,-0.7 0.9,-2.5 -2.6,-3.2 0,0 -0.9,-2.8 -0.4,-3.6 0.6,-0.4 2.2,0 2.3,-0.9 0.1,-0.9 0.6,-3 -0.1,-3.2 -0.7,-0.1 -2.8,0.1 -3.9,-0.7 -0.3,-0.9 -1.2,-2.9 -0.3,-3.6 0.9,-0.4 2.2,-1.2 2.2,-2.3 -0.4,-1 -2.2,-1.6 -4.9,-1.6 -0.3,-0.4 -1.3,-1.6 -0.6,-2.9 0.9,-0.7 2.2,-2.3 0,-3.3 -0.6,0 -1.9,0.9 -2.6,0.7 -0.7,-0.1 -3.1,-1.5 -2.9,-2.5 0.1,-1 1.3,-1.9 1.2,-2.8 -0.1,-0.9 -1.3,-2.5 -2,-2.2 -0.7,0.3 -1.9,1.9 -3.9,1.5 -0.9,-0.4 -2.5,-1.6 -1.9,-3.3 0.3,-1.5 -0.6,-2.8 -2,-2.6 -0.9,0.4 -1,1.6 -1.7,2.3 -1,0 -2.8,0.3 -3.8,-1.5 0,-1.2 0.1,-2.9 -0.6,-3.1 -1.1,-0.3 -4.4,-1.5 -4,6.9 z" />
	<path
   style="fill:#ffffff"
   id="path91"
   d="m 165.8,349.3 c 29.3,-35 -12.1,-52.7 -14.4,-50.7 0,0 -0.3,5.1 -0.7,5.7 0.3,-1.9 38.2,14.2 9.3,45 z" />
	<path
   style="fill:#ffffff"
   id="path93"
   d="m 150.3,306 c -0.4,0.7 -2,10.6 -2.3,12.5 3.5,-0.9 15.4,10.8 0.4,18.3 3.2,1.8 3.6,6.3 2.7,8.2 0,0 -3.1,1.2 -5.2,1.2 0,1.2 -0.2,1.4 -0.2,2.5 23,1 34.4,-34.2 4.6,-42.7 z" />
	<path
   style="fill:#ffffff"
   id="path95"
   d="m 147.4,320.8 c 0,0 -1.2,6.4 -1,7 0.2,0.6 2.1,0.2 2.3,0.8 0.2,0.6 0.8,3.3 0.4,4.1 4.5,-0.6 6.6,-10.7 -1.7,-11.9 z" />
	<path
   style="fill:#ffffff"
   id="path97"
   d="m 121.6,313.9 c -4.1,-1.9 -11.6,-6.4 -17.6,2.7 6.2,4.2 15.1,-1 17.6,-2.7 z" />
	<path
   style="fill:#ffffff"
   id="path99"
   d="m 117,319.1 c 0,0 -4.3,-0.8 -5.8,5.2 -0.6,2.1 -1.7,5.8 -3.3,8.1 1.2,0 4.6,0 8.5,-5.6 1,-1.5 1.2,-6 0.6,-7.7 z" />
	<path
   style="fill:#ffffff"
   id="path101"
   d="m 110.6,320.5 c 0,0 0,6.4 -7.9,7.4 -1.9,0.4 -8.1,0.8 -9.1,0.8 1.9,-1.4 4.8,-3.5 7.6,-7 1.9,-1.8 4,-2 9.4,-1.2 z" />
	<path
   style="fill:#ffffff"
   id="path103"
   d="m 104.8,329.4 c 0,0 -0.2,5.8 -10.3,8.3 1.5,-1.9 3.3,-3.9 4.5,-6.4 1.3,-1.4 2.9,-1.7 5.8,-1.9 z" />
	<path
   style="fill:#ffffff"
   id="path105"
   d="m 95.9,339 c 0,0 0,2.9 2.3,6.6 1.4,-1.2 3.3,-3.1 3.3,-8.5 -1,0.2 -4.4,0.8 -5.6,1.9 z" />
	<path
   style="fill:#ffffff"
   id="path107"
   d="m 111.6,333 c 0,0 2.3,-1 2.9,-1.7 0.4,2.1 -0.4,6.6 -1,7.9 -0.8,-0.2 -0.4,-3.8 -1.9,-6.2 z" />
	<path
   style="fill:#ffffff"
   id="path109"
   d="m 77.9,321.2 c 5.2,-2.1 10.5,-6.2 17.4,0.8 -0.8,1 -2.3,2.9 -8.1,1.5 -2.1,-0.9 -4.3,-2.7 -9.3,-2.3 z" />
	<path
   style="fill:#ffffff"
   id="path111"
   d="m 75,333.8 c 0,0 3.7,-3.1 7.6,-6.2 1.9,-1 7.4,-1.9 8.3,0.2 -0.2,1.2 -1.7,3.5 -6.8,4.8 -1.6,0.1 -4.7,0.3 -9.1,1.2 z" />
	<path
   style="fill:#ffffff"
   id="path113"
   d="m 85.1,335.4 c 0,0 -5.8,4.1 -11.6,5.8 0.4,0.6 1.7,0.8 2.7,0.8 1,0 4.5,-1.4 6.4,-2.1 1.9,-0.9 2.6,-2 2.5,-4.5 z" />
	<path
   style="fill:#ffffff"
   id="path115"
   d="m 93.8,330.5 c 0,0 -5.4,-0.6 -7.2,5.6 -0.2,2.5 -0.8,7.2 -1.2,8.9 1.5,-0.6 4.3,-2.1 6.2,-4.3 0.4,-0.8 -0.8,-0.6 -1.2,-1.2 -0.4,-0.6 0,-2.1 1.5,-2.7 1.7,-0.5 2.4,-1.6 1.9,-6.3 z" />

		<rect
   style="fill:#ffffff"
   id="rect117"
   height="1.2"
   width="21.5"
   transform="matrix(0.27,0.9629,-0.9629,0.27,376.512,105.4063)"
   y="300.39999"
   x="108" />

		<rect
   style="fill:#ffffff"
   id="rect119"
   height="1.2"
   width="20.299999"
   transform="matrix(0.3247,0.9458,-0.9458,0.3247,362.1802,93.1725)"
   y="299.60001"
   x="105.7" />

		<rect
   style="fill:#ffffff"
   id="rect121"
   height="1.2"
   width="17.6"
   transform="matrix(0.4296,0.903,-0.903,0.4296,334.2117,70.0271)"
   y="299"
   x="102.9" />

		<rect
   style="fill:#ffffff"
   id="rect123"
   height="1.2"
   width="17"
   transform="matrix(0.5228,0.8525,-0.8525,0.5228,307.7994,50.635)"
   y="299.60001"
   x="100.2" />

		<rect
   style="fill:#ffffff"
   id="rect125"
   height="1.2"
   width="16"
   transform="matrix(0.6039,0.7971,-0.7971,0.6039,281.9757,35.196)"
   y="300.70001"
   x="97.599998" />

		<rect
   style="fill:#ffffff"
   id="rect127"
   height="1.2"
   width="16.299999"
   transform="matrix(0.6643,0.7475,-0.7475,0.6643,260.8053,24.3847)"
   y="302"
   x="95.099998" />

		<rect
   style="fill:#ffffff"
   id="rect129"
   height="1.2"
   width="15.7"
   transform="matrix(0.7009,0.7133,-0.7133,0.7009,247.1971,18.9308)"
   y="303.60001"
   x="93.199997" />

		<rect
   style="fill:#ffffff"
   id="rect131"
   height="1.2"
   width="16.200001"
   transform="matrix(0.7421,0.6703,-0.6703,0.7421,230.4964,12.8047)"
   y="305.39999"
   x="90.5" />

		<rect
   style="fill:#ffffff"
   id="rect133"
   height="1.2"
   width="16.200001"
   transform="matrix(0.775,0.6319,-0.6319,0.775,216.217,8.2128)"
   y="307.20001"
   x="88.5" />

		<rect
   style="fill:#ffffff"
   id="rect135"
   height="1.2"
   width="16.200001"
   transform="matrix(0.8357,0.5491,-0.5491,0.8357,185.9371,-1.1732)"
   y="309.60001"
   x="86.800003" />

		<rect
   style="fill:#ffffff"
   id="rect137"
   height="1.2"
   width="16.200001"
   transform="matrix(0.8718,0.4898,-0.4898,0.8718,165.1011,-5.7177)"
   y="312"
   x="85.400002" />

		<rect
   style="fill:#ffffff"
   id="rect139"
   height="1.2"
   width="15.9"
   transform="matrix(0.8992,0.4375,-0.4375,0.8992,147.144,-8.6802)"
   y="314.5"
   x="84.400002" />

		<rect
   style="fill:#ffffff"
   id="rect141"
   height="1.2"
   width="14.9"
   transform="matrix(0.9096,0.4156,-0.4156,0.9096,139.9046,-9.2706)"
   y="316.20001"
   x="83.800003" />

		<rect
   style="fill:#ffffff"
   id="rect143"
   height="1.2"
   width="5.6999998"
   transform="matrix(0.8816,0.4719,-0.4719,0.8816,159.9297,-2.9372)"
   y="316.79999"
   x="83" />
	<path
   style="fill:#712f49"
   id="path145"
   d="m 152.8,309.2 c 0,0 4.6,-0.4 5,3.3 -0.4,1.4 -3.7,5.4 -4.8,5.6 -1.2,0.2 -3.7,-0.8 -3.5,-1.7 0.2,-1 1.8,-5.6 3.3,-7.2 z" />
	<path
   style="fill:#712f49"
   id="path147"
   d="m 156.9,322 c 0,0 4.1,-0.6 6.6,-2.9 0.2,-1 -0.2,-3.9 -2.3,-4.6 -1,0.4 -5.6,3.3 -5.8,4.5 -0.3,1.1 0.3,2.2 1.5,3 z" />
	<path
   style="fill:#712f49"
   id="path149"
   d="m 165.4,323.8 c 0,0 1.2,4.1 -0.8,5.4 -1.2,0.4 -6.2,0.6 -6.6,-0.4 -0.4,-1 -1.5,-3.3 1.2,-4.8 2.5,-0.6 5.8,-0.4 6.2,-0.2 z" />
	<path
   style="fill:#712f49"
   id="path151"
   d="m 158.4,330.7 c 0,0 7.4,1.6 5,4.6 -0.4,1.4 -0.8,2.7 -3.7,1.9 -1.5,-0.7 -6.3,-3.2 -1.3,-6.5 z" />
	<path
   style="fill:#712f49"
   id="path153"
   d="m 154.4,335.8 c 0,0 7.7,5.4 2.3,7.2 -2.1,1.5 -7.4,-4.7 -2.3,-7.2 z" />
	<path
   style="fill:#ffffff"
   id="path155"
   d="m 154.8,312.5 c 0,0 -2.5,2.7 -2.5,3.5 0,0.8 1.5,-0.2 2.3,-1.2 0.7,-0.9 0.2,-2.3 0.2,-2.3 z" />
	<path
   style="fill:#ffffff"
   id="path157"
   d="m 159.5,326.2 c 0,0 3.8,-0.3 3.9,0.1 0.1,0.4 0.6,1.6 -0.1,1.6 -0.8,0.1 -5,0.8 -3.8,-1.7 z" />
	<path
   style="fill:#ffffff"
   id="path159"
   d="m 157.7,332.9 c 0,0 3.3,1.5 3.1,2.2 -0.3,0.7 -4,0.8 -3.1,-2.2 z" />
	<path
   style="fill:#ffffff"
   id="path161"
   d="m 153.5,338 c 0,0 2.6,2.8 1.9,3 -0.7,0.3 -2.6,-0.3 -1.9,-3 z" />
	<path
   style="fill:#ffffff"
   id="path163"
   d="m 160.5,317.9 c 0,0 -2.8,1.7 -3.1,2.2 -0.3,0.5 2.9,0.6 3.1,-2.2 z" />
</g>
<g
   transform="translate(0.1,-0.6332)"
   id="g229">
	<g
   id="g227">
		<g
   id="g189">
			<path
   style="fill:#601531"
   id="path167"
   d="m 787.6,366.6 c 0,-8.2 0,-15.9 0,-23.8 -1.8,-0.6 -3.6,-1.3 -5.4,-1.9 0,-1.4 0,-2.9 0,-4.5 6,0 11.9,0 18,0 0,1.5 0,3 0,4.7 -1.2,0.5 -2.6,1.1 -4.3,1.7 0,14.4 0,28.8 0,43.5 -2.3,0 -4.4,0 -6.8,0 -8,-9.9 -16.1,-20 -24.6,-30.5 0,8.5 0,16.4 0,24.4 1.7,0.6 3.3,1.2 5.2,1.8 0,1.3 0,2.7 0,4.2 -6.3,0 -12.5,0 -19,0 0,-1.4 0,-2.7 0,-4.2 1.7,-0.6 3.5,-1.1 5.6,-1.8 0,-1.2 0,-2.4 0,-3.6 0,-9.2 -0.2,-18.5 0.1,-27.7 0.1,-3.6 -1.5,-5.6 -4.3,-7.1 -0.7,-0.4 -1.4,-0.6 -2.2,-1 0,-1.4 0,-2.8 0,-4.5 2.8,-0.4 5.6,0.1 8.3,-0.3 3.7,-0.4 6.1,1 8.3,3.9 6.1,8.2 12.6,16.1 19,24.1 0.5,0.9 1.1,1.6 2.1,2.6 z" />
			<path
   style="fill:#601531"
   id="path169"
   d="m 456.3,361 c 0.1,-3.6 0.7,-7.1 1.9,-10.5 3,-8.1 8.7,-13 17.2,-14.5 4.9,-0.9 9.8,-0.7 14.4,1.4 8.1,3.8 12,10.6 13.4,19 0.8,5 0.5,9.9 -1.1,14.8 -4.1,12.9 -16.2,17.4 -26.5,15.6 -10.3,-1.8 -16,-8.5 -18.4,-18.3 -0.5,-2.4 -0.6,-5 -0.9,-7.5 z m 34.9,3.3 c 0,-1 0.1,-2 0,-3 -0.3,-4 -0.8,-8 -2.6,-11.6 -2.2,-4.5 -5.8,-7.3 -11,-7.2 -4.2,0.1 -5.7,1.2 -7,5.3 -2.6,8.2 -2.2,16.4 0.6,24.5 0.4,1 0.9,2.1 1.5,3 2.6,4 6.2,5.8 11,5.5 2.4,-0.2 3.9,-1.1 5,-3.2 2,-4.2 2.5,-8.7 2.5,-13.3 z" />
			<path
   style="fill:#601531"
   id="path171"
   d="m 701.3,361 c 0,-4.2 0.8,-8.3 2.5,-12 3.5,-7.9 9.6,-12.3 18.2,-13.2 6.9,-0.8 13.3,0.5 18.6,5.4 3.9,3.6 6.1,8.1 7.3,13.2 1.2,5.8 1.1,11.5 -0.8,17.1 -4.1,12.6 -16.1,17.1 -26.3,15.4 -10.3,-1.7 -16,-8.5 -18.4,-18.2 -0.7,-2.6 -0.8,-5.1 -1.1,-7.7 z m 34.9,3.4 c 0,-1 0.1,-2 0,-3 -0.3,-4 -0.9,-8 -2.6,-11.6 -2.3,-4.9 -6.6,-7.5 -11.4,-7.2 -3.4,0.2 -5.7,1.6 -6.8,5.2 -2.4,8.3 -2.1,16.4 0.7,24.5 0.4,1 0.9,2.1 1.5,3 2.5,4 6.1,5.9 11,5.5 2.4,-0.2 3.9,-1.1 5,-3.2 2.1,-4.2 2.6,-8.7 2.6,-13.2 z" />
			<path
   style="fill:#601531"
   id="path173"
   d="m 334.1,380.2 c 2,0.7 3.6,1.3 5.4,1.9 0,1.3 0,2.7 0,4.2 -6.4,0 -12.7,0 -19.2,0 0,-1.4 0,-2.7 0,-4 0.2,-0.2 0.3,-0.4 0.5,-0.4 6.2,-1.8 4.6,-0.9 6.7,-6.6 4.4,-12.3 8.7,-24.7 13,-37.1 0.2,-0.6 0.5,-1.2 0.9,-1.9 4.2,0 8.4,0 12.9,0 0.4,0.9 0.9,1.9 1.2,2.9 4.3,12.3 8.6,24.5 12.7,36.8 1.1,3.2 2.6,5.3 6,5.6 0.3,0 0.6,0.2 1,0.4 0,1.3 0,2.6 0,4.1 -7.8,0 -15.5,0 -23.5,0 0,-1.3 0,-2.7 0,-4.2 1.6,-0.6 3.4,-1.1 5.4,-1.8 -1,-3 -1.9,-5.9 -2.9,-8.9 -5.7,0 -11.2,0 -17,0 -1,3 -2,5.8 -3.1,9 z m 18,-15.4 C 350,358.2 348,352.1 346,346 c -0.2,0 -0.4,0 -0.7,0.1 -2,6.2 -4.1,12.4 -6.1,18.7 4.3,0 8.3,0 12.9,0 z" />
			<path
   style="fill:#601531"
   id="path175"
   d="m 631.6,382.2 c 0,1.4 0,2.6 0,3.8 -2.4,0.6 -19.7,0.8 -23.7,0.2 -0.1,-0.4 -0.2,-0.8 -0.2,-1.2 0,-0.9 0,-1.8 0,-2.8 1.9,-0.6 3.6,-1.2 5.7,-1.9 -1,-3 -1.9,-5.9 -2.9,-8.9 -5.7,0 -11.2,0 -17.1,0 -1,2.8 -1.9,5.7 -3,8.8 1.9,0.7 3.5,1.2 5.4,1.9 0,1.2 0,2.6 0,4.2 -6.4,0 -12.7,0 -19.1,0 0,-1.4 0,-2.7 0,-4 0.1,-0.1 0.2,-0.4 0.4,-0.4 6.2,-1.8 4.7,-0.7 6.8,-6.8 4.4,-12.2 8.6,-24.5 12.9,-36.8 0.2,-0.6 0.5,-1.2 0.8,-2 4.2,0 8.4,0 12.9,0 0.4,0.9 0.8,1.8 1.2,2.9 4.3,12.3 8.6,24.5 12.7,36.8 1.1,3.2 2.5,5.3 5.9,5.7 0.5,0 0.7,0.3 1.3,0.5 z m -36.1,-17.3 c 2.5,0 4.5,0 6.5,0 2,0 4.1,-0.1 6.4,-0.1 -2,-6.6 -3.9,-12.8 -6.6,-18.7 -2.1,6.1 -4.1,12.3 -6.3,18.8 z" />
			<path
   style="fill:#601531"
   id="path177"
   d="m 410.8,338.9 c 0,4.7 0,8.9 0,13.3 -2.4,0 -4.7,0 -7.3,0 -0.6,-2.1 -1.2,-4.2 -1.8,-6.3 -0.4,-1.6 -1.2,-2.6 -2.8,-2.8 -1.3,-0.2 -2.6,-0.5 -3.9,-0.7 -2.4,-0.4 -4.1,0.7 -5.2,2.7 -1.2,2.3 -1.2,4.6 0.5,6.5 1.1,1.2 2.5,2.2 4,2.9 2.5,1.2 5.1,2.2 7.6,3.3 1.6,0.7 3.2,1.6 4.7,2.5 7.6,4.6 7.7,14.6 3.1,20.1 -3.6,4.3 -8.4,6.2 -13.7,6.7 -6.3,0.6 -12.1,-0.9 -17.6,-4.3 0,-3.8 0,-7.5 0,-11.5 2.3,0 4.5,0 7.1,0 0.5,2.1 1.1,4.3 1.7,6.6 3,2.3 6.6,2.9 10.3,3 0.8,0 1.9,-0.6 2.5,-1.2 2.8,-2.9 2.5,-7.9 -0.8,-10.3 -1.6,-1.2 -3.4,-2 -5.3,-2.8 -2.6,-1.2 -5.3,-2.2 -8,-3.3 -10.8,-4.7 -10.3,-18 -1.8,-23.8 6.4,-4.3 13.3,-4.5 20.5,-2.7 2.3,0.4 4.2,1.3 6.2,2.1 z" />
			<path
   style="fill:#601531"
   id="path179"
   d="m 450.2,338.7 c 0,4.8 0,9 0,13.4 -2.4,0 -4.8,0 -7.4,0 -0.6,-2.2 -1.2,-4.3 -1.8,-6.4 -0.4,-1.4 -1.1,-2.3 -2.6,-2.6 -1.3,-0.2 -2.6,-0.5 -3.9,-0.8 -2.6,-0.5 -4.3,0.6 -5.4,2.9 -1.1,2.3 -1.1,4.6 0.7,6.5 1,1.1 2.4,2 3.7,2.7 2.6,1.3 5.3,2.2 7.9,3.4 1.6,0.7 3.2,1.6 4.7,2.5 7.2,4.3 7.7,13.9 3.3,19.6 -3.1,4 -7.3,6 -12.2,6.8 -7,1.2 -13.4,-0.4 -19.5,-4 0,-3.9 0,-7.6 0,-11.6 2.3,0 4.5,0 7.1,0 0.5,2.1 1.1,4.4 1.7,6.7 3.1,2.2 6.6,2.8 10.1,3 1.8,0.1 3.4,-1.4 4.2,-3.6 1,-2.9 0.1,-6.3 -2.4,-8.1 -1.5,-1.1 -3.3,-1.9 -5,-2.7 -2.6,-1.2 -5.3,-2.2 -8,-3.3 -11,-4.7 -10.5,-18.2 -1.8,-24 5.4,-3.7 11.4,-4.2 17.6,-3.2 3.2,0.7 6,1.8 9,2.8 z" />
			<path
   style="fill:#601531"
   id="path181"
   d="m 643.5,380.3 c 0,-12.4 0,-24.6 0,-37.1 -2.1,0 -4.2,0 -6.4,0 -0.8,3 -1.6,5.9 -2.4,9 -2.2,0 -4.3,0 -6.6,0 0,-5.3 0,-10.4 0,-15.8 14.5,0 28.7,0 43.4,0 0,2.6 0.1,5.3 0.1,7.9 0,2.5 0,5.1 0,7.8 -2.3,0 -4.4,0 -6.9,0 -0.7,-2.8 -1.4,-5.8 -2.2,-9 -2.2,0 -4.4,0 -6.6,0 -0.7,2.3 -0.9,29.7 -0.3,37.1 1.6,0.6 3.4,1.2 5.3,1.8 0,1.3 0,2.7 0,4.2 -7.6,0 -15,0 -22.7,0 0,-1.3 0,-2.7 0,-4.2 1.8,-0.5 3.5,-1.1 5.3,-1.7 z" />
			<path
   style="fill:#601531"
   id="path183"
   d="m 543.9,373 c 1.3,0.9 2.4,1.7 3.6,2.5 -3.7,6.9 -9.2,11.1 -16.9,11.6 -8.1,0.5 -14.8,-2.4 -19.4,-9.4 -4.2,-6.4 -4.7,-13.5 -3.7,-20.9 0.8,-5.4 2.9,-10.2 6.7,-14.3 4,-4.2 8.8,-6.6 14.7,-6.9 5.6,-0.3 11.1,0.4 16.3,2.8 0,4.5 0,8.9 0,13.5 -2.4,0 -4.7,0 -7.2,0 -0.7,-2.6 -1.5,-5.3 -2.2,-8 -3.1,-1.5 -6.4,-1.8 -9.7,-1.4 -0.8,0.1 -1.8,0.9 -2.3,1.6 -2.2,2.8 -3.2,6.1 -3.6,9.5 -0.5,4.9 -0.6,9.8 0.6,14.6 0.4,1.6 1.1,3.1 1.8,4.6 3.6,7.8 14.1,8.5 19.3,2.6 0.6,-0.6 1.2,-1.4 2,-2.4 z" />
			<path
   style="fill:#601531"
   id="path185"
   d="m 680.2,342.7 c -1.7,-0.6 -3.4,-1.2 -5.2,-1.8 0,-1.4 0,-2.9 0,-4.5 7.6,0 15,0 22.7,0 0,1.5 0,2.9 0,4.5 -0.8,0.3 -1.7,0.6 -2.6,0.9 -0.8,0.3 -1.7,0.6 -2.7,0.9 0,12.5 0,25.1 0,37.9 1.6,0.6 3.4,1.2 5.3,1.9 0,1.2 0,2.5 0,3.9 -7.5,0 -15,0 -22.6,0 0,-1.2 0,-2.5 0,-4 1.6,-0.5 3.3,-1.1 5.1,-1.7 0,-12.8 0,-25.3 0,-38 z" />
			<path
   style="fill:#601531"
   id="path187"
   d="m 556.1,342.7 c -1.7,-0.6 -3.3,-1.2 -5.2,-1.8 0,-1.3 0,-2.8 0,-4.5 7.6,0 15,0 22.7,0 0,1.5 0,2.8 0,4.5 -1.6,0.5 -3.3,1.1 -5.3,1.8 0,12.5 0,25.1 0,37.9 1.6,0.6 3.3,1.2 5.3,1.9 0,1.2 0,2.5 0,3.9 -7.6,0 -15.1,0 -22.7,0 0,-1.4 0,-2.5 0,-3.9 1.7,-0.6 3.5,-1.1 5.3,-1.7 -0.1,-12.9 -0.1,-25.4 -0.1,-38.1 z" />
		</g>
		<g
   id="g207">
			<path
   style="fill:#601531"
   id="path191"
   d="m 427.8,209.8 c -4.8,11.2 -9.6,22.4 -14.4,33.6 -1.7,0 -3.3,0 -5.1,0 -4.8,-11 -9.6,-22.1 -14.5,-33.2 -0.7,2 -0.9,18.3 -0.4,27.1 1.7,0.6 3.4,1.2 5.3,1.9 0,1.3 0,2.7 0,4.2 -6.4,0 -12.7,0 -19.1,0 0,-1.4 0,-2.8 0,-4.2 1.8,-0.6 3.6,-1.2 5.4,-1.8 0,-12.6 0,-24.9 0,-37.6 -1.9,-0.5 -3.8,-1.1 -5.8,-1.7 0,-1.5 0,-2.9 0,-4.6 6.3,0 12.6,0 19.1,0 4.7,11.2 9.5,22.5 14.5,34.4 4.9,-11.9 9.5,-23.1 14.2,-34.5 6,0 11.9,0 18,0 0,1.5 0,3 0,4.7 -1.7,0.4 -3.6,0.9 -5.4,1.3 -0.5,2.1 -0.7,30.9 -0.3,37.6 0.7,0.3 1.5,0.7 2.4,1 0.9,0.3 1.7,0.5 2.8,0.8 0,1.4 0,2.8 0,4.4 -7.2,0 -14.4,0 -21.7,0 0,-1.5 0,-2.8 0,-4.3 1.7,-0.5 3.3,-1.1 5.1,-1.7 0,-9.2 0,-18.4 0,-27.5 0.1,0.1 0,0.1 -0.1,0.1 z" />
			<path
   style="fill:#601531"
   id="path193"
   d="m 703.3,199.8 c -1.7,-0.6 -3.5,-1.2 -5.3,-1.8 0,-1.5 0,-2.9 0,-4.6 6.4,0 12.6,0 19.1,0 0,1.5 0,2.9 0,4.6 -1.7,0.6 -3.5,1.2 -5.4,1.9 0,14.5 0,28.9 0,43.4 -2.3,0 -4.4,0 -6.8,0 -8,-9.9 -16.1,-19.9 -24.5,-30.4 0,8.4 0,16.2 0,24.3 1.6,0.6 3.4,1.2 5.3,1.9 0,1.3 0,2.7 0,4.2 -6.4,0 -12.6,0 -19.1,0 -0.1,-0.8 -0.1,-1.5 -0.1,-2.2 0,-0.6 0.1,-1.3 0.1,-2 1.8,-0.6 3.6,-1.2 5.6,-1.8 0,-1.1 0,-2.1 0,-3.1 0,-9.5 -0.2,-18.9 0.1,-28.4 0.1,-3.6 -1.8,-5.4 -4.4,-6.8 -0.6,-0.3 -1.4,-0.5 -2.1,-0.8 0,-1.5 0,-2.9 0,-4.7 2.2,-0.2 4.5,-0.1 6.7,-0.1 2.2,0 4.4,0 6.7,0 8,10.1 16,20.1 24.4,30.6 -0.3,-8.5 -0.3,-16.2 -0.3,-24.2 z" />
			<path
   style="fill:#601531"
   id="path195"
   d="m 497.7,199.8 c -1.8,-0.6 -3.6,-1.2 -5.4,-1.8 0,-1.5 0,-3 0,-4.6 0.7,-0.1 1.5,-0.2 2.2,-0.2 6.7,0 13.4,0 20.1,0 3.4,0 6.7,0.5 10,1.6 10.8,3.6 10.8,16 5,21.7 -1.3,1.3 -2.8,2.4 -4.3,3.6 2.5,5.1 5,10.3 7.6,15.4 0.4,0.7 1.2,1.4 2,1.7 1.7,0.7 3.5,1.1 5.3,1.7 0,1.4 0,2.7 0,4.3 -5.5,0 -11.1,0 -16.8,0 -3.1,-6.6 -6.3,-13.3 -9.5,-20.1 -1.4,0 -2.8,0 -4.3,0 0,4.6 0,9.2 0,14.1 1.6,0.5 3.4,1.1 5.4,1.8 0,1.3 0,2.8 0,4.3 -7.6,0 -15.1,0 -22.7,0 0,-0.7 -0.1,-1.2 -0.1,-1.7 0,-0.8 0,-1.6 0,-2.5 1.9,-0.7 3.7,-1.3 5.5,-1.9 0,-12.5 0,-24.8 0,-37.4 z m 11.9,17.7 c 2.2,-0.2 4.3,-0.4 6.4,-0.5 1.2,0 2.1,-0.5 2.8,-1.4 2.4,-2.9 3.1,-6.2 2.4,-9.8 -0.6,-3.1 -2.6,-5 -5.7,-5.7 -2,-0.4 -3.9,-0.4 -5.9,-0.1 0,5.9 0,11.6 0,17.5 z" />
			<path
   style="fill:#601531"
   id="path197"
   d="m 477.8,236.8 c 1.3,-2.9 2.6,-5.9 3.9,-8.9 2.3,0 4.7,0 7.3,0 -0.3,5.2 -0.6,10.3 -0.9,15.5 -13.4,0 -26.5,0 -39.8,0 0,-1.5 0,-2.9 0,-4.3 1.9,-0.6 3.6,-1.2 5.3,-1.8 0,-12.5 0,-24.8 0,-37.4 -1.7,-0.6 -3.5,-1.2 -5.4,-1.8 0,-1.4 0,-2.9 0,-4.3 1.9,-0.5 35.7,-0.6 39.1,-0.1 0.2,5.1 0.4,10.2 0.5,15.5 -2.5,0 -4.9,0 -7.5,0 -1,-2.9 -2,-5.9 -3,-9 -3.9,0 -7.8,0 -11.9,0 0,4.7 0,9.2 0,14 4.3,0 8.5,0 12.8,0 0,2.4 0,4.6 0,7 -4.2,0 -8.4,0 -12.8,0 0,5.4 0,10.5 0,15.7 4.2,-0.1 8.1,-0.1 12.4,-0.1 z" />
			<path
   style="fill:#601531"
   id="path199"
   d="m 377.7,243.3 c -7.8,0 -15.6,0 -23.5,0 -0.6,-1.3 -0.2,-2.8 -0.3,-4.2 1.9,-0.6 3.6,-1.2 5.6,-1.8 -0.9,-3 -1.8,-5.8 -2.8,-8.7 -5.7,0 -11.3,0 -17.1,0 -0.9,2.8 -1.9,5.6 -2.9,8.7 1.8,0.6 3.5,1.2 5.4,1.8 0,1.3 0,2.6 0,4 -1.8,0.5 -16,0.6 -19.1,0.1 0,-1.3 0,-2.7 0,-4.1 1,-0.3 1.9,-0.6 2.9,-0.8 1.8,-0.4 2.8,-1.3 3.4,-3.1 3.1,-9.2 6.4,-18.3 9.6,-27.5 1.6,-4.7 3.3,-9.3 5,-14.1 4.3,0 8.6,0 13.1,0 5,14.5 10.1,29 15.2,43.8 1.7,0.5 3.5,1.1 5.5,1.7 0,1.2 0,2.6 0,4.2 z m -35.8,-21.6 c 4.3,0 8.4,0 12.7,0 -2,-6.4 -4,-12.5 -6,-18.6 -0.2,0 -0.4,0 -0.6,0 -2,6.2 -4.1,12.4 -6.1,18.6 z" />
			<path
   style="fill:#601531"
   id="path201"
   d="m 626.4,228.5 c -1,2.9 -1.9,5.6 -2.9,8.7 1.8,0.6 3.5,1.2 5.4,1.8 0,1.3 0,2.7 0,4.3 -6.4,0 -12.6,0 -19.1,0 0,-1.5 0,-2.8 0,-4.3 1,-0.3 2,-0.7 3.1,-0.9 1.7,-0.4 2.6,-1.3 3.1,-3 4.5,-12.9 9,-25.8 13.5,-38.7 0.4,-1 0.7,-2 1.1,-3.1 4.4,0 8.6,0 13,0 5.1,14.5 10.1,29 15.3,43.9 1.6,0.5 3.4,1.1 5.5,1.8 0,1.3 0,2.7 0,4.3 -7.9,0 -15.7,0 -23.7,0 0,-1.5 0,-2.8 0,-4.2 1.8,-0.6 3.6,-1.2 5.5,-1.9 -1,-3 -1.9,-5.8 -2.8,-8.7 -5.5,0 -11.1,0 -17,0 z m 9,-25.3 c -0.2,0 -0.5,0 -0.7,0 -2,6.2 -4,12.3 -6.1,18.6 4.4,0 8.4,0 12.7,0 -2,-6.4 -3.9,-12.5 -5.9,-18.6 z" />
			<path
   style="fill:#601531"
   id="path203"
   d="m 605.9,195.4 c 0,4.6 0,9 0,13.6 -2.3,0 -4.6,0 -7.1,0 -0.5,-1.9 -1.2,-4 -1.6,-6.1 -0.3,-1.6 -1.1,-2.3 -2.6,-2.7 -2.4,-0.5 -4.8,-1 -7.3,-0.7 -1.2,0.2 -2,0.7 -2.7,1.7 -1.4,2.2 -2.5,4.5 -3,7 -1.3,6.3 -1.3,12.6 0.7,18.8 0.4,1.3 1,2.6 1.7,3.8 4.1,7 13.2,7.1 17.8,2.6 1,-1 2,-2.1 3.1,-3.3 1.2,0.8 2.3,1.5 3.6,2.4 -3.6,6.6 -8.7,10.9 -16.2,11.5 -12.8,1 -22.3,-7.2 -23.9,-19.9 -0.8,-6.8 0,-13.2 3.2,-19.2 4.1,-7.8 10.6,-11.9 19.5,-12.2 5,-0.2 9.9,0.6 14.8,2.7 z" />
			<path
   style="fill:#601531"
   id="path205"
   d="m 565,193.4 c 0,1.6 0,3 0,4.5 -1.8,0.6 -3.5,1.2 -5.3,1.8 0,12.6 0,25 0,37.8 1.6,0.5 3.3,1.1 5.2,1.7 0,1.2 0,2.5 0,3.9 -7.5,0 -15,0 -22.7,0 0,-1.3 0,-2.6 0,-3.9 1.8,-0.5 3.6,-1.1 5.4,-1.7 0,-12.7 0,-25.1 0,-37.9 -1.8,-0.6 -3.6,-1.2 -5.5,-1.8 0,-1.4 0,-2.9 0,-4.5 7.7,0.1 15.2,0.1 22.9,0.1 z" />
		</g>
		<g
   id="g225">
			<path
   style="fill:#601531"
   id="path209"
   d="m 623.4,307.9 c 1.7,0.6 3.3,1.1 5.2,1.7 0,1.3 0,2.7 0,4.3 -7.3,0 -14.4,0 -21.8,0 0,-1.4 0,-2.8 0,-4.3 1.6,-0.6 3.3,-1.1 5,-1.7 0,-9.2 0,-18.3 0,-27.3 -0.1,0 -0.2,-0.1 -0.3,-0.1 -4.8,11.2 -9.6,22.3 -14.3,33.6 -1.7,0 -3.4,0 -5.1,0 -4.9,-11.3 -9.9,-22.6 -14.8,-33.9 -0.1,0 -0.2,0.1 -0.3,0.1 0,9.1 0,18.2 0,27.6 1.8,0.6 3.5,1.2 5.4,1.9 0,1.3 0,2.7 0,4 -1.8,0.5 -14.7,0.6 -19.1,0.2 0,-1.3 0,-2.7 0,-4.2 1.7,-0.6 3.6,-1.2 5.4,-1.8 0,-12.6 0,-24.9 0,-37.6 -1.9,-0.5 -3.9,-1.1 -5.9,-1.7 0,-1.5 0,-2.9 0,-4.4 1.9,-0.5 14.5,-0.7 19.2,-0.2 4.7,11.2 9.5,22.6 14.5,34.5 4.9,-11.8 9.5,-23.1 14.2,-34.5 6,0 12,0 18.1,0 0,1.6 0,3.1 0,4.7 -1.8,0.5 -3.7,0.9 -5.6,1.4 0.2,12.5 0.2,24.9 0.2,37.7 z" />
			<path
   style="fill:#601531"
   id="path211"
   d="m 474.6,308 c 1.8,0.6 3.5,1.1 5.3,1.7 0,1.3 0,2.7 0,4.1 -1.8,0.5 -14.3,0.7 -19.1,0.2 0,-1.4 0,-2.8 0,-4.3 1.8,-0.6 3.6,-1.2 5.5,-1.8 0,-1.1 0,-2.1 0,-3 0,-9.5 -0.2,-19 0.1,-28.5 0.1,-3.6 -1.7,-5.4 -4.5,-6.9 -0.7,-0.3 -1.4,-0.6 -2.2,-0.9 0,-1.5 0,-3 0,-4.6 0.8,-0.1 1.4,-0.1 2.1,-0.1 3,0 5.9,0.1 8.9,0 1.9,-0.1 3,0.6 4.1,2 5.6,7.2 11.3,14.3 17,21.5 1.4,1.8 2.8,3.5 4.2,5.3 0.4,0.5 0.7,1.2 1.1,1.7 0.2,-0.2 0.3,-0.3 0.5,-0.5 0,-7.7 0,-15.5 0,-23.5 -1.7,-0.6 -3.5,-1.1 -5.5,-1.8 0,-1.4 0,-3 0,-4.6 6.4,0 12.7,0 19.1,0 0,1.6 0,3.2 0,4.6 -1.8,0.6 -3.6,1.1 -5.5,1.7 0,14.6 0,29 0,43.6 -2.3,0 -4.4,0 -6.7,0 -8,-9.9 -16.1,-20 -24.4,-30.2 -0.3,2.2 -0.5,19 0,24.3 z" />
			<path
   style="fill:#601531"
   id="path213"
   d="m 411.2,288.8 c 0.2,-6.4 1.6,-12.3 5.6,-17.4 3.8,-4.8 8.8,-7.4 14.7,-8 2.8,-0.3 5.8,-0.4 8.6,0.2 8.6,1.7 13.9,7.2 16.7,15.2 2.5,7.1 2.5,14.4 -0.3,21.5 -3.5,8.9 -10.3,13.5 -19.7,14.3 -5.2,0.5 -10.1,-0.4 -14.5,-3.3 -5.6,-3.6 -8.7,-8.9 -10.1,-15.3 -0.6,-2.3 -0.7,-4.8 -1,-7.2 z m 35,2.9 c -0.2,-2.5 -0.3,-5 -0.7,-7.5 -0.5,-3.3 -1.5,-6.4 -3.4,-9.2 -2.6,-3.6 -6.1,-5.1 -10.4,-4.8 -3,0.2 -5.3,1.4 -6.1,4.6 -0.3,1.1 -0.7,2.1 -1,3.2 -1.3,5.4 -1.1,10.9 -0.2,16.3 0.5,2.8 1.3,5.6 2.8,8.1 2.3,3.8 5.5,5.9 10,6 3.3,0.1 5.4,-1.2 6.6,-4.2 1.7,-4 2.3,-8.2 2.4,-12.5 z" />
			<path
   style="fill:#601531"
   id="path215"
   d="m 537.8,263.2 c 10,-0.1 17.9,5.5 21.4,15.3 2.6,7.2 2.6,14.5 -0.1,21.7 -3.1,8.4 -11,14 -19.9,14.5 -5.1,0.3 -9.9,-0.5 -14.2,-3.3 -5.2,-3.4 -8.4,-8.3 -9.9,-14.2 -1.7,-6.7 -1.6,-13.3 0.9,-19.7 3.5,-8.9 10.3,-13.5 19.8,-14.2 0.6,-0.1 1.3,-0.1 2,-0.1 z m 10.9,27.6 c -0.1,-1.4 -0.2,-3.9 -0.6,-6.4 -0.5,-3.3 -1.4,-6.4 -3.4,-9.2 -2.5,-3.6 -6,-5.2 -10.3,-4.9 -3.1,0.2 -5.5,1.3 -6.3,4.7 -0.2,1.1 -0.7,2.1 -1,3.2 -1.3,5.4 -1,10.9 -0.1,16.3 0.5,2.8 1.3,5.6 2.8,8.1 2.2,3.6 5.2,5.8 9.5,5.8 4.9,0 5.2,-0.4 7.2,-4.8 1.8,-3.7 2.1,-7.7 2.2,-12.8 z" />
			<path
   style="fill:#601531"
   id="path217"
   d="m 341.2,307.7 c 4.1,0 8,0 12.2,0 1.3,-3 2.7,-6.1 4,-9.2 2.3,0 4.6,0 7,0 0.3,5.2 -0.6,10.2 -0.6,15.5 -13.4,0 -26.6,0 -40,0 0,-1.4 0,-2.7 0,-4.3 1.7,-0.6 3.5,-1.2 5.4,-1.8 0,-12.5 0,-24.8 0,-37.2 -1.5,-1.3 -3.5,-1.4 -5.4,-1.9 0,-1.6 0,-3.1 0,-4.8 13,0 25.9,0 39.2,0 0.5,5.1 0.3,10.3 0.5,15.7 -2.4,0 -4.7,0 -7.3,0 -1,-2.9 -2,-5.9 -3.1,-9.1 -3.9,0 -7.8,0 -11.9,0 0,4.6 0,9.2 0,13.9 4.2,0 8.3,0 12.7,0 0,2.4 0,4.5 0,7 -4.1,0.3 -8.3,0 -12.7,0.2 0,5.3 0,10.5 0,16 z" />
			<path
   style="fill:#601531"
   id="path219"
   d="m 405.9,266 c 0,4.6 0,8.9 0,13.6 -2.3,0.3 -4.7,0.1 -7.2,0.1 -0.6,-2.2 -1.3,-4.4 -1.7,-6.6 -0.3,-1.4 -1,-1.9 -2.2,-2.3 -3,-0.9 -6,-1 -9.1,-0.7 -2,2 -3.3,4.4 -4,7.1 -1.7,6.4 -1.7,12.9 0,19.4 0.4,1.6 1.1,3.1 1.9,4.5 4.1,7.3 13.8,7.1 18.2,2.4 0.9,-1 1.7,-1.9 2.8,-3.1 1.1,0.7 2.3,1.5 3.7,2.4 -3.6,6.5 -8.6,10.8 -15.9,11.5 -13.9,1.3 -23,-7.9 -24.3,-20.6 -0.7,-6.6 0.1,-12.9 3.3,-18.7 4.1,-7.5 10.4,-11.7 19.1,-12.1 5.3,0.1 10.4,0.9 15.4,3.1 z" />
			<path
   style="fill:#601531"
   id="path221"
   d="m 696.2,266.1 c 0,4.5 0,8.9 0,13.5 -2.4,0 -4.7,0 -7.2,0 -0.6,-2.1 -1.2,-4.2 -1.6,-6.3 -0.3,-1.5 -1,-2 -2.3,-2.4 -2.5,-0.8 -5.1,-0.9 -7.8,-0.7 -1.1,0 -1.7,0.6 -2.4,1.4 -2.4,3.1 -3.4,6.7 -3.8,10.4 -0.5,4.9 -0.6,9.9 0.9,14.8 0.5,1.6 1.1,3.1 1.9,4.6 4.2,7.4 13.9,7.2 18.3,2.4 0.9,-1 1.7,-1.9 2.7,-3 1.1,0.8 2.3,1.5 3.5,2.4 -0.2,0.5 -0.3,0.9 -0.5,1.2 -4.7,7.6 -11.4,11.4 -20.3,10.4 -8.7,-1 -14.7,-5.7 -17.6,-13.9 -3.1,-8.7 -2.6,-17.3 1.7,-25.5 4,-7.5 10.3,-11.6 18.9,-11.9 4.8,-0.2 9.5,0.4 14.1,2.2 0.6,-0.1 1,0.2 1.5,0.4 z" />
			<path
   style="fill:#601531"
   id="path223"
   d="m 655.2,264 c 0,1.7 0,3 0,4.5 -1.8,0.6 -3.6,1.1 -5.5,1.7 0,12.7 0,25.2 0,38 1.7,0.6 3.5,1.2 5.4,1.8 0,1.2 0,2.5 0,3.9 -7.6,0 -15.1,0 -22.8,0 0,-1.3 0,-2.6 0,-3.9 1.7,-0.5 3.4,-1.1 5.2,-1.6 0,-12.7 0,-25.2 0,-38 -1.6,-0.6 -3.4,-1.2 -5.3,-1.9 0,-1.4 0,-2.9 0,-4.5 7.8,0 15.3,0 23,0 z" />
		</g>
	</g>
</g>
</svg>