<?xml version="1.0" standalone="no"?>
<!DOCTYPE svg PUBLIC "-//W3C//DTD SVG 20010904//EN"
 "http://www.w3.org/TR/2001/REC-SVG-20010904/DTD/svg10.dtd">
<svg version="1.0" xmlns="http://www.w3.org/2000/svg"
 width="495.000000pt" height="102.000000pt" viewBox="0 0 495.000000 102.000000"
 preserveAspectRatio="xMidYMid meet">
<metadata>
Created by potrace 1.15, written by Peter Selinger 2001-2017
</metadata>
<g transform="translate(0.000000,102.000000) scale(0.100000,-0.100000)"
fill="#000000" stroke="none">
<path d="M1703 988 c-72 -14 -103 -24 -103 -34 0 -7 11 -16 25 -20 l25 -6 0
-323 0 -324 -22 -3 c-13 -2 -24 -11 -26 -21 -3 -16 7 -17 150 -15 128 3 153 5
153 18 0 9 -11 16 -27 18 l-28 3 0 365 0 364 -22 -1 c-13 -1 -69 -10 -125 -21z"/>
<path d="M2008 981 c-63 -56 -32 -154 53 -167 70 -11 121 32 121 103 0 29 -7
43 -31 65 -44 39 -99 39 -143 -1z"/>
<path d="M3943 988 c-72 -14 -103 -24 -103 -34 0 -7 11 -16 25 -20 l25 -6 0
-324 0 -324 -25 0 c-18 0 -25 -5 -25 -20 0 -20 5 -20 152 -18 136 3 153 5 156
21 3 13 -3 17 -27 17 l-31 0 0 365 0 365 -22 -1 c-13 -1 -69 -10 -125 -21z"/>
<path d="M10 971 c0 -14 6 -21 19 -21 53 0 51 13 51 -335 0 -348 2 -335 -51
-335 -12 0 -19 -7 -19 -20 0 -19 7 -20 183 -20 206 1 292 13 360 53 57 34 85
73 93 130 15 105 -43 169 -181 201 l-50 11 62 23 c100 36 145 106 130 200 -8
45 -58 95 -114 113 -23 7 -127 14 -260 16 -221 5 -223 5 -223 -16z m354 -42
c33 -15 56 -66 56 -124 0 -71 -24 -111 -81 -137 -49 -23 -68 -58 -32 -58 33 0
99 -40 117 -71 13 -22 18 -50 18 -95 -1 -105 -41 -154 -129 -154 l-43 0 0 325
0 325 35 0 c19 0 45 -5 59 -11z"/>
<path d="M888 785 c-90 -18 -143 -62 -186 -155 -37 -79 -36 -193 1 -267 47
-91 118 -128 247 -128 67 1 94 5 126 22 52 28 114 96 114 127 l0 23 -47 -23
c-63 -32 -147 -33 -193 -1 -40 26 -65 67 -74 120 l-7 37 161 0 160 0 0 39 c0
79 -42 156 -102 187 -43 23 -138 32 -200 19z m92 -56 c7 -11 14 -45 17 -75 5
-49 4 -54 -14 -54 -11 0 -41 -3 -67 -6 l-48 -7 7 49 c8 55 28 100 47 107 27
11 48 6 58 -14z"/>
<path d="M1305 776 c-80 -16 -111 -26 -113 -38 -2 -10 6 -18 22 -22 l26 -6 0
-215 0 -214 -27 -3 c-17 -2 -28 -9 -28 -18 0 -13 24 -15 155 -15 131 0 155 2
155 15 0 9 -11 16 -27 18 l-28 3 0 169 0 168 36 12 c21 7 60 10 91 7 l54 -6
-3 82 -3 82 -30 3 c-44 4 -90 -30 -124 -90 l-31 -53 0 73 c0 39 -3 72 -7 71
-5 -1 -57 -11 -118 -23z"/>
<path d="M2055 775 c-60 -13 -113 -24 -117 -24 -19 -2 -5 -31 17 -37 l25 -6 0
-214 0 -214 -25 0 c-18 0 -25 -5 -25 -20 0 -19 7 -20 150 -20 143 0 150 1 150
20 0 15 -7 20 -25 20 l-25 0 0 260 c0 143 -3 259 -7 259 -5 -1 -57 -12 -118
-24z"/>
<path d="M2370 774 c-63 -13 -116 -23 -117 -24 -2 0 -3 -6 -3 -14 0 -8 11 -17
25 -20 l25 -6 0 -215 0 -215 -25 0 c-18 0 -25 -5 -25 -20 0 -19 7 -20 150 -20
143 0 150 1 150 20 0 15 -7 20 -25 20 l-25 0 0 193 0 194 25 11 c32 15 60 15
86 2 18 -10 19 -23 19 -205 0 -193 0 -194 -22 -197 -13 -2 -24 -11 -26 -20 -3
-17 9 -18 147 -18 143 0 151 1 151 19 0 13 -8 21 -22 23 -23 3 -23 4 -28 218
-5 236 -11 259 -68 281 -73 29 -197 -2 -242 -58 l-20 -26 0 52 c0 28 -3 51 -7
50 -5 -1 -60 -12 -123 -25z"/>
<path d="M3617 790 c-60 -15 -114 -47 -139 -82 -19 -27 -23 -46 -23 -103 0
-93 17 -116 136 -180 70 -38 96 -57 103 -77 14 -39 -14 -68 -66 -68 -56 0 -92
22 -129 80 -18 27 -36 50 -41 50 -4 0 -8 -32 -8 -71 l0 -70 38 -16 c25 -11 68
-17 133 -17 89 -1 99 1 144 29 64 40 90 84 90 156 0 79 -29 114 -145 173 -99
52 -128 82 -110 115 35 67 139 49 189 -33 13 -20 27 -34 32 -30 5 3 9 32 9 65
0 54 -2 60 -25 69 -38 15 -146 20 -188 10z"/>
<path d="M3016 776 c-107 -40 -162 -131 -136 -226 12 -46 59 -104 102 -126
l29 -15 -30 -28 c-56 -52 -47 -151 17 -181 15 -7 84 -15 155 -18 141 -5 164
-14 153 -55 -21 -86 -304 -106 -347 -25 -6 12 -8 38 -5 59 l6 39 -55 0 c-61 0
-75 -13 -75 -70 0 -73 106 -120 272 -120 155 0 264 45 302 123 19 41 21 105 4
141 -21 48 -52 59 -196 67 -131 7 -162 16 -162 45 0 10 16 14 64 14 101 0 175
36 217 104 21 34 26 117 9 161 -10 26 -9 26 22 20 18 -4 41 -9 51 -11 15 -5
17 2 17 55 l0 60 -72 -25 -73 -25 -40 22 c-50 29 -171 36 -229 15z m125 -45
c23 -18 24 -25 24 -134 0 -99 -3 -118 -19 -136 -41 -46 -71 -22 -88 69 -19
102 9 220 53 220 4 0 17 -9 30 -19z"/>
<path d="M4599 776 c-62 -22 -107 -64 -140 -132 -28 -57 -32 -75 -32 -147 0
-69 4 -90 27 -135 56 -111 193 -159 334 -117 76 23 152 97 152 149 0 12 -9 11
-46 -9 -111 -59 -234 -16 -263 90 -19 68 -26 65 149 65 l160 0 0 33 c0 99 -57
184 -137 206 -51 15 -160 13 -204 -3z m125 -41 c13 -13 34 -121 25 -129 -2 -2
-32 -7 -66 -11 -61 -7 -63 -6 -63 17 0 36 20 101 38 121 19 21 46 22 66 2z"/>
<path d="M4254 733 c-15 -27 -53 -87 -86 -134 -32 -47 -58 -93 -58 -102 0 -21
84 -185 113 -219 21 -25 28 -27 135 -34 128 -8 136 -2 80 58 -36 39 -151 225
-170 274 -11 31 -10 33 52 90 34 33 73 68 86 79 13 11 24 24 24 28 0 4 -33 7
-74 7 l-74 0 -28 -47z"/>
</g>
</svg>
