<?xml version="1.0" encoding="utf-8"?>
<!DOCTYPE svg PUBLIC "-//W3C//DTD SVG 1.1//EN" "http://www.w3.org/Graphics/SVG/1.1/DTD/svg11.dtd">
<svg version="1.1" id="Lag_1" xmlns="http://www.w3.org/2000/svg" xmlns:xlink="http://www.w3.org/1999/xlink" x="0px" y="0px" width="563px" height="83px" viewBox="0 0 563 83" enable-background="new 0 0 563 83" xml:space="preserve">
<path d="M166.724,2.361c0,0-47.121,43.469-50.936,46.871c-0.624-2.281-1.167-4.045-1.167-9.261c0-15.022,9.402-20.693,18.443-20.693
	c1.371,0,5.466,0.07,9.143,2.12l14.471-16.174c-3.506-1.723-11.007-5.021-23.625-5.021c-26.348,0-45.105,16.263-45.105,39.123
	c0,24.849,15.165,41.848,45.128,41.848c28.036,0,45.132-16.298,45.132-41.677c0-15.474-8.601-24.398-10.242-26.255l11.792-10.881
	H166.724z M132.964,61.983c-5.641,0-10.101-1.905-12.927-4.649c0,0,29.089-26.769,29.706-27.353c0.301,0.649,1.56,3.691,1.56,9.967
	C151.303,46.224,149.351,61.983,132.964,61.983z"/>
<path d="M240.287,49.171c10.624-0.122,26.455-3.78,26.455-24.266S246.354,2.51,230.409,2.51H189.63v76.397h26.814V51.992h7.551
	l17.168,26.915h32.054l-20.385-27.52L240.287,49.171z M227.36,36.328h-10.916V18.507h10.916c8.314,0,12.924,2.269,12.924,8.91
	C240.285,33.926,235.981,36.328,227.36,36.328z"/>
<path d="M322.885,31.212c-17.128-1.636-20.514-2.608-20.514-6.698c0-3.894,5.249-5.949,14.793-5.949
	c9.543,0,18.173,2.962,20.942,4.942c0.669-0.934,11.293-15.764,11.293-15.764c-8.424-4.606-20.349-7.53-37.133-7.53
	c-14.887,0-37.211,5.222-37.211,26.917c0,21.542,30.5,22.614,35.941,23.314c8.855,1.133,14.799,2.438,14.799,6.72
	c0,2.542-1.669,6.107-14.521,6.107c-12.99,0-21.322-4.914-24.849-7.619c-0.388,0.563-11.499,15.606-11.499,15.606
	c2.286,1.742,13.398,9.924,37.299,9.924c27.477,0,40.279-10.864,40.279-26.484C352.504,38.691,340.79,32.924,322.885,31.212z"/>
<polygon points="389.158,62.352 389.17,48.872 424.067,48.872 424.067,32.418 389.17,32.418 389.17,19.085 432.446,19.085 432.446,2.511 362.5,2.511 362.5,78.909 432.739,78.909 432.729,62.352 "/>
<rect x="536.121" y="53.834" width="25.063" height="25.075"/>
<path d="M500.074,32.322l2.805,20.13c0,0-4.101-8.478-11.832-20.943c-0.223-0.358-18.999-28.999-18.999-28.999h-28.307v76.398
	h24.977V48.52l-2.985-18.656c0,0,1.925,3.597,4.23,7.708c2.201,3.936,4.404,7.215,4.404,7.215l21.939,34.123h28.768V2.511h-25
	V32.322z"/>
<path d="M71.641,41.352c-3.394-0.578-11.925-1.902-11.925-1.902l11.199-1.993c3.122-1.559,8.171-6.554,8.171-16.165
	c0-15.423-13.802-18.782-30.738-18.782H1.406v76.396h47.859c20.932,0,32.123-5.86,32.067-21.884
	C81.302,48.229,75.853,43.154,71.641,41.352z M27.81,18.625h15.807c6.307,0,8.448,2.884,8.448,6.046
	c0,3.163-0.506,7.158-8.474,7.158H27.81V18.625z M43.591,62.457H27.81V47.634h15.781c7.581,0,10.577,2.686,10.523,7.184
	C54.059,59.496,51.712,62.457,43.591,62.457z"/>
</svg>