<svg xmlns="http://www.w3.org/2000/svg" xmlns:xlink="http://www.w3.org/1999/xlink" width="400" height="320" viewBox="0 0 400 320">
    <defs>
        <path id="prefix__a" d="M0 0H400V320H0z"/>
    </defs>
    <g fill="none" fill-rule="evenodd">
        <mask id="prefix__b" fill="#fff">
            <use xlink:href="#prefix__a"/>
        </mask>
        <rect width="96" height="96" x="74" y="117" fill="#FBF2E6" mask="url(#prefix__b)" rx="48"/>
        <g mask="url(#prefix__b)">
            <g fill-rule="nonzero">
                <path fill="#1D9A6C" d="M80.682 148.347c1.629-1.11 4.96-5.085 6.706-6.004 3.882-2.042 21.174-6.058 21.736-6.295.856-.361 6.42-1.624 9.66-2.421 7.61-1.873 34.885-13.971 42.073-17.073.918 2.415 8.494 13.075 7.194 14.168-4.279 3.596-11.949 8.075-16.905 10.653-4.01 2.084-8.255 3.81-12.542 5.218-4.867 1.6-8.207 3.314-13.058 4.95-4.772 1.61.931 6.644 3.382 7.685 2.749 1.167 7.006 1.759 9.815 2.77-4.945 7.686-9.098 17.014-9.929 26.22-.2 2.217-1.889 4.248-4.636 3.585-1.418-.343-14.498-2.085-16.631-2.571-14.239-3.247-39.8-20.252-33.218-37.689 1.508.697 4.951-2.241 6.353-3.196z" transform="translate(40 36)"/>
                <g fill="#032120">
                    <path d="M88.648 55.834c1.063-.09 3.814-2.214 2.37-3.289-1.455-1.084-2.502 2.55-2.37 3.29m-55.41 8.148c.277-.048.156-1.57-.282-1.765-1.382-.613-1.498 1.692-1.532 2.31-.042.778-.14 2.971 1.54 2.37.954-.341.362-2.33.273-2.915m81.572 7.109c-.037 1.358 2.707 3.97 3.73 2.403.86-1.316-3.66-5.107-3.73-2.403M17.797 40.46c.795 2.028 4.727-.736 4.873-2.223.3-3.046-4.914.196-4.873 2.223M50.6 49.204c1.83-.15 4.24-2.478 6.005-3.348 1.195-.589 4.446-1.29 4.8-2.626.308-1.161-5.208 1.324-5.68 1.545-2.164 1.014-4.115 2.17-5.125 4.429m137.456-16.052c1.459-1.129 3.233-1.857 5.104-1.81.934.025 2.883.61 2.956-1.006.12-2.628-8.131.576-9.42 1.092l1.36 1.724M97.012 135.533c-1.07-1.778-2.997-2.806-4.445-4.323.53 2.491-.666 4.706-1.488 6.98l5.933-2.657m185.93 37.902c.59-1.975 1.18-3.938 1.87-5.883.772-2.177 1.156-2.366-.691-3.888l-4.601 8.696c1.092.464 2.23.915 3.422 1.075M124.23 30.487c-2.03-2.288-11.546-2.432-10.368 2.619.41 1.764 2.75-.11 4.215-.521 1.455-.408 5.573-.463 6.153-2.098m-.349 32.402c-.246-.585-.738-2.693-1.467-2.859-.71-.162-3.514 2.05-4.04 2.387-2.63 1.684-5.192 3.496-7.754 5.282.981 0 1.872-.35 2.847-.357 1.158-.01 1.99.466 3.119.195 2.427-.583 5.244-3.272 7.295-4.648m2.63-52.221c.228-1.047 12.125 2.095 13.555 2.67.779.314 4.798 2.403 3.934-.746-.492-1.793-5.136-3.16-6.624-3.652-3.784-1.249-7.773-2.137-11.802-1.931-.783.04-6.708.382-4.234 2.763.853.82 3.909.562 5.17.896m2.605 143.823c2.217 1.09 4.48 1.925 6.797 2.777 1.029.38 2.632 1.371 3.768 1.122.93-.205 1.228-1.62 1.716-2.569 1.786-3.468 3.919-6.265 6.564-9.125-1.228-.895-7.462 3.055-9.004 3.638-1.544.584-3.001 1.172-4.512 1.87-1.423.657-4.23 1.244-5.329 2.287m39.246-29.562c3.23-1.462 6.292-4.054 8.942-6.375 3.042-2.665 5.769-5.457 7.996-8.906-1.34.069-4.3 4.38-4.332-.314-.017-2.394 3.264-4.752 4.282-6.972-2.533-1.43-4.855 7.115-7.761 5.044-2.8-1.996 1.618-8.858 2.469-11.023-1.642-1.092-10.999 11.137-12.353 12.702-.847.98-2.85 2.284-3.328 3.426-.285.68-.326 2.839-.188 3.465.287 1.308 1.738 2.875 2.384 4.093.818 1.542 1.53 3.145 1.89 4.86m133.545 44.092c-2.794-3.943.092-5.662 2.363-8.935 1.817-2.618 3.489-5.503 4.64-8.427 2.88-7.312 5.479-14.11 6.901-21.844-1.957.893-3.181 4.294-4.16 6.086-1.317 2.41-2.475 4.938-3.939 7.272-2.739 4.368-5.427 9.027-8.911 12.813-1.579 1.716-2.915 3.646-4.736 5.192-.832.706-2.424 1.286-3.036 2.169-.58.833.068 1.366-.152 2.363-.225 1.021-1.259 2.11-1.702 3.094-.583 1.293-1.125 2.588-1.775 3.852-.71 1.377-.903 2.098-1.095 3.445-.208 1.472.432 1.625-.854 2.982l6.991 3.083 2.36 1.04c.165-.31.33-.621.497-.932.64-.622 1.229-2.156 1.595-2.978 1.531-3.428 3.26-6.87 5.013-10.275M76.884 152.47c-6.617 17.42 16.634 32.087 30.947 35.332 1.982.449 3.917 1.037 5.89 1.52 2.152.525 4.063.42 6.21.64 1.71.175 2.524 1.496 4.134 1.86 2.69.607 2.526-1.415 2.719-3.581.816-9.187 5.505-18.05 10.467-25.715-2.267-.811-4.513-1.696-6.75-2.584-1.915-.76-4.847-2.896-6.905-3.01-1.523-.083-3.842 1.217-5.32 1.788-2.463.95-4.933 1.76-7.5 2.407-4.487 1.134-9.48 2.678-14.124 2.795-1.339.034-5.011.658-5.975-.17-1.837-1.578.713-2.893 2.25-3.456 9.166-3.356 18.898-4.783 28.09-8.224 4.729-1.771 9.41-3.749 14.17-5.493 4.102-1.504 8.4-2.836 12.364-4.685 5.236-2.442 10.495-5.485 15.03-9.069.907-.717 2.808-1.782 3.43-2.822.548-.914.48-.002.366-1.111-.082-.797-1.057-1.877-1.458-2.63-1.494-2.807-2.844-5.69-3.98-8.66-7.232 3.102-14.113 7.325-21.24 10.64-7.172 3.337-15.263 5.691-22.936 7.568-3.266.8-7.02 1.052-10.016 2.631-1.272.671-2.53 1.447-3.893 1.835-.403.772-.8.924-1.19.454-.244-.274-.56-.39-.948-.348-.834.141-1.684.535-2.464.838-3.947 1.53-7.725 3.445-11.472 5.4-1.776.926-3.597 1.838-5.297 2.896-.91.567-1.727 1.139-2.472 1.917-.894.934-.681 1.701-2.127 1.037M225.773 49.04c1.672.028 3.196-.878 4.94-.827 2.741.079 4.912 2.205 6.503 4.255 3.15 4.057 2.346 8.95.764 13.49-.757 2.17-1.796 4.252-3.094 6.15-1.15 1.682-3.204 3.272-4.007 5.144-1.323 3.088 1.347 1.775 2.98 1.115 2.056-.83 3.982-1.86 5.726-3.25 7.774-6.191 13.688-14.797 15.669-24.68.966-4.822.892-10.46-2.467-14.395-3.071-3.599-8.372-4.775-12.904-4.107-4.898.721-9.338 2.796-13.326 5.467-1.159.776-2.22 1.623-3.308 2.491-1.427 1.139-2.282 1.169-1.925 2.953.265 1.327.988 2.702 1.453 3.975.872 2.384.554 3.001 2.996 2.22m5.33 41.108l-.338.578c2.332.112 4.505-1.946 6.492-2.95 2.582-1.306 4.874-3.087 7.136-4.885 3.99-3.172 8.032-6.746 11-10.91 6.658-9.334 12.705-21.167 10.888-33.001-1.957-12.755-13.113-17.664-25-15.976-5.357.76-10.14 3.153-14.934 5.58-2.416 1.225-4.455 2.812-6.67 4.35-1.148.798-2.196.901-2.271 2.296-.057 1.052 1.76 3.43 2.252 4.382 6.02-6.14 12.506-11.22 21.596-11.534 10.815-.373 17.21 9.88 17.162 19.7-.046 9.63-4.2 18.892-10.82 25.813-3.01 3.145-5.878 5.669-9.573 7.964-1.842 1.145-3.2 2.172-5.26 2.932-1.456.538-1.304.254-1.676 1.603-.316 1.144.007 2.87.016 4.058m-58.762 130.83c-.14 1.736-.493 3.444-.886 5.137-.141.608-.935 2.526-.796 3.21.23 1.13-.076.403.914.992 1.032.616 2.234.578 3.364.765.698.116 3.254 1.319 3.684 1.129.752-.332.728-1.504 1.553-1.968 1.123-.633 2.779-.09 3.839.405 2.834 1.321 4.78 4.058 7.523 5.555 4.869 2.66 10.647 4.132 16.08 4.74 2.942.329 5.954.906 8.86.217 2.29-.544 5.267-.494 6.512-2.95-11.063-3.043-27.948-6.766-32.322-19.461-2.377 2.155-6.351.995-9.225.697-3.16-.328-5.986-.252-8.877-1.692-.211 1.132-.276 2.072-.223 3.224M74.394 142.35c5.207.315 10.144-2.15 13.349-6.307.789-1.025 1.598-2.07 2.071-3.283l.308-.923c.497-.849.28-1.25-.653-1.202-.525-.72-1.856-.962-1.477-2.267.285-.985 1.337-1.001 2.252-1.311-.455-.766-.728-1.15-1.38-1.831-1.695 1.525-4.771 4.518-5.962 1.014-.572-1.681.435-3.289.185-4.91-.102-.671-.953-2.385-1.446-2.786-2.625-2.138-6.406-1.253-9.191.005-1.92.867-2.333 1.274-2.646 3.262-.318 2.021-.614 4.041-.966 6.057 1.152-.6 1.362-1.897 2.113-2.831.281.512.562 1.025.845 1.537.396-.222.767-.21 1.11.036.556.855.206 2.122.035 3.018 1.854-.173 2.637 1.895.769 2.733-1.936.867-2.81-1.498-2.875-3.03-.722.863-1.464.4-1.967.844-.504.443-.702 1.367-.88 2.379-.295 1.662-1.048 4.06-.351 5.727 1.034 2.477 4.33 3.765 6.757 4.07m150.9-79.546c-1.722 2.396-4.66 5.533-5.275 8.428 1.898-1.114 5.911-6.473 6.945-2.204.593 2.45-2.45 5.37-3.198 7.743 2.993-.985 5.125-4.069 6.993-6.45 2.38-3.034 4.812-7.035 5.42-10.894.492-3.123-1.675-6.033-4.894-6.34-1.644-.156-3.36.105-4.95.487-.724.173-1.804.389-2.45.777-.813.487-.924 1.629-1.688.68l-3.048 5.743c1.011-.367 3.074-1.924 4.179-1.763 1.613.235 1.945 2.579 1.967 3.793M63.958 15.928c-4.517.133-9.239 1.095-13.515 2.525-1.063.356-5.543 1.62-4.6 3.452.624 1.211 3.987-.5 5.003-.786 4.357-1.223 8.842-2.03 13.304-2.766 1.08-.178 4.746-.16 4.935-1.577.232-1.728-3.851-.85-5.127-.848m122.945 197.103c-2.449.299-4.8.187-7.25-.113-2.063-.252-4.164-1.097-6.216-1.097 0 2.197-.15 2.21 2.169 2.681 1.617.328 3.258.513 4.893.741 2.879.403 6.074 1.533 8.988.952-.07-.381-.294-2.956-.596-3.21-.17-.143-1.741.048-1.988.046M147.329 50.487c.685.436 2.259 2.176 3.074 2.207-.291-2.014-2.538-5.52-5.118-4.276-.632.305-1.96 1.824-1.36 2.495.321.358 2.565-.424 3.404-.426m-23.872 17.916l.076-1.053c-.947.557-2.12.82-2.792 1.717l2.423 1.075.293-1.74m74.565 53.469c4.473 1.566 8.575 3.658 11.867 7.21 2.846 3.07 4.184 8.482 4.879 12.508 1.719 9.961-1.598 19.194-3.786 28.724-1.11 4.834-2.766 9.486-4.317 14.195-1.354 4.113-2.516 8.419-4.385 12.33-1.585 3.315-3.61 6.583-5.005 10.023-.75 1.851-1.966 8.203-4.814 6.208-.777 2.032-.966 1.86-.136 3.27.602 1.022 2.642 2.441 3.604 3.273 2.565 2.218 5.814 4.046 8.823 5.599 5.512 2.844 11.42 4.973 17.096 7.566 2.509 1.147 5.23 2.502 4.667 5.785-.472 2.752-2.064 4.839-4.548 6.063-2.331 1.15-5.666 2.037-8.231 2.398-1.522.214-1.871-.42-3.112-.638-1.381-.243-2.993.227-4.417.215-6.395-.056-11.995-1.665-17.163-5.374-1.846-1.325-4.565-4.92-6.982-4.92-1.235 0-.974.751-2.061 1.192-1.341.543-3.652-.483-4.97-.723-2.81-.513-5.666-1.034-7.536-3.453-2.022-2.615-1.303-5.853-.434-8.757.98-3.273 2.627-6.593 3.328-9.916.17-.808.327-2.314.154-3.136-.27-1.276-1.557-2.037-1.596-3.419-.012-.42.59-.974.695-1.408.232-.952.196-1.94.292-2.91.17-1.73.565-3.387.837-5.096.618-3.889 1.838-7.358 3.018-11.106 1.146-3.636 2.236-6.343 4.45-9.492 1.147-1.631 4.982-7.441 3.109-9.114-2.563 5.035-5.56 8.962-9.483 12.97-3 3.066-5.934 7.187-9.69 9.37-4.128 2.402-9.173 3.814-13.732 5.083-2.169.604-3.968 1.942-6.306 2.19-2.533.268-5.112-.048-7.593-.613-.699-.159-2.713-1.232-3.345-1.164-.931.102-2.27 1.761-3.292 2.066-2.487.742-4.186-.676-6.072-1.985-2.047-1.422-2.667-1.775-5.03-1.946-2.893-.21-5.707-1.23-8.553-1.854-5.004-1.098-9.258-3.323-13.806-5.652-5.214-2.67-9.674-6.35-13.604-10.7-5.777-6.393-13.823-24.109-4.385-30.312-5.556-.754-10.645-3.18-11.322-9.468-.354-3.29.312-6.935 1.14-10.107.377-1.448.828-2.888 1.26-4.32.324-.485.496-1.014.514-1.59.2-.746-.088-1.117-.862-1.114-1.464-1.71-2.564-3.221-2.86-5.65-.093-.77-.176-1.95.372-2.605.253-.264.559-.44.916-.528.858.05 1.1-.373.727-1.267.417-1.266-.2-2.252 1.368-2.78.503.106 1.004.223 1.503.35.636.29 1.05.08 1.242-.629 1.479-.578.797-1.434 2.805-.69 1.216.451 2.373 1.227 3.258 2.172 1.11-.713-1.415-5.119-1.5-6.524-.2-3.314 1.17-6.053 2.953-8.775 3.464-5.288 8.3-9.836 13.067-13.928 9.134-7.836 18.728-15.297 29.04-21.54-4.253-2.955-9.224-3.756-14.286-2.382-4.666 1.266-8.45 3.565-12.745 5.576-3.98 1.863-8.204 2.628-9.473-2.455-1.421-5.693 3.115-7.807 7.183-10.36-1.016-.758-4.36-.216-5.625-.126-2.818.199-5.512.835-8.25 1.398-1.313.269-2.52.208-3.82.473-1.935.392-3.954.832-5.91 1.391-4.656 1.332-9.277 3.352-13.3 6.075-3.476 2.352-5.888 5.673-8.689 8.731-3.195 3.488-6.256 6.92-10.992 8.196-2.217.598-4.818 1.14-6.39-.84-1.464-1.842-1.545-4.061-1.497-6.313.106-4.975 2.509-10.35 5.304-14.415 3.034-4.412 7.098-6.939 10.938-10.49-5.55.397-10.914 3.322-16.018 5.344-1.074.426-2.158.904-3.238 1.298-1.152.42-1.915.163-3.018.355-2.518.44-4.68 1.5-7.13-.191-4.634-3.2.009-9.711 3.2-11.709 4.443-2.782 8.964-5.125 13.86-7.11-2.651-2.874-.387-6.977 2.055-9.016 3.091-2.58 7.027-4.06 10.752-5.44 2.945-1.093 5.838-2.142 8.898-2.8 3.216-.69 6.978-1.747 10.242-1.645 3.06.095 5.775-.445 8.875-.53 2.58-.073 5.165-.01 7.744-.077 6.94-.18 13.905.288 20.687.787C94.06-4.56 129.455.293 137.007 2.345c6.863 1.866 14.725 4.03 20.49 8.456 2.441 1.874 4.76 4.006 6.927 6.193 3.197 3.227 4.967 7.453 6.657 11.624 4.289-2.1 8.39-4.39 13.082-5.432 4.465-.99 9.039-2.334 13.53-3.082 3.415-.57 8.37-.956 11.245 1.455 3.12 2.62 4.747 6.694 6.61 10.185 8.948-8.49 18.928-14.684 31.685-14.272 12.483.403 20.692 11.183 22.205 22.864 1.667 12.872-4.067 26.322-11.839 36.29-3.485 4.47-7.091 8.787-11.782 12.122-2.326 1.653-4.78 3.464-7.33 4.755-1.273.644-2.663 1.225-3.999 1.72-.602.224-1.223.448-1.85.6-1.789.434-1.441-.146-2.107 1.42-.54 1.273-.473 3.46-.705 4.857-.264 1.595-.42 3.213-.807 4.786-.668 2.728-1.364 5.39-2.201 8.053-1.585 5.042-3.718 10.123-6.33 14.722 2.215.962 5.318 1.06 7.686 1.35 2.562.316 5.128.979 7.79 1.723 5.334 1.492 10.1 2.75 15.172 4.983 5.265 2.318 9.958 5.78 15.028 8.534 4.663 2.533 9.375 5.706 13.705 8.746 1.03.724 1.668 1.353 2.488 2.27.84.935 1.106 1.118 2.109 1.93.452.365 1.766 2.209 2.283 2.277.924.122.782-.568 1.507-1.53 1.516-2.012 3.629-3.57 5.133-5.631 1.255-1.72 2.564-3.46 3.905-4.938 3.246-3.578 5.936-7.544 8.244-11.833 1.2-2.232 2.465-4.358 3.77-6.465 1.298-2.098 3.607-4.867 6.193-4.743-.208-1.068-.869-1.246.271-1.9.734-.42 2.164.258 2.73.685 1.498 1.132 1.564 3.328 1.47 4.977-.244 4.251-1.133 8.447-2.373 12.466-1.49 4.832-3.358 9.095-5.396 13.706-1.623 3.674-3.637 8.532-7.676 10.208 2.712 3.872 1.41 7.028-.402 11.138-1.325 3.005-3.075 6.11-5.74 8.1-3.004 2.241-6.262.34-9.404-1.142-1.898-.896-7.7-3.008-6.52-5.762-1.45-.194-2.362-1.246-3.681-1.57-1.397-.344-1.157.224-2.635.436-1.133.163-2.828-.851-3.895-1.215-1.782-.606-3.56-1.228-5.339-1.84-5.01-1.726-9.934-3.425-14.993-4.807-9.413-2.572-18.941-4.03-28.321-6.328-1.88-.46-3.75-.904-5.707-1.273-.405-.076-2.502-.193-2.757-.625-.446-.759.926-5.002 1.044-5.867.773-5.677.52-11.891-.569-17.504-.452-2.333-2.472-5.354-2.455-7.631.012-1.528 1.366-3.196 2.16-4.58 1.967-3.422 4.027-7.119 5.483-10.68 2.23-5.447 3.596-11.595 4.58-17.43.514-3.04 1.11-6.338 1.25-9.415.107-2.345-.085-4.805.255-7.207-1.298.123-3.135.796-4.304.076-1.476-.909-1.873-3.502-1.684-5.051-5.055.882-4.887-3.912-4.574-7.66-9.136 0 2.564-13.577 4.026-16.492.671-1.34.652.165.355-1.908-.13-.911-.753-1.921-1.106-2.759-.767-1.829-1.598-3.63-2.484-5.404-1.874-3.748-3.996-7.37-6.312-10.861-2.084 1.453-3.963 3.172-5.705 5.017 1.117-2.92 4.53-6.539 3.07-9.856-1.353-3.074-5.87-2.86-8.539-2.299-7.25 1.529-14.204 3.755-21.11 6.333 2.139 1.227 5.414.28 7.54-.659 2.633-1.162 5.463-2.38 8.3-2.996 2.475-.537 5.724-.354 5.01 2.979-.58 2.7-3.222 5.3-4.964 7.32-3.84 4.448-8.654 7.892-13.384 11.332-5.083 3.7-9.982 7.718-15.13 11.31-9.306 6.492-19.311 12.135-28.926 18.195-4.996 3.15-10.658 5.683-16.076 8.017-5.96 2.568-11.675 5.317-17.858 7.344-3.435 1.127-6.838 2.054-10.213 3.335-2.115.803-5.798 2.412-7.196.028-2.838-4.843 7.433-11.212 10.248-14.173 1.942 1.886-7.634 8.913-6.884 11.659.589 2.157 2.866-.629 3.966-1.217 1.778-.95 3.883-1.428 5.669-2.513 3.664-2.224 8.008-4.79 8.844-9.388-.582-.614-.575-1.18.022-1.7.266-.317.476-.664.631-1.042.261-.722.366-1.627.506-2.394.412-2.264-.623-4.385.344-6.6-5.646 4.278-11.074 9.11-16.434 13.742-4.807 4.154-9.824 9.594-11.59 15.793-.227.794-.603 1.696-.562 2.534.08 1.645.245 1.29 1.57 1.82 1.326.529 3.257.483 4.683.54.813.031 4.443-.83 3.721.954-.416 1.028-2.932.99-3.833 1.084-2.262.24-3.488-.006-2.417 2.445.48 1.099 1.453 1.843 2.217 2.693 2.124 2.366 3.277 5.994 4.948 8.773 1.904 3.166 3.997 6.177 6.22 9.126.917 1.217 2.144 3.503 3.416 4.371 1.187.811-.21.744 1.762.415.86-.143 1.64-.703 2.462-.903 4.918-1.198 9.973-2.549 15.059-4.027 6.505-1.892 13.332-3.505 19.539-6.23 5.56-2.44 11.079-5.346 16.697-7.818 1.64-.721 3.28-1.2 4.555-2.528 1.54-1.602 2.813-3.7 4.233-5.423 2.414-2.93 4.64-5.91 7.239-8.687 1.934-2.066 5.362-5.907 8.092-6.731 5.186-1.567 2.41 6.332 1.74 8.328 1.218.277 1.86-1.287 3.29-.837 1.713.539 1.89 2.817 2.105 4.244.056.38-.458 1.092-.302 1.43.053.117 1.171.777 1.387 1.084.783 1.113.629 2.466.332 3.666-1.535 6.217-6.99 10.756-11.001 15.342 1.794-.34 3.125-1.363 4.819-1.87 1.59-.475 3.189-.45 4.792-.587 1.678-.143 3.29-.77 5.007-.803 1.801-.033 3.527.48 5.313.684" transform="translate(40 36)"/>
                    <path d="M8.283 65.954c-.99.647-1.268 1.281-1.302 2.773-.014.612.028 2.894.884 2.808.802-.08.418-4.796.418-5.58m-5.11 3.717c.46-4.781 2.21-9.643 6.325-12.622 1.017-.737 2.169-.71 3.284-1.175.67-.28 1.73-1.578 2.49-1.424 2.802.567-.435 4.289-.909 5.268-1.468 3.033-1.37 5.699-1.325 8.971.033 2.487.55 6.68-.704 8.931-1.337 2.397-4.236.84-5.854-.578-2.042-1.791-3.584-4.643-3.307-7.371M52.348 83.8c0 2.669 2.166.863 2.088-1.035-.113-2.794-2.189-1.074-2.088 1.036M63.86 69.05c-2.37 2.132-4.198 3.328-4.655 6.605-.346 2.483-.002 4.942.013 7.442.025 4.192-3.36 8.6-7.003 3.794-2.657-3.505-1.704-9.016.463-12.538 1.137-1.848 2.76-3.676 4.635-4.828 1.41-.866 5.377-2.572 6.547-.474M30.762 133.653c-.275.65-.92 3.305.396 2.704 1.162-.53.409-2.29-.396-2.704m-6.954-8.194c-.204-.998-.12-7.255 1.603-6.786 1.353.368 1.577 3.57 2.129 4.685 2.053 4.15 6.767 6.736 8.392 11.02 1.814 4.784-3.671 4.933-6.582 2.996-3.446-2.295-5.44-7.912-5.542-11.915M19.583 99.804c.748-1.01.823-1.55.397-2.443-.545.593-.448 1.44-.397 2.443m.54 4.517c-3.898.437-4.093-6.75-3.426-9.216.532-1.965 1.675-4.076 2.852-5.677.238-.323 2.492-3.227 2.934-3.234 1.696-.026 1.23 1.89 1.047 2.603-.576 2.247-.804 4.126-.65 6.617.167 2.666 1.43 8.996-2.756 8.907M197.165 42.091c-5.576 4.676-10.869 9.738-16.931 13.828-2.967 2.002-6.068 3.772-9.028 5.806-1.508 1.037-3.046 1.964-4.719 2.726-1.477.672-2.443.76-1.217-.837.819-1.067 2.656-1.81 3.772-2.568 1.718-1.168 3.34-2.464 5.147-3.5 3.185-1.827 6.351-3.303 9.288-5.544 2.606-1.988 5.295-3.93 7.782-6.044 1.067-.906 4.604-5.067 5.906-3.867M197.277 58.975c2.508 2.145-3.766 8.02-5.196 9.352-1.509 1.405-3.17 2.657-4.811 3.902-.578.438-3.729 3.37-4.529 3.134-1.578-.468.494-2.37 1.033-2.866 1.742-1.607 3.522-3.166 5.226-4.816 1.536-1.486 3.2-2.863 4.686-4.398 1.204-1.243 2.215-3.35 3.591-4.308M11.516 145.433c-.655-1.517-1.828.167-1.233.924.562.718 1.149-.633 1.233-.924m-3.839-2.996c.35-2.23 1.162-3.47 3.255-1.566 1.437 1.309 4.33 5.029 4.055 7.057-.36 2.66-3.29 1.905-4.809.514-1.557-1.426-2.244-4.027-2.501-6.005M12.263 186.338c-2.564-.195-4.75-2.163-5.84-4.47-.915-1.94-1.782-5.066 1.436-4.046 2.097.665 10.181 8.829 4.404 8.516M43.329 173.694c-1.981.45-3.94-.854-5.159-2.326-.758-.916-2.522-4.128-1.633-5.45 1.239-1.844 3.11 1.862 3.754 2.596 1.012 1.15 4.322 3.347 3.038 5.18M45.113 123.533c-1.553-.72-2.995-1.588-3.619-3.309-.397-1.096-.73-4.383 1.033-4.368 2.04.018 6.711 7.348 2.586 7.677M34.226 89.336c2.08-.038 2.571 1.109 2.86 2.756.197 1.118 1.15 4.914.16 5.692-1.413 1.11-3.661-1.435-4.116-2.434-.936-2.058.359-4.082 1.096-6.014M69.953 203.145c1.012.46 3.315 1.482 2.435 3.067-.92 1.658-3.562.047-4.549-.677-.413-.304-3.038-2.289-2.928-2.954.231-1.415 3.85.431 5.042.564M3.255 99.632c.691 1.732 1.47 7.684-2.173 4.47-1.112-.981-1.28-2.206-.896-3.552.554-1.952 1.36-1.565 3.069-.918M196.305 77.47c-.806-1.648 1.185-2.711 2.25-3.773.694-.694 3.616-4.457 4.574-4.244 1.97.437-5.855 7.282-6.824 8.017M34.2 196.846c1.9-.305 2.344 1.806 3.569 2.726.525.395 2.328.742 1.965 1.58-.953 2.201-5.627-2.827-5.534-4.306M50.25 146.981c1.307-.547 5.078 2.39 3.996 3.66-1.619 1.899-3.903-2.621-3.995-3.66M77.79 189.482c-.952.095-4.971-1.168-3.482-2.86 1.045-1.188 3.824 1.785 3.482 2.86M29.662 181.367c-.946.377-4.356-.4-3.283-1.881 1.02-1.41 3.284.71 3.283 1.88M57.58 187.755c1.104-.114 1.903.552 2.093 1.68-1.383.198-1.81-.13-2.094-1.68M201.352 23.9l1.396.007-1.396-.006M194.024 121.09l-2.094.002 2.094-.003M98.805 7.328l-.097 2.094.097-2.094M315.047 125.976c.222.776-.104.905-.98.386l.98-.386M295.224 186.867l1.046.007-1.046-.007M228.92 130.696c-.585.446-1.167.509-1.744-.024l1.744.024M215.857 71.189l-.045 1.744c.014-.583.03-1.164.045-1.744M246.02 17.343l-1.745-.001c.582-.218 1.164-.147 1.745.001M75.376 10.243l-1.745.103 1.745-.103M89.684 10.354l-1.396-.119 1.396.119M97.361 10.907c-.465.173-.93.276-1.396.002l1.396-.002M55.834 11.862c-.582.119-1.163.237-1.745.354.582-.117 1.164-.235 1.745-.354M216.207 153.893l-.048 1.047.048-1.047M23.894 125.627l.02.698-.02-.698M317.208 124.375l-1.745.01c.58-.434 1.163-.38 1.745-.01M197.863 121.904l-1.396-.23 1.396.23M70.142 203.093l-1.745-.34 1.745.34zM187.584 102.944l-.032-1.047.032 1.047M77.121 10.359l-1.047-.129 1.047.129M134.351 1.729l-1.047-.317 1.047.317M175.878 237.1l.698.042-.698-.042M15.703 49.713l1.047.028-1.047-.028M249.858 17.684l-1.745-.123 1.745.123M65.954 16.05l-2.443.004 2.443-.004M230.823 87.939c.01.582.022 1.165.033 1.745-.01-.583-.02-1.164-.033-1.745M188.092 212.88l-1.396-.023c.468.006.931.015 1.396.022M237.644 27.985l2.094-.233c-.67.593-1.393.199-2.094.233M184.253 213.062l-1.047-.039 1.047.039M172.187 219.15l.053 1.744-.053-1.745M225.43 49.412l1.397-.129c-.425.327-.924.136-1.396.13M72.933 142.25l1.396.255-1.396-.256M145.518 50.427c.58-.495 1.162-.441 1.745-.006l-1.745.006M123.682 68.048c.017-.233.033-.466.051-.698l-.05.698M225.249 61.418l.015 1.396-.015-1.396M71.288 134.362c.766.26 2.305 1.044 3.198.94.714-.084 1.303-.952 1.991-.95 1.855.002 1.511 2.146.615 3.297-2.423 3.113-7.839-.263-5.804-3.287M78.858 123.184c2.53.653 1.27 6.217-.857 6.6-2.503.45-2.94-4.074-2.445-5.709 1.288.765.49 3.497 2.114 2.742 1.033-.48.876-2.702 1.188-3.633" transform="translate(40 36)"/>
                </g>
            </g>
        </g>
    </g>
</svg>
