<?xml version="1.0" encoding="utf-8"?>
<svg version="1.0"
	 xmlns="http://www.w3.org/2000/svg" viewBox="0 0 111 36">
<g><path stroke-width="2" stroke="#000" d="M 1.2669649884620906 -0.06462226774059801 C 1.2807765127541624 0.6538448766920397, 0.6439099858485465 0.8474191304349588, 0.14249218145782555 1.6296054764303654 M 1.5261060159985622 0.04609736120579905 C 1.2291520260765203 0.32747731400295793, 0.7367164772158847 0.8327833301076335, 0.06244335322733549 1.7496099232770852"></path><path stroke-width="2" stroke="#000" d="M 7.932047689274002 0.1834785194724049 C 6.180413901644908 3.91282951652477, 1.8203536344033229 6.914436016315866, 0.04213359919892268 9.139318493515182 M 8.581698422680802 0.23928670335837143 C 4.440837215736982 3.314457347383193, 1.4259374333780288 7.24634891289232, -0.0010588689919429628 9.225590232554724"></path><path stroke-width="2" stroke="#000" d="M -0.7486584550024379 1.873714715926435 C 3.1107515484345516 1.473212560245292, 4.713281839204022 0.45114992929768627, 7.797554781789195 0.6983329522415074 M -0.3815754901294386 1.9455117814149983 C 2.951928219415821 1.6304481294128363, 5.159491069833665 0.967603479113843, 7.955019559627465 0.14515830773142158"></path><path stroke-width="2" stroke="#000" d="M 16.518790704183516 -1.2940713667517398 C 10.224493308576305 6.0578874277854755, 4.699573149172101 12.222737259274624, -1.4239241796644042 17.62726402466365 M 13.935957311874697 -0.35342877200458944 C 9.942069372807872 6.307829292788709, 3.316952658176659 13.273102544991463, 0.6196028503853144 17.666929272054567"></path><path stroke-width="2" stroke="#000" d="M -0.7543159264317656 7.957918821712982 C 2.782941459196343 6.454989934495194, 9.147013458214223 5.515592727615375, 16.396621648572555 -0.2468703927321656 M -0.5333901212114164 9.100673753258341 C 4.04445430266722 6.207704355989559, 8.31588549217291 4.373259632397143, 14.942390909606232 -0.506585351447331"></path><path stroke-width="2" stroke="#000" d="M 23.09354664097783 -1.8205039108370196 C 13.969622805954018 10.858516569711748, 5.9973026174083985 16.310477358195357, 0.46268135083564 23.499009118494133 M 21.342932467811004 -0.6854326370136947 C 14.300838783074962 9.449761901943267, 6.19758386752934 17.24526785256306, -0.4250322941674076 23.894438960054714"></path><path stroke-width="2" stroke="#000" d="M -0.47343019547349563 15.223078617403342 C 5.781037815868752 12.361560756720959, 12.230716929978692 9.355760988882196, 21.52986872251919 1.6541187733396105 M -0.6113132963620562 17.499510908791333 C 5.324418483675425 13.688335477952556, 9.92219678117505 9.140759981212408, 21.970959610127398 0.17527598855016446"></path><path stroke-width="2" stroke="#000" d="M 27.977185327768588 0.7081408706481875 C 19.854019915640052 9.305677328029072, 13.420687645681172 19.29104059302666, 0.36893023855227947 33.97443454834264 M 27.854522194431187 0.839453762165987 C 20.12696222510675 8.686043364646483, 13.542844846028922 17.42116399989571, 0.24757126115179706 31.24702390648982"></path><path stroke-width="2" stroke="#000" d="M 0.9243849541940952 23.950316798682298 C 6.423892172921028 16.35349901031986, 12.369885962448073 13.527627103548808, 27.07013723777462 -1.6272650380429745 M 0.958068725601311 23.59122016556329 C 7.035288159903171 17.38478116669567, 14.137867939414903 11.37835146524904, 27.69614893032624 -0.9245260381772329"></path><path stroke-width="2" stroke="#000" d="M 36.10044704822333 -0.45073949325310503 C 26.454982691401817 7.144338033482924, 20.02397807405358 15.914229802771814, 2.685291903318229 37.19381070187284 M 34.83625774220986 -0.3590345514180915 C 28.685571878640015 7.489692676609289, 20.8308586596364 15.904998103658851, 3.6952043880776344 35.44735012956289"></path><path stroke-width="2" stroke="#000" d="M -1.6986236280114966 32.24083617041785 C 8.256917007630252 25.854937017394892, 18.7580128740734 14.810886972907248, 35.02250258855899 0.8915642971298672 M 0.7444890609149544 31.309761267908062 C 8.993796250922786 24.347978023421312, 17.225197455707494 15.674295007962572, 33.9987478359197 -0.4740720129157385"></path><path stroke-width="2" stroke="#000" d="M 40.90488496875136 -1.8757644943771181 C 32.87566129063808 7.6310528344506015, 25.758863235286782 14.410002077082206, 9.110980572807117 37.588832137754025 M 40.402037854872674 0.38298672084626495 C 34.21046818955102 8.245671636395807, 26.884902939815255 16.37087221256573, 9.21308148600506 36.86890795232136"></path><path stroke-width="2" stroke="#000" d="M 2.930510367566835 34.03501161070768 C 17.558493228775806 20.405860951109105, 32.7651569831058 10.113306436106855, 41.214473842627 1.9517359136324202 M 4.210951998282804 36.67347642986981 C 19.1156853947098 21.73970335640219, 32.62892813009261 8.699111512367466, 41.379482604079726 0.9975705420056464"></path><path stroke-width="2" stroke="#000" d="M 49.83037742479379 1.3076804443608308 C 36.34757748479207 13.587374780087577, 29.134650851648534 21.763852156301844, 16.16955945910254 35.31578873273687 M 46.90340315721136 0.4770841099811851 C 36.9458034736487 11.365205946144169, 27.464906653430617 22.442816247981646, 17.528350383082866 36.41839357138404"></path><path stroke-width="2" stroke="#000" d="M 11.84245257455189 37.000738612888476 C 16.895880368099043 29.197747791875045, 25.39724436470682 19.74975918632734, 46.22998750159081 -0.605567452291079 M 10.898259722204063 36.26122338406503 C 17.8486966620184 28.370334661056052, 24.979987100886962 22.472510311924175, 47.49707286415036 0.7938559347122782"></path><path stroke-width="2" stroke="#000" d="M 54.97464480435937 1.0864087826856337 C 45.649525203166064 10.056271282654931, 39.4288180072074 17.418276205998282, 24.094098252840766 34.84801273323612 M 55.01400396044429 0.9195430711654993 C 48.00736536892609 9.336926796920963, 39.95234375258807 17.009829623931445, 23.14075528369984 36.923440368188544"></path><path stroke-width="2" stroke="#000" d="M 16.502451694795976 35.75097694216649 C 25.007484990575698 28.298734002768295, 36.329420130622 21.092708392204408, 52.88330915712801 -1.724517380906398 M 17.18790830020092 36.86281333158154 C 26.149243277960554 27.453743191577015, 33.996077007244445 19.137033637605484, 54.2724908197344 0.9195874049199784"></path><path stroke-width="2" stroke="#000" d="M 61.099247008704864 -1.6742280972081263 C 48.09614111191926 14.051073494039105, 38.30937984750366 25.12137263407124, 29.886836021057256 37.31828201781799 M 61.87900442144511 -0.43263982695905745 C 49.07928203158474 13.295184001096768, 38.073049017104445 25.7153273929037, 29.485909959183616 36.8975303796216"></path><path stroke-width="2" stroke="#000" d="M 22.884572141271217 36.99258259031554 C 34.32542251768179 24.69732694709851, 41.94719684980969 18.02193166352625, 62.125819038192034 -0.5035980712044466 M 23.700484410290585 36.178973971368556 C 33.1866541811309 26.60936987160691, 42.434555139573554 17.928866256435917, 61.21728812588216 -0.8756529136439422"></path><path stroke-width="2" stroke="#000" d="M 67.36997565224934 -1.3377771842785555 C 60.049954195922886 8.258857732693253, 52.896426481841345 17.48583460107021, 37.25529193932519 34.20799783014398 M 68.21087984252785 0.26568110158991454 C 60.179217429250215 8.823149031589246, 52.086494052888625 17.953678459904776, 37.29412424356789 36.80949852339191"></path><path stroke-width="2" stroke="#000" d="M 31.388558444205003 35.90793007627192 C 40.73569551185861 26.031448869898732, 47.87480918111812 19.861749348565915, 65.9178749662405 1.7524664874823088 M 29.843944095245526 36.93648336305294 C 38.8262824492104 26.101386520611825, 48.528127030295245 17.28539274598586, 67.82270357857182 0.557242978963405"></path><path stroke-width="2" stroke="#000" d="M 72.62716774067135 -0.42970940396666224 C 62.76320120124417 11.578677211711355, 51.28912127026791 27.279411612706017, 44.84999839652055 36.35160260225405 M 74.58594548250872 -0.7486853696531839 C 62.369664432613845 12.556050872548068, 51.84425099228472 27.389733566364324, 42.78561977196691 35.93284575029765"></path><path stroke-width="2" stroke="#000" d="M 35.31150551842257 35.962353679630034 C 49.353047380214974 21.818458856768135, 61.129535953896436 9.847264457068633, 74.33245345748125 1.276228474606984 M 36.94113326885817 35.6759153031105 C 49.43771912991071 23.04388055220533, 62.15539311570994 11.603527429030125, 73.65237934715118 0.3957937158378195"></path><path stroke-width="2" stroke="#000" d="M 82.37071398263696 1.6283003498938862 C 69.35086706016337 12.025049461395602, 57.1498526941477 28.074715523770053, 49.047067074250705 35.37887255297012 M 80.37642423075972 0.7661108052473597 C 69.54373002631921 12.697085260489173, 57.460889179913984 25.820161654042153, 48.95381934400477 35.60938401942912"></path><path stroke-width="2" stroke="#000" d="M 44.344703095677794 36.994204953667705 C 52.46351714973622 28.599753243055957, 63.33422216363738 18.236828332331193, 80.6632223951951 0.33496649149637436 M 42.350746479835884 36.79692730221397 C 52.17035028029299 27.83786350618454, 61.91369144296434 19.420088809795303, 81.36690819720323 0.6074606794596242"></path><path stroke-width="2" stroke="#000" d="M 86.21665821605794 -1.370061904711617 C 81.52630817668819 8.686118689585923, 72.35609117563557 16.079554203517837, 56.8099111126891 37.1666376404154 M 88.09446015567006 -0.031347534199191784 C 79.42480946926624 8.311710032897736, 71.91829128151645 17.385997145519482, 56.36310264889409 36.69162014032629"></path><path stroke-width="2" stroke="#000" d="M 48.14171727280446 35.425304110819994 C 60.84358948826751 25.892843900144307, 72.64110630726765 17.021703821090387, 88.00376043010671 0.6406855362077972 M 49.93999656828619 35.01015897724044 C 59.59616039923322 25.22379700491279, 69.9309506667464 16.382310331459077, 87.26212849133775 0.3172255927821428"></path><path stroke-width="2" stroke="#000" d="M 95.74634299163121 0.2714862026546916 C 83.61532457985815 10.840472116152231, 74.02387128783654 24.19680607856397, 61.983076738696084 35.16951926778184 M 94.81230677182823 -0.4790243148742923 C 83.04928203718293 13.049168477046113, 72.28096928064849 25.25000894283926, 62.96669686319512 35.51131598105545"></path><path stroke-width="2" stroke="#000" d="M 54.48676910155088 37.55289331785582 C 70.42927260969168 23.72806041673444, 83.62554710495542 8.996665979478209, 92.8762361739594 -0.6416622730149797 M 57.05678279991263 36.6554333148887 C 69.96925194282825 22.61915840845506, 84.98955900701516 8.396530619005658, 93.62233349643888 0.9708987389564534"></path><path stroke-width="2" stroke="#000" d="M 100.786742759741 -1.6454337952544997 C 92.65271119335941 10.922727303698004, 82.37189141629351 22.28237300482504, 71.46564912757887 36.68720743444659 M 101.535319458755 0.44966949127950007 C 90.85014120376205 10.047695080591842, 81.4539014162253 21.31772291437968, 68.63535333247084 35.25205358673506"></path><path stroke-width="2" stroke="#000" d="M 61.61470211502289 34.22753298705802 C 76.0140152036794 23.263024316278155, 87.02059565933111 16.098068890142674, 101.10427817338773 0.839523947242208 M 62.609097346769566 36.92301597483434 C 75.65837177870404 25.345871520647627, 85.79760912335293 14.155906440939848, 100.5537658089202 -0.6146892561893231"></path><path stroke-width="2" stroke="#000" d="M 108.78346572302473 -1.840914037084464 C 98.77323600888576 9.478530626760124, 86.47471022140546 23.75278146086541, 77.22278013632211 35.48201301112262 M 108.26241183448252 0.3779325704229324 C 97.56507444601341 11.547474854523987, 88.83145171253375 23.441677263639924, 77.09115356881728 35.845341332656986"></path><path stroke-width="2" stroke="#000" d="M 69.23305927525753 36.30236367562587 C 82.33546995014157 22.230503848194722, 98.26395115764545 11.22163805844225, 107.44419136479232 -1.4384413350444643 M 68.74077084621156 35.64900054382314 C 83.50993129187437 22.37898398385681, 96.7544549015516 9.441305848843712, 107.43411061894457 0.355297689490053"></path><path stroke-width="2" stroke="#000" d="M 110.01250601613235 2.3413325128078557 C 101.66774535212403 12.265375645745689, 90.78441418773659 24.551471138888456, 80.83141096763217 36.435698354601186 M 112.4124850790747 3.291653447278245 C 102.6173202235634 12.931754845135547, 92.17123431813583 24.080553019315825, 83.63579044004076 35.44501577797034"></path><path stroke-width="2" stroke="#000" d="M 75.7690262714265 36.472400750292266 C 87.47159767867029 26.53722104026947, 97.34166210021365 13.723446311585683, 112.52505357059522 1.0695705077250621 M 76.34021826661183 35.556479176960465 C 86.71846332412504 26.03647076301702, 98.68749173170274 15.810600792572183, 111.47661884398732 3.3493866261162255"></path><path stroke-width="2" stroke="#000" d="M 113.13599617878467 9.435566612115423 C 103.79242788764005 18.247617596566943, 95.59463153030835 29.57825976717191, 91.08751252886773 37.12423319353985 M 111.60937069308376 10.116158709414133 C 102.51620025328377 21.10140038589853, 93.33089807615755 30.27502536428458, 89.08892849835856 36.73717397238489"></path><path stroke-width="2" stroke="#000" d="M 84.49479369087173 36.76038879842002 C 89.6992906459161 27.885935448309596, 102.14599462798347 20.74572686846721, 113.21099934562807 8.964363991399763 M 81.87545437515372 35.37861494707225 C 92.49156998005554 28.17712898637697, 101.15753418982555 20.049600087312594, 111.70492580543983 9.422279907624944"></path><path stroke-width="2" stroke="#000" d="M 111.4669884724694 19.24239678126247 C 104.23749970682807 25.63030308361623, 99.73549382312817 30.940411669628425, 94.45506364060515 36.17431042538613 M 112.15668509161068 18.070637005556993 C 105.80622390564254 24.66306217195813, 100.40102890684064 30.559169892823665, 96.00395838632826 36.068189007241"></path><path stroke-width="2" stroke="#000" d="M 88.7805439763895 37.320360313109504 C 95.42958855064306 31.1129290792847, 100.50389902854924 28.79223102739237, 111.54447742166973 16.020981967949396 M 89.65696286940128 35.99833427368936 C 93.45091076588268 31.296113031215263, 98.35112793766855 29.163132938167127, 112.3186937211285 18.16551405691796"></path><path stroke-width="2" stroke="#000" d="M 111.51949198042064 26.738631699787458 C 109.50224740416397 27.733632543653304, 107.58775366638037 31.324694164559013, 102.60956885370571 36.079611293055535 M 111.29906202733972 24.943802042009874 C 109.92764338883248 28.069297506062775, 106.9840882037958 31.63355948798762, 102.66922602804553 36.11249719869561"></path><path stroke-width="2" stroke="#000" d="M 95.80533014005752 34.24691675269991 C 99.34004383495291 31.690475387328593, 105.40626140297766 29.07570820673461, 113.09252730577924 26.591161555355097 M 96.65947834783135 36.367872088387564 C 101.508735219009 33.18347649720634, 106.91090771809385 29.912031272002846, 111.8180006290765 25.523689905607615"></path><path stroke-width="2" stroke="#000" d="M 111.56550750850774 32.90947896485062 C 111.32743015840303 33.99342644105757, 110.56933746854456 34.61563001274338, 109.18094722243939 36.31389942476773 M 111.85951329218852 32.93223265535571 C 111.39330481679856 33.897721784271106, 110.49477665713292 34.600216247661464, 109.26835466916363 36.15325340781217"></path><path stroke-width="2" stroke="#000" d="M 103.13655213938588 36.76207919292359 C 105.7804089228408 35.50231245090835, 106.67703675714529 34.53075492037888, 111.02492867253335 33.21042681735372 M 102.58723473218014 35.73764902223671 C 104.96126775378183 34.80298828802791, 106.80140725457731 34.63124823221456, 111.76461908719486 33.449877801216616"></path></g></svg>