<?xml version="1.0" encoding="UTF-8"?>
<svg width="430px" height="81px" viewBox="0 0 430 81" version="1.1" xmlns="http://www.w3.org/2000/svg" xmlns:xlink="http://www.w3.org/1999/xlink">
    <!-- Generator: Sketch 63.1 (92452) - https://sketch.com -->
    <title>Artboard</title>
    <desc>Created with Sketch.</desc>
    <g id="Artboard" stroke="none" stroke-width="1" fill="none" fill-rule="evenodd">
        <g id="Group-2" transform="translate(-30.000000, 1.000000)">
            <g id="berlingske">
                <g transform="translate(64.000000, 14.000000)">
                    <line x1="295.9" y1="6.4" x2="295.9" y2="51.6" id="Stroke-1" stroke="#201748" stroke-width="0.5"></line>
                    <g id="Group-30" transform="translate(0.000000, 0.049196)" fill="#000000" fill-rule="nonzero">
                        <g id="Group-4" transform="translate(0.000000, 7.647059)">
                            <path d="M18.4,40 L15.6,40 L15.6,3.7 C15.4,3.7 18,3.7 18,3.7 C22.9,3.7 24.5,5.6 24.5,11.8 C24.5,15.9 23.1,17.4 21.3,18.4 C20.3,19 19.2,19.5 17.4,19.8 C17.3,19.8 17.2,21.9 17.4,21.9 C23.6,23.1 25.9,25.1 25.9,31.3 C25.9,37.6 23.6,40 18.4,40 M24.7,20.9 L24.7,20.6 C32,19 36.2,16.1 36.2,10.5 C36.2,4 32.1,0.8 18.6,0.8 L0.2,0.8 C0.1,0.8 0,3.3 0.1,3.3 C1.4,3.6 2.5,3.7 3.9,4 L3.9,31.3 C3.9,33.7 3.9,37.6 3.8,39.8 C2.7,40 1.3,40.2 0.2,40.4 C0.1,40.4 -2.77555756e-16,42.9 0.1,42.9 L19.5,42.9 C23.3,42.9 27.6,42.4 30.2,41.4 C35.7,39.2 38.4,36.6 38.4,31.1 C38.4,24 31.8,21.7 24.7,20.9" id="Fill-2"></path>
                        </g>
                        <path d="M56,21.9 C58.1,21.9 58.9,23.9 58.9,30.4 L51.6,31.1 C51.9,24.2 53.5,21.9 56,21.9 M56.1,19.5 C47.9,19.5 40.6,25.5 40.6,36.3 C40.6,44.9 45.4,51.3 56,51.3 C65.4,51.3 68.6,45.5 69.4,43.7 C69.6,43.3 69.7,41.1 69.4,41.4 C67.8,42.7 64.9,44.3 61.2,44.3 C56.1,44.3 51.9,41.8 51.6,33.8 L69.5,33.8 C70.4,25 66,19.5 56.1,19.5" id="Fill-5"></path>
                        <path d="M94.9,19.9 C94.2,19.6 93.6,19.3 92.3,19.3 C88.9,19.3 85.9,22.9 84.4,27 L84.2,27 L84.4,19.6 C84.4,19.5 84.1,19.2 83.9,19.2 C79,20.2 76.8,20.6 70.6,21.8 C70.4,21.9 70.5,23.9 70.5,23.9 C71.8,24.2 72.3,24.3 73.3,24.7 C73.4,27.2 73.5,28.7 73.5,31.1 L73.5,40.8 C73.5,43.2 73.4,45.9 73.4,47.7 C72.4,47.9 72,47.9 70.7,48.1 C70.5,48.1 70.4,50.5 70.6,50.5 L87.7,50.5 C87.8,50.5 87.9,48.1 87.8,48.1 C86.7,47.9 85.6,47.8 84.5,47.6 L84.5,29.6 C86.2,28.5 88.1,27.8 90.5,27.8 C92.1,27.8 93.4,28.4 93.9,28.7 L94.6,28.7 C94.8,28.8 95.1,20 94.9,19.9" id="Fill-7"></path>
                        <path d="M111.6,48.2 C110.5,48 110.4,48 109.3,47.8 L109.3,15.2 C109.3,11.4 109.5,8.7 109.5,6.6 C109.5,6.4 109.2,6.2 109,6.2 C106.7,6.7 100.5,7.8 95.4,8.8 C95.2,8.9 95.3,10.9 95.3,10.9 C96.5,11.2 97.1,11.3 98.1,11.7 C98.2,14.2 98.3,15.7 98.3,18.1 L98.3,40.9 C98.3,43.3 98.2,46 98.2,47.8 C97.2,48 96.8,48 95.5,48.2 C95.3,48.2 95.2,50.6 95.4,50.6 L111.5,50.6 C111.6,50.5 111.8,48.2 111.6,48.2" id="Fill-9"></path>
                        <path d="M129.1,48.2 C128.1,48 128.1,48 127,47.8 L127,28.3 C127,24.5 127.2,21.8 127.2,19.7 C127.2,19.5 126.9,19.3 126.7,19.3 C124.4,19.8 118.2,20.9 113.1,21.9 C112.9,22 113,24 113,24 C114.3,24.3 114.8,24.4 115.8,24.8 C115.9,27.3 116,28.8 116,31.2 L116,40.9 C116,43.3 115.9,46 115.9,47.8 C114.9,48 115.1,48 113.9,48.2 C113.7,48.2 113.6,50.6 113.8,50.6 L129,50.6 C129.1,50.5 129.2,48.2 129.1,48.2" id="Fill-11"></path>
                        <path d="M121.4,17.6 C124.7,17.6 127.4,15.3 127.4,12.1 C127.4,8.8 124.8,6.6 121.4,6.6 C118.1,6.6 115.4,8.9 115.4,12.1 C115.4,15.3 118.1,17.6 121.4,17.6" id="Fill-13"></path>
                        <path d="M165.8,48.2 C164.8,48 164.2,47.9 163.1,47.7 L163.1,28.8 C163.1,21.3 159.9,19.5 154.5,19.5 C150.1,19.5 146.4,21.8 144.3,24.7 L144.1,24.7 L144.2,19.7 C144.2,19.6 143.9,19.3 143.7,19.3 C138.8,20.3 136.6,20.7 130.4,21.9 C130.2,22 130.3,24 130.3,24 C131.6,24.3 132.1,24.4 133.1,24.8 C133.2,27.3 133.3,28.8 133.3,31.2 L133.3,40.9 C133.3,43.3 133.2,46 133.2,47.8 C132.2,48 132.4,48 131.2,48.2 C131,48.2 130.9,50.6 131.1,50.6 L147,50.6 C147.1,50.6 147.2,48.2 147.1,48.2 C146.1,48 145.5,48 144.4,47.8 L144.4,27.1 C145.4,26.3 146.6,25.6 148.7,25.6 C151,25.6 152,26.7 152,29.7 L152,40.9 C152,43.3 152,45.2 151.9,47.8 C150.9,48 150.6,48 149.3,48.2 C149.1,48.3 149,50.6 149.2,50.6 L165.7,50.6 C165.8,50.5 166,48.2 165.8,48.2" id="Fill-15"></path>
                        <path d="M180.2,39.1 C177.8,39.1 176.9,37 176.9,30.6 C176.9,24.6 177.9,22.3 180.2,22.3 C182.6,22.3 183.6,24.5 183.6,30.8 C183.7,36.7 182.6,39.1 180.2,39.1 M197.4,19.7 L189.6,22.4 L189.5,22.4 C186.9,20.4 183.6,19.4 180.3,19.4 C174,19.4 166.7,22.9 166.7,30.6 C166.7,36 170.3,39.4 174.5,41 L174.5,41.2 C172.2,42.1 170.3,43.9 170.3,47.2 C170.3,51.5 173.1,53.2 177.7,53.5 C181.4,53.7 184.9,53.7 187.1,53.8 C190.5,54 191,54.6 191,56.4 C191,59.2 186.4,61.2 179.5,61.2 C173.6,61.2 171.1,59.8 171.1,57.2 C171.1,55.4 171.7,54.7 172.3,53.8 C172.6,53.4 166.4,52.8 166.1,53.1 C165.4,53.9 164.5,55 164.5,57.1 C164.5,61.3 169.3,63.6 179.6,63.6 C191.7,63.6 197.5,58.3 197.5,52.3 C197.5,46.4 193.8,45 189.3,44.8 C186.9,44.7 184,44.6 180,44.4 C177.3,44.3 176.5,43.7 176.5,42.4 C176.5,42.1 176.6,41.8 176.7,41.5 C177.9,41.8 179.1,41.9 180.2,41.9 C186.5,41.9 193.8,38.4 193.8,30.7 C193.8,28.5 193.2,26.5 192.2,24.9 L197.4,26.3 C197.7,26.5 197.7,19.7 197.4,19.7" id="Fill-17"></path>
                        <path d="M213.5,30.5 C209.6,28.7 207.5,28 207.5,25.4 C207.5,23.2 209.8,21.9 212,21.9 C215.6,21.9 217.6,24.7 219.2,27.9 L220.4,27.9 C220.6,27.9 220.8,21 220.4,20.8 C218.8,20 215.8,19.4 212.4,19.4 C205.7,19.4 199.2,22.9 199.2,30.1 C199.2,35.8 202.9,38.3 206.4,39.8 C211.9,42.2 213.4,43.3 213.4,45.6 C213.4,47.8 212,48.7 209.2,48.7 C204.2,48.7 202,43.1 201,41.5 L199.7,41.5 C199.5,41.5 199.3,48.9 199.7,49.2 C202.2,50.4 205.5,51.2 209.3,51.2 C217.5,51.2 222.3,46.9 222.3,40.5 C222.2,35.6 219.1,33.1 213.5,30.5" id="Fill-19"></path>
                        <path d="M239.7,48.2 C238.6,48 237.8,48 236.7,47.8 L236.7,15.2 C236.7,11.4 236.9,8.7 236.9,6.6 C236.9,6.4 236.6,6.2 236.4,6.2 C234.1,6.7 227.9,7.8 222.8,8.8 C222.6,8.9 222.7,10.9 222.7,10.9 C223.9,11.2 224.5,11.3 225.5,11.7 C225.6,14.2 225.7,15.7 225.7,18.1 L225.7,40.9 C225.7,43.3 225.6,46 225.6,47.8 C224.6,48 224.2,48 222.9,48.2 C222.7,48.2 222.6,50.6 222.8,50.6 L239.7,50.6 C239.7,50.5 239.9,48.2 239.7,48.2" id="Fill-21"></path>
                        <path d="M254.9,45.6 C252.4,41.9 249.8,38.1 245.7,30.2 L245.7,30 C248.6,26.9 250.5,25.5 255.6,21.2 L255.6,20 C254,19.9 249.2,19.8 247.5,20 C245,24.6 243.6,26.9 237.7,35.2 L237.7,36.2 C238.8,39.4 239.7,41 241.5,44.2 C243.1,47.1 244,48.4 245.3,50 C248.7,50.3 254.3,50.4 257.7,50.4 C257.8,50.4 257.9,48 257.9,48 C256.8,47.9 256.2,47.5 254.9,45.6" id="Fill-23"></path>
                        <path d="M271.8,21.9 C274,21.9 274.7,23.9 274.7,30.4 L267.4,31.1 C267.7,24.2 269.3,21.9 271.8,21.9 M285.2,41.3 C283.6,42.6 280.7,44.2 277,44.2 C271.9,44.2 267.7,41.7 267.4,33.7 L285.3,33.7 C286.2,24.9 281.8,19.4 271.9,19.4 C263.7,19.4 256.4,25.4 256.4,36.2 C256.4,44.8 261.2,51.2 271.8,51.2 C281.2,51.2 284.4,45.4 285.2,43.6 C285.4,43.3 285.5,41.1 285.2,41.3" id="Fill-25"></path>
                        <g id="Group-29" transform="translate(305.915493, 0.000000)">
                            <path d="M1.2,25.1 C1.2,23.4 1.5,22.1 2.4,20.5 L2.4,21.9 L4.8,23.3 C4.6,24.1 4.5,25 4.5,26 C3.4,25.7 2.3,25.4 1.2,25.1 Z M4.1,20.7 C4.2,20.5 4.3,20.4 4.3,20.3 C4.4,20.2 4.4,20.1 4.5,20 C5.3,18.5 6.3,17.2 7.5,15.9 L8.3,17 L11,17 C9.1,18.9 7.9,20.6 6.7,23.2 L3.7,21.5 C3.8,21.2 4,20.9 4.1,20.7 Z M6.9,13.2 C8.5,12.7 9.4,11.5 10.4,10.3 C11.2,9.3 12,8.3 13.2,7.8 L13.2,10.2 L15.1,10.6 C13.9,11.2 13,12.2 12.2,13.2 C11.7,13.8 11.2,14.4 10.6,14.9 C10.3,15.1 10.1,15.3 9.8,15.5 C9.6,15.6 9.5,15.7 9.3,15.7 C9.2,15.8 9,15.8 8.8,15.8 C8.8,15.9 7.1,13.5 6.9,13.2 Z M14.2,5.5 C16.1,5 18.2,5 20.1,5.5 L20.1,8.9 C19.1,8.7 18.1,8.5 17.2,8.5 C16.7,8.5 16.2,8.5 15.7,8.6 C15.5,8.6 15.3,8.6 15.1,8.7 C14.9,8.7 14.7,8.8 14.6,8.8 C14.5,8.8 14.3,8.9 14.2,8.9 L14.2,5.5 L14.2,5.5 Z M5.5,27.3 L5.5,26.6 C5.5,25.5 5.6,24.6 5.8,23.8 L7.2,24.6 L7.4,24.1 C8.7,21.1 9.9,19.3 12.2,17.2 L12.7,16.7 L11.5,15.5 C12.1,15 12.6,14.4 13,13.8 C14,12.5 15,11.3 16.6,11.1 L17.4,11 L17.4,9.6 C18.4,9.6 19.4,9.8 20.4,10.1 L21,10.3 L21,4.8 L20.6,4.7 C18.3,4 15.7,4 13.4,4.7 L13,4.8 L13,6.8 C11.4,7.3 10.4,8.5 9.4,9.7 C8.4,11 7.4,12.2 5.8,12.4 L5,12.5 L5.5,13.2 C6,13.7 6.5,14.4 6.9,15 C5.5,16.4 4.5,17.8 3.6,19.6 L2.2,18.9 L2,19.2 C0.6,21.5 0.2,23.1 0.2,25.5 L0.2,25.9 L0.6,26 C2,26.4 3.5,26.8 4.9,27.1 L5.5,27.3 Z M1.9,39.2 L2.2,40.1 C3.9,39.5 5.9,39.5 7.7,40 L8,39 C7,38.7 6.1,38.6 5.1,38.6 C4,38.7 2.9,38.9 1.9,39.2 Z M18.9,47.1 C18,46.6 17.5,45.7 17.5,44.7 C17.5,44.2 17.6,43.8 17.8,43.3 L16,42.3 C15.8,42.7 15.6,43.1 15.5,43.5 L15.4,43.5 C13.8,43.5 12.3,42.5 11.8,41 C11.6,40.6 11.6,40.1 11.6,39.7 C11.6,37.6 13.3,35.8 15.5,35.8 L15.5,34.8 C12.8,34.8 10.6,37 10.6,39.7 C10.6,40.3 10.7,40.8 10.9,41.4 C11.6,43.3 13.4,44.6 15.4,44.6 C15.4,44.7 15.4,44.7 15.4,44.8 C15.4,45 15.4,45.2 15.4,45.4 C13.1,45.4 10.9,43.9 10.1,41.7 C10,41 9.9,40.5 9.9,40 L9.9,40 L9.9,40 C9.9,39.4 9.7,38.8 9.5,38.2 C9,37 8.3,36 7.3,35.3 C7.5,34.5 7.1,33.7 6.3,33.5 L1.3,31.7 C1.1,31.6 0.8,31.7 0.7,31.9 C0.5,32.1 0.5,32.5 0.8,32.7 L4.8,36.2 C4.9,36.3 5.1,36.4 5.3,36.5 C5.8,36.7 6.3,36.6 6.7,36.3 C7.5,36.9 8.1,37.8 8.5,38.7 C8.7,39.2 8.8,39.7 8.8,40.2 C8.8,40.8 9,41.4 9.2,42 C10.2,44.6 12.7,46.3 15.4,46.3 L15.6,46.3 C15.7,46.6 15.8,46.8 16,47.1 L15.4,47.1 C13.3,47.1 11.2,46.2 9.8,44.6 C8.6,43.2 6.8,42.4 5,42.4 C3.8,42.4 2.7,42.7 1.7,43.3 L2.3,44 C3.1,43.5 4.1,43.2 5,43.2 C6.5,43.2 8,43.9 9,45.1 C10.7,47 13,48 15.5,48 L16.8,48 C17.1,48.3 17.5,48.6 17.9,48.9 L18.9,47.1 Z M27.8,20.3 C27.4,20.3 27.1,20.6 27.1,21 C27.1,21.4 27.4,21.7 27.8,21.7 C28.2,21.7 28.5,21.4 28.5,21 C28.5,20.6 28.2,20.3 27.8,20.3 Z M27.8,14.1 C27.4,14.8 26.5,15.1 25.6,15.1 L25.6,16.9 C26.5,16.9 27.3,17.1 27.8,17.8 C28.2,17.1 29.1,16.9 30,16.9 L30,15.1 C29.1,15.1 28.2,14.9 27.8,14.1 Z M25.6,11 L26.4,11 L26.4,11 L29,11 L29,12.7 C29,12.7 29,12.7 29,12.7 C28.9,12.7 28.9,12.7 28.8,12.7 C28.1,12.6 27.6,12.6 26.9,12.7 C26.8,12.7 26.8,12.7 26.7,12.7 C26.7,12.7 26.6,12.7 26.6,12.7 C26.6,12.7 26.6,12.7 26.6,12.7 L26.6,12 L25.6,12 C25.2,12 24.9,12.3 24.9,12.7 L23.9,12.7 C23.8,11.7 24.6,11 25.6,11 Z M29.3,13.8 L29.4,13.8 C30.4,14.2 31.1,15 31.1,15.8 C31.1,16.4 30.8,16.9 30.5,17.2 C30.5,17.2 30.5,17.2 30.4,17.3 L30.4,17.3 C30,17.6 29.5,17.9 29,18 C28.9,18 28.9,18 28.8,18 L28.8,18 C28.1,18.1 27.6,18.1 27,18 L27,18 C26.9,18 26.9,18 26.8,18 C26.2,17.9 25.7,17.6 25.4,17.3 L25.4,17.3 C25.4,17.3 25.4,17.3 25.4,17.3 C25.1,17 24.8,16.5 24.8,15.9 C24.8,15.1 25.4,14.3 26.5,13.9 L26.6,13.9 C26.6,13.9 26.6,13.9 26.6,13.9 C26.8,13.8 26.9,13.8 27.1,13.7 C27.1,13.7 27.2,13.7 27.2,13.7 C27.2,13.7 27.3,13.7 27.3,13.7 C27.9,13.6 28.3,13.6 28.9,13.7 C28.9,13.7 29,13.7 29,13.7 C29,13.7 29.1,13.7 29.1,13.7 C29,13.7 29.1,13.8 29.3,13.8 Z M30.7,20.5 L28.2,23.6 L27.5,23.6 L25,20.5 C25.7,20.3 26.3,19.7 26.6,19 C26.6,19 26.7,19 26.7,19 L26.7,19 C27.1,19.1 27.5,19.1 27.8,19.1 C28.2,19.1 28.5,19.1 28.9,19 L28.9,19 C28.9,19 29,19 29,19 C29.4,19.8 29.9,20.3 30.7,20.5 Z M31.7,20.8 C32,20.5 32.4,20.5 32.7,20.8 C32.9,21 33,21.4 32.8,21.7 L31,21.7 L31.7,20.8 Z M31.2,26 L30.4,27 L28.9,28.8 L28.1,29.7 L25.8,32.5 L22.8,32.5 L30.3,23.6 L33,23.6 L31.2,26 Z M31.4,32.7 L30.4,32.7 L30.4,28.6 L31.4,27.4 L31.4,32.7 Z M29.1,32.7 L28.1,32.7 L28.1,31.4 L29.1,30.2 L29.1,32.7 Z M22.9,20.8 C23.2,20.5 23.6,20.5 23.9,20.8 L24.6,21.7 L22.7,21.7 C22.6,21.4 22.6,21.1 22.9,20.8 Z M20.5,13.1 C20.5,13.7 20.7,14.3 21.2,14.7 C21.4,14.9 21.6,15 21.9,15.2 C22.1,15.3 22.1,15.3 22.1,15.6 L22.1,16.4 C22.1,16.9 22.4,17.2 22.9,17.2 L23.9,17.2 C24.1,17.5 24.3,17.8 24.5,18.1 C24.5,18.1 24.6,18.2 24.6,18.2 C24.9,18.4 25.2,18.7 25.6,18.8 C25.4,19.3 24.9,19.7 24.4,19.7 L23.5,19.7 C23.1,19.7 22.6,19.9 22.3,20.2 C21.9,20.6 21.7,21.3 21.8,21.8 L20.2,21.8 L20.2,26.4 L20.3,26.5 C20.7,26.9 20.9,27.4 20.9,27.9 C20.9,28.4 20.7,28.9 20.3,29.3 L20.2,29.4 L20.2,32.5 C20.2,33.7 21.2,34.7 22.4,34.7 L26,34.7 L27.8,36.5 L29.5,34.7 L33.3,34.7 C34.5,34.7 35.5,33.7 35.5,32.5 L35.5,29.4 L35.4,29.3 C35,28.9 34.8,28.4 34.8,27.9 C34.8,27.4 35,26.9 35.4,26.5 L35.5,26.4 L35.5,21.8 L33.9,21.8 C34,21.2 33.9,20.6 33.4,20.2 C33.1,19.9 32.6,19.7 32.2,19.7 L31.3,19.7 C30.7,19.7 30.2,19.3 30.1,18.8 C30.5,18.6 30.8,18.4 31.1,18.2 C31.1,18.2 31.2,18.1 31.2,18.1 C31.8,17.5 32.1,16.8 32.1,16 C32.1,14.8 31.3,13.8 30,13.2 L30,9.2 L29,9.2 L29,9.9 C28.9,9.9 28.8,9.9 28.7,9.9 C28.4,9.8 27.9,9.7 27.4,9.6 C27.4,9.6 27.4,9.6 27.4,9.6 L27.4,9.1 C28.1,9.1 28.4,8.9 28.8,8.3 L30.3,5.6 C30.5,5.4 30.4,5 30.2,4.9 C29.9,4.7 29.6,4.8 29.4,5 C29.4,5 29.3,5.2 29,5.5 C28.8,5.8 28.5,6.1 28.2,6.5 C27.9,6.8 27.6,7.2 27.4,7.4 L27.4,7 C27.4,6.9 27.4,6.9 27.4,6.8 C27.4,6.4 27.2,6 27,5.7 C27,5.7 27.1,5.6 27.1,5.6 L27.1,5.6 C27.2,5.5 27.3,5.3 27.3,5.1 C27.3,4.7 27,4.4 26.6,4.4 C26.2,4.4 25.9,4.7 25.9,5.1 L24.7,5.1 C24.5,5.1 24.3,5.3 24.2,5.4 L24.1,5.7 C24,5.9 23.8,6 23.6,6 L23.3,6 L22.5,6 L22.5,6.9 C22.5,7.1 22.6,7.3 22.8,7.4 L24.5,8 C24.5,8 24.6,8.1 24.6,8.1 L21.2,11.5 C20.8,11.9 20.5,12.5 20.5,13.1 Z M1.9,41.1 L2.3,42 C3.2,41.6 4.1,41.4 5.1,41.4 C6.1,41.4 7.1,41.6 8,42 L8.4,41.1 C7.3,40.6 6.2,40.4 5,40.4 C4,40.5 2.9,40.7 1.9,41.1 Z M51.1,26 C51.1,25 51,24.1 50.7,23.4 L53.1,22 L53.1,20.6 C53.9,22.2 54.3,23.5 54.3,25.2 C53.3,25.4 52.2,25.7 51.1,26 Z M49.9,22.7 L49.5,23 L49,23.3 C47.8,20.7 46.6,19 44.7,17.1 L47.4,17.1 L48.2,15.9 C49.4,17.2 50.3,18.4 51.2,20 C51.3,20.1 51.3,20.2 51.4,20.3 C51.5,20.4 51.6,20.6 51.6,20.7 C51.7,21 51.9,21.2 52,21.5 L50.5,22.4 L49.9,22.7 Z M43.5,13.3 C42.7,12.3 41.8,11.2 40.6,10.7 L42.5,10.3 L42.5,7.8 C43.6,8.2 44.4,9.2 45.3,10.3 C46.3,11.5 47.3,12.7 48.8,13.2 C48.6,13.6 46.9,16 46.9,16 C46.7,16 46.6,15.9 46.4,15.9 C46.2,15.8 46,15.8 45.9,15.7 C45.6,15.5 45.3,15.4 45.1,15.1 C44.5,14.5 44,13.9 43.5,13.3 Z M38.5,8.6 C37.5,8.6 36.5,8.7 35.6,9 L35.6,5.5 C37.5,5 39.6,5 41.5,5.5 L41.5,8.9 C41.4,8.9 41.2,8.8 41.1,8.8 C40.9,8.8 40.7,8.7 40.6,8.7 C40.4,8.7 40.2,8.6 40,8.6 C39.5,8.6 39,8.6 38.5,8.6 Z M53.6,19.2 L53.4,18.8 L52,19.5 C51.1,17.8 50,16.4 48.7,14.9 C49.1,14.3 49.6,13.7 50,13 L50.5,12.3 L49.7,12.2 C48,12.1 47,10.9 46,9.7 C45,8.5 44,7.3 42.5,6.8 L42.5,4.8 L42.1,4.7 C39.8,4 37.2,4 34.9,4.7 L34.5,4.8 L34.5,10.3 L35.1,10.1 C36.1,9.8 37.1,9.6 38.1,9.6 L38.1,11.2 L38.9,11.3 C40.5,11.5 41.5,12.7 42.5,14 C43,14.6 43.5,15.2 44,15.7 L43,16.8 L43.5,17.3 C45.7,19.4 47,21.2 48.3,24.2 L48.5,24.7 L49.9,23.9 C50.1,24.7 50.2,25.5 50.2,26.7 L50.2,27.4 L50.8,27.2 C52.2,26.8 53.7,26.4 55.1,26.1 L55.5,26 L55.5,25.6 C55.4,23.1 55,21.5 53.6,19.2 Z M47.1,41.2 L47.5,42.1 C48.4,41.7 49.4,41.5 50.4,41.5 C51.4,41.5 52.3,41.7 53.2,42.1 L53.6,41.2 C52.6,40.8 51.5,40.6 50.4,40.6 C49.3,40.5 48.2,40.7 47.1,41.2 Z M37.8,50.1 L32.6,49.1 C32.4,49.1 32.2,49.1 32.1,49.1 C31.5,49.2 31.1,49.6 30.9,50.1 L30.8,50.1 C30.1,50.1 29.5,49.9 28.9,49.7 C29.7,49.1 30.4,48.4 31.1,47.8 C33,46 34.6,44.5 36.9,45.5 L37.3,44.6 C34.4,43.3 32.4,45.2 30.4,47.1 C30.3,47.2 30.3,47.2 30.2,47.3 C28.9,46.4 28.3,44.6 28.3,41.9 L27.3,41.9 C27.3,45.8 26.1,46.9 25.4,47.3 C25.3,47.2 25.3,47.2 25.2,47.1 C23.2,45.3 21.2,43.4 18.3,44.6 L18.7,45.5 C21,44.5 22.6,46 24.5,47.8 C25.2,48.4 25.9,49.1 26.7,49.7 C26.1,50 25.5,50.1 24.8,50.1 L24.7,50.1 C24.5,49.4 23.7,49 23,49.1 L17.8,50.1 C17.6,50.1 17.4,50.3 17.3,50.5 C17.2,50.8 17.5,51.1 17.8,51.2 L23,52.1 C23.2,52.1 23.4,52.1 23.6,52.1 C24.2,52 24.6,51.6 24.8,51.1 L24.9,51.1 C26,51.1 26.9,50.8 27.8,50.3 C28.7,50.8 29.6,51.1 30.7,51.1 L30.8,51.1 C31,51.8 31.8,52.2 32.5,52.1 L37.7,51.2 C37.9,51.2 38.1,51 38.1,50.7 C38.3,50.5 38.1,50.2 37.8,50.1 Z M22.8,5 L23.8,4.8 L23.8,4.5 C23.8,4.4 23.8,4.3 23.8,4.3 C23.9,4.3 24,4.3 24,4.2 C24.2,4.1 24.5,4.1 24.7,3.9 C24.9,3.7 25,3.4 25,3.1 C25,3.1 25,3.1 25,3 C25.1,3 25.2,3 25.2,3 C25.4,3 25.7,3.1 26,3 C26.3,2.9 26.4,2.6 26.6,2.4 C26.6,2.3 26.7,2.3 26.7,2.2 C26.8,2.2 26.8,2.3 26.9,2.3 C27.1,2.4 27.4,2.6 27.7,2.6 C28,2.6 28.3,2.4 28.5,2.3 C28.6,2.3 28.6,2.2 28.7,2.2 C28.7,2.3 28.8,2.3 28.8,2.4 C28.9,2.6 29.1,2.8 29.4,3 C29.7,3.1 30,3.1 30.2,3 C30.3,3 30.4,3 30.4,3 C30.4,3.1 30.4,3.2 30.5,3.2 C30.7,3.5 30.7,3.8 31,4 C31.2,4.2 31.5,4.3 31.7,4.3 C31.8,4.3 31.9,4.3 31.9,4.4 C31.9,4.5 31.9,4.6 31.9,4.6 C31.9,4.8 31.8,5.1 31.9,5.4 C32,5.7 32.3,5.9 32.5,6 C32.6,6 32.6,6.1 32.7,6.1 C32.7,6.2 32.6,6.2 32.6,6.3 C32.5,6.5 32.3,6.8 32.3,7.1 C32.3,7.4 32.5,7.7 32.6,7.9 C32.6,8 32.7,8 32.7,8.1 C32.6,8.1 32.6,8.2 32.5,8.2 C32.3,8.4 32.1,8.5 31.9,8.8 C31.8,9.1 31.8,9.4 31.9,9.6 C31.9,9.7 31.9,9.8 31.9,9.8 C31.8,9.8 31.7,9.8 31.7,9.9 C31.5,10 31.2,10 31,10.2 C30.8,10.4 30.7,10.7 30.7,10.9 L30.7,11 L31.7,11.2 L31.7,11.1 C31.7,11 31.7,10.9 31.8,10.8 C31.9,10.8 32,10.7 32.1,10.7 C32.4,10.6 32.7,10.6 33,10.2 C33.2,9.9 33.1,9.5 33.1,9.2 C33.1,9.1 33.1,9 33.1,8.9 C33.1,8.9 33.2,8.8 33.3,8.7 C33.5,8.5 33.8,8.3 33.9,7.9 C34,7.5 33.8,7.2 33.6,7 C33.6,6.9 33.5,6.8 33.5,6.8 C33.5,6.7 33.6,6.6 33.6,6.5 C33.8,6.3 33.9,6 33.9,5.6 C33.8,5.2 33.5,5 33.3,4.8 C33.2,4.8 33.1,4.7 33.1,4.6 C33.1,4.5 33.1,4.4 33.1,4.3 C33.1,4 33.2,3.7 33,3.3 C32.8,3 32.4,2.9 32.1,2.8 C32,2.8 31.9,2.8 31.8,2.7 C31.8,2.6 31.7,2.5 31.7,2.4 C31.6,2.1 31.6,1.8 31.2,1.5 C30.9,1.3 30.5,1.4 30.2,1.4 C30.1,1.4 30,1.4 29.9,1.4 L29.9,1.4 C29.9,1.4 29.8,1.3 29.7,1.2 C29.5,1 29.3,0.7 28.9,0.6 C28.5,0.5 28.2,0.7 28,0.9 C27.9,0.9 27.8,1 27.8,1 C27.7,1 27.6,0.9 27.6,0.9 C27.4,0.7 27,0.6 26.7,0.6 C26.3,0.7 26.1,1 25.9,1.2 C25.9,1.3 25.8,1.4 25.7,1.4 C25.6,1.4 25.5,1.4 25.4,1.4 C25.1,1.4 24.8,1.3 24.4,1.5 C24.1,2.4 24.1,2.7 24,3 C24,3.1 24,3.2 23.9,3.3 C23.8,3.3 23.7,3.4 23.6,3.4 C23.3,3.5 23,3.6 22.7,3.9 C22.5,4.2 22.6,4.6 22.6,4.9 L22.8,5 Z M53.7,31.9 L49.2,33.4 C49,33.5 48.8,33.6 48.7,33.7 C48.3,34.1 48.1,34.7 48.2,35.3 C47.3,36.1 46.5,37.1 46.1,38.2 C45.9,38.8 45.8,39.4 45.7,40 L46.2,40 L45.7,40 C45.7,40.5 45.5,41 45.4,41.5 C44.6,43.7 42.5,45.2 40.1,45.2 C40.1,45 40.1,44.8 40.1,44.6 C40.1,44.5 40.1,44.5 40.1,44.4 C42.1,44.4 43.9,43.1 44.6,41.2 C44.8,40.7 44.9,40.1 44.9,39.5 C44.9,36.8 42.7,34.6 40,34.6 L40,35.6 C42.1,35.6 43.9,37.3 43.9,39.5 C43.9,40 43.8,40.4 43.7,40.8 C43.1,42.3 41.7,43.3 40.1,43.3 L40,43.3 C39.9,42.9 39.7,42.5 39.5,42.1 L37.7,43.1 C37.9,43.5 38,44 38,44.5 C38,45.5 37.5,46.4 36.6,46.9 L37.7,48.7 C38.1,48.5 38.5,48.2 38.8,47.8 L40.1,47.8 C42.5,47.8 44.8,46.8 46.4,44.9 C47.4,43.7 48.9,43 50.4,43 C51.4,43 52.3,43.3 53.1,43.8 L53.6,42.9 C52.6,42.3 51.5,42 50.3,42 C48.5,42 46.7,42.8 45.5,44.2 C44.1,45.8 42,46.7 39.9,46.7 L39.3,46.7 C39.4,46.4 39.6,46.2 39.7,45.9 L39.9,45.9 C42.7,45.9 45.2,44.2 46.1,41.6 C46.3,41 46.4,40.4 46.5,39.8 C46.5,39.3 46.7,38.8 46.8,38.3 C47.2,37.3 47.8,36.5 48.5,35.9 C49.1,36.3 49.9,36.3 50.4,35.8 L53.9,32.6 C54.1,32.5 54.1,32.2 54.1,32 C54.3,32 54,31.8 53.7,31.9 Z M50.5,38.7 C49.5,38.7 48.5,38.9 47.6,39.1 L47.9,40.1 C48.8,39.8 49.7,39.7 50.5,39.7 C51.5,39.7 52.4,39.9 53.3,40.2 L53.6,39.3 C52.7,38.9 51.6,38.7 50.5,38.7 Z M27.8,39.4 C28.3,40 28.5,40.9 28.5,41.9 L29.5,41.9 C29.5,40.4 29,39.1 28.1,38.3 L27.8,38 L27.5,38.3 C26.6,39.1 26.1,40.4 26.1,41.9 L27.1,41.9 C27.1,40.9 27.3,40 27.8,39.4 Z M37.1,37 C37.7,37 38.6,37.4 39.4,37.9 C40.8,38.8 41.3,39.8 41.2,40 C41.2,40 41.1,40.1 40.9,40.1 C40.3,40.1 39.4,39.7 38.6,39.2 C37.1,38.2 36.7,37.3 36.8,37.1 C36.8,37.1 36.9,37 37.1,37 Z M34.5,42.4 C35,42.4 35.6,42.3 36.2,42.2 C36.7,42.1 37.2,41.9 37.6,41.7 C38.5,41.3 39.3,41 40.5,41.1 L40.5,41.1 C40.6,41.1 40.8,41.1 40.9,41.1 C41.5,41.1 41.9,40.8 42,40.6 C42.5,39.9 42,38.5 40,37.1 C39,36.4 37.9,36 37.1,36 C36.5,36 36.1,36.3 36,36.5 C35.8,36.8 35.8,37.2 35.9,37.7 L35.9,37.7 C36.5,39.2 36,40.5 34.9,41.1 C33.9,41.7 33,41.3 32.4,40.3 L32.4,40.2 C32.3,40 32.3,39.8 32.3,39.6 L32.3,39.6 C32.3,39.5 32.3,39.3 32.4,39.2 C32.5,39 32.7,38.8 32.9,38.7 C33.1,38.6 33.4,38.6 33.6,38.7 C33.8,38.8 33.9,38.9 34,39.1 C34,39.2 34.1,39.4 34,39.6 L34.9,40 C35.1,39.6 35.1,39.2 35,38.8 C34.8,38.4 34.5,38 34.1,37.8 C33.7,37.6 33.1,37.6 32.7,37.7 C32.3,37.8 32,38.1 31.7,38.5 C31.5,38.3 31.4,38 31.3,37.8 C30.9,36.7 31.2,36.1 31.2,36.1 L30.3,35.7 C30.3,35.8 29.9,36.7 30.4,38.2 C30.6,38.8 31,39.3 31.4,39.7 C31.4,40.1 31.5,40.4 31.6,40.7 C31.9,41.5 32.8,42.4 34.5,42.4 Z M12.7,31.4 C13.6,31.5 14.4,31.1 15,30.4 C15.1,30.3 15.2,30.1 15.2,30 C15.2,30 15.2,29.9 15.3,29.9 C15.3,29.9 15.3,29.9 15.3,29.8 C15.6,28.9 15.6,27.9 15.2,27.1 C14.8,26.3 14.1,25.7 13.3,25.4 C12.5,25.1 11.6,25.2 10.8,25.6 C10.3,25.9 9.8,26.3 9.5,26.7 C9.5,24.2 11,21.9 13.3,20.9 C12.9,21.6 12.8,22.5 13.2,23.3 C13.6,24.1 14.4,24.6 15.3,24.7 C15.8,24 15.9,23 15.4,22.2 C15,21.4 14.2,20.9 13.4,20.9 C13.5,20.9 13.6,20.8 13.7,20.8 C15.4,20.2 16.4,18.6 16.3,16.9 L16.3,16.9 C16.7,17.6 17.5,18.1 18.4,18.1 C19.3,18.1 20.1,17.6 20.6,16.8 C20.2,16.1 19.4,15.5 18.4,15.6 C17.5,15.6 16.7,16.1 16.3,16.8 C16.4,15 17.8,13.6 19.6,13.6 L19.6,12.6 C17.9,12.6 16.4,13.6 15.7,15.1 C15.5,14.7 15.2,14.4 14.9,14.1 C14.8,14 14.7,13.9 14.6,13.9 L14,14.5 C14.1,14.5 14.1,14.6 14.2,14.7 C14.5,15 14.8,15.3 14.9,15.6 C15.1,16 15.2,16.3 15.2,16.8 C15.3,18.1 14.5,19.3 13.2,19.8 C10.1,20.9 8.1,23.9 8.3,27.2 C8.3,27.9 8.5,28.7 8.8,29.4 C8.1,28.9 7.2,28.7 6.4,29 C5.5,29.3 5,30.1 4.8,30.9 C5.5,31.4 6.4,31.6 7.3,31.3 C8.1,31 8.7,30.3 8.9,29.4 C9,29.6 9.1,29.8 9.2,30 L11.7,35 L12.6,34.6 C12.6,34.6 10.3,30.1 9.9,29.2 C9.5,28.4 10.1,27 11.1,26.5 C11.7,26.2 12.3,26.2 12.9,26.4 C13.5,26.6 14,27 14.2,27.6 C14.3,27.7 14.3,27.9 14.4,28 C13.8,28.1 13.3,28.5 12.9,29 C12.4,29.7 12.4,30.6 12.7,31.4 Z M14.7,40.1 C14.5,40.1 14.4,40 14.4,40 C14.3,39.8 14.8,38.8 16.2,37.9 C17,37.4 18,37 18.5,37 C18.7,37 18.8,37 18.8,37 C18.9,37.2 18.5,38.1 17,39.1 C16.2,39.8 15.3,40.1 14.7,40.1 Z M18,41.7 C18.5,41.9 18.9,42.1 19.4,42.2 C20,42.4 20.6,42.4 21.1,42.4 C22.8,42.4 23.7,41.5 24.1,40.6 C24.3,40.3 24.3,39.9 24.3,39.6 C24.8,39.2 25.1,38.7 25.3,38.1 C25.8,36.6 25.4,35.7 25.4,35.6 L24.5,36 C24.5,36 24.7,36.6 24.4,37.7 C24.3,38 24.2,38.2 24,38.4 C23.8,38.1 23.4,37.8 23,37.6 C22.5,37.4 22,37.4 21.6,37.7 C21.2,37.9 20.8,38.3 20.7,38.7 C20.6,39.1 20.6,39.6 20.8,39.9 L21.7,39.5 C21.6,39.3 21.6,39.1 21.7,39 C21.8,38.8 21.9,38.6 22.1,38.6 C22.3,38.5 22.5,38.5 22.8,38.6 C23,38.7 23.2,38.9 23.3,39.1 C23.4,39.2 23.4,39.4 23.4,39.5 L23.4,39.5 C23.4,39.7 23.4,39.9 23.3,40.1 L23.3,40.2 C22.7,41.2 21.8,41.5 20.8,41 C19.8,40.4 19.3,39.1 19.8,37.6 L19.8,37.6 C20,37.2 20,36.8 19.7,36.4 C19.5,36.2 19.2,35.9 18.6,35.9 C17.8,35.9 16.7,36.3 15.7,37 C13.6,38.4 13.2,39.8 13.6,40.5 C13.8,40.7 14.1,41 14.7,41 C14.8,41 15,41 15.1,41 L15.1,41 C16.3,41 17.1,41.3 18,41.7 Z M19.3,28.2 L18.8,27.3 C17.3,28.1 16.4,29.6 16.4,31.2 C16.4,33.6 18.4,35.6 20.8,35.6 L20.8,34.6 C18.9,34.6 17.4,33.1 17.4,31.2 C17.4,30 18.1,28.8 19.3,28.2 Z M22.7,19 L23.1,18.1 C21.4,17.4 20.5,18.1 19.8,18.7 C19.2,19.2 18.7,19.6 17.7,19.6 L17.2,19.6 L17.2,26.7 L18.2,26.7 L18.2,20.6 C19.3,20.5 19.9,20 20.5,19.5 C21.1,19 21.6,18.6 22.7,19 Z M26.2,44.8 C25.5,44.1 25.1,43.2 25.1,42.3 L24.1,42.3 C24.1,43.5 24.6,44.7 25.5,45.6 L26.2,44.8 Z M31.6,42.3 L30.6,42.3 C30.6,43.2 30.2,44.1 29.5,44.8 L30.2,45.5 C31.1,44.7 31.6,43.5 31.6,42.3 Z M38.4,26.7 L38.4,19.6 L37.9,19.6 C36.9,19.6 36.3,19.2 35.8,18.7 C35,18.1 34.2,17.4 32.5,18.1 L32.9,19 C34.1,18.6 34.5,18.9 35.2,19.5 C35.7,19.9 36.4,20.4 37.5,20.6 L37.5,26.7 L38.4,26.7 L38.4,26.7 Z M34.8,34.7 L34.8,35.7 C37.2,35.7 39.2,33.7 39.2,31.3 C39.2,29.6 38.3,28.1 36.8,27.4 L36.3,28.3 C37.5,28.9 38.2,30.1 38.2,31.4 C38.2,33.2 36.7,34.7 34.8,34.7 Z M41.4,14.7 C41.5,14.6 41.6,14.6 41.6,14.5 L41,13.7 C40.9,13.8 40.8,13.8 40.7,13.9 C40.4,14.2 40.1,14.5 39.9,14.8 C39.3,13.3 38.1,12.2 36.5,11.7 C35.7,11.4 34.8,11.5 34.1,12.1 C33.4,12.7 33.1,13.6 33.2,14.4 C34,14.7 35,14.6 35.7,14 C36.1,13.7 36.4,13.2 36.5,12.7 C38.1,13.3 39.2,14.8 39.2,16.5 C38.8,15.8 38,15.3 37.1,15.3 C36.2,15.3 35.4,15.8 34.9,16.5 C35.3,17.3 36.1,17.8 37.1,17.8 C38,17.8 38.8,17.3 39.2,16.6 L39.2,16.6 L39.2,16.6 C39.1,18.4 40.2,20 41.8,20.5 C41.9,20.5 42,20.6 42.1,20.6 C41.3,20.7 40.5,21.1 40.1,21.9 C39.7,22.7 39.8,23.7 40.2,24.4 C41.1,24.4 41.9,23.9 42.3,23 C42.7,22.2 42.6,21.3 42.2,20.6 C44.5,21.6 46,23.9 46,26.4 C45.7,25.9 45.3,25.5 44.7,25.3 C43.9,24.9 43,24.8 42.2,25.1 C41.4,25.4 40.7,26 40.3,26.8 C39.8,27.7 39.8,28.8 40.3,29.8 C40.4,29.9 40.4,30 40.5,30.2 C41,31 41.9,31.3 42.8,31.2 C43.2,30.4 43.1,29.5 42.6,28.7 C42.2,28.2 41.7,27.8 41.1,27.7 C41.1,27.6 41.2,27.4 41.3,27.3 C41.6,26.7 42.1,26.3 42.6,26.1 C43.2,25.9 43.8,26 44.4,26.2 C45.3,26.7 46,28 45.6,28.8 C45.5,28.9 45.5,29.1 45.4,29.2 L42.9,34.2 L43.8,34.6 L46.3,29.6 C46.4,29.4 46.5,29.2 46.6,29 C46.8,29.8 47.3,30.5 48.2,30.8 C49.1,31.1 50,30.9 50.7,30.4 C50.6,29.5 50,28.8 49.1,28.5 C48.3,28.2 47.4,28.4 46.7,28.9 C47,28.2 47.1,27.5 47.2,26.8 C47.4,23.5 45.4,20.5 42.3,19.4 C41.1,19 40.2,17.7 40.3,16.4 C40.3,16 40.4,15.6 40.6,15.2 C40.8,15.2 41,14.9 41.4,14.7 Z" id="Fill-27"></path>
                        </g>
                    </g>
                </g>
            </g>
        </g>
    </g>
</svg>