<?xml version="1.0" encoding="utf-8"?>
<!-- Generator: Adobe Illustrator 24.0.1, SVG Export Plug-In . SVG Version: 6.00 Build 0)  -->
<svg version="1.1" id="Layer_1" xmlns="http://www.w3.org/2000/svg" xmlns:xlink="http://www.w3.org/1999/xlink" x="0px" y="0px"
	 viewBox="0 0 362 63" style="enable-background:new 0 0 362 63;" xml:space="preserve">
<style type="text/css">
	.st0{fill:none;stroke:#201748;stroke-width:0.5;}
	.st1{filter:url(#Adobe_OpacityMaskFilter);}
	.st2{fill-rule:evenodd;clip-rule:evenodd;fill:#FFFFFF;}
	.st3{mask:url(#mask-2_1_);fill-rule:evenodd;clip-rule:evenodd;}
	.st4{fill-rule:evenodd;clip-rule:evenodd;}
	.st5{filter:url(#Adobe_OpacityMaskFilter_1_);}
	.st6{mask:url(#mask-4_1_);fill-rule:evenodd;clip-rule:evenodd;}
</style>
<title>61681736-36B9-4ED1-B898-CC0523EDB262</title>
<desc>Created with sketchtool.</desc>
<g id="Symbols">
	<g id="Medium_x2F_header" transform="translate(0.000000, -33.000000)">
		<g id="Logo_x2F_seal" transform="translate(0.000000, 32.000000)">
			<g id="Page-1">
				<path id="Stroke-1" class="st0" d="M295.9,6.4v45.2"/>
				<g id="Group-30" transform="translate(0.000000, 0.049196)">
					<g id="Group-4" transform="translate(0.000000, 7.647059)">
						<g id="Clip-3">
						</g>
						<defs>
							<filter id="Adobe_OpacityMaskFilter" filterUnits="userSpaceOnUse" x="0" y="0.9" width="38.4" height="42">
								<feColorMatrix  type="matrix" values="1 0 0 0 0  0 1 0 0 0  0 0 1 0 0  0 0 0 1 0"/>
							</filter>
						</defs>
						<mask maskUnits="userSpaceOnUse" x="0" y="0.9" width="38.4" height="42" id="mask-2_1_">
							<g class="st1">
								<polygon id="path-1_1_" class="st2" points="0,42.9 0,0.9 38.4,0.9 38.4,42.9 								"/>
							</g>
						</mask>
						<path id="Fill-2" class="st3" d="M18.4,40h-2.8V3.7c-0.2,0,2.4,0,2.4,0c4.9,0,6.5,1.9,6.5,8.1c0,4.1-1.4,5.6-3.2,6.6
							c-1,0.6-2.1,1.1-3.9,1.4c-0.1,0-0.2,2.1,0,2.1c6.2,1.2,8.5,3.2,8.5,9.4C25.9,37.6,23.6,40,18.4,40 M24.7,20.9v-0.3
							c7.3-1.6,11.5-4.5,11.5-10.1c0-6.5-4.1-9.7-17.6-9.7H0.2c-0.1,0-0.2,2.5-0.1,2.5C1.4,3.6,2.5,3.7,3.9,4v27.3
							c0,2.4,0,6.3-0.1,8.5c-1.1,0.2-2.5,0.4-3.6,0.6c-0.1,0-0.2,2.5-0.1,2.5h19.4c3.8,0,8.1-0.5,10.7-1.5c5.5-2.2,8.2-4.8,8.2-10.3
							C38.4,24,31.8,21.7,24.7,20.9"/>
					</g>
					<path id="Fill-5" class="st4" d="M56,21.9c2.1,0,2.9,2,2.9,8.5l-7.3,0.7C51.9,24.2,53.5,21.9,56,21.9 M56.1,19.5
						c-8.2,0-15.5,6-15.5,16.8c0,8.6,4.8,15,15.4,15c9.4,0,12.6-5.8,13.4-7.6c0.2-0.4,0.3-2.6,0-2.3c-1.6,1.3-4.5,2.9-8.2,2.9
						c-5.1,0-9.3-2.5-9.6-10.5h17.9C70.4,25,66,19.5,56.1,19.5"/>
					<path id="Fill-7" class="st4" d="M94.9,19.9c-0.7-0.3-1.3-0.6-2.6-0.6c-3.4,0-6.4,3.6-7.9,7.7h-0.2l0.2-7.4
						c0-0.1-0.3-0.4-0.5-0.4c-4.9,1-7.1,1.4-13.3,2.6c-0.2,0.1-0.1,2.1-0.1,2.1c1.3,0.3,1.8,0.4,2.8,0.8c0.1,2.5,0.2,4,0.2,6.4v9.7
						c0,2.4-0.1,5.1-0.1,6.9c-1,0.2-1.4,0.2-2.7,0.4c-0.2,0-0.3,2.4-0.1,2.4h17.1c0.1,0,0.2-2.4,0.1-2.4c-1.1-0.2-2.2-0.3-3.3-0.5
						v-18c1.7-1.1,3.6-1.8,6-1.8c1.6,0,2.9,0.6,3.4,0.9h0.7C94.8,28.8,95.1,20,94.9,19.9"/>
					<path id="Fill-9" class="st4" d="M111.6,48.2c-1.1-0.2-1.2-0.2-2.3-0.4V15.2c0-3.8,0.2-6.5,0.2-8.6c0-0.2-0.3-0.4-0.5-0.4
						c-2.3,0.5-8.5,1.6-13.6,2.6c-0.2,0.1-0.1,2.1-0.1,2.1c1.2,0.3,1.8,0.4,2.8,0.8c0.1,2.5,0.2,4,0.2,6.4v22.8
						c0,2.4-0.1,5.1-0.1,6.9c-1,0.2-1.4,0.2-2.7,0.4c-0.2,0-0.3,2.4-0.1,2.4h16.1C111.6,50.5,111.8,48.2,111.6,48.2"/>
					<path id="Fill-11" class="st4" d="M129.1,48.2c-1-0.2-1-0.2-2.1-0.4V28.3c0-3.8,0.2-6.5,0.2-8.6c0-0.2-0.3-0.4-0.5-0.4
						c-2.3,0.5-8.5,1.6-13.6,2.6c-0.2,0.1-0.1,2.1-0.1,2.1c1.3,0.3,1.8,0.4,2.8,0.8c0.1,2.5,0.2,4,0.2,6.4v9.7
						c0,2.4-0.1,5.1-0.1,6.9c-1,0.2-0.8,0.2-2,0.4c-0.2,0-0.3,2.4-0.1,2.4H129C129.1,50.5,129.2,48.2,129.1,48.2"/>
					<path id="Fill-13" class="st4" d="M121.4,17.6c3.3,0,6-2.3,6-5.5c0-3.3-2.6-5.5-6-5.5c-3.3,0-6,2.3-6,5.5
						C115.4,15.3,118.1,17.6,121.4,17.6"/>
					<path id="Fill-15" class="st4" d="M165.8,48.2c-1-0.2-1.6-0.3-2.7-0.5V28.8c0-7.5-3.2-9.3-8.6-9.3c-4.4,0-8.1,2.3-10.2,5.2
						h-0.2l0.1-5c0-0.1-0.3-0.4-0.5-0.4c-4.9,1-7.1,1.4-13.3,2.6c-0.2,0.1-0.1,2.1-0.1,2.1c1.3,0.3,1.8,0.4,2.8,0.8
						c0.1,2.5,0.2,4,0.2,6.4v9.7c0,2.4-0.1,5.1-0.1,6.9c-1,0.2-0.8,0.2-2,0.4c-0.2,0-0.3,2.4-0.1,2.4H147c0.1,0,0.2-2.4,0.1-2.4
						c-1-0.2-1.6-0.2-2.7-0.4V27.1c1-0.8,2.2-1.5,4.3-1.5c2.3,0,3.3,1.1,3.3,4.1v11.2c0,2.4,0,4.3-0.1,6.9c-1,0.2-1.3,0.2-2.6,0.4
						c-0.2,0.1-0.3,2.4-0.1,2.4h16.5C165.8,50.5,166,48.2,165.8,48.2"/>
					<path id="Fill-17" class="st4" d="M180.2,39.1c-2.4,0-3.3-2.1-3.3-8.5c0-6,1-8.3,3.3-8.3c2.4,0,3.4,2.2,3.4,8.5
						C183.7,36.7,182.6,39.1,180.2,39.1 M197.4,19.7l-7.8,2.7h-0.1c-2.6-2-5.9-3-9.2-3c-6.3,0-13.6,3.5-13.6,11.2
						c0,5.4,3.6,8.8,7.8,10.4v0.2c-2.3,0.9-4.2,2.7-4.2,6c0,4.3,2.8,6,7.4,6.3c3.7,0.2,7.2,0.2,9.4,0.3c3.4,0.2,3.9,0.8,3.9,2.6
						c0,2.8-4.6,4.8-11.5,4.8c-5.9,0-8.4-1.4-8.4-4c0-1.8,0.6-2.5,1.2-3.4c0.3-0.4-5.9-1-6.2-0.7c-0.7,0.8-1.6,1.9-1.6,4
						c0,4.2,4.8,6.5,15.1,6.5c12.1,0,17.9-5.3,17.9-11.3c0-5.9-3.7-7.3-8.2-7.5c-2.4-0.1-5.3-0.2-9.3-0.4c-2.7-0.1-3.5-0.7-3.5-2
						c0-0.3,0.1-0.6,0.2-0.9c1.2,0.3,2.4,0.4,3.5,0.4c6.3,0,13.6-3.5,13.6-11.2c0-2.2-0.6-4.2-1.6-5.8l5.2,1.4
						C197.7,26.5,197.7,19.7,197.4,19.7"/>
					<path id="Fill-19" class="st4" d="M213.5,30.5c-3.9-1.8-6-2.5-6-5.1c0-2.2,2.3-3.5,4.5-3.5c3.6,0,5.6,2.8,7.2,6h1.2
						c0.2,0,0.4-6.9,0-7.1c-1.6-0.8-4.6-1.4-8-1.4c-6.7,0-13.2,3.5-13.2,10.7c0,5.7,3.7,8.2,7.2,9.7c5.5,2.4,7,3.5,7,5.8
						c0,2.2-1.4,3.1-4.2,3.1c-5,0-7.2-5.6-8.2-7.2h-1.3c-0.2,0-0.4,7.4,0,7.7c2.5,1.2,5.8,2,9.6,2c8.2,0,13-4.3,13-10.7
						C222.2,35.6,219.1,33.1,213.5,30.5"/>
					<path id="Fill-21" class="st4" d="M239.7,48.2c-1.1-0.2-1.9-0.2-3-0.4V15.2c0-3.8,0.2-6.5,0.2-8.6c0-0.2-0.3-0.4-0.5-0.4
						c-2.3,0.5-8.5,1.6-13.6,2.6c-0.2,0.1-0.1,2.1-0.1,2.1c1.2,0.3,1.8,0.4,2.8,0.8c0.1,2.5,0.2,4,0.2,6.4v22.8
						c0,2.4-0.1,5.1-0.1,6.9c-1,0.2-1.4,0.2-2.7,0.4c-0.2,0-0.3,2.4-0.1,2.4h16.9C239.7,50.5,239.9,48.2,239.7,48.2"/>
					<path id="Fill-23" class="st4" d="M254.9,45.6c-2.5-3.7-5.1-7.5-9.2-15.4V30c2.9-3.1,4.8-4.5,9.9-8.8v-1.2
						c-1.6-0.1-6.4-0.2-8.1,0c-2.5,4.6-3.9,6.9-9.8,15.2v1c1.1,3.2,2,4.8,3.8,8c1.6,2.9,2.5,4.2,3.8,5.8c3.4,0.3,9,0.4,12.4,0.4
						c0.1,0,0.2-2.4,0.2-2.4C256.8,47.9,256.2,47.5,254.9,45.6"/>
					<path id="Fill-25" class="st4" d="M271.8,21.9c2.2,0,2.9,2,2.9,8.5l-7.3,0.7C267.7,24.2,269.3,21.9,271.8,21.9 M285.2,41.3
						c-1.6,1.3-4.5,2.9-8.2,2.9c-5.1,0-9.3-2.5-9.6-10.5h17.9c0.9-8.8-3.5-14.3-13.4-14.3c-8.2,0-15.5,6-15.5,16.8
						c0,8.6,4.8,15,15.4,15c9.4,0,12.6-5.8,13.4-7.6C285.4,43.3,285.5,41.1,285.2,41.3"/>
					<g id="Group-29" transform="translate(305.915493, 0.000000)">
						<g id="Clip-28">
						</g>
						<defs>
							<filter id="Adobe_OpacityMaskFilter_1_" filterUnits="userSpaceOnUse" x="0.2" y="1.2" width="55.2" height="51">
								<feColorMatrix  type="matrix" values="1 0 0 0 0  0 1 0 0 0  0 0 1 0 0  0 0 0 1 0"/>
							</filter>
						</defs>
						<mask maskUnits="userSpaceOnUse" x="0.2" y="1.2" width="55.2" height="51" id="mask-4_1_">
							<g class="st5">
								<polygon id="path-3_1_" class="st2" points="55.4,52.2 55.4,1.2 0.2,1.2 0.2,52.2 								"/>
							</g>
						</mask>
						<path id="Fill-27" class="st6" d="M1.2,25.1c0-1.7,0.3-3,1.2-4.6l0,1.4l2.4,1.4C4.6,24.1,4.5,25,4.5,26
							C3.4,25.7,2.3,25.4,1.2,25.1z M4.1,20.7c0.1-0.2,0.2-0.3,0.2-0.4c0.1-0.1,0.1-0.2,0.2-0.3c0.8-1.5,1.8-2.8,3-4.1L8.3,17H11
							c-1.9,1.9-3.1,3.6-4.3,6.2l-3-1.7C3.8,21.2,4,20.9,4.1,20.7z M6.9,13.2c1.6-0.5,2.5-1.7,3.5-2.9c0.8-1,1.6-2,2.8-2.5v2.4
							l1.9,0.4c-1.2,0.6-2.1,1.6-2.9,2.6c-0.5,0.6-1,1.2-1.6,1.7c-0.3,0.2-0.5,0.4-0.8,0.6c-0.2,0.1-0.3,0.2-0.5,0.2
							c-0.1,0.1-0.3,0.1-0.5,0.1C8.8,15.9,7.1,13.5,6.9,13.2z M14.2,5.5c1.9-0.5,4-0.5,5.9,0v3.4c-1-0.2-2-0.4-2.9-0.4
							c-0.5,0-1,0-1.5,0.1c-0.2,0-0.4,0-0.6,0.1c-0.2,0-0.4,0.1-0.5,0.1c-0.1,0-0.3,0.1-0.4,0.1V5.5z M5.5,27.3l0-0.7
							c0-1.1,0.1-2,0.3-2.8l1.4,0.8l0.2-0.5c1.3-3,2.5-4.8,4.8-6.9l0.5-0.5l-1.2-1.2c0.6-0.5,1.1-1.1,1.5-1.7c1-1.3,2-2.5,3.6-2.7
							l0.8-0.1V9.6c1,0,2,0.2,3,0.5l0.6,0.2V4.8l-0.4-0.1c-2.3-0.7-4.9-0.7-7.2,0l-0.4,0.1v2c-1.6,0.5-2.6,1.7-3.6,2.9
							c-1,1.3-2,2.5-3.6,2.7l-0.8,0.1l0.5,0.7C6,13.7,6.5,14.4,6.9,15c-1.4,1.4-2.4,2.8-3.3,4.6l-1.4-0.7L2,19.2
							c-1.4,2.3-1.8,3.9-1.8,6.3l0,0.4L0.6,26c1.4,0.4,2.9,0.8,4.3,1.1L5.5,27.3z M1.9,39.2l0.3,0.9c1.7-0.6,3.7-0.6,5.5-0.1l0.3-1
							c-1-0.3-1.9-0.4-2.9-0.4C4,38.7,2.9,38.9,1.9,39.2z M18.9,47.1c-0.9-0.5-1.4-1.4-1.4-2.4c0-0.5,0.1-0.9,0.3-1.4l-1.8-1
							c-0.2,0.4-0.4,0.8-0.5,1.2h-0.1c-1.6,0-3.1-1-3.6-2.5c-0.2-0.4-0.2-0.9-0.2-1.3c0-2.1,1.7-3.9,3.9-3.9v-1
							c-2.7,0-4.9,2.2-4.9,4.9c0,0.6,0.1,1.1,0.3,1.7c0.7,1.9,2.5,3.2,4.5,3.2c0,0.1,0,0.1,0,0.2c0,0.2,0,0.4,0,0.6
							c-2.3,0-4.5-1.5-5.3-3.7C10,41,9.9,40.5,9.9,40h0l0,0c0-0.6-0.2-1.2-0.4-1.8C9,37,8.3,36,7.3,35.3c0.2-0.8-0.2-1.6-1-1.8
							l-5-1.8c-0.2-0.1-0.5,0-0.6,0.2c-0.2,0.2-0.2,0.6,0.1,0.8l4,3.5c0.1,0.1,0.3,0.2,0.5,0.3c0.5,0.2,1,0.1,1.4-0.2
							c0.8,0.6,1.4,1.5,1.8,2.4c0.2,0.5,0.3,1,0.3,1.5c0,0.6,0.2,1.2,0.4,1.8c1,2.6,3.5,4.3,6.2,4.3h0.2c0.1,0.3,0.2,0.5,0.4,0.8
							h-0.6c-2.1,0-4.2-0.9-5.6-2.5c-1.2-1.4-3-2.2-4.8-2.2c-1.2,0-2.3,0.3-3.3,0.9L2.3,44c0.8-0.5,1.8-0.8,2.7-0.8
							c1.5,0,3,0.7,4,1.9C10.7,47,13,48,15.5,48h1.3c0.3,0.3,0.7,0.6,1.1,0.9L18.9,47.1z M27.8,20.3c-0.4,0-0.7,0.3-0.7,0.7
							c0,0.4,0.3,0.7,0.7,0.7c0.4,0,0.7-0.3,0.7-0.7C28.5,20.6,28.2,20.3,27.8,20.3z M27.8,14.1c-0.4,0.7-1.3,1-2.2,1v1.8
							c0.9,0,1.7,0.2,2.2,0.9c0.4-0.7,1.3-0.9,2.2-0.9v-1.8C29.1,15.1,28.2,14.9,27.8,14.1z M25.6,11h0.8v0H29v1.7c0,0,0,0,0,0
							c-0.1,0-0.1,0-0.2,0c-0.7-0.1-1.2-0.1-1.9,0c-0.1,0-0.1,0-0.2,0c0,0-0.1,0-0.1,0c0,0,0,0,0,0V12h-1c-0.4,0-0.7,0.3-0.7,0.7h-1
							C23.8,11.7,24.6,11,25.6,11z M29.3,13.8l0.1,0c1,0.4,1.7,1.2,1.7,2c0,0.6-0.3,1.1-0.6,1.4c0,0,0,0-0.1,0.1l0,0
							c-0.4,0.3-0.9,0.6-1.4,0.7c-0.1,0-0.1,0-0.2,0l0,0c-0.7,0.1-1.2,0.1-1.8,0l0,0c-0.1,0-0.1,0-0.2,0c-0.6-0.1-1.1-0.4-1.4-0.7
							l0,0c0,0,0,0,0,0c-0.3-0.3-0.6-0.8-0.6-1.4c0-0.8,0.6-1.6,1.7-2l0.1,0c0,0,0,0,0,0c0.2-0.1,0.3-0.1,0.5-0.2c0,0,0.1,0,0.1,0
							c0,0,0.1,0,0.1,0c0.6-0.1,1-0.1,1.6,0c0,0,0.1,0,0.1,0c0,0,0.1,0,0.1,0C29,13.7,29.1,13.8,29.3,13.8z M30.7,20.5l-2.5,3.1
							h-0.7l-2.5-3.1c0.7-0.2,1.3-0.8,1.6-1.5c0,0,0.1,0,0.1,0l0,0c0.4,0.1,0.8,0.1,1.1,0.1c0.4,0,0.7,0,1.1-0.1l0,0
							c0,0,0.1,0,0.1,0C29.4,19.8,29.9,20.3,30.7,20.5z M31.7,20.8c0.3-0.3,0.7-0.3,1,0c0.2,0.2,0.3,0.6,0.1,0.9H31L31.7,20.8z
							 M31.2,26l-0.8,1l-1.5,1.8l-0.8,0.9l-2.3,2.8h-3l7.5-8.9h2.7L31.2,26z M31.4,32.7h-1v-4.1l1-1.2V32.7z M29.1,32.7h-1v-1.3
							l1-1.2V32.7z M22.9,20.8c0.3-0.3,0.7-0.3,1,0l0.7,0.9h-1.9C22.6,21.4,22.6,21.1,22.9,20.8z M20.5,13.1c0,0.6,0.2,1.2,0.7,1.6
							c0.2,0.2,0.4,0.3,0.7,0.5c0.2,0.1,0.2,0.1,0.2,0.4v0.8c0,0.5,0.3,0.8,0.8,0.8h1c0.2,0.3,0.4,0.6,0.6,0.9c0,0,0.1,0.1,0.1,0.1
							c0.3,0.2,0.6,0.5,1,0.6c-0.2,0.5-0.7,0.9-1.2,0.9l-0.9,0c-0.4,0-0.9,0.2-1.2,0.5c-0.4,0.4-0.6,1.1-0.5,1.6h-1.6v4.6l0.1,0.1
							c0.4,0.4,0.6,0.9,0.6,1.4c0,0.5-0.2,1-0.6,1.4l-0.1,0.1v3.1c0,1.2,1,2.2,2.2,2.2H26l1.8,1.8l1.7-1.8h3.8c1.2,0,2.2-1,2.2-2.2
							v-3.1l-0.1-0.1c-0.4-0.4-0.6-0.9-0.6-1.4c0-0.5,0.2-1,0.6-1.4l0.1-0.1v-4.6h-1.6c0.1-0.6,0-1.2-0.5-1.6
							c-0.3-0.3-0.8-0.5-1.2-0.5l-0.9,0c-0.6,0-1.1-0.4-1.2-0.9c0.4-0.2,0.7-0.4,1-0.6c0,0,0.1-0.1,0.1-0.1c0.6-0.6,0.9-1.3,0.9-2.1
							c0-1.2-0.8-2.2-2.1-2.8v-4h-1v0.7c-0.1,0-0.2,0-0.3,0c-0.3-0.1-0.8-0.2-1.3-0.3c0,0,0,0,0,0V9.1c0.7,0,1-0.2,1.4-0.8l1.5-2.7
							c0.2-0.2,0.1-0.6-0.1-0.7c-0.3-0.2-0.6-0.1-0.8,0.1c0,0-0.1,0.2-0.4,0.5c-0.2,0.3-0.5,0.6-0.8,1c-0.3,0.3-0.6,0.7-0.8,0.9V7
							c0-0.1,0-0.1,0-0.2c0-0.4-0.2-0.8-0.4-1.1c0,0,0.1-0.1,0.1-0.1v0c0.1-0.1,0.2-0.3,0.2-0.5c0-0.4-0.3-0.7-0.7-0.7
							c-0.4,0-0.7,0.3-0.7,0.7h-1.2c-0.2,0-0.4,0.2-0.5,0.3l-0.1,0.3c-0.1,0.2-0.3,0.3-0.5,0.3h-0.3h-0.8v0.9c0,0.2,0.1,0.4,0.3,0.5
							L24.5,8c0,0,0.1,0.1,0.1,0.1l-3.4,3.4C20.8,11.9,20.5,12.5,20.5,13.1z M1.9,41.1l0.4,0.9c0.9-0.4,1.8-0.6,2.8-0.6
							c1,0,2,0.2,2.9,0.6l0.4-0.9c-1.1-0.5-2.2-0.7-3.4-0.7C4,40.5,2.9,40.7,1.9,41.1z M51.1,26c0-1-0.1-1.9-0.4-2.6l2.4-1.4l0-1.4
							c0.8,1.6,1.2,2.9,1.2,4.6C53.3,25.4,52.2,25.7,51.1,26z M49.9,22.7l-0.4,0.3l-0.5,0.3c-1.2-2.6-2.4-4.3-4.3-6.2h2.7l0.8-1.2
							c1.2,1.3,2.1,2.5,3,4.1c0.1,0.1,0.1,0.2,0.2,0.3c0.1,0.1,0.2,0.3,0.2,0.4c0.1,0.3,0.3,0.5,0.4,0.8l-1.5,0.9L49.9,22.7z
							 M43.5,13.3c-0.8-1-1.7-2.1-2.9-2.6l1.9-0.4V7.8c1.1,0.4,1.9,1.4,2.8,2.5c1,1.2,2,2.4,3.5,2.9c-0.2,0.4-1.9,2.8-1.9,2.8
							c-0.2,0-0.3-0.1-0.5-0.1c-0.2-0.1-0.4-0.1-0.5-0.2c-0.3-0.2-0.6-0.3-0.8-0.6C44.5,14.5,44,13.9,43.5,13.3z M38.5,8.6
							c-1,0-2,0.1-2.9,0.4V5.5c1.9-0.5,4-0.5,5.9,0v3.4c-0.1,0-0.3-0.1-0.4-0.1c-0.2,0-0.4-0.1-0.5-0.1c-0.2,0-0.4-0.1-0.6-0.1
							C39.5,8.6,39,8.6,38.5,8.6z M53.6,19.2l-0.2-0.4L52,19.5c-0.9-1.7-2-3.1-3.3-4.6c0.4-0.6,0.9-1.2,1.3-1.9l0.5-0.7l-0.8-0.1
							C48,12.1,47,10.9,46,9.7c-1-1.2-2-2.4-3.5-2.9v-2l-0.4-0.1c-2.3-0.7-4.9-0.7-7.2,0l-0.4,0.1v5.5l0.6-0.2c1-0.3,2-0.5,3-0.5
							v1.6l0.8,0.1c1.6,0.2,2.6,1.4,3.6,2.7c0.5,0.6,1,1.2,1.5,1.7L43,16.8l0.5,0.5c2.2,2.1,3.5,3.9,4.8,6.9l0.2,0.5l1.4-0.8
							c0.2,0.8,0.3,1.6,0.3,2.8l0,0.7l0.6-0.2c1.4-0.4,2.9-0.8,4.3-1.1l0.4-0.1l0-0.4C55.4,23.1,55,21.5,53.6,19.2z M47.1,41.2
							l0.4,0.9c0.9-0.4,1.9-0.6,2.9-0.6c1,0,1.9,0.2,2.8,0.6l0.4-0.9c-1-0.4-2.1-0.6-3.2-0.6C49.3,40.5,48.2,40.7,47.1,41.2z
							 M37.8,50.1l-5.2-1c-0.2,0-0.4,0-0.5,0c-0.6,0.1-1,0.5-1.2,1h-0.1c-0.7,0-1.3-0.2-1.9-0.4c0.8-0.6,1.5-1.3,2.2-1.9
							c1.9-1.8,3.5-3.3,5.8-2.3l0.4-0.9c-2.9-1.3-4.9,0.6-6.9,2.5c-0.1,0.1-0.1,0.1-0.2,0.2c-1.3-0.9-1.9-2.7-1.9-5.4h-1
							c0,3.9-1.2,5-1.9,5.4c-0.1-0.1-0.1-0.1-0.2-0.2c-2-1.8-4-3.7-6.9-2.5l0.4,0.9c2.3-1,3.9,0.5,5.8,2.3c0.7,0.6,1.4,1.3,2.2,1.9
							c-0.6,0.3-1.2,0.4-1.9,0.4h-0.1c-0.2-0.7-1-1.1-1.7-1l-5.2,1c-0.2,0-0.4,0.2-0.5,0.4c-0.1,0.3,0.2,0.6,0.5,0.7l5.2,0.9
							c0.2,0,0.4,0,0.6,0c0.6-0.1,1-0.5,1.2-1h0.1c1.1,0,2-0.3,2.9-0.8c0.9,0.5,1.8,0.8,2.9,0.8h0.1c0.2,0.7,1,1.1,1.7,1l5.2-0.9
							c0.2,0,0.4-0.2,0.4-0.5C38.3,50.5,38.1,50.2,37.8,50.1z M22.8,5l1-0.2l0-0.3c0-0.1,0-0.2,0-0.2c0.1,0,0.2,0,0.2-0.1
							c0.2-0.1,0.5-0.1,0.7-0.3c0.2-0.2,0.3-0.5,0.3-0.8C25,3.1,25,3.1,25,3c0.1,0,0.2,0,0.2,0c0.2,0,0.5,0.1,0.8,0
							c0.3-0.1,0.4-0.4,0.6-0.6c0-0.1,0.1-0.1,0.1-0.2c0.1,0,0.1,0.1,0.2,0.1c0.2,0.1,0.5,0.3,0.8,0.3c0.3,0,0.6-0.2,0.8-0.3
							c0.1,0,0.1-0.1,0.2-0.1c0,0.1,0.1,0.1,0.1,0.2c0.1,0.2,0.3,0.4,0.6,0.6c0.3,0.1,0.6,0.1,0.8,0c0.1,0,0.2,0,0.2,0
							c0,0.1,0,0.2,0.1,0.2C30.7,3.5,30.7,3.8,31,4c0.2,0.2,0.5,0.3,0.7,0.3c0.1,0,0.2,0,0.2,0.1c0,0.1,0,0.2,0,0.2
							c0,0.2-0.1,0.5,0,0.8C32,5.7,32.3,5.9,32.5,6c0.1,0,0.1,0.1,0.2,0.1c0,0.1-0.1,0.1-0.1,0.2c-0.1,0.2-0.3,0.5-0.3,0.8
							s0.2,0.6,0.3,0.8c0,0.1,0.1,0.1,0.1,0.2c-0.1,0-0.1,0.1-0.2,0.1c-0.2,0.2-0.4,0.3-0.6,0.6c-0.1,0.3-0.1,0.6,0,0.8
							c0,0.1,0,0.2,0,0.2c-0.1,0-0.2,0-0.2,0.1c-0.2,0.1-0.5,0.1-0.7,0.3c-0.2,0.2-0.3,0.5-0.3,0.7l0,0.1l1,0.2l0-0.1
							c0-0.1,0-0.2,0.1-0.3c0.1,0,0.2-0.1,0.3-0.1c0.3-0.1,0.6-0.1,0.9-0.5c0.2-0.3,0.1-0.7,0.1-1c0-0.1,0-0.2,0-0.3
							c0,0,0.1-0.1,0.2-0.2c0.2-0.2,0.5-0.4,0.6-0.8c0.1-0.4-0.1-0.7-0.3-0.9c0-0.1-0.1-0.2-0.1-0.2c0-0.1,0.1-0.2,0.1-0.3
							c0.2-0.2,0.3-0.5,0.3-0.9c-0.1-0.4-0.4-0.6-0.6-0.8c-0.1,0-0.2-0.1-0.2-0.2c0-0.1,0-0.2,0-0.3c0-0.3,0.1-0.6-0.1-1
							c-0.2-0.3-0.6-0.4-0.9-0.5c-0.1,0-0.2,0-0.3-0.1c0-0.1-0.1-0.2-0.1-0.3c-0.1-0.3-0.1-0.6-0.5-0.9c-0.3-0.2-0.7-0.1-1-0.1
							c-0.1,0-0.2,0-0.3,0h0c0,0-0.1-0.1-0.2-0.2c-0.2-0.2-0.4-0.5-0.8-0.6c-0.4-0.1-0.7,0.1-0.9,0.3c-0.1,0-0.2,0.1-0.2,0.1
							c-0.1,0-0.2-0.1-0.2-0.1c-0.2-0.2-0.6-0.3-0.9-0.3c-0.4,0.1-0.6,0.4-0.8,0.6c0,0.1-0.1,0.2-0.2,0.2c-0.1,0-0.2,0-0.3,0
							c-0.3,0-0.6-0.1-1,0.1C24.1,2.4,24.1,2.7,24,3c0,0.1,0,0.2-0.1,0.3c-0.1,0-0.2,0.1-0.3,0.1c-0.3,0.1-0.6,0.2-0.9,0.5
							c-0.2,0.3-0.1,0.7-0.1,1L22.8,5z M53.7,31.9l-4.5,1.5c-0.2,0.1-0.4,0.2-0.5,0.3c-0.4,0.4-0.6,1-0.5,1.6
							c-0.9,0.8-1.7,1.8-2.1,2.9c-0.2,0.6-0.3,1.2-0.4,1.8l0.5,0l-0.5,0c0,0.5-0.2,1-0.3,1.5c-0.8,2.2-2.9,3.7-5.3,3.7
							c0-0.2,0-0.4,0-0.6c0-0.1,0-0.1,0-0.2c2,0,3.8-1.3,4.5-3.2c0.2-0.5,0.3-1.1,0.3-1.7c0-2.7-2.2-4.9-4.9-4.9v1
							c2.1,0,3.9,1.7,3.9,3.9c0,0.5-0.1,0.9-0.2,1.3c-0.6,1.5-2,2.5-3.6,2.5H40c-0.1-0.4-0.3-0.8-0.5-1.2l-1.8,1
							c0.2,0.4,0.3,0.9,0.3,1.4c0,1-0.5,1.9-1.4,2.4l1.1,1.8c0.4-0.2,0.8-0.5,1.1-0.9h1.3c2.4,0,4.7-1,6.3-2.9c1-1.2,2.5-1.9,4-1.9
							c1,0,1.9,0.3,2.7,0.8l0.5-0.9c-1-0.6-2.1-0.9-3.3-0.9c-1.8,0-3.6,0.8-4.8,2.2c-1.4,1.6-3.5,2.5-5.6,2.5h-0.6
							c0.1-0.3,0.3-0.5,0.4-0.8h0.2c2.8,0,5.3-1.7,6.2-4.3c0.2-0.6,0.3-1.2,0.4-1.8c0-0.5,0.2-1,0.3-1.5c0.4-1,1-1.8,1.7-2.4
							c0.6,0.4,1.4,0.4,1.9-0.1l3.5-3.2c0.2-0.1,0.2-0.4,0.2-0.6C54.3,32,54,31.8,53.7,31.9z M50.5,38.7c-1,0-2,0.2-2.9,0.4l0.3,1
							c0.9-0.3,1.8-0.4,2.6-0.4c1,0,1.9,0.2,2.8,0.5l0.3-0.9C52.7,38.9,51.6,38.7,50.5,38.7z M27.8,39.4c0.5,0.6,0.7,1.5,0.7,2.5h1
							c0-1.5-0.5-2.8-1.4-3.6L27.8,38l-0.3,0.3c-0.9,0.8-1.4,2.1-1.4,3.6h1C27.1,40.9,27.3,40,27.8,39.4z M37.1,37
							c0.6,0,1.5,0.4,2.3,0.9c1.4,0.9,1.9,1.9,1.8,2.1c0,0-0.1,0.1-0.3,0.1c-0.6,0-1.5-0.4-2.3-0.9c-1.5-1-1.9-1.9-1.8-2.1
							C36.8,37.1,36.9,37,37.1,37z M34.5,42.4c0.5,0,1.1-0.1,1.7-0.2c0.5-0.1,1-0.3,1.4-0.5c0.9-0.4,1.7-0.7,2.9-0.6v0
							c0.1,0,0.3,0,0.4,0c0.6,0,1-0.3,1.1-0.5c0.5-0.7,0-2.1-2-3.5c-1-0.7-2.1-1.1-2.9-1.1c-0.6,0-1,0.3-1.1,0.5
							c-0.2,0.3-0.2,0.7-0.1,1.2l0,0c0.6,1.5,0.1,2.8-1,3.4c-1,0.6-1.9,0.2-2.5-0.8l0-0.1c-0.1-0.2-0.1-0.4-0.1-0.6l0,0
							c0-0.1,0-0.3,0.1-0.4c0.1-0.2,0.3-0.4,0.5-0.5c0.2-0.1,0.5-0.1,0.7,0c0.2,0.1,0.3,0.2,0.4,0.4c0,0.1,0.1,0.3,0,0.5l0.9,0.4
							c0.2-0.4,0.2-0.8,0.1-1.2c-0.2-0.4-0.5-0.8-0.9-1c-0.4-0.2-1-0.2-1.4-0.1c-0.4,0.1-0.7,0.4-1,0.8c-0.2-0.2-0.3-0.5-0.4-0.7
							c-0.4-1.1-0.1-1.7-0.1-1.7l-0.9-0.4c0,0.1-0.4,1,0.1,2.5c0.2,0.6,0.6,1.1,1,1.5c0,0.4,0.1,0.7,0.2,1
							C31.9,41.5,32.8,42.4,34.5,42.4z M12.7,31.4c0.9,0.1,1.7-0.3,2.3-1c0.1-0.1,0.2-0.3,0.2-0.4c0,0,0-0.1,0.1-0.1c0,0,0,0,0-0.1
							c0.3-0.9,0.3-1.9-0.1-2.7c-0.4-0.8-1.1-1.4-1.9-1.7c-0.8-0.3-1.7-0.2-2.5,0.2c-0.5,0.3-1,0.7-1.3,1.1c0-2.5,1.5-4.8,3.8-5.8
							c-0.4,0.7-0.5,1.6-0.1,2.4c0.4,0.8,1.2,1.3,2.1,1.4c0.5-0.7,0.6-1.7,0.1-2.5c-0.4-0.8-1.2-1.3-2-1.3c0.1,0,0.2-0.1,0.3-0.1
							c1.7-0.6,2.7-2.2,2.6-3.9v0c0.4,0.7,1.2,1.2,2.1,1.2c0.9,0,1.7-0.5,2.2-1.3c-0.4-0.7-1.2-1.3-2.2-1.2c-0.9,0-1.7,0.5-2.1,1.2
							c0.1-1.8,1.5-3.2,3.3-3.2v-1c-1.7,0-3.2,1-3.9,2.5c-0.2-0.4-0.5-0.7-0.8-1c-0.1-0.1-0.2-0.2-0.3-0.2L14,14.5
							c0.1,0,0.1,0.1,0.2,0.2c0.3,0.3,0.6,0.6,0.7,0.9c0.2,0.4,0.3,0.7,0.3,1.2c0.1,1.3-0.7,2.5-2,3c-3.1,1.1-5.1,4.1-4.9,7.4
							c0,0.7,0.2,1.5,0.5,2.2c-0.7-0.5-1.6-0.7-2.4-0.4c-0.9,0.3-1.4,1.1-1.6,1.9c0.7,0.5,1.6,0.7,2.5,0.4c0.8-0.3,1.4-1,1.6-1.9
							C9,29.6,9.1,29.8,9.2,30l2.5,5l0.9-0.4c0,0-2.3-4.5-2.7-5.4c-0.4-0.8,0.2-2.2,1.2-2.7c0.6-0.3,1.2-0.3,1.8-0.1
							c0.6,0.2,1.1,0.6,1.3,1.2c0.1,0.1,0.1,0.3,0.2,0.4c-0.6,0.1-1.1,0.5-1.5,1C12.4,29.7,12.4,30.6,12.7,31.4z M14.7,40.1
							c-0.2,0-0.3-0.1-0.3-0.1c-0.1-0.2,0.4-1.2,1.8-2.1C17,37.4,18,37,18.5,37c0.2,0,0.3,0,0.3,0c0.1,0.2-0.3,1.1-1.8,2.1
							C16.2,39.8,15.3,40.1,14.7,40.1z M18,41.7c0.5,0.2,0.9,0.4,1.4,0.5c0.6,0.2,1.2,0.2,1.7,0.2c1.7,0,2.6-0.9,3-1.8
							c0.2-0.3,0.2-0.7,0.2-1c0.5-0.4,0.8-0.9,1-1.5c0.5-1.5,0.1-2.4,0.1-2.5l-0.9,0.4c0,0,0.2,0.6-0.1,1.7
							c-0.1,0.3-0.2,0.5-0.4,0.7c-0.2-0.3-0.6-0.6-1-0.8c-0.5-0.2-1-0.2-1.4,0.1c-0.4,0.2-0.8,0.6-0.9,1c-0.1,0.4-0.1,0.9,0.1,1.2
							l0.9-0.4c-0.1-0.2-0.1-0.4,0-0.5c0.1-0.2,0.2-0.4,0.4-0.4c0.2-0.1,0.4-0.1,0.7,0c0.2,0.1,0.4,0.3,0.5,0.5
							c0.1,0.1,0.1,0.3,0.1,0.4v0c0,0.2,0,0.4-0.1,0.6l0,0.1c-0.6,1-1.5,1.3-2.5,0.8c-1-0.6-1.5-1.9-1-3.4l0,0
							c0.2-0.4,0.2-0.8-0.1-1.2c-0.2-0.2-0.5-0.5-1.1-0.5c-0.8,0-1.9,0.4-2.9,1.1c-2.1,1.4-2.5,2.8-2.1,3.5c0.2,0.2,0.5,0.5,1.1,0.5
							c0.1,0,0.3,0,0.4,0v0C16.3,41,17.1,41.3,18,41.7z M19.3,28.2l-0.5-0.9c-1.5,0.8-2.4,2.3-2.4,3.9c0,2.4,2,4.4,4.4,4.4v-1
							c-1.9,0-3.4-1.5-3.4-3.4C17.4,30,18.1,28.8,19.3,28.2z M22.7,19l0.4-0.9c-1.7-0.7-2.6,0-3.3,0.6c-0.6,0.5-1.1,0.9-2.1,0.9
							h-0.5v7.1h1v-6.1c1.1-0.1,1.7-0.6,2.3-1.1C21.1,19,21.6,18.6,22.7,19z M26.2,44.8c-0.7-0.7-1.1-1.6-1.1-2.5h-1
							c0,1.2,0.5,2.4,1.4,3.3L26.2,44.8z M31.6,42.3h-1c0,0.9-0.4,1.8-1.1,2.5l0.7,0.7C31.1,44.7,31.6,43.5,31.6,42.3z M38.4,26.7
							v-7.1h-0.5c-1,0-1.6-0.4-2.1-0.9c-0.8-0.6-1.6-1.3-3.3-0.6l0.4,0.9c1.2-0.4,1.6-0.1,2.3,0.5c0.5,0.4,1.2,0.9,2.3,1.1v6.1H38.4
							z M34.8,34.7v1c2.4,0,4.4-2,4.4-4.4c0-1.7-0.9-3.2-2.4-3.9l-0.5,0.9c1.2,0.6,1.9,1.8,1.9,3.1C38.2,33.2,36.7,34.7,34.8,34.7z
							 M41.4,14.7c0.1-0.1,0.2-0.1,0.2-0.2L41,13.7c-0.1,0.1-0.2,0.1-0.3,0.2c-0.3,0.3-0.6,0.6-0.8,0.9c-0.6-1.5-1.8-2.6-3.4-3.1
							c-0.8-0.3-1.7-0.2-2.4,0.4c-0.7,0.6-1,1.5-0.9,2.3c0.8,0.3,1.8,0.2,2.5-0.4c0.4-0.3,0.7-0.8,0.8-1.3c1.6,0.6,2.7,2.1,2.7,3.8
							c-0.4-0.7-1.2-1.2-2.1-1.2c-0.9,0-1.7,0.5-2.2,1.2c0.4,0.8,1.2,1.3,2.2,1.3c0.9,0,1.7-0.5,2.1-1.2v0h0c-0.1,1.8,1,3.4,2.6,3.9
							c0.1,0,0.2,0.1,0.3,0.1c-0.8,0.1-1.6,0.5-2,1.3c-0.4,0.8-0.3,1.8,0.1,2.5c0.9,0,1.7-0.5,2.1-1.4c0.4-0.8,0.3-1.7-0.1-2.4
							c2.3,1,3.8,3.3,3.8,5.8c-0.3-0.5-0.7-0.9-1.3-1.1c-0.8-0.4-1.7-0.5-2.5-0.2c-0.8,0.3-1.5,0.9-1.9,1.7c-0.5,0.9-0.5,2,0,3
							c0.1,0.1,0.1,0.2,0.2,0.4c0.5,0.8,1.4,1.1,2.3,1c0.4-0.8,0.3-1.7-0.2-2.5c-0.4-0.5-0.9-0.9-1.5-1c0-0.1,0.1-0.3,0.2-0.4
							c0.3-0.6,0.8-1,1.3-1.2c0.6-0.2,1.2-0.1,1.8,0.1c0.9,0.5,1.6,1.8,1.2,2.6c-0.1,0.1-0.1,0.3-0.2,0.4l-2.5,5l0.9,0.4l2.5-5
							c0.1-0.2,0.2-0.4,0.3-0.6c0.2,0.8,0.7,1.5,1.6,1.8c0.9,0.3,1.8,0.1,2.5-0.4c-0.1-0.9-0.7-1.6-1.6-1.9
							c-0.8-0.3-1.7-0.1-2.4,0.4c0.3-0.7,0.4-1.4,0.5-2.1c0.2-3.3-1.8-6.3-4.9-7.4c-1.2-0.4-2.1-1.7-2-3c0-0.4,0.1-0.8,0.3-1.2
							C40.8,15.2,41,14.9,41.4,14.7z"/>
					</g>
				</g>
			</g>
		</g>
	</g>
</g>
</svg>
