<?xml version="1.0" encoding="utf-8"?>
<!-- Generator: Adobe Illustrator 24.0.1, SVG Export Plug-In . SVG Version: 6.00 Build 0)  -->
<svg version="1.1" id="Layer_1" xmlns="http://www.w3.org/2000/svg" xmlns:xlink="http://www.w3.org/1999/xlink" x="0px" y="0px"
	 viewBox="0 0 460 79" style="enable-background:new 0 0 460 79;" xml:space="preserve">
<g transform="matrix(1.2268 0 0 -1.2344 0 153.98)">
	<g transform="matrix(.05129 0 0 .051305 0 60.74)">
		<path d="M6037.1,1140.4c0-38.5-32.9-79.8-62-116.5c-51.7-66.7-191.6-228.2-286.5-307.2c-30.1-25.4-70.5-47.9-110.8-47.9
			c-56.4,0-84.5,40.4-84.5,89.2c0,57.3,77,238.6,142.8,367.3c16,31,34.8,59.2,65.8,78c48.9,30.1,111.8,44.2,173.8,44.2
			C5949.7,1247.5,6037.1,1211.8,6037.1,1140.4"/>
		<path d="M425.7,726.6h61.9v83.4H0v-83.4h60c30,0,47.8-7.5,47.8-30V166c0-46.9-4.7-75-47.8-75H1.9V13.1h466.9V91H436
			c-28.1,0-40.3,17.8-40.3,68.4v498.8C395.7,704.1,402.3,726.6,425.7,726.6L425.7,726.6z M382.5,721c-15-12.2-15-30.9-15-62.8V160.3
			c0-31.9,0-50.6,15-62.8v-5.6c0,0-3.8-0.9-9.4-0.9c-30,0-33.8,22.5-33.8,61.9v512.9c0,39.4,3.8,61.9,33.8,61.9
			c5.6,0,9.4-0.9,9.4-0.9V721"/>
		<path d="M2081.2,583.2c-181,0-320.7-125.6-320.7-291.6C1760.5,108.8,1904,0,2081.2,0c165.9,0,322.5,115.3,322.5,298.1
			C2403.7,464.1,2248.1,583.2,2081.2,583.2z M2249.4,18.6c117.2,39.5,208.7,139.8,208.7,279.5c0,127-91.1,226.5-208.7,266.3
			l-3.9-8.4c106.5-44.3,186.3-139,186.3-257.8c0-130.7-80-226.9-186.3-271.1L2249.4,18.6L2249.4,18.6z M2059.6,58.1
			c-43.1,8.4-73.1,37.5-73.1,88.1v290.6c0,46.9,30,83.5,73.1,91.9l2.8-6.6c-28.1-15-47.8-46.9-47.8-85.3V146.3
			c0-42.2,19.7-66.6,47.8-81.6L2059.6,58.1L2059.6,58.1z M2173.1,146.3c0-49.7-30-75-66.6-84.4c-36.6,9.4-65.6,34.7-65.6,84.4v291.5
			c0,45,27.2,78.9,65.6,89.2c41.2-10.3,66.6-45,66.6-90V146.3"/>
		<path d="M5705.1,570.1V160.3c0-31.9,0-50.6,15-62.8v-5.6c0,0-3.8-0.9-9.4-0.9c-30,0-33.8,22.5-33.8,61.9v417.2h-297.2v-77.8h16
			c53.4,0,65.6-6.6,65.6-63.8v-286c0-36.6-1.9-51.6-43.1-51.6h-40.3V13.1H5826V91h-48.7c-23.4,0-45.9,13.1-45.9,58.1v421
			L5705.1,570.1"/>
		<path d="M5307.5,91c-23.4,0-45.9,13.1-45.9,58.1v343.2h81.6v77.8h-81.6v187.6c-8.5-4.7-17.3-9.5-26.2-14.3V570.1h-28.1v158.8
			c-73.9-39-152.8-78.9-215.7-101.5v-57.4h-84.3v-77.8h84.3V166c0-119.1,65.7-166,192.3-166c68.5,0,135,11.2,172.5,19.7V91
			L5307.5,91L5307.5,91z M5250.3,91.9c0,0-3.8-0.9-9.4-0.9c-30,0-33.8,22.5-33.8,61.9v339.4h28.1V160.3c0-31.9,0-50.6,15-62.8
			L5250.3,91.9"/>
		<path d="M7277.1,91c-23.4,0-46,13.1-46,58.1v284.1c0,74.5-31.8,122.8-94.5,141.4l-4-8.4c48-22.7,72.2-67.8,72.2-132.9V160.3
			c0-31.9,0-50.6,15-62.8v-5.6c0,0-3.7-0.9-9.4-0.9c-30,0-33.8,22.5-33.8,61.9v280.4c0,97.5-54.4,150-161.3,150
			c-65.8,0-124.7-23-178.6-56.8v43.7h-24.4v-59.9c-9-6.3-17.9-12.9-26.7-19.8v79.7h-291.3v-77.8h10.3c46.9,0,68.5-6.6,68.5-58.1
			V144.4c0-50.6-20.6-53.4-74.1-53.4h-9.4V13.1h395.4V91c-23.4,0-45,13.1-45,58.1v203.5c0,62.8,31.9,96.6,90,114.4
			c40.3-15,45-49.7,45-88.1V151c0-44.1-8.4-60-56.3-60h-12.2V13.1h404.1V91L7277.1,91L7277.1,91z M6813.9,348.8V160.3
			c0-31.9,0-50.6,15-62.8v-5.6c0,0-3.8-0.9-9.4-0.9c-30,0-33.8,22.5-33.8,61.9v197.9c0,39.4,13.1,65.6,37.5,87.2
			c14.1,12.2,32.8,23.4,56.3,30l2.8-6.6C6839.2,438.8,6813.9,405.1,6813.9,348.8"/>
		<path d="M1231.7,149.1v284.1c0,74.5-31.8,122.8-94.5,141.4l-4-8.4c48-22.7,72.2-67.8,72.2-132.9V160.3c0-31.9,0-50.6,15-62.8v-5.6
			c0,0-3.7-0.9-9.4-0.9c-30,0-33.8,22.5-33.8,61.9v280.4c0,97.5-54.4,150-161.3,150c-65.8,0-124.7-23-178.6-56.8v43.7H813v-59.9
			c-9-6.3-17.9-12.9-26.7-19.8v79.7H495v-77.8h10.3c46.9,0,68.4-6.6,68.4-58.1V144.4c0-50.6-20.6-53.4-74.1-53.4h-9.4V13.1h395.4V91
			c-23.4,0-45,13.1-45,58.1v203.5c0,62.8,31.9,96.6,90,114.4c40.3-15,45-49.7,45-88.1V151c0-44.1-8.4-60-56.3-60h-12.2V13.1h370.4
			V91C1254.2,91,1231.7,104.1,1231.7,149.1L1231.7,149.1z M814.5,348.8V160.3c0-31.9,0-50.6,15-62.8v-5.6c0,0-3.8-0.9-9.4-0.9
			c-30,0-33.8,22.5-33.8,61.9v197.8c0,39.4,13.1,65.6,37.5,87.2c14.1,12.2,32.8,23.4,56.3,30l2.8-6.6
			C839.8,438.8,814.5,405.1,814.5,348.8"/>
		<path d="M4218.6,91c-23.4,0-46,13.1-46,58.1V458c0,52.2-27.7,98.1-92.3,116.6l-4-8.4c48.6-21.9,70-62.4,70-108.1V160.4
			c0-31.9,0-50.6,15-62.8V92c0,0-3.7-0.9-9.4-0.9c-30,0-33.8,22.5-33.8,61.9V458c0,68-46.9,125.2-161.3,125.2
			c-61.2,0-123-32.7-172.2-65.3c-13.4,25.4-37,45.7-72.6,56.5l-4-8.4c29.1-13.9,47.9-35.4,57.6-61c-7.6-5.4-14.9-10.6-21.7-15.6
			c-16.9,74.1-88.1,93.8-148.1,93.8c-61.9,0-121.6-25.8-173.6-57.8v44.6H3398v-60.4c-9.3-6.3-18.4-12.8-27-19.2v79.7h-279.4v-77.8
			h10.3c47.8,0,56.3-14.1,56.3-51.6V144.5c0-50.6-20.6-53.4-74.1-53.4h-9.4V13.2H3461V91c-19,0-35.6,18.5-35.6,58.1v199.7
			c0,54.4,21.6,88.1,77.8,111.6c25.3-15,26.3-49.7,26.3-90.9V151c0-48.8-14.1-60-46.9-60V13.2h352.5V91h0
			c-19.3,0-36.6,17.9-36.6,58.1v199.7c0,54.4,22.5,88.1,78.8,111.6c25.3-15,26.2-49.7,26.2-90.9V151c0-48.8-14.1-60-46.9-60V13.2
			h373.2V91L4218.6,91L4218.6,91z M3399.1,351.6V160.4c0-31.9,0-50.6,15-62.8V92c0,0-3.8-0.9-9.4-0.9c-30,0-33.8,22.5-33.8,61.9
			v198.8c0,55.3,34.7,95.6,85.4,109.7l2.8-6.6C3414.2,426.7,3399.1,395.7,3399.1,351.6L3399.1,351.6z M3772.2,351.6V160.4
			c0-31.9,0-50.6,15-62.8V92c0,0-3.8-0.9-9.4-0.9c-30,0-33.8,22.5-33.8,61.9v198.8c0,55.3,34.7,95.6,85.4,109.7l2.8-6.6
			C3787.3,426.7,3772.2,395.7,3772.2,351.6"/>
		<path d="M3046,572.5V346.9h24.4v215.6C3065.5,565.6,3056.6,569.2,3046,572.5"/>
		<path d="M2796.1,507.4v62.7h-24.4v-96.6c-6.4-9.7-12.5-19.5-18.3-29l-9.4-15.2l0,140.8h-294.2v-77.8h15.9
			c53.4,0,65.6-6.6,65.6-63.8v-286c0-36.6-1.9-51.6-43.1-51.6H2448V13.1h472.3V91h-75.9c-23.4,0-45.9,13.1-45.9,58.1v133.2
			c0,60,28.1,97.5,60,108.8c24.4-6.6,37.5-19.7,43.1-44.1h122.8v215.6c-17.6,9.1-52.5,20.6-89.1,20.6
			C2872.6,583.2,2829.6,549.3,2796.1,507.4L2796.1,507.4z M2772.2,289.7V160.3c0-31.9,0-50.6,15-62.8v-5.6c0,0-3.7-0.9-9.4-0.9
			c-30,0-33.8,22.5-33.8,61.9v136c0,68.4,46.9,105,81.6,116.3l2.8-6.6C2793.8,376.9,2772.2,340.3,2772.2,289.7"/>
		<path d="M6122.3,583.2c-181,0-320.7-125.6-320.7-291.6C5801.6,108.8,5945.1,0,6122.3,0c165.9,0,322.5,115.3,322.5,298.1
			C6444.8,464.1,6289.2,583.2,6122.3,583.2z M6290.5,18.6c117.2,39.5,208.7,139.8,208.7,279.5c0,127-91.1,226.5-208.7,266.3
			l-3.9-8.4c106.5-44.3,186.3-139,186.3-257.8c0-130.7-80-226.9-186.3-271.1L6290.5,18.6L6290.5,18.6z M6100.7,58.1
			c-43.1,8.4-73.1,37.5-73.1,88.1v290.6c0,46.9,30,83.5,73.1,91.9l2.8-6.6c-28.1-15-47.8-46.9-47.8-85.3V146.3
			c0-42.2,19.7-66.6,47.8-81.6L6100.7,58.1L6100.7,58.1z M6214.2,146.3c0-49.7-30-75-66.6-84.4c-36.6,9.4-65.6,34.7-65.6,84.4v291.5
			c0,45,27.2,78.9,65.6,89.2c41.3-10.3,66.6-45,66.6-90V146.3"/>
		<path d="M1927.4,838.8V674.1h24.4v150.3C1945,829.4,1936.8,834.2,1927.4,838.8"/>
		<path d="M1396.7,618.8v-48.7h-89v-77.8h89V142.5c0-36.6-1.9-51.6-43.1-51.6h-54.3V13.1h446.3v77.8h-32.8
			c-23.4,0-45.9,13.1-45.9,58.1v343.2h68.4V570h-68.4v150c0,40.3,13.1,74.1,42.2,88.1c11.2-4.7,28.1-18.8,28.1-45v-89.1h168.8v154.7
			c-42.2,30.9-142.5,57.2-223.2,57.2C1495.2,886,1396.7,780.1,1396.7,618.8L1396.7,618.8z M1655.5,91.9c0,0-3.7-0.9-9.4-0.9
			c-30,0-33.8,22.5-33.8,61.9v339.4h28.1V160.3c0-31.9,0-50.6,15-62.8V91.9L1655.5,91.9z M1640.5,720.1v-150h-28.1v150
			c0,47.8,24.4,90,70.3,97.5l2.8-6.6C1651.8,791.9,1640.5,758.5,1640.5,720.1"/>
		<path d="M4917.4,91c-23.4,0-46,13.1-46,58.1v249.4c0,97.6-55.5,144.1-121.5,165.9l-3.8-8.4c55.6-24.7,99.1-71.2,99.1-157.5V160.3
			c0-31.9,0-50.6,15-62.8v-5.6c0,0-3.8-0.9-9.4-0.9c-30,0-33.8,22.5-33.8,61.9h0v245.7c0,166.9-162.2,184.7-261.6,184.7
			c-113.5,0-196.9-25.3-268.1-63.8V405.1h171.1v48.7c0,54.7,54.3,56.8,54.3,56.8l2.7-5.8c-18.2-8.4-30.3-24.7-30.3-51v-48.7h24.4
			v48.7c0,34,21.1,50.1,48.4,56c33.7-9.3,46.3-35.6,46.3-58.8V346.9l-136-11.2c-132.2-11.3-232.5-45.9-232.5-171.6
			c0-114.4,89-164.1,197.3-164.1c126.4,0,177.7,57.2,177.7,57.2s20.9-44.1,83.9-44.1H4939V91L4917.4,91L4917.4,91z M4531.6,89
			c-37.8,0-65.2,30.8-65.2,93.8c0,45.5,20.2,86,63,99.5l3-6.6c-31.1-19.5-37.9-59.2-37.9-92.9c0-47.5,14-76.7,37-88.3L4531.6,89
			L4531.6,89z M4604.2,155.6c0-30.7-17-50.8-41.7-60.4c-25.2,11.4-41.7,40.7-41.7,87.6c0,73.7,34.4,96,68.8,98.8l14.6,1.2
			L4604.2,155.6"/>
	</g>
</g>
</svg>
