<?xml version="1.0" encoding="UTF-8"?>
<svg width="430px" height="81px" viewBox="0 0 430 81" version="1.1" xmlns="http://www.w3.org/2000/svg" xmlns:xlink="http://www.w3.org/1999/xlink">
    <!-- Generator: Sketch 63.1 (92452) - https://sketch.com -->
    <title>Artboard</title>
    <desc>Created with Sketch.</desc>
    <g id="Artboard" stroke="none" stroke-width="1" fill="none" fill-rule="evenodd">
        <g id="Group-2" transform="translate(-30.000000, 1.000000)" fill="#000000" fill-rule="nonzero">
            <g id="information">
                <g transform="translate(52.000000, 0.000000)">
                    <g id="Group" transform="translate(193.000000, 33.500000) scale(-1, 1) rotate(-180.000000) translate(-193.000000, -33.500000) translate(0.000000, -0.000000)">
                        <g transform="translate(0.000000, 0.762769)">
                            <path d="M318.725716,60.308475 C318.725716,58.2724558 316.988777,56.0883625 315.452457,54.1475338 C312.722981,50.6201966 305.337029,42.0794928 300.326831,37.9016871 C298.737716,36.5584433 296.604818,35.368562 294.477199,35.368562 C291.499589,35.368562 290.016063,37.50506 290.016063,40.0857805 C290.016063,43.1160116 294.08124,52.7038111 297.555119,59.5099324 C298.399831,61.1493245 299.392368,62.6406424 301.028998,63.6348544 C303.610649,65.2266512 306.931423,65.9723102 310.204683,65.9723102 C314.111476,65.9723102 318.725716,64.0843651 318.725716,60.308475" id="Path"></path>
                            <path d="M22.4746215,38.4252349 L25.7426015,38.4252349 L25.7426015,42.8357285 L0,42.8357285 L0,38.4252349 L3.1676704,38.4252349 C4.7515056,38.4252349 5.69124782,38.0286078 5.69124782,36.8387265 L5.69124782,8.77868015 C5.69124782,6.29843859 5.44311364,4.812409 3.1676704,4.812409 L0.100309563,4.812409 L0.100309563,0.692775362 L24.7500647,0.692775362 L24.7500647,4.812409 L23.0184049,4.812409 C21.5348793,4.812409 20.8907863,5.75373735 20.8907863,8.42964829 L20.8907863,34.8079956 C20.8907863,37.2353536 21.23923,38.4252349 22.4746215,38.4252349 L22.4746215,38.4252349 Z M20.1938988,38.1290867 C19.4019812,37.4839066 19.4019812,36.494983 19.4019812,34.8079956 L19.4019812,8.47724355 C19.4019812,6.79025622 19.4019812,5.80133261 20.1938988,5.1561525 L20.1938988,4.86000425 C20.1938988,4.86000425 19.9932797,4.812409 19.6976304,4.812409 C18.1137952,4.812409 17.9131761,6.00229035 17.9131761,8.08590479 L17.9131761,35.2099111 C17.9131761,37.2935256 18.1137952,38.4834069 19.6976304,38.4834069 C19.9932797,38.4834069 20.1938988,38.4358117 20.1938988,38.4358117 L20.1938988,38.1290867" id="Shape"></path>
                            <path d="M109.875927,30.8417245 C100.320122,30.8417245 92.944729,24.1995424 92.944729,15.4208622 C92.944729,5.75373735 100.520741,0 109.875927,0 C118.634536,0 126.902156,6.09748085 126.902156,15.7646057 C126.902156,24.5432859 118.68733,30.8417245 109.875927,30.8417245 Z M118.755963,0.983635246 C124.943479,3.07253805 129.774177,8.37676468 129.774177,15.7646057 C129.774177,22.4808249 124.964597,27.7427446 118.755963,29.8475125 L118.550065,29.4032902 C124.17268,27.060546 128.385681,22.0524676 128.385681,15.7698941 C128.385681,8.85800558 124.162121,3.77060178 118.550065,1.43314598 L118.755963,0.983635246 L118.755963,0.983635246 Z M108.735566,3.07253805 C106.460123,3.51676042 104.876287,5.05567363 104.876287,7.73158457 L104.876287,23.0995632 C104.876287,25.5798048 106.460123,27.5153451 108.735566,27.9595675 L108.883391,27.6105356 C107.399865,26.8172814 106.359813,25.130294 106.359813,23.0995632 L106.359813,7.73687293 C106.359813,5.50518436 107.399865,4.21482415 108.883391,3.42156992 L108.735566,3.07253805 L108.735566,3.07253805 Z M114.727742,7.73687293 C114.727742,5.10855725 113.143907,3.77060178 111.211628,3.27349579 C109.279349,3.77060178 107.748309,5.10855725 107.748309,7.73687293 L107.748309,23.1524468 C107.748309,25.5322095 109.184319,27.3249641 111.211628,27.8696653 C113.386762,27.3249641 114.727742,25.4899026 114.727742,23.1101399 L114.727742,7.73687293" id="Shape"></path>
                            <path d="M301.19794,30.1489491 L301.19794,8.47724355 C301.19794,6.79025622 301.19794,5.80133261 301.989858,5.1561525 L301.989858,4.86000425 C301.989858,4.86000425 301.789238,4.812409 301.493589,4.812409 C299.909754,4.812409 299.709135,6.00229035 299.709135,8.08590479 L299.709135,30.1489491 L284.018608,30.1489491 L284.018608,26.0346039 L284.86332,26.0346039 C287.682546,26.0346039 288.326639,25.685572 288.326639,22.6606292 L288.326639,7.53591519 C288.326639,5.60037487 288.22633,4.80712064 286.051196,4.80712064 L283.923577,4.80712064 L283.923577,0.692775362 L307.580796,0.692775362 L307.580796,4.812409 L305.009703,4.812409 C303.774312,4.812409 302.586436,5.50518436 302.586436,7.88494705 L302.586436,30.1489491 L301.19794,30.1489491" id="Path"></path>
                            <path d="M280.206844,4.812409 C278.971453,4.812409 277.783576,5.50518436 277.783576,7.88494705 L277.783576,26.0346039 L282.091608,26.0346039 L282.091608,30.1489491 L277.783576,30.1489491 L277.783576,40.0699154 C277.334823,39.8213624 276.870231,39.567521 276.40036,39.3136797 L276.40036,30.1489491 L274.916835,30.1489491 L274.916835,38.5468673 C271.015321,36.4844063 266.849834,34.37435 263.529059,33.1791803 L263.529059,30.1436608 L259.078483,30.1436608 L259.078483,26.0293155 L263.529059,26.0293155 L263.529059,8.77868015 C263.529059,2.48024156 266.997659,0 273.681443,0 C277.297867,0 280.808702,0.592296492 282.788496,1.04180722 L282.788496,4.812409 L280.206844,4.812409 L280.206844,4.812409 Z M277.186998,4.86000425 C277.186998,4.86000425 276.986379,4.812409 276.69073,4.812409 C275.106895,4.812409 274.906276,6.00229035 274.906276,8.08590479 L274.906276,26.0346039 L276.389801,26.0346039 L276.389801,8.47724355 C276.389801,6.79025622 276.389801,5.80133261 277.181719,5.1561525 L277.186998,4.86000425" id="Shape"></path>
                            <path d="M384.190904,4.812409 C382.955513,4.812409 381.762357,5.50518436 381.762357,7.88494705 L381.762357,22.9091822 C381.762357,26.8490115 380.083492,29.4032902 376.773276,30.3869254 L376.562098,29.942703 C379.096235,28.742245 380.373862,26.3571939 380.373862,22.9144705 L380.373862,8.47724355 C380.373862,6.79025622 380.373862,5.80133261 381.165779,5.1561525 L381.165779,4.86000425 C381.165779,4.86000425 380.97044,4.812409 380.669511,4.812409 C379.085676,4.812409 378.885057,6.00229035 378.885057,8.08590479 L378.885057,22.9144705 C378.885057,28.070623 376.013035,30.8470129 370.369303,30.8470129 C366.895424,30.8470129 363.785828,29.6306897 360.940204,27.8432235 L360.940204,30.1542375 L359.652018,30.1542375 L359.652018,26.9865089 C359.176867,26.6533422 358.706996,26.3043103 358.242404,25.9394133 L358.242404,30.1542375 L342.863365,30.1542375 L342.863365,26.0398922 L343.407148,26.0398922 C345.88321,26.0398922 347.023572,25.6908604 347.023572,22.9673542 L347.023572,7.63639406 C347.023572,4.96048312 345.936005,4.812409 343.111499,4.812409 L342.61523,4.812409 L342.61523,0.692775362 L363.490178,0.692775362 L363.490178,4.812409 C362.254787,4.812409 361.114426,5.50518436 361.114426,7.88494705 L361.114426,18.6467628 C361.114426,21.9678538 362.79857,23.75532 365.865931,24.6966484 C367.99355,23.9033942 368.241684,22.0683327 368.241684,20.0376019 L368.241684,7.98542592 C368.241684,5.65325848 367.79821,4.812409 365.269353,4.812409 L364.62526,4.812409 L364.62526,0.692775362 L385.95952,0.692775362 L385.95952,4.812409 L384.190904,4.812409 L384.190904,4.812409 Z M359.736489,18.445805 L359.736489,8.47724355 C359.736489,6.79025622 359.736489,5.80133261 360.528407,5.1561525 L360.528407,4.86000425 C360.528407,4.86000425 360.327787,4.812409 360.032138,4.812409 C358.448303,4.812409 358.247684,6.00229035 358.247684,8.08590479 L358.247684,18.5515723 C358.247684,20.6351867 358.939292,22.0207374 360.227478,23.1630235 C360.97188,23.8082036 361.959138,24.4005001 363.199809,24.749532 L363.347633,24.4005001 C361.07219,23.2053304 359.736489,21.4231526 359.736489,18.445805" id="Shape"></path>
                            <path d="M65.0269939,7.88494705 L65.0269939,22.9091822 C65.0269939,26.8490115 63.3481285,29.4032902 60.037913,30.3869254 L59.826735,29.942703 C62.3608713,28.742245 63.6384983,26.3571939 63.6384983,22.9144705 L63.6384983,8.47724355 C63.6384983,6.79025622 63.6384983,5.80133261 64.4304159,5.1561525 L64.4304159,4.86000425 C64.4304159,4.86000425 64.2350763,4.812409 63.9341476,4.812409 C62.3503124,4.812409 62.1496932,6.00229035 62.1496932,8.08590479 L62.1496932,22.9144705 C62.1496932,28.070623 59.2776721,30.8470129 53.6339393,30.8470129 C50.1600608,30.8470129 47.0504643,29.6306897 44.2048404,27.8432235 L44.2048404,30.1542375 L42.9219339,30.1542375 L42.9219339,26.9865089 C42.4467834,26.6533422 41.9769123,26.3043103 41.5123206,25.9394133 L41.5123206,30.1542375 L26.1332808,30.1542375 L26.1332808,26.0398922 L26.6770642,26.0398922 C29.1531266,26.0398922 30.2882085,25.6908604 30.2882085,22.9673542 L30.2882085,7.63639406 C30.2882085,4.96048312 29.2006416,4.812409 26.3761355,4.812409 L25.8798672,4.812409 L25.8798672,0.692775362 L46.7548151,0.692775362 L46.7548151,4.812409 C45.5194236,4.812409 44.3790623,5.50518436 44.3790623,7.88494705 L44.3790623,18.6467628 C44.3790623,21.9678538 46.0632071,23.75532 49.1305679,24.6966484 C51.2581865,23.9033942 51.5063207,22.0683327 51.5063207,20.0376019 L51.5063207,7.98542592 C51.5063207,5.65325848 51.0628468,4.812409 48.53399,4.812409 L47.889897,4.812409 L47.889897,0.692775362 L67.4449823,0.692775362 L67.4449823,4.812409 C66.2148703,4.812409 65.0269939,5.50518436 65.0269939,7.88494705 L65.0269939,7.88494705 Z M43.0011257,18.445805 L43.0011257,8.47724355 C43.0011257,6.79025622 43.0011257,5.80133261 43.7930433,5.1561525 L43.7930433,4.86000425 C43.7930433,4.86000425 43.5924242,4.812409 43.2967749,4.812409 C41.7129397,4.812409 41.5123206,6.00229035 41.5123206,8.08590479 L41.5123206,18.5462839 C41.5123206,20.6298984 42.2039286,22.0154491 43.4921146,23.1577352 C44.2365171,23.8029153 45.2237744,24.3952118 46.4644453,24.7442436 L46.6122699,24.3952118 C44.3368267,23.2053304 43.0011257,21.4231526 43.0011257,18.445805" id="Shape"></path>
                            <path d="M222.718906,4.812409 C221.483514,4.812409 220.290359,5.50518436 220.290359,7.88494705 L220.290359,24.2206958 C220.290359,26.9812206 218.827951,29.4085785 215.417426,30.3869254 L215.206248,29.942703 C217.772061,28.7845519 218.901863,26.6427654 218.901863,24.2259842 L218.901863,8.48253191 C218.901863,6.79554458 218.901863,5.80662097 219.693781,5.16144086 L219.693781,4.86529262 C219.693781,4.86529262 219.498441,4.81769736 219.197512,4.81769736 C217.613677,4.81769736 217.413058,6.00757871 217.413058,8.09119315 L217.413058,24.2206958 C217.413058,27.8167817 214.936996,30.8417245 208.897304,30.8417245 C205.66628,30.8417245 202.40358,29.1124303 199.80609,27.3884244 C199.098644,28.7316682 197.852693,29.8052056 195.973209,30.3763487 L195.762031,29.9321263 C197.298351,29.1970441 198.290888,28.0600463 198.802994,26.7062258 C198.401756,26.4206542 198.016356,26.1456594 197.657354,25.8812414 C196.765126,29.7999173 193.006157,30.8417245 189.838487,30.8417245 C186.570507,30.8417245 183.418675,29.4773272 180.673361,27.7850515 L180.673361,30.1436608 L179.395734,30.1436608 L179.395734,26.9494904 C178.904745,26.6163236 178.424315,26.2725801 177.970282,25.934125 L177.970282,30.1489491 L163.219497,30.1489491 L163.219497,26.0346039 L163.76328,26.0346039 C166.286858,26.0346039 166.735611,25.2889449 166.735611,23.3058093 L166.735611,7.64168242 C166.735611,4.96577148 165.648044,4.81769736 162.823538,4.81769736 L162.32727,4.81769736 L162.32727,0.698063723 L182.721788,0.698063723 L182.721788,4.812409 C181.718692,4.812409 180.842303,5.79075588 180.842303,7.88494705 L180.842303,18.445805 C180.842303,21.3226737 181.982664,23.1048516 184.949716,24.3476165 C186.285417,23.5543623 186.338211,21.7193008 186.338211,19.5404959 L186.338211,7.98542592 C186.338211,5.40470549 185.593809,4.812409 183.862149,4.812409 L183.862149,0.698063723 L202.472213,0.698063723 L202.472213,4.812409 L202.472213,4.812409 C201.453279,4.812409 200.539934,5.75902572 200.539934,7.88494705 L200.539934,18.445805 C200.539934,21.3226737 201.72781,23.1048516 204.700141,24.3476165 C206.035842,23.5543623 206.083357,21.7193008 206.083357,19.5404959 L206.083357,7.98542592 C206.083357,5.40470549 205.338954,4.812409 203.607294,4.812409 L203.607294,0.698063723 L223.310204,0.698063723 L223.310204,4.812409 L222.718906,4.812409 L222.718906,4.812409 Z M179.453808,18.5938792 L179.453808,8.48253191 C179.453808,6.79554458 179.453808,5.80662097 180.245725,5.16144086 L180.245725,4.86529262 C180.245725,4.86529262 180.045106,4.81769736 179.749457,4.81769736 C178.165622,4.81769736 177.965003,6.00757871 177.965003,8.09119315 L177.965003,18.6044559 C177.965003,21.5289198 179.796972,23.6601295 182.473653,24.4057885 L182.621478,24.0567566 C180.251005,22.5654387 179.453808,20.9260466 179.453808,18.5938792 L179.453808,18.5938792 Z M199.151438,18.5938792 L199.151438,8.48253191 C199.151438,6.79554458 199.151438,5.80662097 199.943356,5.16144086 L199.943356,4.86529262 C199.943356,4.86529262 199.742737,4.81769736 199.447087,4.81769736 C197.863252,4.81769736 197.662633,6.00757871 197.662633,8.09119315 L197.662633,18.6044559 C197.662633,21.5289198 199.494602,23.6601295 202.171284,24.4057885 L202.319108,24.0567566 C199.948635,22.5654387 199.151438,20.9260466 199.151438,18.5938792" id="Shape"></path>
                            <path d="M160.812067,30.2758698 L160.812067,18.3453262 L162.100253,18.3453262 L162.100253,29.7470337 C161.84156,29.9109729 161.371689,30.1013539 160.812067,30.2758698" id="Path"></path>
                            <path d="M147.61872,26.8331464 L147.61872,30.1489491 L146.330534,30.1489491 L146.330534,25.0403919 C145.992649,24.5274208 145.670603,24.0091614 145.364395,23.506767 L144.868126,22.7029361 L144.868126,30.1489491 L129.335982,30.1489491 L129.335982,26.0346039 L130.175415,26.0346039 C132.994642,26.0346039 133.638735,25.685572 133.638735,22.6606292 L133.638735,7.53591519 C133.638735,5.60037487 133.538425,4.80712064 131.363291,4.80712064 L129.240952,4.80712064 L129.240952,0.692775362 L154.175798,0.692775362 L154.175798,4.812409 L150.168695,4.812409 C148.933303,4.812409 147.745427,5.50518436 147.745427,7.88494705 L147.745427,14.9290446 C147.745427,18.1020615 149.228953,20.0851971 150.913097,20.682782 C152.201283,20.3337501 152.892891,19.6409748 153.188541,18.3506145 L159.671706,18.3506145 L159.671706,29.752322 C158.742523,30.2335629 156.899994,30.8417245 154.967715,30.8417245 C151.6575,30.8417245 149.387336,29.0489699 147.61872,26.8331464 L147.61872,26.8331464 Z M146.356931,15.3203834 L146.356931,8.47724355 C146.356931,6.79025622 146.356931,5.80133261 147.148849,5.1561525 L147.148849,4.86000425 C147.148849,4.86000425 146.953509,4.812409 146.652581,4.812409 C145.068745,4.812409 144.868126,6.00229035 144.868126,8.08590479 L144.868126,15.2780765 C144.868126,18.8953158 147.344189,20.8308561 149.176158,21.428441 L149.323983,21.0794091 C147.497293,19.9318346 146.356931,17.9962943 146.356931,15.3203834" id="Shape"></path>
                            <path d="M323.223808,30.8417245 C313.668002,30.8417245 306.29261,24.1995424 306.29261,15.4208622 C306.29261,5.75373735 313.868622,0 323.223808,0 C331.982417,0 340.250037,6.09748085 340.250037,15.7646057 C340.250037,24.5432859 332.035211,30.8417245 323.223808,30.8417245 Z M332.103844,0.983635246 C338.29136,3.07253805 343.122058,8.37676468 343.122058,15.7646057 C343.122058,22.4808249 338.312478,27.7427446 332.103844,29.8475125 L331.897946,29.4032902 C337.520561,27.060546 341.733562,22.0524676 341.733562,15.7698941 C341.733562,8.85800558 337.510002,3.77060178 331.897946,1.43314598 L332.103844,0.983635246 L332.103844,0.983635246 Z M322.083447,3.07253805 C319.808004,3.51676042 318.224168,5.05567363 318.224168,7.73158457 L318.224168,23.0995632 C318.224168,25.5798048 319.808004,27.5153451 322.083447,27.9595675 L322.231271,27.6105356 C320.747746,26.8172814 319.707694,25.130294 319.707694,23.0995632 L319.707694,7.73687293 C319.707694,5.50518436 320.747746,4.21482415 322.231271,3.42156992 L322.083447,3.07253805 L322.083447,3.07253805 Z M328.075623,7.73687293 C328.075623,5.10855725 326.491788,3.77060178 324.559509,3.27349579 C322.62723,3.77060178 321.09619,5.10855725 321.09619,7.73687293 L321.09619,23.1524468 C321.09619,25.5322095 322.5322,27.3249641 324.559509,27.8696653 C326.739922,27.3249641 328.075623,25.4899026 328.075623,23.1101399 L328.075623,7.73687293" id="Shape"></path>
                            <path d="M101.756132,44.3587766 L101.756132,35.6488451 L103.044318,35.6488451 L103.044318,43.5972525 C102.685315,43.8616706 102.252401,44.115512 101.756132,44.3587766" id="Path"></path>
                            <path d="M73.7380875,32.7243812 L73.7380875,30.1489491 L69.0393764,30.1489491 L69.0393764,26.0346039 L73.7380875,26.0346039 L73.7380875,7.53591519 C73.7380875,5.60037487 73.6377779,4.80712064 71.4626442,4.80712064 L68.5959025,4.80712064 L68.5959025,0.692775362 L92.1580908,0.692775362 L92.1580908,4.80712064 L90.426431,4.80712064 C89.1910396,4.80712064 88.0031632,5.499896 88.0031632,7.87965869 L88.0031632,26.0293155 L91.6143074,26.0293155 L91.6143074,30.1436608 L88.0031632,30.1436608 L88.0031632,38.0762031 C88.0031632,40.2074128 88.6947712,41.994879 90.2310913,42.7352496 C90.8223898,42.4866966 91.714617,41.7410376 91.714617,40.3554869 L91.714617,35.6435568 L100.62633,35.6435568 L100.62633,43.8246521 C98.3984015,45.4587558 93.1031125,46.8495986 88.8425958,46.8495986 C78.9383464,46.8548832 73.7380875,41.2545084 73.7380875,32.7243812 L73.7380875,32.7243812 Z M87.4013058,4.86000425 C87.4013058,4.86000425 87.2059661,4.812409 86.9050374,4.812409 C85.3212022,4.812409 85.1205831,6.00229035 85.1205831,8.08590479 L85.1205831,26.0346039 L86.6041087,26.0346039 L86.6041087,8.47724355 C86.6041087,6.79025622 86.6041087,5.80133261 87.3960263,5.1561525 L87.3960263,4.86000425 L87.4013058,4.86000425 Z M86.6093882,38.0814914 L86.6093882,30.1489491 L85.1258625,30.1489491 L85.1258625,38.0814914 C85.1258625,40.6093283 86.4140485,42.8410168 88.8373164,43.2376439 L88.985141,42.8886121 C87.2059661,41.878535 86.6093882,40.1122223 86.6093882,38.0814914" id="Shape"></path>
                            <path d="M259.611707,4.812409 C258.376316,4.812409 257.18316,5.50518436 257.18316,7.88494705 L257.18316,21.0741207 C257.18316,26.2355616 254.253065,28.6946497 250.768627,29.8475125 L250.568008,29.4032902 C253.503383,28.0970649 255.799944,25.6379767 255.799944,21.0741207 L255.799944,8.47724355 C255.799944,6.79025622 255.799944,5.80133261 256.591861,5.1561525 L256.591861,4.86000425 C256.591861,4.86000425 256.391242,4.812409 256.095593,4.812409 C254.511758,4.812409 254.311139,6.00229035 254.311139,8.08590479 L254.311139,8.08590479 L254.311139,21.0794091 C254.311139,29.9056845 245.74787,30.8470129 240.500096,30.8470129 C234.507919,30.8470129 230.104857,29.5090574 226.345888,27.4730382 L226.345888,21.4231526 L235.379029,21.4231526 L235.379029,23.9985847 C235.379029,26.8913184 238.24577,27.002374 238.24577,27.002374 L238.388315,26.695649 C237.427455,26.2514267 236.788642,25.3894237 236.788642,23.9985847 L236.788642,21.4231526 L238.076828,21.4231526 L238.076828,23.9985847 C238.076828,25.7966276 239.190792,26.6480538 240.632082,26.9600671 C242.411257,26.4682495 243.076468,25.0774104 243.076468,23.8505105 L243.076468,18.3453262 L235.896415,17.7530297 C228.916981,17.1554448 223.621692,15.3256717 223.621692,8.67820128 C223.621692,2.62831568 228.320403,0 234.038048,0 C240.711274,0 243.419632,3.0249428 243.419632,3.0249428 C243.419632,3.0249428 244.523037,0.692775362 247.849091,0.692775362 L260.752068,0.692775362 L260.752068,4.812409 L259.611707,4.812409 L259.611707,4.812409 Z M239.243586,4.70664177 C237.247954,4.70664177 235.801385,6.33545712 235.801385,9.66712489 C235.801385,12.0733294 236.867834,14.2151158 239.127438,14.9290446 L239.285822,14.5800128 C237.643913,13.5487823 237.28491,11.4493027 237.28491,9.66712489 C237.28491,7.15515316 238.024033,5.61095159 239.238307,4.99750165 L239.243586,4.70664177 L239.243586,4.70664177 Z M243.076468,8.22869055 C243.076468,6.60516356 242.178961,5.54220289 240.874937,5.03452018 C239.544515,5.6373934 238.673406,7.18688333 238.673406,9.66712489 C238.673406,13.5646473 240.489537,14.743952 242.305668,14.8920261 L243.076468,14.9554864 L243.076468,8.22869055" id="Shape"></path>
                        </g>
                    </g>
                </g>
            </g>
        </g>
    </g>
</svg>