<svg xmlns="http://www.w3.org/2000/svg" width="808" height="109" viewBox="0 0 808 109"><path fill="none" stroke="#000" stroke-width="9.594" stroke-linejoin="round" d="M440.152 54.359h26.969"/><path d="M68.303 10.517v9.368h-6.56c-2.649 0-4.127.856-4.127 2.684V58.92c0 15.22-7.212 24.25-24.666 24.25-14.495 0-26.657-5.844-26.657-19.562 0-7.023 3.701-13.295 11.307-13.295 5.719 0 10.388 3.29 10.388 9.368 0 6.048-4.236 8.72-7.946 8.72-1.687 0-3.278-.323-4.333-1.18h-.204c1.688 4.788 6.439 6.058 11.09 6.058 8.258 0 11.112-5.942 11.112-14.359V22.861c0-2.006-1.468-2.977-4.109-2.977H27.03v-9.368h41.273"/><path d="M120.896 31.268v8.518h-2.008c-4.139 0-5.087 2.438-6.24 5.301L98.56 79.565c-5.479 13.39-10.994 24.042-22.315 24.042-8.88 0-15.866-3.948-15.866-13.729 0-5.634 3.604-9.039 9.111-9.039 4.109 0 7.927 2.549 7.927 7.01 0 4.479-1.912 6.819-5.608 6.819-.962 0-2.12-.105-2.962-.429.311 2.559 4.027 2.767 6.016 2.767 6.473 0 9.114-6.809 11.438-12.762L69.592 46.36c-1.59-3.903-2.66-6.575-5.395-6.575h-3.4v-8.518h32.065v8.518h-3.486c-2.335 0-3.497.308-3.497 2.019 0 .652.218 1.265.627 2.232l8.678 19.685h.214l7.503-19.378c.428-1.055.637-2.12.637-2.866 0-.957-.847-1.692-3.175-1.692H97.31v-8.518h23.586"/><path d="M142.546 67.962c0 2.992.724 4.586 3.793 4.586h4.348v8.501h-34.073v-8.501h4.557c3.064 0 3.808-1.594 3.808-4.586V23.618c0-2.977-.744-4.579-3.808-4.579h-4.868v-8.522h26.244v57.445M178.828 67.962c0 2.992.734 4.586 3.802 4.586h4.348v8.501H152.91v-8.501h4.546c3.059 0 3.813-1.594 3.813-4.586V23.618c0-2.977-.754-4.579-3.813-4.579h-4.868v-8.522h26.24v57.445M220.683 63.722c0 4.454-1.585 8.929-7.613 8.929-3.3 0-6.035-1.597-6.035-5.957 0-6.595 8.566-7.243 13.648-10.209v7.237zm23.059-.867v2.465c0 5.953-1.167 7.33-3.479 7.33-1.692 0-2.014-1.179-2.014-4.25V48.604c0-15.52-7.84-18.924-22.342-18.924-8.556 0-24.537 1.702-24.537 13.489 0 5.006 4.246 7.884 9.215 7.884 4.227 0 8.34-2.021 8.34-6.71 0-3.702-3.472-5.414-6.647-5.838v-.209c2.533-1.608 5.5-2.017 8.332-2.017 5.846 0 10.281 2.33 10.281 9.357 0 13.928-31.429 2.131-31.429 22.211 0 10.87 6.239 14.798 16.297 14.798 6.891 0 11.961-2.33 16.298-7.551 1.678 5.097 6.658 7.551 11.74 7.551 11.742 0 15.749-3.3 15.749-13.932v-5.859h-5.804M275.496 31.268v8.179h.214c4.639-6.799 9.619-9.766 18.198-9.766 12.047 0 16.065 7.008 16.065 18.088v20.193c0 2.992.729 4.586 3.808 4.586h4.032v8.501h-31.429v-8.501h2.232c3.054 0 3.793-1.594 3.793-4.586V49.67c0-6.152-.938-10.423-8.126-10.423-4.883 0-7.941 4.585-7.941 9.04v19.675c0 2.992.725 4.586 3.793 4.586h2.543v8.501h-31.953v-8.501h4.235c3.074 0 3.814-1.594 3.814-4.586V44.344c0-2.967-.739-4.559-3.814-4.559h-4.342v-8.518h24.878M345.01 72.756c-5.953 0-8.36-6.59-8.36-17.023 0-10.418 2.407-16.904 8.36-16.904 5.929 0 8.365 6.486 8.365 16.904 0 10.433-2.437 17.023-8.365 17.023m9.614 8.293h24.653v-8.501h-4.132c-3.065 0-3.803-1.594-3.803-4.586V8.726h-25.726v8.506h4.337c3.089 0 3.814 1.607 3.814 4.563v14.804l-.204.204c-2.228-4.679-8.16-7.122-14.507-7.122-15.973 0-20.754 13.489-20.754 26.49 0 12.962 4.781 26.476 20.754 26.476 6.779 0 12.279-2.872 15.348-9.368h.22v7.77M390.582 63.18c.83 6.28 8.451 10.959 14.379 10.959 3.076 0 9.001 0 9.001-4.679 0-8.939-32.803-3.523-32.803-22.986 0-12.752 13.12-16.793 23.703-16.793 5.584 0 11.519 1.702 16.405 4.449l1.254-3.185h7.303v15.957h-8.039c-1.065-3.07-2.961-5.098-5.404-6.59-2.419-1.484-5.287-2.13-8.344-2.13-2.443 0-8.152.537-8.152 4.161 0 9.143 32.801 2.234 32.801 22.976 0 12.855-11.745 17.326-22.647 17.326-6.555 0-13.126-.961-18.626-4.784l-1.572 3.595h-7.935V63.18h8.676M495.96 19.885h10.783c5.927 0 10.7 4.151 10.7 10.751 0 6.596-4.972 10.632-12.393 10.632h-9.091V19.885zm-19.9 47.535c0 2.673-1.483 4.251-4.117 4.251h-6.476v9.378h41.708v-9.378h-7.104c-2.638 0-4.111-1.578-4.111-4.251V50.626h11.647c19.442 0 29.711-5.54 29.711-20.1 0-14.569-10.269-20.01-27.604-20.01h-44.335v9.368h6.565c2.634 0 4.117 1.598 4.117 4.261V67.42"/><path d="M559.951 38.183c6.352 0 8.587 5.42 8.587 17.988 0 12.544-2.235 17.968-8.587 17.968-6.351 0-8.552-5.424-8.552-17.968 0-12.568 2.202-17.988 8.552-17.988m0-8.502c-15.749 0-27.291 9.463-27.291 26.49 0 17.003 11.542 26.476 27.291 26.476 15.784 0 27.298-9.473 27.298-26.476 0-17.027-11.514-26.49-27.298-26.49M599.214 63.18c.868 6.28 8.463 10.959 14.396 10.959 3.086 0 9 0 9-4.679 0-8.939-32.808-3.523-32.808-22.986 0-12.752 13.111-16.793 23.699-16.793 5.609 0 11.542 1.702 16.391 4.449l1.284-3.185h7.292v15.957h-8.043c-1.056-3.07-2.968-5.098-5.382-6.59-2.434-1.484-5.296-2.13-8.348-2.13-2.458 0-8.162.537-8.162 4.161 0 9.143 32.792 2.234 32.792 22.976 0 12.855-11.736 17.326-22.639 17.326-6.55 0-13.11-.961-18.604-4.784l-1.604 3.595h-7.944V63.18h8.68M665.217 11.492v19.775h12.99v8.518h-12.99v29.247c0 2.241 1.154 4.042 3.584 4.042 4.026 0 5.087-2.867 5.087-7.754v-8.317h8.472v9.471c0 10.419-5.102 16.173-17.77 16.173-10.916 0-16.934-5.321-16.934-16.173V39.785h-7.088v-8.518c10.567 0 13.315-10.944 14.155-19.775h10.494M702.523 50.088v-2.742c0-5.44 2.852-9.163 8.02-9.163 5.087 0 7.944 3.723 7.944 9.163v2.742h-15.964zm34.663 8.516c0-16.579-9.61-28.924-26.844-28.924-15.121 0-26.754 9.984-26.754 26.49 0 16.377 8.646 26.476 26.754 26.476 11.409 0 23.798-5.531 25.495-18.293h-12.274c-.946 6.271-6.975 9.144-10.672 9.144-8.899 0-10.577-7.451-10.577-14.893h34.872"/><path d="M760.322 31.268v8.179h.225c4.643-6.799 9.598-9.766 18.168-9.766 12.096 0 16.086 7.008 16.086 18.088v20.193c0 2.992.758 4.586 3.833 4.586h4.023v8.501h-31.428v-8.501h2.195c3.09 0 3.827-1.594 3.827-4.586V49.67c0-6.152-.936-10.423-8.143-10.423-4.879 0-7.944 4.585-7.944 9.04v19.675c0 2.992.746 4.586 3.812 4.586h2.553v8.501h-31.95v-8.501h4.23c3.052 0 3.804-1.594 3.804-4.586V44.344c0-2.967-.752-4.559-3.804-4.559h-4.325v-8.518h24.838"/></svg>