<?xml version="1.0" encoding="UTF-8"?>
<svg width="430px" height="81px" viewBox="0 0 430 81" version="1.1" xmlns="http://www.w3.org/2000/svg" xmlns:xlink="http://www.w3.org/1999/xlink">
    <!-- Generator: Sketch 63.1 (92452) - https://sketch.com -->
    <title>Artboard</title>
    <desc>Created with Sketch.</desc>
    <defs>
        <polygon id="path-1" points="0.123781132 0.211445652 425.654377 0.211445652 425.654377 48.7470109 0.123781132 48.7470109"></polygon>
        <polygon id="path-3" points="0.123781132 0.211445652 425.654377 0.211445652 425.654377 48.7470109 0.123781132 48.7470109"></polygon>
    </defs>
    <g id="Artboard" stroke="none" stroke-width="1" fill="none" fill-rule="evenodd">
        <g id="Group-2" transform="translate(-30.000000, 1.000000)">
            <g id="politiken">
                <g transform="translate(32.000000, 18.000000)">
                    <g id="g292" transform="translate(213.000000, 24.500000) scale(-1, 1) rotate(-180.000000) translate(-213.000000, -24.500000) translate(0.000000, 0.000000)">
                        <g id="g294-Clipped">
                            <mask id="mask-2" fill="white">
                                <use xlink:href="#path-1"></use>
                            </mask>
                            <g id="path298"></g>
                            <g id="g294" mask="url(#mask-2)">
                                <g transform="translate(-0.535849, 0.000000)">
                                    <g id="g300" transform="translate(0.443147, 1.048707)">
                                        <path d="M30.5433962,17.0434783 L20.2283019,17.0434783 L20.2283019,11.174663 C20.2283019,10.2766848 20.6409057,9.37923913 22.2227321,9.37923913 L29.8559019,9.37923913 L29.8559019,0.472956522 L0.217018868,0.472956522 L0.217018868,9.37923913 L4.41164528,9.37923913 C5.9934717,9.37923913 6.40607547,10.2766848 6.40607547,11.174663 L6.40607547,35.8232609 C6.40607547,36.7207065 5.9934717,37.6181522 4.41164528,37.6181522 L0.217018868,37.6181522 L0.217018868,46.5244348 L31.1623019,46.5244348 C41.4088075,46.5244348 48.4916604,40.4489674 48.4916604,31.6113913 C48.4916604,22.3594457 41.9591245,17.0434783 30.5433962,17.0434783 M28.4117887,37.6181522 L20.2283019,37.6181522 L20.2283019,25.7425761 L28.2054868,25.7425761 C32.0560981,25.7425761 34.6008453,28.0210761 34.6008453,31.5421522 C34.6008453,34.9252826 32.0560981,37.6181522 28.4117887,37.6181522" id="path302" fill="#000000" fill-rule="nonzero"></path>
                                    </g>
                                    <g id="g304" transform="translate(50.334445, 0.209848)">
                                        <path d="M24.1132075,0 C6.71472453,0 0.113064151,9.45859783 0.113064151,24.9937283 C0.113064151,37.0759565 7.05873962,48.537163 23.7006038,48.537163 C39.5172604,48.537163 48.1128151,40.459087 48.1128151,24.7865435 C48.1128151,9.18270652 39.241834,0 24.1132075,0 M24.1132075,39.7688261 C16.2046113,39.7688261 14.8296226,33.8313043 14.8296226,23.7506196 C14.8296226,15.6730761 16.0668981,9.3898913 24.1132075,9.3898913 C31.3337736,9.3898913 33.3967925,15.0509891 33.3967925,23.681913 C33.3967925,34.1764348 31.7463774,39.7688261 24.1132075,39.7688261" id="path306" fill="#000000" fill-rule="nonzero"></path>
                                    </g>
                                </g>
                            </g>
                        </g>
                    </g>
                    <g id="g308" transform="translate(121.000000, 24.500000) scale(-1, 1) rotate(-180.000000) translate(-121.000000, -24.500000) translate(99.000000, 1.000000)" fill="#000000" fill-rule="nonzero">
                        <path d="M0,0 L0,9.03372414 L4.14978313,9.03372414 C5.7146988,9.03372414 6.12289157,9.94401149 6.12289157,10.8548391 L6.12289157,35.8561379 C6.12289157,36.7664253 5.7146988,37.6767126 4.14978313,37.6767126 L0,37.6767126 L0,46.7104368 L27.4167711,46.7104368 L27.4167711,37.6767126 L21.9061687,37.6767126 C20.3417831,37.6767126 19.9335904,36.7664253 19.9335904,35.8561379 L19.9335904,12.1157356 C19.9335904,10.224931 20.8856867,9.03372414 24.4237108,9.03372414 C30.2746506,9.03372414 33.88,10.224931 34.1524819,17.0177816 L34.2881928,20.5892414 L43.7444819,20.5892414 L43.7444819,0 L0,0" id="path310"></path>
                    </g>
                    <g id="g312" transform="translate(160.000000, 24.500000) scale(-1, 1) rotate(-180.000000) translate(-160.000000, -24.500000) translate(146.000000, 1.000000)" fill="#000000" fill-rule="nonzero">
                        <path d="M0,0 L0,9.03372414 L4.90646154,9.03372414 C6.496,9.03372414 6.91061538,9.94401149 6.91061538,10.8548391 L6.91061538,35.8561379 C6.91061538,36.7664253 6.496,37.6767126 4.90646154,37.6767126 L0,37.6767126 L0,46.7104368 L27.9870769,46.7104368 L27.9870769,37.6767126 L23.0806154,37.6767126 C21.4916154,37.6767126 21.077,36.7664253 21.077,35.8561379 L21.077,10.8548391 C21.077,9.94401149 21.4916154,9.03372414 23.0806154,9.03372414 L27.9870769,9.03372414 L27.9870769,0 L0,0" id="path314"></path>
                    </g>
                    <g id="g316" transform="translate(200.500000, 24.500000) scale(-1, 1) rotate(-180.000000) translate(-200.500000, -24.500000) translate(176.000000, 1.000000)" fill="#000000" fill-rule="nonzero">
                        <path d="M38.7692308,25.9310345 L38.7692308,34.545 C38.7692308,36.2953448 37.7326923,37.7663908 35.6596154,37.7663908 L31.3750769,37.7663908 L31.3750769,10.9445172 C31.3750769,10.0336897 31.7902308,9.1234023 33.3792308,9.1234023 L38.9770769,9.1234023 L38.9770769,0.0896781609 L9.74615385,0.0896781609 L9.74615385,9.1234023 L15.3434615,9.1234023 C16.933,9.1234023 17.3476154,10.0336897 17.3476154,10.9445172 L17.3476154,37.7663908 L13.0630769,37.7663908 C10.9210769,37.7663908 9.95346154,36.2953448 9.95346154,34.545 L9.95346154,25.9310345 L0.140538462,25.9310345 L0.140538462,46.8001149 L48.5821538,46.8001149 L48.5821538,25.9310345 L38.7692308,25.9310345" id="path318"></path>
                    </g>
                    <g id="g320" transform="translate(242.000000, 24.500000) scale(-1, 1) rotate(-180.000000) translate(-242.000000, -24.500000) translate(228.000000, 1.000000)" fill="#000000" fill-rule="nonzero">
                        <path d="M0,0 L0,9.03372414 L4.90646154,9.03372414 C6.496,9.03372414 6.91061538,9.94401149 6.91061538,10.8548391 L6.91061538,35.8561379 C6.91061538,36.7664253 6.496,37.6767126 4.90646154,37.6767126 L0,37.6767126 L0,46.7104368 L27.9865385,46.7104368 L27.9865385,37.6767126 L23.0806154,37.6767126 C21.4910769,37.6767126 21.077,36.7664253 21.077,35.8561379 L21.077,10.8548391 C21.077,9.94401149 21.4910769,9.03372414 23.0806154,9.03372414 L27.9865385,9.03372414 L27.9865385,0 L0,0" id="path322"></path>
                    </g>
                    <g id="g324" transform="translate(287.500000, 24.500000) scale(-1, 1) rotate(-180.000000) translate(-287.500000, -24.500000) translate(259.000000, 1.000000)" fill="#000000" fill-rule="nonzero">
                        <path d="M29.5754717,0 L29.5754717,9.03372414 L31.7844906,9.03372414 C33.3030566,9.03372414 33.440717,10.5047701 32.8879245,11.3448276 L26.8846415,20.3088621 L20.3973962,14.8465977 L20.3973962,10.8548391 C20.3973962,9.94401149 20.8119906,9.03372414 22.3988491,9.03372414 L25.2284151,9.03372414 L25.2284151,0 L0.17745283,0 L0.17745283,9.03372414 L4.38738679,9.03372414 C5.97478302,9.03372414 6.38883962,9.94401149 6.38883962,10.8548391 L6.38883962,35.8561379 C6.38883962,36.7664253 5.97478302,37.6767126 4.38738679,37.6767126 L0.17745283,37.6767126 L0.17745283,46.7104368 L25.2284151,46.7104368 L25.2284151,37.6767126 L22.3988491,37.6767126 C20.8119906,37.6767126 20.3973962,36.7664253 20.3973962,35.8561379 L20.3973962,24.4410805 L33.7859434,35.7156782 C34.5441509,36.3461264 34.4758585,37.6767126 33.0266604,37.6767126 L29.5754717,37.6767126 L29.5754717,46.7104368 L55.1792264,46.7104368 L55.1792264,37.6767126 L51.1069528,37.6767126 C49.4507264,37.6767126 47.2422453,37.0462644 45.6553868,35.7156782 L37.9259717,29.2728966 L50.4170377,10.925069 C51.1763208,9.87432184 52.7631792,9.03372414 54.1435472,9.03372414 L56.5590566,9.03372414 L56.5590566,0 L29.5754717,0" id="path326"></path>
                    </g>
                    <g id="g328" transform="translate(213.000000, 24.500000) scale(-1, 1) rotate(-180.000000) translate(-213.000000, -24.500000) translate(0.000000, 0.000000)">
                        <g id="g330-Clipped">
                            <mask id="mask-4" fill="white">
                                <use xlink:href="#path-3"></use>
                            </mask>
                            <g id="path334"></g>
                            <g id="g330" mask="url(#mask-4)">
                                <g transform="translate(318.294340, 1.065217)">
                                    <g id="g336" transform="translate(0.359555, 0.456499)">
                                        <path d="M-4.75929568e-16,0 L-4.75929568e-16,8.90628261 L4.19462642,8.90628261 C5.77591698,8.90628261 6.18852075,9.80372826 6.18852075,10.7017065 L6.18852075,35.3503043 C6.18852075,36.24775 5.77591698,37.1451957 4.19462642,37.1451957 L-4.75929568e-16,37.1451957 L-4.75929568e-16,46.0514783 L47.1054189,46.0514783 L47.1054189,28.1696739 L38.1658491,28.1696739 L37.8223698,33.8307717 C37.7532453,35.48825 37.0657509,37.1451957 34.3152377,37.1451957 L20.1489962,37.1451957 L20.1489962,27.0650435 L24.0001434,27.0650435 C25.2374189,27.0650435 25.6494868,27.8937826 25.7877358,28.9291739 L26.1312151,31.9666413 L32.6648226,31.9666413 L32.6648226,15.4658913 L26.1312151,15.4658913 L25.7877358,18.1582283 C25.6494868,19.0556739 25.2374189,19.8151739 24.0681962,19.8151739 L20.1489962,19.8151739 L20.1489962,11.5304457 C20.1489962,9.66631522 21.1113811,8.90628261 22.8298491,8.90628261 L32.5265736,8.90628261 C36.3091321,8.90628261 38.0286717,10.8401848 38.1658491,13.9468913 L38.4407396,19.7464674 L47.9311623,19.7464674 L47.9311623,0 L-4.75929568e-16,0" id="path338" fill="#000000" fill-rule="nonzero"></path>
                                    </g>
                                    <g id="g340" transform="translate(51.189125, 0.319033)">
                                        <path d="M51.9773585,37.2826087 C50.3960679,37.2826087 49.9834642,36.385163 49.9834642,35.4877174 L49.9834642,0.137413043 L38.7054491,0.137413043 L17.3186415,26.6501413 L17.3186415,10.8391196 C17.3186415,9.9411413 17.7307094,9.04369565 19.3125358,9.04369565 L23.508234,9.04369565 L23.508234,0.137413043 L0.332762264,0.137413043 L0.332762264,9.04369565 L4.52738868,9.04369565 C6.10975094,9.04369565 6.52181887,9.9411413 6.52181887,10.8391196 L6.52181887,35.4877174 C6.52181887,36.385163 6.10975094,37.2826087 4.52738868,37.2826087 L0.332762264,37.2826087 L0.332762264,46.1888913 L19.7937283,46.1888913 L39.1871774,21.6787717 L39.1871774,35.4877174 C39.1871774,36.385163 38.7735019,37.2826087 37.1922113,37.2826087 L32.9975849,37.2826087 L32.9975849,46.1888913 L56.1719849,46.1888913 L56.1719849,37.2826087 L51.9773585,37.2826087" id="path342" fill="#000000" fill-rule="nonzero"></path>
                                    </g>
                                </g>
                            </g>
                        </g>
                    </g>
                </g>
            </g>
        </g>
    </g>
</svg>