<?xml version="1.0" standalone="no"?>
<!DOCTYPE svg PUBLIC "-//W3C//DTD SVG 20010904//EN"
 "http://www.w3.org/TR/2001/REC-SVG-20010904/DTD/svg10.dtd">
<svg version="1.0" xmlns="http://www.w3.org/2000/svg"
 width="207.000000pt" height="241.000000pt" viewBox="0 0 207.000000 241.000000"
 preserveAspectRatio="xMidYMid meet">
<metadata>
Created by potrace 1.15, written by Peter Selinger 2001-2017
</metadata>
<g transform="translate(0.000000,241.000000) scale(0.100000,-0.100000)"
fill="#000000" stroke="none">
<path d="M316 1318 c-93 -282 -171 -519 -173 -525 -4 -10 24 -13 120 -13 l126
0 65 203 c35 111 89 279 119 372 l54 170 57 -174 c31 -96 56 -178 56 -183 0
-4 -33 -8 -73 -8 l-74 0 -30 -105 c-17 -57 -28 -107 -25 -110 3 -3 67 -5 142
-5 l136 0 25 -77 25 -78 127 -3 c70 -1 127 1 127 5 0 4 -77 240 -172 525
l-172 518 -146 0 -146 0 -168 -512z"/>
<path d="M1160 1305 l0 -526 123 3 122 3 3 418 2 417 83 0 c134 0 197 -49 197
-154 0 -90 -45 -140 -140 -153 l-55 -8 -3 -103 -3 -102 64 0 c125 0 257 55
318 132 67 84 91 194 69 312 -23 123 -96 209 -217 257 -54 22 -75 24 -310 27
l-253 4 0 -527z"/>
<path d="M10 125 l0 -125 1030 0 1030 0 0 125 0 125 -1030 0 -1030 0 0 -125z"/>
</g>
</svg>
