<?xml version="1.0" encoding="UTF-8"?>
<svg width="245px" height="162px" viewBox="0 0 245 162" version="1.1" xmlns="http://www.w3.org/2000/svg" xmlns:xlink="http://www.w3.org/1999/xlink">
    <!-- Generator: Sketch 50 (54983) - http://www.bohemiancoding.com/sketch -->
    <title>folketinget-vertical-color@1x</title>
    <desc>Created with Sketch.</desc>
    <defs></defs>
    <g id="folketinget-vertical-color" stroke="none" stroke-width="1" fill="none" fill-rule="evenodd" transform="translate(37.94981,0.23981786)">
        <g id="Group-3" fill="#A6192E">
            <g id="Group-4" transform="translate(30.000000, 0.000000)">
                <g id="Group-2" transform="translate(0.202247, 0.000000)">
                    <path d="M38.6066517,82.2646292 C37.9774382,81.8273258 36.240809,80.5173034 35.2038652,79.0210337 C34.1411236,77.4870112 32.5951461,75.3445393 32.5951461,75.3445393 C33.5339326,73.109573 31.9193708,71.0495281 29.8555506,72.2374831 C30.6804494,72.2720899 31.1605393,72.7930787 31.0051236,73.5248539 C30.107236,72.434427 28.3775281,72.8453034 28.0906067,74.152809 C28.7405843,73.7721348 29.9675506,73.9546067 29.986427,74.7713258 C28.5524494,74.3094831 27.5243146,75.4168989 27.7797753,76.4469213 C28.3800449,75.803236 29.6542022,75.7044494 30.481618,77.4423371 C31.3537079,79.275236 33.075236,82.4433258 33.9825618,83.693573 C35.029573,85.1369888 36.9486742,86.1582022 37.3834607,86.3740225 C37.6269663,84.8657978 37.9805843,83.4324494 38.6066517,82.2646292" id="Fill-16"></path>
                    <path d="M32.0609438,58.7968539 C32.4321798,57.0476404 33.2570787,54.7654831 34.2915056,53.1779775 C33.5188315,52.7928989 31.3524494,51.8811685 29.839191,50.408809 C27.6035955,48.2323596 25.0974382,44.6924045 25.0974382,44.6924045 C26.0129438,41.3758202 23.3318652,39.2333483 20.7118202,40.9177528 C21.748764,40.9303371 22.585618,41.4897079 22.5063371,42.4876404 C21.1371685,41.4689438 19.0242697,41.952809 18.453573,43.7089438 C19.523236,43.3037303 20.7262921,43.3295281 21.0547416,44.3104719 C19.0028764,44.1858876 18.2968989,45.7891236 18.5819326,46.8732584 C19.5641348,46.005573 21.6581573,46.1748315 22.2036854,47.2577079 C23.6194157,50.0690337 27.039191,55.1719551 27.7520899,55.9421124 C29.4465618,57.7718652 32.0609438,58.7968539 32.0609438,58.7968539" id="Fill-17"></path>
                    <path d="M12.5622472,57.2710112 C15.4578876,56.4253483 17.1039101,53.9405843 17.1039101,52.0812584 C17.1039101,50.7208989 16.2274157,50.0275056 15.2452135,50.0275056 C13.0901573,50.0275056 14.0975281,52.7601798 12.5622472,52.7601798 C11.0269663,52.7601798 12.0343371,50.0275056 9.87739326,50.0275056 C8.89707865,50.0275056 8.02121348,50.7208989 8.02121348,52.0812584 C8.02121348,53.9405843 9.66534831,56.4253483 12.5622472,57.2710112" id="Fill-18"></path>
                    <path d="M22.874427,84.5744719 C25.7713258,83.7281798 27.4160899,81.2440449 27.4160899,79.3840899 C27.4160899,78.0243596 26.5395955,77.3309663 25.5580225,77.3309663 C23.4035955,77.3309663 24.4097079,80.0636404 22.874427,80.0636404 C21.3397753,80.0636404 22.3471461,77.3309663 20.1914607,77.3309663 C19.2092584,77.3309663 18.3333933,78.0243596 18.3333933,79.3840899 C18.3333933,81.2440449 19.9775281,83.7281798 22.874427,84.5744719" id="Fill-19"></path>
                    <path d="M22.874427,29.3276404 C25.7713258,28.4813483 27.4160899,25.9972135 27.4160899,24.1372584 C27.4160899,22.7775281 26.5395955,22.0835056 25.5580225,22.0835056 C23.4035955,22.0835056 24.4097079,24.8161798 22.874427,24.8161798 C21.3397753,24.8161798 22.3471461,22.0835056 20.1914607,22.0835056 C19.2092584,22.0835056 18.3333933,22.7775281 18.3333933,24.1372584 C18.3333933,25.9972135 19.9775281,28.4813483 22.874427,29.3276404" id="Fill-20"></path>
                    <path d="M38.1353708,20.8011685 C39.7713258,20.8011685 41.3324045,19.747236 42.2189663,20.8477303 C42.2082697,20.0171685 41.6363146,19.7491236 40.8661573,19.7094831 C39.4183371,19.6346067 37.4665169,20.4142022 36.8234607,18.2327191 C36.8234607,18.2327191 35.8217528,19.0022472 36.2999551,20.0121348 C36.5875056,20.6186966 37.3614382,20.8011685 38.1353708,20.8011685" id="Fill-21"></path>
                    <path d="M37.9289888,79.0141124 C39.6530337,79.0141124 40.8441348,77.9035506 41.7778876,79.063191 C41.7665618,78.1879551 41.1637753,77.9054382 40.3520899,77.8632809 C38.825618,77.7846292 37.2242697,78.606382 36.5466067,76.307236 C36.5466067,76.307236 35.4907865,77.1182921 35.9947865,78.1822921 C36.2974382,78.821573 37.1135281,79.0141124 37.9289888,79.0141124" id="Fill-22"></path>
                    <path d="M97.1077753,50.0275056 C94.9520899,50.0275056 95.9594607,52.7601798 94.4241798,52.7601798 C92.8895281,52.7601798 93.8968989,50.0275056 91.7412135,50.0275056 C90.7590112,50.0275056 89.8831461,50.7208989 89.8831461,52.0812584 C89.8831461,53.9412135 91.5272809,56.4253483 94.4241798,57.2710112 C97.3217079,56.4253483 98.9658427,53.9412135 98.9658427,52.0812584 C98.9658427,50.7208989 98.0899775,50.0275056 97.1077753,50.0275056" id="Fill-23"></path>
                    <path d="M53.6542921,42.9847191 C52.1190112,42.9847191 53.126382,40.2526742 50.968809,40.2526742 C49.9884944,40.2526742 49.1126292,40.9460674 49.1126292,42.306427 C49.1126292,44.1657528 50.7586517,46.6498876 53.6542921,47.4961798 C56.551191,46.6498876 58.1953258,44.1657528 58.1953258,42.306427 C58.1953258,40.9460674 57.3194607,40.2526742 56.3372584,40.2526742 C54.1828315,40.2526742 55.1889438,42.9847191 53.6542921,42.9847191" id="Fill-24"></path>
                    <path d="M53.6542921,15.4761348 C56.551191,14.6298427 58.1953258,12.1457079 58.1953258,10.286382 C58.1953258,8.92602247 57.3194607,8.232 56.3372584,8.232 C54.1828315,8.232 55.1889438,10.9653034 53.6542921,10.9653034 C52.1190112,10.9653034 53.126382,8.232 50.968809,8.232 C49.9884944,8.232 49.1126292,8.92602247 49.1126292,10.286382 C49.1126292,12.1457079 50.7586517,14.6298427 53.6542921,15.4761348" id="Fill-25"></path>
                    <path d="M53.6542921,70.3234157 C52.1190112,70.3234157 53.126382,67.5907416 50.968809,67.5907416 C49.9884944,67.5907416 49.1126292,68.284764 49.1126292,69.6444944 C49.1126292,71.5044494 50.7586517,73.9885843 53.6542921,74.8348764 C56.551191,73.9885843 58.1953258,71.5044494 58.1953258,69.6444944 C58.1953258,68.284764 57.3194607,67.5907416 56.3372584,67.5907416 C54.1828315,67.5907416 55.1889438,70.3234157 53.6542921,70.3234157" id="Fill-26"></path>
                    <path d="M86.4243596,77.3303371 C84.2686742,77.3303371 85.2760449,80.0636404 83.740764,80.0636404 C82.2054831,80.0636404 83.2115955,77.3303371 81.0559101,77.3303371 C80.0755955,77.3303371 79.1978427,78.0243596 79.1978427,79.3840899 C79.1978427,81.2440449 80.8438652,83.7281798 83.740764,84.5744719 C86.6376629,83.7281798 88.282427,81.2440449 88.282427,79.3840899 C88.282427,78.0243596 87.4059326,77.3303371 86.4243596,77.3303371" id="Fill-27"></path>
                    <path d="M83.740764,29.3276404 C86.6376629,28.4813483 88.282427,25.9965843 88.282427,24.1372584 C88.282427,22.7775281 87.4059326,22.0835056 86.4243596,22.0835056 C84.2686742,22.0835056 85.2760449,24.8161798 83.740764,24.8161798 C82.2054831,24.8161798 83.2115955,22.0835056 81.0559101,22.0835056 C80.0755955,22.0835056 79.1978427,22.7775281 79.1978427,24.1372584 C79.1978427,25.9965843 80.8438652,28.4813483 83.740764,29.3276404" id="Fill-28"></path>
                    <polyline id="Fill-29" points="46.9714157 15.2194157 48.2147416 12.88 46.0389213 13.7225169 44.6030562 12.0349663 43.1665618 13.7225169 40.9907416 12.88 42.2334382 15.2194157 46.9714157 15.2194157"></polyline>
                    <path d="M60.0106067,93.7188315 C60.4403596,93.416809 64.4666966,90.1631461 64.4666966,90.1631461 C63.1352809,89.2130337 63.1057079,86.6577978 63.8248989,85.520809 C63.5606292,85.1262921 63.1164045,84.5751011 62.6696629,84.5751011 C61.8648989,84.5751011 60.6152809,85.8259775 60.6152809,85.8259775 L60.3824719,84.7814831 C60.1723146,84.9614382 59.7004045,85.4339775 59.212764,85.8492584 C58.6181573,86.3551461 58.0342472,86.7716854 58.0342472,86.7716854 C58.0524944,88.1408539 58.3425618,89.4508764 60.1848989,90.0737978 L57.9386067,92.3502921 C56.9708764,92.1923596 56.0673258,92.615191 55.5570337,93.0701124 C54.8189663,93.7270112 54.8252584,94.9067865 55.6186966,95.6228315 C55.504809,95.1106517 55.7457978,94.265618 56.5411236,94.1422921 C56.0761348,95.4762247 56.7814831,96.4162697 58.1437303,96.2577079 C57.5673708,95.6926742 57.4478202,94.8061124 58.1361798,94.3656629 C58.1185618,95.5511011 59.4613034,96.1287191 60.5643146,95.2805393 C59.5084944,94.9401348 59.5078652,94.1108315 60.0106067,93.7188315" id="Fill-30"></path>
                    <polyline id="Fill-31" points="46.7681798 73.2026966 48.0926742 70.7084944 45.7740225 71.6076404 44.2431461 69.8087191 42.7122697 71.6076404 40.3929888 70.7084944 41.7181124 73.2026966 46.7681798 73.2026966"></polyline>
                    <path d="M30.4117753,47.7604494 C30.8100674,48.5482247 31.8835056,48.7854382 32.957573,48.7854382 C35.2271461,48.7854382 37.3941573,47.4162697 38.6236404,48.8458427 C38.6091685,47.7667416 37.8157303,47.4181573 36.7466966,47.367191 C34.737618,47.2702921 32.0294831,48.2826966 31.1378876,45.4487191 C31.1378876,45.4487191 29.7479551,46.4485393 30.4117753,47.7604494" id="Fill-32"></path>
                    <polyline id="Fill-33" points="41.8508764 36.8605843 39.9116404 38.9942472 36.9751011 37.9283596 38.6525843 40.8856629 45.0485393 40.8856629 46.7260225 37.9283596 43.7894831 38.9942472 41.8508764 36.8605843"></polyline>
                    <path d="M57.9505618,60.3201798 C56.6877303,61.1652135 56.5971236,63.0981573 58.0688539,64.3660225 C57.8354157,63.4612135 57.8586966,62.1014831 59.0428764,62.0763146 C58.0090787,63.5021124 59.4229213,65.2267865 61.4414382,65.2551011 C60.7084045,64.3786067 60.2377528,63.1453483 61.3269213,62.6671461 C61.0739775,64.2842247 63.3882247,65.3148764 65.1607191,64.3534382 C63.5090337,63.6204045 63.3548764,62.5545169 64.1929888,62.2814382 C65.0657079,61.9970337 65.5898427,61.944809 67.1685393,61.5339326 C69.4299326,60.9449888 71.8649888,60.4523146 71.8649888,60.4523146 C70.3240449,59.2505169 68.9416629,57.5629663 69.7898427,55.7155955 C69.3877753,55.1706966 68.0242697,53.712809 67.415191,53.712809 C66.3379775,53.712809 64.7385169,55.5557753 64.7385169,55.5557753 L64.3729438,54.0739775 C63.353618,54.4471011 61.8982472,55.643236 61.3212584,56.3215281 C61.116764,57.9499326 63.5914607,58.6162697 64.6365843,59.0951011 L61.6408989,60.0691236 C60.4051236,59.6689438 58.7842697,59.7620674 57.9505618,60.3201798" id="Fill-34"></path>
                    <path d="M39.6492584,43.9820225 C39.1333034,43.9820225 38.8413483,43.6523146 38.8413483,42.9192809 L41.6457528,42.9192809 C41.6457528,42.9192809 40.4773034,43.9820225 39.6492584,43.9820225 Z M90.0788315,61.0714607 C90.0788315,61.0714607 88.9764494,60.4491685 87.1605393,58.5231461 C85.2489888,56.495191 84.4970787,54.2696629 84.4970787,54.2696629 C80.8589663,54.3596404 78.5654831,51.0921348 77.2938427,49.6493483 L77.3114607,49.6506067 C78.352809,49.766382 80.2668764,49.8267865 81.1276404,49.8267865 C84.2818876,49.8267865 86.2997753,48.2619326 86.2997753,45.7954157 C86.2997753,43.2873708 84.2428764,41.9005843 80.7507416,41.9005843 C73.5714157,41.9005843 72.7005843,42.7695281 66.1976629,42.7695281 C64.5170337,42.7695281 63.6430562,41.7439101 63.6430562,40.4848539 C63.6430562,39.2251685 64.8404494,38.3134382 66.4902472,38.3134382 C71.0262472,38.3134382 73.3631461,39.4013483 78.5220674,39.4013483 C82.8774831,39.4013483 84.8337079,38.9451685 87.5047191,37.0965393 C90.2537528,35.1937978 91.1214382,33.7528989 90.7678202,33.3130787 C90.4129438,32.8732584 88.863191,33.3030112 86.3683596,34.7804045 C83.2008989,36.6554607 82.5244944,37.4765843 78.7970337,37.4765843 C74.3824719,37.4765843 71.8108764,36.2389213 66.2637303,36.2389213 C63.3020225,36.2389213 61.0242697,37.9164045 61.0242697,40.5804944 C61.0242697,43.0721798 62.9886742,44.876764 66.1970337,44.876764 C72.6590562,44.876764 73.8872809,43.9662921 80.8507865,43.9662921 C82.8177079,43.9662921 83.7741124,44.8792809 83.7741124,45.9313258 C83.7741124,46.8814382 83.0297528,47.7988315 81.0559101,47.7988315 C77.0044045,47.7988315 74.5139775,46.8480899 70.6776629,46.8342472 L70.6745169,46.8329888 C70.6644494,46.8329888 70.6537528,46.833618 70.6430562,46.833618 C70.6273258,46.833618 70.6128539,46.8329888 70.5958652,46.8329888 L70.6002697,46.8348764 C62.466427,46.8707416 54.5666517,52.7173933 48.2304719,52.7859775 C48.2304719,52.7859775 48.5350112,51.3998202 48.3405843,49.7305169 C47.4810787,48.9219775 46.2459326,48.3097528 44.6609438,47.9353708 C45.7381573,47.6490787 47.0506966,47.7761798 48.0876404,48.1436404 C48.0360449,47.694382 47.9303371,47.1866067 47.8246292,46.9336629 C46.842427,46.1182022 45.5865169,45.731236 44.1770787,45.4858427 C45.0107865,45.2454831 46.3774382,45.1718652 47.5408539,45.4493483 C47.3476854,43.9625169 45.9942472,42.4045843 45.0906966,41.9742022 L38.734382,41.9653933 C38.734382,41.9653933 35.3775281,42.4574382 35.017618,42.9897528 C34.7533483,43.3804944 35.1610787,45.3549663 36.0149213,46.1282697 C37.0493483,45.4587865 37.9686292,45.2769438 38.5361798,45.2769438 C39.3963146,45.2769438 39.7404944,46.0515056 39.7404944,47.1595506 C39.7404944,48.2669663 38.9653034,49.9916404 37.9182921,49.9916404 C36.7806742,49.9916404 35.9822022,49.6650787 35.3806742,49.2435056 C34.5878652,50.1181124 34.6677753,51.6068315 35.1220674,51.744 C35.4228315,51.8390112 36.6749663,51.8692135 37.511191,51.4665169 C35.4064719,53.4762247 34.0498876,57.0130337 33.5666517,60.4082697 C33.5666517,60.4082697 26.4647191,63.0151011 21.327191,63.0025169 C19.7340225,60.527191 16.1512809,60.6310112 14.9973034,63.1799551 C15.7800449,62.6218427 16.9969438,62.5771685 17.5607191,63.3668315 C15.2332584,63.3662022 14.1528989,65.5508315 15.6208539,66.9420225 C15.4755056,66.088809 16.8666966,65.0449438 17.9212584,65.4809888 C16.4973483,66.3386067 16.8843146,68.5169438 18.9179326,69.2059326 C18.4825169,67.9028315 19.2482697,66.7941573 20.9370787,66.64 C26.6578876,67.403236 37.764764,66.6708315 43.2150112,65.6628315 L45.4065618,63.6285843 C57.3553258,61.243236 60.8568989,51.9447191 66.6349663,51.9447191 C68.6711011,51.9447191 70.0333483,53.901573 71.8454831,55.5803146 C73.0359551,56.6826966 74.6234607,57.594427 75.9976629,57.8284944 C77.8563596,58.1449888 79.9893933,57.9398652 81.3774382,57.7605393 L84.7424719,61.0129438 C83.292764,61.4345169 82.8145618,62.5570337 82.8737079,63.5486742 C82.9429213,64.7133483 83.8810787,65.7043596 85.2477303,66.0076404 C84.8248989,65.3664719 84.5675506,64.0117753 85.6529438,63.4756854 C85.6617528,65.5011236 87.3310562,66.5437303 89.2155506,65.696809 C88.0961798,65.1972135 87.4713708,64.0501573 88.2396404,63.1333933 C88.8191461,64.7498427 91.0220225,65.2922247 92.1810337,63.6298427 C89.5716854,63.1220674 90.0788315,61.0714607 90.0788315,61.0714607 Z" id="Fill-35"></path>
                    <path d="M42.8274157,17.6551011 C42.4681348,17.6551011 42.2648989,17.4040449 42.2648989,16.8465618 L44.219236,16.8465618 C44.219236,16.8465618 43.4044045,17.6551011 42.8274157,17.6551011 Z M76.6457528,29.3729438 C76.6457528,29.3729438 75.8642697,28.9941573 74.7669213,27.543191 C73.6286742,26.0374831 73.2467416,24.622382 73.2467416,24.622382 C70.9054382,24.8677753 69.4802697,23.6124944 68.794427,22.2898876 C74.0206742,22.8819775 76.233618,21.1233258 76.233618,18.9462472 C76.233618,16.9900225 74.7719551,15.9763596 72.1682697,15.9763596 C68.5049888,15.9763596 66.8086292,17.1202697 62.4758652,17.1202697 C61.0613933,17.1202697 60.4963596,16.6735281 60.4963596,15.9530787 C60.4963596,15.2326292 61.0739775,14.7594607 62.0316404,14.7594607 C64.3282697,14.7594607 65.8673258,15.037573 67.4334382,14.9230562 C68.3734831,14.8544719 69.3235955,14.6443146 70.4536629,14.1484944 C72.4784719,13.4009888 73.5229663,12.0343371 73.2637303,11.5964045 C73.003236,11.1584719 71.5302472,11.5555056 69.7325843,12.6459326 C68.9813034,13.1021124 68.281618,13.3116404 67.5328539,13.3890337 C66.0812584,13.5400449 64.4490787,13.1958652 61.9127191,13.1958652 C60.4787416,13.1958652 58.6533933,13.8458427 58.6533933,15.9826517 C58.6533933,18.1188315 60.4793708,18.7581124 62.3305169,18.7581124 C67.0005393,18.7581124 68.311191,17.6242697 72.0222921,17.6242697 C73.0762247,17.6242697 74.3164045,17.8797303 74.3164045,18.9921798 C74.3164045,20.104 73.0737079,20.6457528 71.055191,20.6457528 C67.880809,20.6457528 67.2226517,20.0316404 64.176,20.0291236 L64.1715955,20.027236 C58.7358202,20.027236 53.2862022,23.7987416 49.2963596,24.0661573 C49.2963596,24.0661573 49.421573,23.1204494 49.2919551,21.6669663 C48.7193708,21.0918652 47.8963596,20.6558202 46.8405393,20.3896629 C47.5584719,20.1857978 48.4330787,20.2764045 49.1233258,20.5375281 C49.0887191,20.2178876 49.0188764,19.8573483 48.9484045,19.676764 C48.2940225,19.0966292 47.4571685,18.8216629 46.518382,18.6473708 C47.0739775,18.4755955 47.9838202,18.4233708 48.7596404,18.6209438 C48.6306517,17.563236 47.7289888,16.4539326 47.1268315,16.1481348 L42.1937978,16.1418427 C42.1937978,16.1418427 39.8015281,16.4916854 39.5617978,16.8704719 C39.385618,17.1485843 39.6574382,18.553618 40.2262472,19.1041798 C40.915236,18.627236 41.6835056,18.4982472 42.0616629,18.4982472 C42.6342472,18.4982472 42.8639101,19.0494382 42.8639101,19.8372135 C42.8639101,20.625618 42.5021124,21.6556404 41.8049438,21.6556404 C40.9706067,21.6556404 40.3596404,21.4234607 39.9588315,21.1239551 C39.4309213,21.745618 39.4837753,23.0380225 39.786427,23.1355506 C39.9871461,23.2028764 40.8051236,23.2708315 41.3619775,22.9845393 C39.9594607,24.4147416 39.0728989,27.2084494 38.7507416,29.624 C38.7507416,29.624 34.6973483,31.4474607 29.3276404,32.0741573 C28.1661124,30.3941573 25.8027865,30.602427 25.1383371,32.4491685 C25.6373034,32.023191 26.4452135,31.9470562 26.8510562,32.4875506 C25.3025618,32.5724944 24.7822022,34.1902022 25.7014831,35.0987865 C25.6467416,34.3179326 26.4552809,33.7050787 27.1744719,33.9762697 C26.2608539,34.637573 26.6044045,36.1709663 27.9842697,36.585618 C27.6350562,35.6556404 28.1346517,34.8093483 29.3081348,34.664 L29.3081348,34.6633708 C34.9993708,34.6948315 42.3926292,33.9328539 45.7280899,32.9594607 L47.1878652,31.5116404 C57.0035955,29.4346067 57.7995506,24.1599101 61.6503371,24.1599101 C63.0062921,24.1599101 63.7443596,25.0571685 64.9518202,26.2514157 C65.7446292,27.0360449 66.6230112,27.4041348 67.5485843,27.4922247 C68.6660674,27.5985618 70.1346517,27.3707865 71.0363146,27.2619326 L73.0963596,29.6088989 C72.1537978,29.9832809 71.8907865,30.8050337 71.9788764,31.5059775 C72.0814382,32.3283596 72.7521798,32.9827416 73.6758652,33.1268315 C73.3631461,32.6939326 73.1265618,31.7463371 73.8212135,31.3090337 C73.9256629,32.7461573 75.0859326,33.3986517 76.2971685,32.6995955 C75.5282697,32.4038652 75.057618,31.622382 75.523236,30.9315056 C75.9875955,32.0483596 77.477573,32.3189213 78.1665618,31.0787416 C76.4079101,30.8541124 76.6457528,29.3729438 76.6457528,29.3729438 Z" id="Fill-36"></path>
                    <path d="M42.2900674,75.6320899 C41.9219775,75.6320899 41.7137079,75.3804045 41.7137079,74.8216629 L43.715236,74.8216629 C43.715236,74.8216629 42.8808989,75.6320899 42.2900674,75.6320899 Z M77.875236,88.6379326 C77.875236,88.6379326 76.9458876,87.9325843 75.7912809,86.7446292 C74.6888989,85.6107865 73.8533034,84.2699326 73.8533034,84.2699326 C71.792,84.8702022 69.8961798,81.5605393 69.6231011,81.0603146 C69.7004944,81.0710112 69.7766292,81.0817079 69.8565393,81.0930337 C75.069573,81.8317303 76.7470562,80.0070112 76.7470562,78.0243596 C76.7470562,76.0417079 75.284764,74.9733034 72.6817079,74.9733034 C69.0177978,74.9733034 68.1211685,75.4332584 63.7890337,75.4332584 C62.3739326,75.4332584 61.8082697,74.901573 61.8082697,74.1068764 C61.8082697,73.3115506 62.5626966,72.9025618 63.5203596,72.9025618 C65.6162697,72.9025618 69.0435955,73.4134831 72.2217528,73.2404494 C74.8971685,73.0944719 76.280809,72.5275506 77.848809,71.541573 C79.6156404,70.4291236 80.006382,69.1694382 79.7924494,68.9215281 C79.640809,68.7478652 78.818427,68.647191 76.6539326,70.1547865 C75.1394157,71.2106067 74.2522247,71.6227416 72.1500225,71.7580225 C69.5954157,71.9228764 66.5770787,71.3389663 63.4020674,71.3389663 C61.9674607,71.3389663 59.9665618,72.0008989 59.9665618,74.1358202 C59.9665618,76.2707416 61.7925393,77.0711011 63.6430562,77.0711011 C68.3137079,77.0711011 68.8246292,76.6212135 72.5344719,76.6212135 C73.5884045,76.6212135 74.8298427,76.8993258 74.8298427,77.960809 C74.8298427,79.0222921 73.8916854,79.4237303 72.499236,79.4237303 C70.5568539,79.4237303 69.1996404,79.1707865 67.854382,78.9732135 C67.0282247,78.8322697 66.0290337,78.7158652 64.7253034,78.7158652 C59.0655281,78.7158652 53.9701573,81.8304719 48.9962247,82.2029663 C48.9962247,82.2029663 49.1711461,80.9860674 49.0012584,79.8799101 C48.4053933,79.2808989 47.5477753,78.827236 46.4485393,78.5497528 C47.1966742,78.3377079 48.1065169,78.4320899 48.8257079,78.7039101 C48.7898427,78.3710562 48.7168539,77.9954157 48.6438652,77.8079101 C47.962427,77.2038652 47.0909663,76.9169438 46.1137978,76.7357303 C46.6920449,76.5570337 47.7151461,76.5595506 48.5217978,76.7646742 C48.3128989,75.6811685 47.3741124,74.4529438 46.7467865,74.1339326 L41.6400899,74.1270112 C41.6400899,74.1270112 39.1685393,74.4919551 38.9193708,74.8858427 C38.7362697,75.1759101 39.0187865,76.6382022 39.6108764,77.2114157 C40.3281798,76.7149663 41.1090337,76.5803146 41.5022921,76.5803146 C42.0987865,76.5803146 42.3378876,77.1541573 42.3378876,77.9746517 C42.3378876,78.7951461 41.961618,79.8490787 41.2355056,79.8490787 C40.2942022,79.8490787 39.7493034,79.6068315 39.3321348,79.2947416 C38.7822022,79.9428315 38.8363146,81.0515056 39.1534382,81.1471461 C39.5366292,81.2622921 40.3728539,81.2396404 40.9523596,80.9420225 C39.4932135,82.4307416 38.9678202,84.8670562 38.6324494,87.3826517 C38.6324494,87.3826517 34.2311011,87.734382 30.5048989,87.7916404 C29.4968989,85.8360449 26.7459775,86.0462022 26.3514607,87.8394607 C26.8925843,87.4216629 27.7369888,87.3839101 28.1321348,87.967191 C26.5163146,87.9766292 25.8921348,89.6346067 26.803236,90.6268764 C26.6981573,89.9945169 27.6589663,89.2142921 28.3932584,89.5333034 C27.4085393,90.1751011 27.6879101,91.7890337 29.1036404,92.2905169 C28.7877753,91.3045393 29.3427416,90.460764 30.5715955,90.3688989 C34.2480899,91.2441348 41.1927191,91.5700674 45.7142472,91.2164494 L47.234427,89.7088539 C58.2985169,87.5317753 58.8037753,82.8913258 61.9542472,82.8913258 C63.2560899,82.8913258 64.0262472,83.5765393 65.0304719,84.6915056 C65.9302472,85.6919551 67.0942921,86.764764 68.1614382,86.8817978 C69.2908764,87.0044944 70.3146067,86.9428315 71.9235056,86.7477753 L74.4497978,89.2501573 C73.4959101,89.7252135 73.2140225,90.4796404 73.3153258,91.253573 C73.4210337,92.0684045 74.1326742,92.7687191 75.0532135,92.9121798 C74.7279101,92.4616629 74.4774831,91.4926742 75.2017079,91.0371236 C75.3099326,92.5333933 76.5211685,93.1959551 77.7821124,92.4679551 C76.982382,92.1596404 76.4425169,91.3819326 76.9282697,90.6627416 C77.4108764,91.8255281 79.1223371,92.008 79.8056629,90.5840899 C77.869573,90.8118652 77.875236,88.6379326 77.875236,88.6379326 Z" id="Fill-37"></path>
                    <path d="M38.7803146,24.7268315 C38.088809,24.4040449 36.417618,23.6263371 35.4366742,22.2099775 C34.3739326,20.6759551 33.060764,18.7662921 33.060764,18.7662921 C33.9995506,16.5313258 32.3849888,14.4712809 30.3205393,15.659236 C31.1460674,15.6938427 31.6261573,16.2148315 31.4707416,16.9466067 C30.5728539,15.8561798 28.8431461,16.2670562 28.5562247,17.5745618 C29.2062022,17.1945169 30.4331685,17.3763596 30.4520449,18.1930787 C29.0180674,17.731236 27.9899326,18.8386517 28.2453933,19.8686742 C28.8456629,19.2249888 30.1198202,19.1262022 30.947236,20.8647191 C31.8193258,22.6969888 33.5855281,25.5013933 34.4481798,26.6497079 C35.1566742,27.5928989 36.4805393,28.5612584 37.4658876,28.9054382 C37.717573,27.4670562 38.1599101,25.963236 38.7803146,24.7268315" id="Fill-38"></path>
                    <path d="M38.7803146,24.7268315 C38.088809,24.4040449 36.417618,23.6263371 35.4366742,22.2099775 C34.3739326,20.6759551 33.060764,18.7662921 33.060764,18.7662921 C33.9995506,16.5313258 32.3849888,14.4712809 30.3205393,15.659236 C31.1460674,15.6938427 31.6261573,16.2148315 31.4707416,16.9466067 C30.5728539,15.8561798 28.8431461,16.2670562 28.5562247,17.5745618 C29.2062022,17.1945169 30.4331685,17.3763596 30.4520449,18.1930787 C29.0180674,17.731236 27.9899326,18.8386517 28.2453933,19.8686742 C28.8456629,19.2249888 30.1198202,19.1262022 30.947236,20.8647191 C31.8193258,22.6969888 33.6031461,25.488809 34.4481798,26.6497079" id="Fill-39"></path>
                    <path d="M58.9019326,32.789573 C59.386427,32.4284045 62.7879551,31.3883146 64.7787865,30.7565843 C63.7519101,29.9008539 63.0937528,28.3309663 63.7355506,26.9083146 C63.4297528,26.5414831 62.552,25.5643146 62.0310112,25.5643146 C61.355236,25.5643146 60.3321348,26.8755955 60.3321348,26.8755955 L60.0999551,25.7908315 C59.4713708,26.0626517 58.5715955,26.8781124 58.0172584,27.3871461 C57.9165843,28.4788315 58.4098876,29.140764 60.002427,29.8454831 L57.0608539,31.3191011 C56.2372135,31.0340674 55.1631461,31.3027416 54.6075506,31.6997753 C53.7662921,32.3013034 53.5196404,33.5395955 54.4993258,34.4412584 C54.3439101,33.797573 54.6698427,32.8304719 55.4595056,32.8122247 C54.7705169,33.8265169 55.4022472,35.0534831 56.7468764,35.0742472 C56.2586067,34.4506966 56.2548315,33.5729438 56.9809438,33.2325393 C56.8129438,34.3833708 58.0436854,35.1164045 59.2247191,34.4324494 C58.1242247,33.9108315 58.4281348,33.143191 58.9019326,32.789573" id="Fill-40"></path>
                    <path d="M53.553618,0.303280899 C24.0019775,0.303280899 0.0459325843,24.2593258 0.0459325843,53.8109663 C0.0459325843,83.3626067 24.0019775,107.318652 53.553618,107.318652 C83.1052584,107.318652 107.061303,83.3626067 107.061303,53.8109663 C107.061303,24.2593258 83.1052584,0.303280899 53.553618,0.303280899 Z M53.553618,3.51352809 C81.2874607,3.51352809 103.851056,26.0771236 103.851056,53.8109663 C103.851056,81.5454382 81.2874607,104.109034 53.553618,104.109034 C25.8197753,104.109034 3.25617978,81.5454382 3.25617978,53.8109663 C3.25617978,26.0771236 25.8197753,3.51352809 53.553618,3.51352809 Z" id="Fill-42"></path>
                </g>
            </g>
            <g id="Group" transform="translate(0.000000, 122.700001)">
                <polyline id="Fill-1" points="12.2431835 2.63985019 12.0669007 2.79480337 4.74708801 2.50622659 4.74708801 6.74328652 10.7137266 6.43275281 11.4903745 7.80662921 10.7137266 9.18301498 4.74708801 8.87248127 4.74708801 13.0857022 6.67553371 13.5298596 6.67553371 15.3704775 0.0439138577 15.3704775 0.0439138577 13.5298596 1.97424157 13.0857022 1.97424157 2.57272472 0.0439138577 2.12856742 0.0439138577 0.288576779 12.2431835 0.288576779 12.2431835 2.63985019"></polyline>
                <path d="M25.958736,7.82858614 C25.958736,4.45851124 24.7830993,2.50622659 21.5447659,2.50622659 C18.3064326,2.50622659 17.1307959,4.45851124 17.1307959,7.82858614 C17.1307959,11.1999157 18.3064326,13.1528277 21.5447659,13.1528277 C24.7830993,13.1528277 25.958736,11.1999157 25.958736,7.82858614 Z M14.2481648,7.82858614 C14.2481648,2.6831367 16.7318071,0.0664981273 21.5447659,0.0664981273 C26.3577247,0.0664981273 28.8426217,2.6831367 28.8426217,7.82858614 C28.8426217,12.9752903 26.3577247,15.5925562 21.5447659,15.5925562 C16.7318071,15.5925562 14.2481648,12.9752903 14.2481648,7.82858614 Z" id="Fill-2"></path>
                <polyline id="Fill-3" points="42.6478839 13.0192041 42.6478839 15.3704775 31.2252622 15.3704775 31.2252622 13.5298596 33.1537079 13.0857022 33.1537079 2.57272472 31.2252622 2.12856742 31.2252622 0.288576779 37.856882 0.288576779 37.856882 2.12856742 35.927809 2.57272472 35.927809 13.1528277 42.4929307 12.8642509 42.6478839 13.0192041"></polyline>
                <path d="M60.2874532,13.5298596 L60.2874532,15.3704775 L56.2078558,15.3704775 C55.3427528,12.5769288 53.877912,10.3134831 52.3032865,8.69368914 C51.4381835,9.53683521 50.5511236,10.2683146 49.6860206,10.911339 L49.6860206,15.3704775 L44.9834738,15.3704775 L44.9834738,13.5298596 L46.9138015,13.0857022 L46.9138015,2.57272472 L44.9834738,2.12856742 L44.9834738,0.288576779 L49.6860206,0.288576779 L49.6860206,7.98353933 C52.0812079,5.98796816 53.990206,3.5482397 55.4098783,0.288576779 L59.4675187,0.288576779 L59.4675187,2.24086142 L57.2931554,2.66117978 C56.3847659,4.10280899 55.2756273,5.54381086 54.0999906,6.85307116 C55.7417416,8.51677903 57.2711985,10.6453464 58.5139607,13.1747846 L60.2874532,13.5298596" id="Fill-4"></path>
                <polyline id="Fill-5" points="67.7070131 2.50622659 67.7070131 6.60966292 73.6736517 6.29850187 74.4502996 7.67300562 73.6736517 9.04939139 67.7070131 8.73823034 67.7070131 13.1528277 75.0268258 12.8642509 75.203736 13.0192041 75.203736 15.3704775 63.003839 15.3704775 63.003839 13.5298596 64.934794 13.0857022 64.934794 2.57272472 63.003839 2.12856742 63.003839 0.288576779 75.203736 0.288576779 75.203736 2.63985019 75.0268258 2.79480337 67.7070131 2.50622659"></polyline>
                <polyline id="Fill-6" points="90.6701966 2.63985019 90.5384551 2.79480337 85.5485861 2.50622659 85.5485861 13.0857022 87.4776592 13.5298596 87.4776592 15.3704775 80.845412 15.3704775 80.845412 13.5298596 82.774485 13.0857022 82.774485 2.50622659 77.7846161 2.79480337 77.6509925 2.63985019 77.6509925 0.288576779 90.6701966 0.288576779 90.6701966 2.63985019"></polyline>
                <polyline id="Fill-7" points="98.0878745 2.57272472 98.0878745 13.0857022 100.016948 13.5298596 100.016948 15.3704775 93.3847004 15.3704775 93.3847004 13.5298596 95.3150281 13.0857022 95.3150281 2.57272472 93.3847004 2.12856742 93.3847004 0.288576779 100.016948 0.288576779 100.016948 2.12856742 98.0878745 2.57272472"></polyline>
                <polyline id="Fill-8" points="120.207912 2.12856742 118.277584 2.57272472 118.277584 15.3704775 114.994082 15.3704775 108.029972 3.4146161 108.029972 13.0857022 109.671723 13.5298596 109.671723 15.3704775 103.439092 15.3704775 103.439092 13.5298596 105.368165 13.0857022 105.368165 2.57272472 103.439092 2.12856742 103.439092 0.288576779 109.095197 0.288576779 115.615777 11.4659082 115.615777 2.57272472 113.974026 2.12856742 113.974026 0.288576779 120.207912 0.288576779 120.207912 2.12856742"></polyline>
                <path d="M136.563315,14.5718727 L134.279167,15.5925562 C133.991845,15.325309 133.681311,14.9714888 133.458605,14.5273315 C132.63867,14.9928184 131.286124,15.5712266 129.577875,15.5712266 C125.474438,15.5712266 122.30323,13.7506835 122.30323,7.67300562 C122.30323,2.32931648 125.163277,0.0664981273 130.02015,0.0664981273 C131.951105,0.0664981273 133.503773,0.176282772 135.14427,0.553941948 L135.14427,3.1040824 L134.945403,3.23770599 C133.37015,2.8167603 131.929148,2.57272472 130.043989,2.57272472 C127.180805,2.57272472 125.163277,3.52628277 125.163277,7.69684457 C125.163277,12.1327715 127.049064,13.1308708 129.954906,13.1308708 C131.1525,13.1308708 132.261639,12.8642509 133.170028,12.5769288 L133.170028,9.07134831 L129.821283,9.2263015 L129.156929,7.87375468 L129.821283,6.52120787 L135.831835,6.78657303 L135.831835,12.5098034 C135.831835,13.396236 136.209494,14.0173034 136.563315,14.5718727" id="Fill-9"></path>
                <polyline id="Fill-10" points="144.092659 2.50622659 144.092659 6.60966292 150.058043 6.29850187 150.834691 7.67300562 150.058043 9.04939139 144.092659 8.73823034 144.092659 13.1528277 151.41059 12.8642509 151.589382 13.0192041 151.589382 15.3704775 139.389485 15.3704775 139.389485 13.5298596 141.318558 13.0857022 141.318558 2.57272472 139.389485 2.12856742 139.389485 0.288576779 151.589382 0.288576779 151.589382 2.63985019 151.41059 2.79480337 144.092659 2.50622659"></polyline>
                <polyline id="Fill-11" points="167.05647 2.63985019 166.922846 2.79480337 161.932978 2.50622659 161.932978 13.0857022 163.861423 13.5298596 163.861423 15.3704775 157.229803 15.3704775 157.229803 13.5298596 159.160758 13.0857022 159.160758 2.50622659 154.17089 2.79480337 154.036639 2.63985019 154.036639 0.288576779 167.05647 0.288576779 167.05647 2.63985019"></polyline>
            </g>
        </g>
    </g>
</svg>

