<?xml version="1.0" standalone="no"?>
<!DOCTYPE svg PUBLIC "-//W3C//DTD SVG 20010904//EN"
 "http://www.w3.org/TR/2001/REC-SVG-20010904/DTD/svg10.dtd">
<svg version="1.0" xmlns="http://www.w3.org/2000/svg"
 width="3464.000000pt" height="533.000000pt" viewBox="0 0 3464.000000 533.000000"
 preserveAspectRatio="xMidYMid meet">
<metadata>
Created by potrace 1.15, written by Peter Selinger 2001-2017
</metadata>
<g transform="translate(0.000000,533.000000) scale(0.100000,-0.100000)"
fill="#000000" stroke="none">
<path d="M6167 5315 c-129 -35 -263 -143 -324 -260 -141 -271 -37 -604 231
-735 217 -107 465 -64 628 109 103 108 148 220 148 366 0 154 -52 280 -159
385 -69 68 -160 120 -241 139 -62 14 -225 12 -283 -4z"/>
<path d="M20946 5319 c-76 -18 -170 -73 -237 -139 -107 -105 -159 -231 -159
-385 0 -146 45 -258 148 -366 331 -351 922 -113 922 371 0 241 -162 454 -391
515 -60 16 -222 18 -283 4z"/>
<path d="M0 2440 l0 -2360 435 0 435 0 2 1115 3 1114 933 -1114 934 -1115 580
0 c544 0 580 1 567 17 -8 9 -481 559 -1052 1222 l-1038 1204 24 26 c17 18
1777 2050 1935 2234 14 16 -12 17 -529 17 l-544 0 -905 -1080 -905 -1079 -3
1079 -2 1080 -435 0 -435 0 0 -2360z"/>
<path d="M4360 2440 l0 -2360 410 0 410 0 0 2360 0 2360 -410 0 -410 0 0
-2360z"/>
<path d="M25860 4128 l0 -672 -37 45 c-131 155 -333 290 -548 364 -249 86
-577 98 -860 33 -385 -88 -731 -344 -977 -723 -165 -253 -274 -566 -313 -901
-18 -151 -20 -472 -4 -630 34 -351 149 -695 316 -949 245 -372 563 -586 992
-667 156 -30 516 -32 656 -5 344 68 591 216 780 470 32 43 59 76 61 75 1 -2
22 -112 45 -246 l44 -242 332 0 333 0 0 2360 0 2360 -410 0 -410 0 0 -672z
m-725 -967 c407 -107 675 -480 734 -1023 21 -189 10 -408 -29 -574 -53 -226
-140 -393 -284 -543 -119 -123 -253 -201 -423 -243 -126 -32 -360 -32 -485 0
-301 75 -518 288 -637 625 -141 401 -105 937 87 1287 153 281 345 432 617 486
101 20 316 12 420 -15z"/>
<path d="M31866 4649 c-155 -476 -436 -838 -788 -1015 l-88 -44 0 -240 0 -240
305 0 304 0 4 -1197 3 -1198 22 -85 c13 -47 43 -128 69 -180 39 -81 59 -107
137 -185 199 -196 427 -273 781 -262 174 6 275 20 415 58 75 20 80 23 80 48
-1 14 -27 188 -58 386 l-58 360 -35 -1 c-18 -1 -72 -14 -119 -29 -72 -22 -99
-26 -172 -23 -75 4 -93 8 -135 34 -61 38 -101 112 -113 210 -5 38 -9 518 -10
1067 l0 997 540 0 540 0 0 375 0 375 -540 0 -540 0 0 470 0 470 -247 0 -248 0
-49 -151z"/>
<path d="M9057 3924 c-329 -51 -592 -210 -787 -474 -64 -87 -80 -103 -80 -77
0 8 -11 117 -25 243 -14 126 -25 232 -25 236 0 4 -155 8 -345 8 l-345 0 0
-1890 0 -1890 410 0 409 0 4 1103 c3 992 5 1112 20 1197 61 331 186 558 382
689 121 81 259 121 413 121 171 -1 290 -47 398 -154 118 -117 182 -285 203
-533 7 -73 11 -559 11 -1270 l0 -1153 410 0 410 0 0 1086 c0 1178 0 1186 55
1382 32 110 121 289 185 369 141 176 344 273 567 273 280 -1 465 -138 557
-411 61 -182 60 -149 63 -1482 l4 -1217 405 0 405 0 -4 1418 -3 1417 -22 90
c-47 192 -101 321 -189 453 -169 255 -386 392 -728 459 -130 25 -485 25 -605
0 -366 -77 -690 -303 -836 -582 -16 -30 -31 -55 -34 -55 -3 0 -21 30 -39 68
-160 325 -431 523 -791 578 -117 17 -335 17 -453 -2z"/>
<path d="M14700 3930 c-286 -35 -555 -135 -796 -295 -184 -122 -356 -288 -474
-456 l-39 -55 217 -332 c196 -299 220 -331 244 -331 23 -1 32 7 49 42 12 23
45 78 74 122 187 283 414 460 684 533 85 22 116 26 266 26 197 1 285 -14 404
-71 216 -103 304 -344 189 -518 -90 -135 -313 -222 -888 -345 -326 -70 -464
-113 -646 -199 -434 -207 -642 -560 -621 -1051 10 -227 61 -406 159 -556 203
-312 546 -457 1048 -441 250 8 405 44 591 138 156 78 324 229 419 378 25 38
49 69 54 67 6 -1 31 -115 56 -252 l46 -249 327 -3 328 -2 -4 1352 c-3 1479 0
1410 -62 1622 -129 446 -514 765 -1031 857 -135 24 -466 34 -594 19z m860
-2590 c-46 -271 -364 -519 -737 -575 -255 -39 -443 3 -554 122 -64 68 -84 126
-84 243 0 82 4 103 26 150 81 170 214 241 667 355 285 72 434 119 525 168 68
36 143 99 154 130 13 35 15 -518 3 -593z"/>
<path d="M18500 3934 c-294 -57 -511 -228 -636 -500 l-27 -59 -31 240 -32 240
-347 3 -347 2 0 -1890 0 -1890 410 0 409 0 4 1143 c3 1006 6 1153 20 1236 26
147 54 237 109 351 42 86 64 118 122 176 113 113 220 154 400 154 160 0 324
-58 431 -152 33 -29 52 -39 72 -36 l28 3 67 370 c37 204 67 382 67 397 1 33
-56 79 -164 133 -113 57 -208 76 -380 80 -82 2 -161 1 -175 -1z"/>
<path d="M20830 3925 c-418 -57 -781 -241 -1072 -543 -79 -82 -209 -245 -207
-260 0 -4 96 -155 212 -337 251 -390 238 -379 306 -255 24 44 75 121 113 172
259 347 569 503 962 485 226 -10 369 -61 471 -168 89 -93 125 -202 104 -317
-39 -214 -242 -314 -934 -462 -298 -63 -452 -111 -624 -191 -328 -154 -522
-376 -609 -697 -24 -90 -26 -112 -26 -312 0 -201 2 -222 27 -315 35 -131 110
-280 189 -374 145 -172 343 -278 613 -327 141 -26 491 -26 620 -1 192 38 346
99 488 195 90 60 218 187 281 280 27 40 53 72 57 72 4 0 12 -28 18 -63 6 -34
25 -144 43 -244 l32 -183 323 0 323 0 0 1343 c0 1453 1 1428 -55 1622 -31 112
-118 289 -184 376 -181 239 -467 411 -793 479 -201 41 -483 52 -678 25z m897
-2325 c-3 -237 -6 -272 -26 -331 -78 -240 -382 -453 -718 -504 -253 -38 -443
2 -555 117 -68 70 -91 138 -86 254 5 114 33 178 116 256 103 98 218 145 578
233 387 95 546 158 638 250 l51 51 3 -31 c2 -16 2 -149 -1 -295z"/>
<path d="M28779 3925 c-476 -68 -880 -329 -1167 -755 -171 -252 -273 -532
-318 -867 -20 -153 -23 -496 -5 -653 77 -673 407 -1203 908 -1457 242 -124
477 -180 793 -190 377 -12 686 49 986 198 223 109 441 270 545 402 l38 48
-182 365 c-172 343 -183 364 -209 364 -19 0 -33 -9 -49 -33 -126 -181 -355
-379 -554 -479 -226 -114 -513 -147 -755 -88 -309 76 -560 316 -665 635 -20
61 -55 249 -55 294 0 8 354 11 1329 11 l1329 0 7 157 c31 650 -156 1193 -545
1583 -246 247 -525 394 -865 456 -123 22 -440 28 -566 9z m475 -765 c321 -87
572 -375 623 -717 l10 -63 -888 0 -887 0 9 43 c61 276 261 557 478 671 69 36
175 71 258 86 84 15 308 4 397 -20z"/>
<path d="M5910 1970 l0 -1890 405 0 405 0 0 1890 0 1890 -405 0 -405 0 0
-1890z"/>
<path d="M33961 1054 c-189 -51 -344 -218 -382 -412 -25 -132 5 -292 75 -397
98 -147 241 -230 413 -242 105 -7 188 9 282 55 322 157 393 601 136 857 -67
67 -152 117 -240 140 -73 19 -212 18 -284 -1z"/>
</g>
</svg>
