<?xml version="1.0" standalone="no"?>
<!DOCTYPE svg PUBLIC "-//W3C//DTD SVG 20010904//EN"
 "http://www.w3.org/TR/2001/REC-SVG-20010904/DTD/svg10.dtd">
<svg version="1.0" xmlns="http://www.w3.org/2000/svg"
 width="220.000000pt" height="68.000000pt" viewBox="0 0 220.000000 68.000000"
 preserveAspectRatio="xMidYMid meet">
<metadata>
Created by potrace 1.15, written by Peter Selinger 2001-2017
</metadata>
<g transform="translate(0.000000,68.000000) scale(0.100000,-0.100000)"
fill="#000000" stroke="none">
<path d="M0 345 l0 -335 70 0 70 0 0 83 c0 71 3 87 20 102 11 10 23 15 28 11
4 -4 32 -49 63 -99 l55 -92 157 -3 157 -3 0 141 c0 104 4 148 15 169 8 16 53
65 101 110 l87 81 -57 0 c-62 0 -87 -9 -128 -48 l-28 -26 0 32 0 32 -70 0 -70
0 0 -232 0 -233 -90 137 c-50 76 -90 142 -90 147 0 5 38 45 85 87 47 43 85 82
85 86 0 4 -37 8 -83 8 l-84 0 -76 -79 -77 -79 0 169 0 169 -70 0 -70 0 0 -335z"/>
<path d="M1270 345 l0 -335 70 0 70 0 0 82 c0 70 3 85 21 105 l22 22 64 -104
65 -105 85 0 c70 0 84 3 80 15 -3 8 -47 75 -97 149 -49 75 -90 139 -90 144 0
4 38 43 85 86 47 42 85 82 85 87 0 5 -38 9 -84 9 l-84 0 -76 -82 -76 -83 0
173 0 172 -70 0 -70 0 0 -335z"/>
<path d="M870 425 l-85 -85 58 0 c52 0 57 2 63 25 3 14 14 30 24 35 26 14 106
12 117 -2 37 -48 11 -83 -68 -92 -124 -16 -163 -28 -195 -60 -66 -66 -50 -192
29 -229 51 -25 166 -23 218 3 34 18 40 19 45 5 5 -11 22 -15 73 -15 l66 0 -3
122 c-6 296 -6 295 -27 318 -33 38 -94 60 -165 60 l-65 0 -85 -85z m194 -235
c-10 -64 -42 -95 -97 -95 -53 0 -77 18 -77 56 0 37 30 57 105 69 32 5 60 12
63 15 11 10 13 -3 6 -45z"/>
<path d="M1832 432 c-45 -42 -82 -80 -82 -84 0 -5 29 -8 64 -8 61 0 64 1 76
30 14 34 38 43 96 38 29 -2 41 -9 50 -27 25 -49 2 -65 -116 -81 -144 -19 -194
-59 -194 -153 0 -63 25 -110 70 -132 48 -23 165 -20 215 5 34 18 40 19 45 5 5
-11 22 -15 73 -15 l66 0 -3 122 c-6 296 -6 295 -27 318 -35 40 -93 60 -175 59
l-75 0 -83 -77z m209 -260 c-15 -54 -44 -77 -96 -77 -51 0 -75 18 -75 56 0 37
30 57 105 69 32 5 60 12 64 16 11 11 12 -24 2 -64z"/>
</g>
</svg>
