<?xml version="1.0" standalone="no"?>
<!DOCTYPE svg PUBLIC "-//W3C//DTD SVG 20010904//EN"
 "http://www.w3.org/TR/2001/REC-SVG-20010904/DTD/svg10.dtd">
<svg version="1.0" xmlns="http://www.w3.org/2000/svg"
 width="340.000000pt" height="124.000000pt" viewBox="0 0 340.000000 124.000000"
 preserveAspectRatio="xMidYMid meet">
<metadata>
Created by potrace 1.15, written by Peter Selinger 2001-2017
</metadata>
<g transform="translate(0.000000,124.000000) scale(0.100000,-0.100000)"
fill="#000000" stroke="none">
<path d="M320 1226 c0 -8 -7 -16 -15 -20 -12 -4 -14 -15 -9 -48 6 -36 5 -41
-7 -32 -27 22 -76 26 -103 9 -14 -9 -29 -14 -34 -11 -6 3 -23 1 -40 -5 -22 -8
-34 -21 -42 -45 -15 -43 -8 -71 25 -106 14 -15 25 -34 25 -41 0 -8 7 -17 15
-21 9 -3 15 -18 15 -36 l0 -30 -75 0 -75 0 0 -360 c0 -381 3 -405 47 -426 10
-4 73 -10 139 -13 101 -5 126 -9 143 -25 20 -18 22 -18 34 -3 10 14 34 17 124
20 120 4 147 13 180 64 16 24 18 63 21 385 l3 358 -81 0 c-77 0 -80 1 -80 23
0 13 9 32 20 42 11 10 20 23 20 29 0 6 11 23 25 38 19 20 25 38 25 71 0 53
-22 77 -75 81 -20 2 -41 8 -48 15 -15 15 -46 14 -81 -4 -15 -8 -30 -15 -32
-15 -9 0 -3 47 7 57 7 7 3 18 -14 37 -26 28 -57 35 -57 12z m-80 -416 c0 -5
-12 -10 -26 -10 -21 0 -25 -4 -21 -20 3 -11 1 -20 -5 -20 -5 0 -12 9 -15 20
-6 24 -26 26 -47 4 -17 -16 -22 -44 -8 -44 5 0 8 -19 8 -42 -1 -37 2 -43 19
-41 19 3 18 2 -2 -8 -23 -12 -39 -52 -23 -57 5 -2 7 -23 3 -47 l-5 -43 36 0
c20 0 36 3 36 7 0 4 12 8 28 9 15 1 41 3 57 5 28 2 30 0 27 -31 -2 -18 2 -40
9 -48 10 -12 9 -13 -5 -8 -10 4 -16 17 -16 35 0 24 -4 29 -23 29 -13 0 -27 -3
-31 -7 -4 -4 -15 -8 -24 -8 -11 0 -17 -8 -16 -22 1 -28 -16 -30 -23 -3 -8 31
-49 26 -57 -7 -4 -14 -4 -29 1 -32 4 -3 8 -25 8 -48 l0 -43 -52 0 -53 0 0 245
0 245 110 0 c67 0 110 -4 110 -10z m420 -235 l0 -245 -72 0 c-65 1 -71 2 -55
15 15 11 17 20 11 47 -9 35 -11 46 -13 66 0 6 -8 12 -16 12 -23 0 -18 15 11
30 22 12 25 19 19 45 -7 27 -12 58 -14 78 -1 4 -8 7 -16 7 -23 0 -18 15 11 30
22 12 25 19 19 45 -4 16 -8 39 -9 49 -2 11 -8 22 -14 24 -7 2 -17 12 -22 23
-10 18 -6 19 75 19 l85 0 0 -245z"/>
<path d="M2565 843 c-32 -8 -55 -34 -55 -63 0 -31 20 -52 73 -73 64 -27 37
-59 -35 -40 -37 10 -38 9 -38 -16 -1 -24 -4 -22 -49 29 l-49 55 45 52 45 53
-34 0 c-27 0 -40 -8 -70 -42 l-37 -43 -1 43 c0 38 -2 42 -25 42 l-25 0 0 -110
0 -110 24 0 c23 0 25 5 28 48 l3 47 34 -48 c34 -46 37 -48 80 -46 26 1 61 -1
78 -5 46 -10 102 10 114 41 19 50 0 76 -74 103 -41 15 -28 35 22 34 36 -1 41
2 41 21 0 17 -8 24 -31 29 -17 3 -34 5 -38 5 -3 -1 -15 -4 -26 -6z"/>
<path d="M860 730 l0 -110 71 0 c65 0 73 2 100 29 25 25 29 37 29 81 0 44 -4
56 -29 81 -27 27 -35 29 -100 29 l-71 0 0 -110z"/>
<path d="M1137 833 c-5 -9 -67 -201 -67 -208 0 -3 13 -5 29 -5 23 0 30 6 35
26 6 23 11 25 49 22 35 -2 43 -7 45 -25 3 -18 10 -23 33 -23 16 0 29 3 29 6 0
3 -14 53 -32 110 l-31 104 -43 0 c-24 0 -45 -3 -47 -7z"/>
<path d="M1320 731 l0 -111 25 0 c25 0 25 1 26 83 l0 82 32 -82 32 -83 42 0
43 0 0 110 0 110 -25 0 c-23 0 -24 -3 -27 -77 l-3 -78 -26 75 -26 75 -46 3
-47 3 0 -110z"/>
<path d="M1570 731 l0 -111 25 0 c24 0 24 2 27 83 l3 82 18 -52 c17 -50 21
-53 52 -53 31 0 35 4 54 53 l20 52 0 -82 c1 -82 1 -83 26 -83 l25 0 0 110 0
110 -44 0 -44 0 -18 -52 -17 -53 -17 50 c-17 50 -17 50 -63 53 l-47 3 0 -110z"/>
<path d="M1882 738 c-18 -57 -32 -107 -32 -111 0 -4 11 -7 25 -7 18 0 28 7 35
25 8 21 16 25 50 25 34 0 41 -4 46 -25 5 -20 13 -25 35 -25 34 0 34 0 -11 135
l-27 80 -45 3 -45 3 -31 -103z"/>
<path d="M2090 730 l0 -110 30 0 30 0 0 90 c0 88 1 90 24 90 33 0 53 -25 36
-45 -7 -8 -21 -15 -31 -15 -27 0 -24 -25 9 -76 23 -37 32 -44 60 -44 36 0 36
2 -6 58 -13 17 -20 32 -14 32 20 0 42 32 42 61 0 50 -30 69 -110 69 l-70 0 0
-110z"/>
<path d="M860 395 l0 -115 25 0 c23 0 24 2 27 82 l3 83 29 -83 28 -82 44 0 44
0 0 115 0 115 -25 0 c-25 0 -25 -1 -26 -87 l0 -88 -31 88 -31 87 -44 0 -43 0
0 -115z"/>
<path d="M1130 438 c-13 -40 -29 -92 -36 -115 l-13 -43 30 0 c25 0 30 5 36 30
5 28 9 30 48 30 40 0 44 -2 50 -30 6 -25 11 -30 37 -30 20 0 29 4 25 13 -2 6
-18 58 -36 115 l-32 102 -42 0 -43 0 -24 -72z"/>
<path d="M1290 485 c0 -22 4 -25 40 -25 l40 0 0 -90 c0 -89 0 -90 25 -90 25 0
25 1 25 90 l0 90 35 0 c31 0 35 3 35 25 l0 25 -100 0 -100 0 0 -25z"/>
<path d="M1647 490 c-37 -29 -52 -83 -38 -131 16 -54 52 -79 113 -79 43 0 54
4 84 34 29 29 34 41 34 81 0 40 -5 52 -34 81 -30 30 -41 34 -84 34 -34 0 -57
-6 -75 -20z"/>
<path d="M1880 395 l0 -115 25 0 c23 0 24 2 27 82 l3 83 29 -83 28 -82 44 0
44 0 0 115 0 115 -25 0 c-25 0 -25 -1 -26 -87 l0 -88 -31 88 -31 87 -44 0 -43
0 0 -115z"/>
<path d="M2150 438 c-13 -40 -29 -92 -36 -115 l-13 -43 30 0 c25 0 30 5 36 30
5 28 9 30 48 30 40 0 44 -2 50 -30 6 -25 11 -30 37 -30 20 0 29 4 25 13 -2 6
-18 58 -36 115 l-32 102 -42 0 -43 0 -24 -72z"/>
<path d="M2350 395 l0 -115 80 0 c79 0 80 0 80 25 0 23 -3 25 -50 25 l-50 0 0
90 0 90 -30 0 -30 0 0 -115z"/>
<path d="M2530 395 l0 -115 69 0 c54 0 74 4 95 21 29 23 33 54 12 85 -10 13
-11 25 -5 35 14 23 11 38 -16 64 -21 22 -33 25 -90 25 l-65 0 0 -115z"/>
<path d="M2796 502 c-8 -13 -66 -198 -66 -211 0 -7 11 -11 27 -9 20 2 29 10
33 28 5 21 12 25 48 28 40 3 43 2 48 -27 6 -26 11 -31 35 -31 16 0 29 3 29 8
0 4 -15 54 -33 112 l-33 105 -41 3 c-23 2 -44 -1 -47 -6z"/>
<path d="M2980 395 l0 -115 25 0 c23 0 24 2 27 82 l3 83 29 -83 28 -82 44 0
44 0 0 115 0 115 -25 0 c-25 0 -25 -1 -26 -87 l0 -88 -31 88 -31 87 -44 0 -43
0 0 -115z"/>
<path d="M3230 395 l0 -115 25 0 c23 0 25 3 25 51 l0 52 41 -52 c23 -29 49
-51 60 -51 29 0 24 37 -11 77 -16 18 -30 39 -30 46 0 8 14 26 30 42 37 35 40
65 7 65 -16 0 -34 -14 -58 -46 l-34 -46 -3 46 c-3 41 -6 46 -28 46 l-24 0 0
-115z"/>
</g>
</svg>
