<?xml version="1.0" encoding="UTF-8" standalone="no"?>
<!-- Created with Inkscape (http://www.inkscape.org/) -->

<svg
   xmlns:dc="http://purl.org/dc/elements/1.1/"
   xmlns:cc="http://creativecommons.org/ns#"
   xmlns:rdf="http://www.w3.org/1999/02/22-rdf-syntax-ns#"
   xmlns:svg="http://www.w3.org/2000/svg"
   xmlns="http://www.w3.org/2000/svg"
   xmlns:sodipodi="http://sodipodi.sourceforge.net/DTD/sodipodi-0.dtd"
   xmlns:inkscape="http://www.inkscape.org/namespaces/inkscape"
   width="1002.65"
   height="123.91"
   id="svg29819"
   version="1.1"
   inkscape:version="0.48.1 "
   sodipodi:docname="Neues Dokument 3">
  <defs
     id="defs29821">
    <clipPath
       clipPathUnits="userSpaceOnUse"
       id="clipPath332">
      <path
         inkscape:connector-curvature="0"
         d="m 51.231,1225.397 794.124,0 0,91.128 -794.124,0 0,-91.128 z"
         id="path334" />
    </clipPath>
    <clipPath
       clipPathUnits="userSpaceOnUse"
       id="clipPath296">
      <path
         inkscape:connector-curvature="0"
         d="m 51.231,1225.397 794.124,0 0,91.128 -794.124,0 0,-91.128 z"
         id="path298" />
    </clipPath>
  </defs>
  <sodipodi:namedview
     id="base"
     pagecolor="#ffffff"
     bordercolor="#666666"
     borderopacity="1.0"
     inkscape:pageopacity="0.0"
     inkscape:pageshadow="2"
     inkscape:zoom="0.90061615"
     inkscape:cx="501.32501"
     inkscape:cy="61.955014"
     inkscape:document-units="px"
     inkscape:current-layer="layer1"
     showgrid="false"
     fit-margin-top="0"
     fit-margin-left="0"
     fit-margin-right="0"
     fit-margin-bottom="0"
     inkscape:window-width="1024"
     inkscape:window-height="708"
     inkscape:window-x="-4"
     inkscape:window-y="-4"
     inkscape:window-maximized="1" />
  <metadata
     id="metadata29824">
    <rdf:RDF>
      <cc:Work
         rdf:about="">
        <dc:format>image/svg+xml</dc:format>
        <dc:type
           rdf:resource="http://purl.org/dc/dcmitype/StillImage" />
        <dc:title></dc:title>
      </cc:Work>
    </rdf:RDF>
  </metadata>
  <g
     inkscape:label="Ebene 1"
     inkscape:groupmode="layer"
     id="layer1"
     transform="translate(188.68266,-549.56566)">
    <g
       transform="matrix(1.25,0,0,-1.25,-247.72452,2200.2219)"
       id="g292">
      <g
         id="g294"
         clip-path="url(#clipPath296)">
        <g
           id="g300"
           transform="translate(107.827,1258.969)">
          <path
             inkscape:connector-curvature="0"
             d="m 0,0 -19.25,0 0,-11.019 c 0,-1.686 0.77,-3.371 3.722,-3.371 l 14.245,0 0,-16.722 -55.312,0 0,16.722 7.828,0 c 2.952,0 3.722,1.685 3.722,3.371 l 0,46.279 c 0,1.685 -0.77,3.37 -3.722,3.37 l -7.828,0 0,16.722 57.75,0 c 19.122,0 32.34,-11.407 32.34,-28 C 33.495,9.981 21.304,0 0,0 m -3.978,38.63 -15.272,0 0,-22.297 14.887,0 c 7.186,0 11.935,4.278 11.935,10.889 0,6.352 -4.749,11.408 -11.55,11.408"
             style="fill:#000000;fill-opacity:1;fill-rule:nonzero;stroke:none"
             id="path302" />
        </g>
        <g
           id="g304"
           transform="translate(188.934,1225.394)">
          <path
             inkscape:connector-curvature="0"
             d="m 0,0 c -32.469,0 -44.789,17.759 -44.789,46.927 0,22.685 12.962,44.204 44.019,44.204 29.517,0 45.558,-15.167 45.558,-44.593 C 44.788,17.241 28.233,0 0,0 m 0,74.668 c -14.759,0 -17.325,-11.148 -17.325,-30.075 0,-15.166 2.309,-26.963 17.325,-26.963 13.475,0 17.325,10.629 17.325,26.834 0,19.704 -3.08,30.204 -17.325,30.204"
             style="fill:#000000;fill-opacity:1;fill-rule:nonzero;stroke:none"
             id="path306" />
        </g>
      </g>
    </g>
    <g
       id="g308"
       transform="matrix(1.25,0,0,-1.25,47.636721,665.40063)">
      <path
         inkscape:connector-curvature="0"
         d="m 0,0 0,16.722 7.828,0 c 2.952,0 3.722,1.685 3.722,3.371 l 0,46.279 c 0,1.685 -0.77,3.37 -3.722,3.37 l -7.828,0 0,16.722 51.718,0 0,-16.722 -10.395,0 c -2.951,0 -3.721,-1.685 -3.721,-3.37 l 0,-43.945 c 0,-3.5 1.796,-5.705 8.47,-5.705 11.037,0 17.838,2.205 18.352,14.779 l 0.256,6.611 17.838,0 L 82.518,0 0,0"
         style="fill:#000000;fill-opacity:1;fill-rule:nonzero;stroke:none"
         id="path310" />
    </g>
    <g
       id="g312"
       transform="matrix(1.25,0,0,-1.25,157.84173,665.40063)">
      <path
         inkscape:connector-curvature="0"
         d="m 0,0 0,16.722 9.112,0 c 2.952,0 3.722,1.685 3.722,3.371 l 0,46.279 c 0,1.685 -0.77,3.37 -3.722,3.37 l -9.112,0 0,16.722 51.976,0 0,-16.722 -9.112,0 c -2.951,0 -3.721,-1.685 -3.721,-3.37 l 0,-46.279 c 0,-1.686 0.77,-3.371 3.721,-3.371 l 9.112,0 L 51.976,0 0,0"
         style="fill:#000000;fill-opacity:1;fill-rule:nonzero;stroke:none"
         id="path314" />
    </g>
    <g
       id="g316"
       transform="matrix(1.25,0,0,-1.25,319.54298,605.60826)">
      <path
         inkscape:connector-curvature="0"
         d="m 0,0 0,15.945 c 0,3.24 -1.925,5.963 -5.775,5.963 l -7.957,0 0,-49.649 c 0,-1.686 0.771,-3.371 3.722,-3.371 l 10.396,0 0,-16.722 -54.286,0 0,16.722 10.395,0 c 2.952,0 3.722,1.685 3.722,3.371 l 0,49.649 -7.957,0 c -3.978,0 -5.775,-2.723 -5.775,-5.963 l 0,-15.945 -18.224,0 0,38.63 89.963,0 L 18.224,0 0,0"
         style="fill:#000000;fill-opacity:1;fill-rule:nonzero;stroke:none"
         id="path318" />
    </g>
    <g
       id="g320"
       transform="matrix(1.25,0,0,-1.25,349.37798,665.40063)">
      <path
         inkscape:connector-curvature="0"
         d="m 0,0 0,16.722 9.112,0 c 2.952,0 3.722,1.685 3.722,3.371 l 0,46.279 c 0,1.685 -0.77,3.37 -3.722,3.37 l -9.112,0 0,16.722 51.975,0 0,-16.722 -9.111,0 c -2.952,0 -3.721,-1.685 -3.721,-3.37 l 0,-46.279 c 0,-1.686 0.769,-3.371 3.721,-3.371 l 9.111,0 L 51.975,0 0,0"
         style="fill:#000000;fill-opacity:1;fill-rule:nonzero;stroke:none"
         id="path322" />
    </g>
    <g
       id="g324"
       transform="matrix(1.25,0,0,-1.25,490.38423,665.40063)">
      <path
         inkscape:connector-curvature="0"
         d="m 0,0 0,16.722 4.108,0 c 2.824,0 3.08,2.723 2.052,4.278 l -11.164,16.593 -12.064,-10.111 0,-7.389 c 0,-1.686 0.771,-3.371 3.722,-3.371 l 5.262,0 0,-16.722 -46.586,0 0,16.722 7.829,0 c 2.952,0 3.722,1.685 3.722,3.371 l 0,46.279 c 0,1.685 -0.77,3.37 -3.722,3.37 l -7.829,0 0,16.722 46.586,0 0,-16.722 -5.262,0 c -2.951,0 -3.722,-1.685 -3.722,-3.37 l 0,-21.13 24.898,20.87 c 1.41,1.167 1.283,3.63 -1.412,3.63 l -6.418,0 0,16.722 47.614,0 0,-16.722 -7.573,0 c -3.08,0 -7.187,-1.167 -10.138,-3.63 L 15.529,54.186 38.758,20.223 c 1.412,-1.945 4.363,-3.501 6.93,-3.501 l 4.492,0 L 50.18,0 0,0"
         style="fill:#000000;fill-opacity:1;fill-rule:nonzero;stroke:none"
         id="path326" />
    </g>
    <g
       transform="matrix(1.25,0,0,-1.25,-247.72452,2200.2219)"
       id="g328">
      <g
         id="g330"
         clip-path="url(#clipPath332)">
        <g
           id="g336"
           transform="translate(645.671,1227.8571)">
          <path
             inkscape:connector-curvature="0"
             d="m 0,0 0,16.722 7.828,0 c 2.951,0 3.721,1.685 3.721,3.371 l 0,46.279 c 0,1.685 -0.77,3.37 -3.721,3.37 l -7.828,0 0,16.722 87.908,0 0,-33.574 -16.683,0 -0.641,10.629 c -0.129,3.112 -1.412,6.223 -6.545,6.223 l -26.437,0 0,-18.926 7.187,0 c 2.309,0 3.078,1.556 3.336,3.5 l 0.641,5.703 12.193,0 0,-30.981 -12.193,0 -0.641,5.055 c -0.258,1.685 -1.027,3.111 -3.209,3.111 l -7.314,0 0,-15.555 c 0,-3.5 1.796,-4.927 5.003,-4.927 l 18.096,0 c 7.059,0 10.268,3.631 10.524,9.464 l 0.513,10.889 17.711,0 L 89.449,0 0,0"
             style="fill:#000000;fill-opacity:1;fill-rule:nonzero;stroke:none"
             id="path338" />
        </g>
        <g
           id="g340"
           transform="translate(837.529,1297.599)">
          <path
             inkscape:connector-curvature="0"
             d="m 0,0 c -2.951,0 -3.721,-1.685 -3.721,-3.37 l 0,-66.372 -21.047,0 -39.912,49.779 0,-29.686 c 0,-1.686 0.769,-3.371 3.721,-3.371 l 7.83,0 0,-16.722 -43.25,0 0,16.722 7.828,0 c 2.953,0 3.722,1.685 3.722,3.371 l 0,46.279 c 0,1.685 -0.769,3.37 -3.722,3.37 l -7.828,0 0,16.722 36.318,0 36.192,-46.019 0,25.927 c 0,1.685 -0.772,3.37 -3.723,3.37 l -7.828,0 0,16.722 43.248,0 L 7.828,0 0,0"
             style="fill:#000000;fill-opacity:1;fill-rule:nonzero;stroke:none"
             id="path342" />
        </g>
      </g>
    </g>
  </g>
</svg>
